<svg width="24" height="25" viewBox="0 0 24 25" fill="none" xmlns="http://www.w3.org/2000/svg">
<g clip-path="url(#clip0_9_14)">
<path d="M8.00006 24.5C10.2081 24.5 12.0001 22.708 12.0001 20.5V16.4999H8.00006C5.79205 16.4999 4 18.292 4 20.5C4 22.708 5.79205 24.5 8.00006 24.5Z" fill="#0ACF83"/>
<path d="M4 12.5C4 10.292 5.79205 8.49994 8.00006 8.49994H12.0001V16.4999H8.00006C5.79205 16.5 4 14.708 4 12.5Z" fill="#A259FF"/>
<path d="M4 4.50003C4 2.29203 5.79205 0.5 8.00006 0.5H12.0001V8.49997H8.00006C5.79205 8.49997 4 6.70803 4 4.50003Z" fill="#F24E1E"/>
<path d="M12 0.5H16.0001C18.2081 0.5 20.0001 2.29203 20.0001 4.50003C20.0001 6.70803 18.2081 8.49997 16.0001 8.49997H12V0.5Z" fill="#FF7262"/>
<path d="M20.0001 12.5C20.0001 14.708 18.2081 16.5 16.0001 16.5C13.792 16.5 12 14.708 12 12.5C12 10.292 13.792 8.49994 16.0001 8.49994C18.2081 8.49994 20.0001 10.292 20.0001 12.5Z" fill="#1ABCFE"/>
</g>
<defs>
<clipPath id="clip0_9_14">
<rect width="24" height="24" fill="white" transform="translate(0 0.5)"/>
</clipPath>
</defs>
</svg>
