<svg width="24" height="25" viewBox="0 0 24 25" fill="none" xmlns="http://www.w3.org/2000/svg">
<path d="M12.0009 0.5C8.74184 0.5 8.33284 0.51425 7.05282 0.5725C5.77531 0.631 4.9033 0.83325 4.14029 1.13C3.35104 1.4365 2.68153 1.8465 2.01452 2.51375C1.34701 3.18075 0.93701 3.85025 0.629506 4.63925C0.332003 5.4025 0.129501 6.27475 0.0720008 7.55175C0.0150002 8.83175 0 9.241 0 12.5C0 15.759 0.0145004 16.1668 0.072501 17.4468C0.131252 18.7243 0.333504 19.5963 0.630007 20.3593C0.93676 21.1485 1.34676 21.818 2.01402 22.485C2.68078 23.1525 3.35029 23.5635 4.13904 23.87C4.90255 24.1668 5.77481 24.369 7.05207 24.4275C8.33209 24.4858 8.74084 24.5 11.9996 24.5C15.2589 24.5 15.6667 24.4858 16.9467 24.4275C18.2242 24.369 19.0972 24.1668 19.8607 23.87C20.6497 23.5635 21.3182 23.1525 21.985 22.485C22.6525 21.818 23.0625 21.1485 23.37 20.3595C23.665 19.5963 23.8675 18.724 23.9275 17.447C23.985 16.167 24 15.759 24 12.5C24 9.241 23.985 8.832 23.9275 7.552C23.8675 6.2745 23.665 5.4025 23.37 4.6395C23.0625 3.85025 22.6525 3.18075 21.985 2.51375C21.3175 1.84625 20.65 1.43625 19.86 1.13C19.095 0.83325 18.2224 0.631 16.9449 0.5725C15.6649 0.51425 15.2574 0.5 11.9974 0.5H12.0009ZM10.9244 2.6625C11.2439 2.662 11.6004 2.6625 12.0009 2.6625C15.2049 2.6625 15.5847 2.674 16.8499 2.7315C18.0199 2.785 18.6549 2.9805 19.0779 3.14475C19.638 3.36225 20.0372 3.62225 20.457 4.04225C20.877 4.46225 21.137 4.86225 21.355 5.42225C21.5192 5.84475 21.715 6.47975 21.7682 7.64975C21.8257 8.91475 21.8382 9.29475 21.8382 12.4972C21.8382 15.6997 21.8257 16.0798 21.7682 17.3448C21.7147 18.5147 21.5192 19.1498 21.355 19.5723C21.1375 20.1323 20.877 20.531 20.457 20.9508C20.037 21.3708 19.6382 21.6308 19.0779 21.8482C18.6554 22.0133 18.0199 22.2082 16.8499 22.2617C15.5849 22.3192 15.2049 22.3318 12.0009 22.3318C8.79659 22.3318 8.41684 22.3192 7.15182 22.2617C5.98181 22.2077 5.34681 22.0123 4.92355 21.848C4.36355 21.6305 3.96354 21.3705 3.54354 20.9505C3.12353 20.5305 2.86353 20.1315 2.64553 19.5713C2.48128 19.1488 2.28552 18.5138 2.23227 17.3438C2.17477 16.0788 2.16327 15.6988 2.16327 12.4943C2.16327 9.28975 2.17477 8.91175 2.23227 7.64675C2.28577 6.47675 2.48128 5.84175 2.64553 5.41875C2.86303 4.85875 3.12353 4.45875 3.54354 4.03875C3.96354 3.61875 4.36355 3.35875 4.92355 3.14075C5.34656 2.97575 5.98181 2.78075 7.15182 2.727C8.25884 2.677 8.68784 2.662 10.9244 2.6595V2.6625Z" fill="url(#paint0_radial_18_40)"/>
<path d="M18.3806 4.62552C18.0958 4.62552 17.8174 4.70999 17.5806 4.86824C17.3437 5.02649 17.1592 5.25142 17.0502 5.51457C16.9412 5.77773 16.9127 6.06729 16.9683 6.34664C17.0239 6.62598 17.1611 6.88257 17.3626 7.08393C17.564 7.2853 17.8206 7.42241 18.1 7.47791C18.3794 7.53342 18.6689 7.50483 18.9321 7.39577C19.1952 7.2867 19.42 7.10205 19.5782 6.86518C19.7364 6.62831 19.8208 6.34985 19.8207 6.06502C19.8207 5.27002 19.1756 4.62502 18.3806 4.62502V4.62552Z" fill="url(#paint1_radial_18_40)"/>
<path fill-rule="evenodd" clip-rule="evenodd" d="M11.9751 6.30802C8.57178 6.30802 5.81251 9.06727 5.81251 12.4705C5.81251 15.8738 8.57178 18.6318 11.9751 18.6318C15.3784 18.6318 18.1369 15.8738 18.1369 12.4705C18.1369 9.06727 15.3784 6.30802 11.9751 6.30802ZM12 16.4375C14.1746 16.4375 15.9375 14.6746 15.9375 12.5C15.9375 10.3254 14.1746 8.56252 12 8.56252C9.82538 8.56252 8.06251 10.3254 8.06251 12.5C8.06251 14.6746 9.82538 16.4375 12 16.4375Z" fill="url(#paint2_radial_18_40)"/>
<path d="M12.0009 0.5C8.74184 0.5 8.33284 0.51425 7.05282 0.5725C5.77531 0.631 4.9033 0.83325 4.14029 1.13C3.35104 1.4365 2.68153 1.8465 2.01452 2.51375C1.34701 3.18075 0.93701 3.85025 0.629506 4.63925C0.332003 5.4025 0.129501 6.27475 0.0720008 7.55175C0.0150002 8.83175 0 9.241 0 12.5C0 15.759 0.0145004 16.1668 0.072501 17.4468C0.131252 18.7243 0.333504 19.5963 0.630007 20.3593C0.93676 21.1485 1.34676 21.818 2.01402 22.485C2.68078 23.1525 3.35029 23.5635 4.13904 23.87C4.90255 24.1668 5.77481 24.369 7.05207 24.4275C8.33209 24.4858 8.74084 24.5 11.9996 24.5C15.2589 24.5 15.6667 24.4858 16.9467 24.4275C18.2242 24.369 19.0972 24.1668 19.8607 23.87C20.6497 23.5635 21.3182 23.1525 21.985 22.485C22.6525 21.818 23.0625 21.1485 23.37 20.3595C23.665 19.5963 23.8675 18.724 23.9275 17.447C23.985 16.167 24 15.759 24 12.5C24 9.241 23.985 8.832 23.9275 7.552C23.8675 6.2745 23.665 5.4025 23.37 4.6395C23.0625 3.85025 22.6525 3.18075 21.985 2.51375C21.3175 1.84625 20.65 1.43625 19.86 1.13C19.095 0.83325 18.2224 0.631 16.9449 0.5725C15.6649 0.51425 15.2574 0.5 11.9974 0.5H12.0009ZM10.9244 2.6625C11.2439 2.662 11.6004 2.6625 12.0009 2.6625C15.2049 2.6625 15.5847 2.674 16.8499 2.7315C18.0199 2.785 18.6549 2.9805 19.0779 3.14475C19.638 3.36225 20.0372 3.62225 20.457 4.04225C20.877 4.46225 21.137 4.86225 21.355 5.42225C21.5192 5.84475 21.715 6.47975 21.7682 7.64975C21.8257 8.91475 21.8382 9.29475 21.8382 12.4972C21.8382 15.6997 21.8257 16.0798 21.7682 17.3448C21.7147 18.5147 21.5192 19.1498 21.355 19.5723C21.1375 20.1323 20.877 20.531 20.457 20.9508C20.037 21.3708 19.6382 21.6308 19.0779 21.8482C18.6554 22.0133 18.0199 22.2082 16.8499 22.2617C15.5849 22.3192 15.2049 22.3318 12.0009 22.3318C8.79659 22.3318 8.41684 22.3192 7.15182 22.2617C5.98181 22.2077 5.34681 22.0123 4.92355 21.848C4.36355 21.6305 3.96354 21.3705 3.54354 20.9505C3.12353 20.5305 2.86353 20.1315 2.64553 19.5713C2.48128 19.1488 2.28552 18.5138 2.23227 17.3438C2.17477 16.0788 2.16327 15.6988 2.16327 12.4943C2.16327 9.28975 2.17477 8.91175 2.23227 7.64675C2.28577 6.47675 2.48128 5.84175 2.64553 5.41875C2.86303 4.85875 3.12353 4.45875 3.54354 4.03875C3.96354 3.61875 4.36355 3.35875 4.92355 3.14075C5.34656 2.97575 5.98181 2.78075 7.15182 2.727C8.25884 2.677 8.68784 2.662 10.9244 2.6595V2.6625Z" fill="url(#paint3_radial_18_40)"/>
<path d="M18.3806 4.62552C18.0958 4.62552 17.8174 4.70999 17.5806 4.86824C17.3437 5.02649 17.1592 5.25142 17.0502 5.51457C16.9412 5.77773 16.9127 6.06729 16.9683 6.34664C17.0239 6.62598 17.1611 6.88257 17.3626 7.08393C17.564 7.2853 17.8206 7.42241 18.1 7.47791C18.3794 7.53342 18.6689 7.50483 18.9321 7.39577C19.1952 7.2867 19.42 7.10205 19.5782 6.86518C19.7364 6.62831 19.8208 6.34985 19.8207 6.06502C19.8207 5.27002 19.1756 4.62502 18.3806 4.62502V4.62552Z" fill="url(#paint4_radial_18_40)"/>
<path fill-rule="evenodd" clip-rule="evenodd" d="M11.9751 6.30802C8.57178 6.30802 5.81251 9.06727 5.81251 12.4705C5.81251 15.8738 8.57178 18.6318 11.9751 18.6318C15.3784 18.6318 18.1369 15.8738 18.1369 12.4705C18.1369 9.06727 15.3784 6.30802 11.9751 6.30802ZM12 16.4375C14.1746 16.4375 15.9375 14.6746 15.9375 12.5C15.9375 10.3254 14.1746 8.56252 12 8.56252C9.82538 8.56252 8.06251 10.3254 8.06251 12.5C8.06251 14.6746 9.82538 16.4375 12 16.4375Z" fill="url(#paint5_radial_18_40)"/>
<defs>
<radialGradient id="paint0_radial_18_40" cx="0" cy="0" r="1" gradientUnits="userSpaceOnUse" gradientTransform="translate(6.37503 26.3485) rotate(-90) scale(23.7858 22.1226)">
<stop stop-color="#FFDD55"/>
<stop offset="0.1" stop-color="#FFDD55"/>
<stop offset="0.5" stop-color="#FF543E"/>
<stop offset="1" stop-color="#C837AB"/>
</radialGradient>
<radialGradient id="paint1_radial_18_40" cx="0" cy="0" r="1" gradientUnits="userSpaceOnUse" gradientTransform="translate(6.37503 26.3485) rotate(-90) scale(23.7858 22.1226)">
<stop stop-color="#FFDD55"/>
<stop offset="0.1" stop-color="#FFDD55"/>
<stop offset="0.5" stop-color="#FF543E"/>
<stop offset="1" stop-color="#C837AB"/>
</radialGradient>
<radialGradient id="paint2_radial_18_40" cx="0" cy="0" r="1" gradientUnits="userSpaceOnUse" gradientTransform="translate(6.37503 26.3485) rotate(-90) scale(23.7858 22.1226)">
<stop stop-color="#FFDD55"/>
<stop offset="0.1" stop-color="#FFDD55"/>
<stop offset="0.5" stop-color="#FF543E"/>
<stop offset="1" stop-color="#C837AB"/>
</radialGradient>
<radialGradient id="paint3_radial_18_40" cx="0" cy="0" r="1" gradientUnits="userSpaceOnUse" gradientTransform="translate(-4.02013 2.22892) rotate(78.6806) scale(10.6323 43.827)">
<stop stop-color="#3771C8"/>
<stop offset="0.128" stop-color="#3771C8"/>
<stop offset="1" stop-color="#6600FF" stop-opacity="0"/>
</radialGradient>
<radialGradient id="paint4_radial_18_40" cx="0" cy="0" r="1" gradientUnits="userSpaceOnUse" gradientTransform="translate(-4.02013 2.22892) rotate(78.6806) scale(10.6323 43.827)">
<stop stop-color="#3771C8"/>
<stop offset="0.128" stop-color="#3771C8"/>
<stop offset="1" stop-color="#6600FF" stop-opacity="0"/>
</radialGradient>
<radialGradient id="paint5_radial_18_40" cx="0" cy="0" r="1" gradientUnits="userSpaceOnUse" gradientTransform="translate(-4.02013 2.22892) rotate(78.6806) scale(10.6323 43.827)">
<stop stop-color="#3771C8"/>
<stop offset="0.128" stop-color="#3771C8"/>
<stop offset="1" stop-color="#6600FF" stop-opacity="0"/>
</radialGradient>
</defs>
</svg>
