<svg width="24" height="25" viewBox="0 0 24 25" fill="none" xmlns="http://www.w3.org/2000/svg">
<path d="M12 0.5C5.37273 0.5 0 5.87218 0 12.5C0 19.1278 5.37273 24.5 12 24.5C18.6273 24.5 24 19.1278 24 12.5C24 5.87218 18.6273 0.5 12 0.5ZM17.8545 17.7987C17.6618 18.14 17.3073 18.332 16.9418 18.332C16.7709 18.332 16.5945 18.2893 16.4327 18.1993C14.9345 17.3593 13.3018 16.8447 11.5764 16.67C9.84728 16.4967 8.14 16.6722 6.5 17.1958C5.95273 17.3705 5.36364 17.0682 5.1891 16.52C5.01273 15.9709 5.31637 15.3838 5.86546 15.2082C7.77818 14.5971 9.77272 14.3893 11.7873 14.594C13.7982 14.7987 15.7036 15.3987 17.4527 16.3791C17.9564 16.6595 18.1364 17.2955 17.8545 17.7987ZM19.2909 14.1538C19.1055 14.5107 18.7418 14.7155 18.3655 14.7155C18.2018 14.7155 18.0382 14.678 17.8836 14.5971C16.0418 13.6378 14.0527 13.0438 11.9673 12.8322C9.86545 12.6171 7.78364 12.8045 5.77637 13.3835C5.22182 13.5409 4.64364 13.2238 4.48546 12.6695C4.32546 12.116 4.64545 11.5378 5.19818 11.378C7.46363 10.7247 9.81272 10.5155 12.1782 10.7555C14.5273 10.9947 16.7709 11.6638 18.8491 12.7467C19.3582 13.0131 19.5582 13.6429 19.2909 14.1538ZM19.8109 11.1215C19.6545 11.1215 19.4964 11.0862 19.3455 11.012C17.16 9.92218 14.8091 9.24345 12.3564 8.99455C9.89999 8.74327 7.45636 8.93746 5.09091 9.56909C4.53455 9.71673 3.96363 9.38673 3.81454 8.82945C3.66545 8.27291 3.99637 7.70073 4.55455 7.55218C7.16365 6.85546 9.86182 6.64327 12.5691 6.91855C15.2727 7.19218 17.8655 7.94145 20.2764 9.14382C20.7927 9.40091 21.0018 10.028 20.7455 10.5433C20.5636 10.91 20.1945 11.1215 19.8109 11.1215Z" fill="#1ED760"/>
</svg>
