<svg width="24" height="25" viewBox="0 0 24 25" fill="none" xmlns="http://www.w3.org/2000/svg">
<path d="M7.54752 22.2507C16.6042 22.2507 21.5578 14.7473 21.5578 8.24046C21.5578 8.02734 21.5578 7.81518 21.5434 7.60398C22.507 6.90693 23.3389 6.04386 24 5.05518C23.1014 5.45358 22.148 5.71473 21.1718 5.8299C22.1998 5.21459 22.9692 4.24668 23.3366 3.10638C22.3701 3.67999 21.3126 4.08421 20.2099 4.30158C19.4675 3.51216 18.4856 2.98942 17.4162 2.81426C16.3468 2.63911 15.2494 2.82129 14.294 3.33263C13.3385 3.84397 12.5782 4.65595 12.1307 5.64293C11.6833 6.6299 11.5735 7.73684 11.8186 8.79246C9.8609 8.69426 7.94576 8.18549 6.19745 7.29918C4.44915 6.41288 2.90676 5.16884 1.6704 3.64782C1.04073 4.73181 0.847872 6.01505 1.1311 7.23624C1.41433 8.45744 2.15234 9.52477 3.19488 10.2209C2.41123 10.198 1.64465 9.98657 0.96 9.60462V9.66702C0.960311 10.8039 1.35385 11.9056 2.07387 12.7854C2.79389 13.6652 3.79606 14.2688 4.9104 14.4939C4.18548 14.6916 3.42487 14.7205 2.68704 14.5784C3.00181 15.5567 3.61443 16.4122 4.43924 17.0253C5.26405 17.6384 6.25983 17.9785 7.28736 17.9979C6.26644 18.8004 5.09731 19.3937 3.84687 19.7439C2.59643 20.0941 1.28921 20.1943 0 20.0389C2.25183 21.4839 4.87192 22.2504 7.54752 22.2469" fill="#1DA1F2"/>
</svg>
