<svg width="238" height="164" viewBox="0 0 238 164" fill="none" xmlns="http://www.w3.org/2000/svg">
<path d="M116.525 101.197C120.35 105.051 118.809 111.607 117.998 116.244C116.64 124.018 113.389 131.556 108.603 138.165C100.915 148.779 89.3299 156.412 76.1667 160.567C78.4487 160.754 80.7326 160.941 83.0164 161.128C85.0457 161.294 85.1107 164.088 83.0164 163.998C77.2066 163.745 71.395 163.486 65.5834 163.225C64.1571 163.16 63.4946 161.709 64.4442 160.765C69.4 155.83 74.3216 150.861 79.3442 145.978C80.7163 144.643 82.8792 146.609 81.5594 147.956C77.8602 151.734 74.1013 155.468 70.3461 159.201C82.6463 156.251 93.7044 150.435 102.024 141.652C107.14 136.251 111.015 130.007 113.477 123.285C115.434 117.941 119.514 106.91 115.349 102.005C114.837 101.403 115.965 100.632 116.525 101.197Z" fill="#040606"/>
<path d="M14.9316 54.9091C13.8005 54.212 12.8795 53.2462 12.1687 52.0118C11.4883 50.7871 11.1521 49.6387 11.1599 48.5667C11.2441 48.1571 11.3483 47.6196 11.4726 46.9541C11.6273 46.2984 11.784 45.6937 11.9428 45.14C12.132 44.5961 12.2703 44.2877 12.3578 44.2149C12.4669 44.1826 12.5655 44.0126 12.6537 43.705C12.6585 43.5722 12.731 43.3772 12.8714 43.1198C13.051 42.8414 13.2307 42.563 13.4103 42.2846C13.6686 41.9642 13.8286 41.6963 13.8903 41.481C13.9608 41.2349 13.9985 41.0454 14.0033 40.9127C14.0033 40.9127 14.0755 40.835 14.2199 40.6796C14.373 40.4935 14.5282 40.3584 14.6854 40.2743C14.9213 40.1482 15.0504 39.988 15.0728 39.7937C15.1257 39.6091 15.1522 39.5168 15.1522 39.5168C15.157 39.3841 15.236 39.2246 15.3892 39.0385C15.5423 38.8524 15.6823 38.7124 15.809 38.6186C15.8876 38.5765 15.9991 38.4779 16.1435 38.3225C16.3271 38.1461 16.419 38.0579 16.419 38.0579C16.4454 37.9657 16.577 37.7391 16.8135 37.3781C17.0806 37.0269 17.3717 36.6498 17.6869 36.2468C18.0109 35.8131 18.3065 35.4206 18.5735 35.0694C18.8711 34.728 19.0832 34.5103 19.2099 34.4165L19.2364 34.3242C19.4465 34.0556 19.7068 33.7861 20.0172 33.5159C20.0917 33.3719 20.2385 33.1501 20.4574 32.8507C20.6852 32.5205 20.9238 32.2106 21.1732 31.9209C21.7202 31.2898 22.3698 30.5907 23.1221 29.8237C23.9137 29.0357 24.7314 28.2728 25.5752 27.535C26.4277 26.7664 27.219 26.0958 27.9488 25.5231C28.718 24.9293 29.3536 24.5112 29.8557 24.2687C30.5415 23.8498 31.0412 23.6736 31.3549 23.7402C31.6685 23.8069 31.9878 24.1439 32.3127 24.7514C32.4644 25.0349 32.5418 25.345 32.5451 25.6818C32.5483 26.0187 32.4994 26.3053 32.3984 26.5416C32.3367 26.7569 32.2404 26.8605 32.1097 26.8523C31.861 26.9072 31.4395 27.1587 30.8452 27.6068C30.2597 28.0242 29.5824 28.5297 28.8132 29.1234C28.0745 29.7269 27.327 30.3611 26.5707 31.0261C25.8536 31.6701 25.2196 32.2566 24.6686 32.7858C24.0166 33.5512 23.4259 34.2188 22.8966 34.7884C22.3761 35.3272 22.1158 35.5967 22.1158 35.5967C22.0589 35.6792 22.0063 35.7464 21.9582 35.7982C21.9101 35.8499 21.862 35.9017 21.8139 35.9535C21.0832 36.761 20.4508 37.516 19.9167 38.2184C19.3914 38.89 18.8528 39.6078 18.3011 40.3717C18.0564 40.5286 17.888 40.7098 17.7958 40.9154C17.7036 41.121 17.6575 41.2238 17.6575 41.2238C17.6053 41.1736 17.5376 41.2359 17.4542 41.4107C17.3796 41.5547 17.2657 41.7198 17.1125 41.9059C16.9248 41.9803 16.776 42.151 16.6662 42.4181C16.5652 42.6545 16.4794 42.8957 16.4088 43.1418C16.0367 43.6273 15.6445 44.2407 15.2323 44.9821C14.8289 45.6927 14.4757 46.4025 14.1726 47.1115C13.9087 47.7996 13.7348 48.3484 13.6506 48.758C13.5616 49.3004 13.684 49.86 14.0178 50.4367C14.3908 50.9924 14.873 51.5158 15.4642 52.0069C15.7643 52.237 16.023 52.4372 16.2404 52.6074C16.4666 52.7468 16.6864 52.8506 16.8998 52.9188C17.1348 53.0274 17.4396 53.1248 17.8142 53.2109C18.2281 53.276 18.788 53.3541 19.4939 53.4453L19.4482 53.4307C19.8621 53.4958 20.2957 53.5503 20.7489 53.5944C21.2414 53.6174 21.699 53.6461 22.1217 53.6804C22.5052 53.7357 22.8734 53.7862 23.2263 53.8318C23.5881 53.8466 23.8692 53.8525 24.0698 53.8494C24.7933 53.8791 25.3163 53.9118 25.6387 53.9477C25.97 53.9528 26.1942 54.0412 26.3114 54.2129C26.4285 54.3847 26.4911 54.5726 26.4991 54.7766C26.516 54.9499 26.439 55.1603 26.2682 55.408C26.1631 55.5423 25.8531 55.6951 25.3382 55.8664C24.8321 56.0069 24.2345 56.1182 23.5455 56.2003C22.8869 56.2921 22.2416 56.3378 21.6095 56.3373C20.9205 56.4194 20.1272 56.401 19.2296 56.2822C18.3625 56.173 17.5326 55.9919 16.7401 55.7387C15.978 55.4952 15.3752 55.2187 14.9316 54.9091ZM29.0537 55.6934C29.0023 55.4084 28.9028 55.1751 28.7552 54.9936C28.6164 54.7814 28.5646 54.6138 28.5999 54.4907C28.6352 54.3677 28.6552 54.2398 28.66 54.107C28.7041 53.9532 28.6828 53.7953 28.5962 53.6333C28.4967 53.4001 28.631 52.9897 28.9991 52.4021C29.376 51.7838 29.9146 51.066 30.6147 50.2488C31.3237 49.4008 32.1221 48.531 33.01 47.6394C33.3244 47.4712 33.6608 47.2261 34.0193 46.9041C34.3779 46.5821 34.6357 46.3791 34.7929 46.295C34.8282 46.172 34.9048 46.0789 35.0227 46.0158C35.1494 45.922 35.2737 45.8946 35.3957 45.9335L35.4751 45.6567C35.5192 45.5029 35.7313 45.2852 36.1115 45.0037C36.5221 44.732 37.0026 44.449 37.5528 44.1546C38.1118 43.8296 38.6773 43.5401 39.2492 43.2863C39.8299 43.0017 40.2991 42.8158 40.6569 42.7287C41.4205 42.5025 42.1508 42.4504 42.8479 42.5724C43.5754 42.7041 44.1257 43.0477 44.4988 43.6034C44.5638 43.7249 44.6721 43.9274 44.8237 44.2109C44.9754 44.4944 45.1487 44.8184 45.3436 45.1829C45.5779 45.5264 45.8078 45.8852 46.0332 46.2594L47.2884 48.3225L45.8039 50.3667C45.0549 51.4705 44.6395 52.513 44.5578 53.4943C44.5066 54.4853 44.5821 55.3824 44.7844 56.1857C44.8398 56.5728 45.052 56.9932 45.421 57.4468C45.8205 57.9103 46.2249 58.2409 46.634 58.4387C46.869 58.5474 47.0712 58.7127 47.2404 58.9347C47.4097 59.1567 47.4459 59.4368 47.3488 59.7752C47.2606 60.0828 47.1291 60.3094 46.9543 60.455C46.7794 60.6006 46.5308 60.6555 46.2083 60.6197C45.1671 60.4213 44.2927 59.8734 43.5851 58.9758C42.908 58.0879 42.4065 56.8196 42.0806 55.1709C42.0116 54.9474 41.941 54.5555 41.8687 53.9951C41.8358 53.4138 41.8261 53.0413 41.8397 52.8778C41.6737 52.9926 41.3613 53.2118 40.9025 53.5353C40.4525 53.8281 40.1097 54.0376 39.8738 54.1637C37.0746 55.6871 34.7722 56.5801 32.9666 56.8427C31.2004 57.0843 29.896 56.7012 29.0537 55.6934ZM31.4405 53.6354C31.3788 53.8507 31.6989 53.9529 32.4007 53.9421C33.1419 53.9103 33.9817 53.7085 34.9202 53.3367C36.2123 52.7757 37.531 52.1225 38.876 51.3769C40.2516 50.6412 41.3917 49.9141 42.2964 49.1958L43.7786 47.8561C43.6766 47.0512 43.478 46.4673 43.1828 46.1043C42.9269 45.7204 42.677 45.4894 42.4331 45.4115C42.0369 45.2849 41.3366 45.4642 40.3324 45.9492C39.3587 46.4441 38.2534 47.1655 37.0167 48.1135C35.7799 49.0615 34.5536 50.1472 33.3377 51.3705C32.8565 51.8883 32.4102 52.4005 31.9987 52.9071C31.6266 53.3926 31.4405 53.6354 31.4405 53.6354ZM50.626 64.0456C50.3083 63.877 50.0063 63.5958 49.7199 63.2021C49.4727 62.7874 49.2649 62.3516 49.0964 61.8949C48.9672 61.4171 48.901 61.0098 48.8977 60.673C48.9154 60.6114 48.8917 60.5199 48.8267 60.3984C48.7922 60.2867 48.775 60.2308 48.775 60.2308C48.6795 60.0996 48.7179 59.6753 48.8903 58.9581C49.102 58.2198 49.3814 57.4193 49.7286 56.5564C50.0758 55.6936 50.3854 55.0202 50.6572 54.5362C50.9508 54.0927 51.369 53.5044 51.9119 52.7713C52.4637 52.0073 52.9433 51.3211 53.3507 50.7125L55.3525 48.4307L53.6691 47.3389C53.4734 47.2092 53.3258 47.0277 53.2263 46.7945C53.1573 46.571 53.1404 46.3977 53.1757 46.2747C53.2462 46.0286 53.4672 45.7802 53.8385 45.5294C54.2187 45.248 54.4698 45.1267 54.5917 45.1656C54.7353 45.2451 55.0052 45.3481 55.4015 45.4747C55.8282 45.611 56.2442 45.7271 56.6493 45.823C57.0543 45.9188 57.307 45.9659 57.4073 45.9644C57.5469 45.9418 57.6908 45.9039 57.8392 45.8505C57.9964 45.7664 58.1364 45.6265 58.2591 45.4306C58.5085 45.1409 58.7339 44.8772 58.9352 44.6393C59.1453 44.3706 59.41 44.0858 59.7292 43.7848C60.0572 43.4531 60.3219 43.1683 60.5232 42.9304C60.755 42.7023 61.0938 42.3908 61.5398 41.996C61.7539 41.8294 61.9965 41.6215 62.2676 41.3723C62.5387 41.1231 62.8423 40.9347 63.1784 40.807C63.5233 40.6485 63.8285 40.6285 64.094 40.7469C64.3988 40.8443 64.7225 41.166 65.0651 41.7119C65.2208 42.0974 65.2918 42.372 65.2782 42.5355C65.2646 42.6991 65.0589 42.9523 64.661 43.2953C64.2672 43.7404 63.8277 44.1708 63.3425 44.5866C62.8877 45.0121 62.4482 45.4426 62.024 45.8779C61.3422 46.3988 61.1405 46.7541 61.4189 46.9437C61.6972 47.1334 62.5684 47.3445 64.0323 47.5772C64.9604 47.7058 65.5873 47.9564 65.913 48.3291C66.2475 48.671 66.3703 49.1132 66.2814 49.6556C66.1611 50.423 65.9571 50.8447 65.6691 50.9206C65.3811 50.9965 64.658 50.8494 63.4997 50.4794C62.7328 50.3687 62.0859 50.246 61.5589 50.1112C61.0407 49.9457 60.6596 49.824 60.4158 49.746C60.0107 49.6502 59.7472 49.5828 59.6252 49.5439C59.5033 49.5049 59.3116 49.4773 59.0501 49.4609C58.7886 49.4445 58.5748 49.4937 58.4088 49.6086C58.2821 49.7024 58.1225 49.8529 57.93 50.06C57.7728 50.1441 57.4973 50.4087 57.1035 50.8537C56.7097 51.2987 56.2417 51.7704 55.6996 52.2688C54.9024 53.4244 54.1662 54.5995 53.4909 55.794C52.8245 56.9578 52.2279 58.1104 51.701 59.2516C51.3586 59.9817 51.2195 60.5248 51.2837 60.8811C51.3568 61.2067 51.7045 61.5025 52.327 61.7685C52.6535 61.9064 53.1869 62.0768 53.9273 62.2797C54.707 62.4616 55.3279 62.5593 55.7899 62.5725C56.1693 62.5259 56.564 62.484 56.9739 62.4471C57.3926 62.3794 57.7808 62.3019 58.1385 62.2148C58.457 62.1486 58.7754 62.0824 59.0938 62.0163C59.4211 61.9194 59.5847 61.8709 59.5847 61.8709C59.8077 61.6735 59.9974 61.6502 60.1538 61.8009C60.3103 61.9516 60.3965 62.231 60.4126 62.639C60.3068 63.0082 60.1203 63.3683 59.8533 63.7195C59.5862 64.0707 58.8856 64.3674 57.7514 64.6094C56.1327 65.0325 54.7178 65.1513 53.5066 64.9659C52.3346 64.7594 51.3744 64.4526 50.626 64.0456ZM65.1125 69.1772C63.7712 68.7487 62.8194 67.8906 62.2569 66.6028C61.7033 65.2843 61.6622 63.8609 62.1337 62.3326C62.5121 61.2447 63.065 60.1286 63.7924 58.9843C64.5591 57.8189 65.4301 56.754 66.4054 55.7896C67.3895 54.7945 68.3904 53.9726 69.4082 53.324C70.4261 52.6753 71.3994 52.2979 72.3283 52.1917C72.6772 52.1353 73.0325 52.1145 73.3943 52.1294C73.7865 52.1539 74.1656 52.2246 74.5313 52.3415C74.8666 52.4486 75.1996 52.6221 75.5301 52.862C75.8694 53.0712 76.1433 53.2762 76.3519 53.4772C76.8084 53.858 77.1297 54.2461 77.3158 54.6413C77.502 55.0366 77.6091 55.5913 77.6373 56.3054C77.5612 56.9191 77.4878 57.349 77.4173 57.595C77.3467 57.8411 77.1647 58.1859 76.8712 58.6294C76.1879 59.6199 75.442 60.4226 74.6335 61.0373C73.8251 61.6521 72.8537 62.0805 71.7195 62.3226C71.4316 62.3985 71.1067 62.429 70.745 62.4141C70.4225 62.3783 70.0936 62.3068 69.7583 62.1997C69.1487 62.0049 68.5851 61.7074 68.0677 61.307C67.5896 60.8857 67.249 60.3907 67.046 59.8222L66.8318 59.3508L66.5888 59.6761C66.0458 60.4093 65.5815 61.1004 65.1957 61.7494C64.8405 62.4083 64.579 63.0299 64.4115 63.6143C64.3056 63.9835 64.2347 64.3469 64.1987 64.7048C64.1931 65.0724 64.2312 65.4035 64.3131 65.6983C64.3821 65.9218 64.5405 66.1236 64.7884 66.3035C65.0756 66.4624 65.3869 66.5954 65.7222 66.7025C65.9355 66.7707 66.1489 66.8388 66.3623 66.907C66.615 66.9542 66.8612 66.9657 67.1011 66.9415C67.6722 66.9225 68.141 66.854 68.5076 66.7361C68.9046 66.6279 69.3061 66.5043 69.7119 66.3653L69.9213 66.3315L69.8756 66.3169C70.2943 66.2492 70.6672 66.1669 70.9945 66.0699C71.3522 65.9828 71.5311 65.9392 71.5311 65.9392C71.653 65.9781 71.797 65.9402 71.963 65.8253C72.2422 65.7802 72.5338 65.9237 72.8378 66.2559C73.1724 66.5978 73.2911 66.9379 73.1941 67.2763C73.1195 67.4204 72.9118 67.6226 72.5709 67.8831C72.2389 68.1128 71.8807 68.3174 71.4965 68.4968C71.1428 68.6861 70.8701 68.7668 70.6784 68.7392C70.6391 68.7602 70.5148 68.7876 70.3054 68.8215C70.1049 68.8246 69.9653 68.8471 69.8867 68.8892L69.9324 68.9038C69.5523 69.1853 69.225 69.2822 68.9507 69.1945L68.5849 69.0777C68.4012 69.2541 67.9344 69.3736 67.1844 69.4362C66.4432 69.468 65.7526 69.3817 65.1125 69.1772ZM70.0804 59.6835C70.6291 59.8588 71.1457 59.8559 71.6302 59.6749C72.1539 59.4729 72.6256 59.2206 73.045 58.9181C73.8928 58.2823 74.4727 57.5945 74.7846 56.8547C75.1358 56.0939 75.2031 55.511 74.9865 55.106C74.8301 54.9553 74.6756 54.8556 74.5232 54.8069C74.4101 54.7372 74.1378 54.7006 73.7063 54.697C73.4143 54.6709 72.9671 54.7799 72.3647 55.024C71.7624 55.268 71.1468 55.5583 70.5179 55.8946C69.9196 56.2407 69.45 56.544 69.1091 56.8045L68.2369 57.5835C68.5072 57.5692 68.749 57.596 68.9624 57.6642C69.2151 57.7114 69.3479 57.7706 69.3607 57.8418C69.2813 58.1187 69.2521 58.3947 69.273 58.67C69.3332 58.9243 69.4218 59.1373 69.539 59.309C69.6866 59.4905 69.8671 59.6153 70.0804 59.6835ZM78.799 72.9452C78.0193 72.7632 77.301 72.4834 76.644 72.1056C76.0175 71.7376 75.5133 71.2911 75.1314 70.7661C74.7888 70.2202 74.6055 69.6411 74.5813 69.029C74.4914 68.5302 74.4685 68.2039 74.5126 68.0501C74.5655 67.8655 74.7163 67.7458 74.965 67.6909C75.2088 67.7688 75.4002 67.9139 75.539 68.1261C75.7171 68.3173 75.9517 68.5434 76.2429 68.8043C76.5855 69.3503 77.0724 69.7409 77.7037 69.9761C78.3655 70.2211 79.0061 70.3082 79.6253 70.2374C80.2445 70.1666 80.6375 69.9564 80.8043 69.6068C80.8396 69.4837 80.8556 69.2538 80.8524 68.917C80.8491 68.5801 80.8351 68.2231 80.8101 67.8458C80.3223 66.4139 80.0433 65.0656 79.9734 63.8009C79.9427 62.5151 80.0333 61.5031 80.2449 60.7649C80.4037 60.2112 80.7389 59.6803 81.2506 59.1722C81.7711 58.6334 82.3827 58.2411 83.0853 57.9955C83.8016 57.5863 84.5612 57.2581 85.3641 57.011C86.167 56.7638 86.9522 56.5781 87.7199 56.454C88.518 56.3396 89.2134 56.2932 89.8062 56.3146C90.1415 56.4218 90.5703 56.6091 91.0925 56.8767C91.6147 57.1442 91.9649 57.3736 92.143 57.5648C92.443 57.795 92.666 58.2356 92.8121 58.8867C92.967 59.507 92.9695 60.0786 92.8195 60.6015C92.7578 60.8169 92.6175 61.0742 92.3985 61.3736C92.1796 61.6731 91.8668 62.0097 91.4602 62.3834C91.2412 62.6828 91.0114 62.962 90.7708 63.2209C90.539 63.4491 90.4055 63.6247 90.3702 63.7477C90.1208 64.0374 89.8589 64.1384 89.5846 64.0508C89.3495 63.9421 89.1301 63.7209 88.9263 63.3872C88.7619 63.0324 88.6563 62.6461 88.6098 62.2283C88.6201 61.728 88.6802 61.3442 88.7901 61.0771C88.9088 60.7793 89.1233 60.4952 89.4337 60.225C89.866 59.9938 90.0998 59.8166 90.1351 59.6936C90.1704 59.5705 90.0204 59.4555 89.685 59.3483C89.4717 59.2802 89.0357 59.292 88.3772 59.3838C87.7579 59.4546 87.0665 59.6031 86.3029 59.8293C85.5786 60.0344 84.9217 60.2946 84.3322 60.61C83.5943 60.9786 83.1291 61.2665 82.9366 61.4737C82.7746 61.6905 82.6186 62.0604 82.4687 62.5834C82.3452 63.014 82.2823 63.5815 82.28 64.2859C82.3082 65.0001 82.3981 65.4989 82.5497 65.7824C82.5497 65.7824 82.5947 66.0318 82.6846 66.5306C82.7833 66.9987 82.9189 67.5121 83.0914 68.0709C83.411 70.322 83.2339 71.81 82.5602 72.535C81.8865 73.2599 80.6328 73.3966 78.799 72.9452ZM92.0779 80.1589C91.1161 79.6838 90.5405 79.0802 90.3511 78.3481C90.1833 77.6565 90.3673 76.7247 90.903 75.5527C91.2534 75.0267 91.5101 74.5379 91.6728 74.0862C91.8749 73.6135 92.1003 73.3497 92.3489 73.2948C92.3489 73.2948 92.3774 73.2536 92.4343 73.171C92.5218 73.0982 92.533 73.0011 92.468 72.8796C92.5826 72.4797 92.8786 71.9698 93.3558 71.35C93.4696 71.1849 93.6076 70.9939 93.7696 70.777C93.9709 70.5391 94.0715 70.4202 94.0715 70.4202C93.9897 70.1254 94.047 69.9255 94.2435 69.8203C94.44 69.7152 94.6321 69.6255 94.8198 69.5511C95.0468 69.4558 95.1106 69.2915 95.0111 69.0582C94.9854 68.9157 95.141 68.6632 95.4778 68.3007C95.8235 67.9075 96.204 67.5086 96.6195 67.104C97.0349 66.6995 97.3281 66.3734 97.4989 66.1258C97.5165 66.0643 97.6545 65.8733 97.9127 65.5529C98.171 65.2324 98.4773 64.8602 98.8318 64.4362C99.1863 64.0122 99.5123 63.6295 99.8099 63.288C100.138 62.9563 100.35 62.7386 100.446 62.6351C100.795 62.5786 100.704 62.432 100.173 62.1952C99.6421 61.9584 99.0673 61.758 98.4488 61.594C97.5127 61.2614 96.7639 60.9718 96.2024 60.7252C95.6713 60.4884 95.2538 60.204 94.9497 59.8718C94.7074 59.3243 94.6584 58.9728 94.8028 58.8175C94.9865 58.6411 95.3875 58.6349 96.006 58.7989C96.4111 58.8948 96.7203 58.9768 96.9337 59.0449C97.1776 59.1228 97.4868 59.2048 97.8614 59.2909C98.2753 59.356 98.907 59.4739 99.7565 59.6445L102.141 60.2049L102.503 59.4643C102.862 59.1423 103.161 58.8519 103.402 58.593C103.682 58.313 103.931 58.0233 104.15 57.7239C104.369 57.4245 104.562 57.1 104.729 56.7503C104.729 56.7503 104.937 56.5481 105.352 56.1435C105.776 55.7083 106.098 55.2235 106.318 54.6893C106.86 54.1909 107.339 53.7395 107.755 53.335C108.179 52.8997 108.439 52.6302 108.535 52.5267C108.95 52.3569 109.218 52.2916 109.34 52.3305C109.493 52.3792 109.753 52.6304 110.122 53.0841C110.353 53.3255 110.544 53.588 110.695 53.8715C110.847 54.155 110.918 54.4295 110.908 54.695C110.908 54.9298 110.754 55.116 110.449 55.2534C110.353 55.3569 110.195 55.5584 109.976 55.8578C109.766 56.1265 109.599 56.3587 109.477 56.5546C109.232 56.7115 108.902 56.9922 108.487 57.3967C108.11 57.7802 107.806 58.2035 107.574 58.6664C107.18 59.1115 106.814 59.5152 106.478 59.8777C106.15 60.2094 105.925 60.3558 105.803 60.3168C105.775 60.6439 105.914 60.8562 106.219 60.9535C106.533 61.0202 107.044 61.1501 107.754 61.3433C108.351 61.4668 108.765 61.5319 108.996 61.5385C109.266 61.5241 109.532 61.6425 109.793 61.8937C109.883 62.1577 109.935 62.4428 109.947 62.7488C109.959 63.0549 109.899 63.3212 109.768 63.5478C109.675 63.7534 109.509 63.8683 109.27 63.8924C109.117 63.8437 108.771 63.8337 108.23 63.8625C107.729 63.8702 107.123 63.7775 106.413 63.5843L103.924 63.0408L102.697 64.3613C102.368 64.693 102.08 65.0037 101.83 65.2934C101.59 65.5523 101.43 65.7028 101.352 65.7448C101.299 65.9294 101.113 66.1721 100.793 66.4731C100.505 66.7838 100.192 67.1204 99.8549 67.4829C99.5221 67.9474 99.172 68.356 98.8047 68.7087C98.4679 69.0712 98.2994 69.2525 98.2994 69.2525C98.1775 69.2135 98.0901 69.2863 98.0372 69.4709C98.0837 69.8887 97.9586 70.1509 97.6619 70.2576C97.483 70.3012 97.3061 70.3958 97.1313 70.5414C96.9958 70.666 96.928 70.7283 96.928 70.7283C97.0146 70.8903 96.9858 71.049 96.8414 71.2043C96.7275 71.3694 96.5788 71.5401 96.3951 71.7165C96.3245 71.9626 96.1469 72.292 95.8622 72.7047C95.608 73.1272 95.3473 73.514 95.0803 73.8652C94.952 74.4286 94.8811 74.7921 94.8674 74.9556C94.8538 75.1192 94.9124 75.2051 95.0431 75.2132C95.1867 75.2927 95.3239 75.3365 95.4547 75.3447C95.5854 75.3529 95.7117 75.3765 95.8337 75.4154C96.3133 75.3672 95.776 76.3708 94.2218 78.4262C93.5136 79.0394 93.0195 79.486 92.7396 79.7659C92.4509 80.0766 92.2303 80.2076 92.0779 80.1589ZM114.98 85.1584C114.471 84.7273 114.015 84.2291 113.612 83.6636C113.217 83.0674 112.983 82.6066 112.91 82.281C112.99 82.0042 113.088 81.8342 113.206 81.7712C113.333 81.6773 113.605 81.714 114.023 81.8811C114.48 82.0271 115.194 82.3224 116.165 82.7668C116.531 82.8836 116.997 82.9989 117.563 83.1127C118.129 83.2265 118.659 83.2948 119.151 83.3179C119.674 83.3506 119.993 83.2845 120.107 83.1194C120.259 83.1681 120.303 83.1317 120.238 83.0102C120.182 82.8579 120.11 82.7008 120.024 82.5388C119.902 82.4999 119.778 82.4099 119.652 82.2689C119.535 82.0972 119.415 81.9918 119.293 81.9529C119.337 81.7991 119.233 81.5812 118.981 81.2993C118.769 80.9963 118.528 80.7346 118.258 80.5142C117.746 79.7463 117.308 79.0691 116.944 78.4826C116.589 77.8654 116.494 77.4994 116.66 77.3845C116.695 77.2615 116.713 77.1999 116.713 77.1999C116.722 77.1692 116.726 77.1538 116.726 77.1538C116.513 77.0856 116.357 76.7001 116.259 75.9973C116.192 75.3042 116.228 74.7115 116.37 74.2193C116.475 73.8502 116.714 73.4229 117.087 72.9374C117.467 72.4211 117.929 71.9138 118.471 71.4154C119.013 70.917 119.54 70.5312 120.051 70.2579C120.749 69.9103 121.594 69.5757 122.585 69.2542C123.584 68.9019 124.546 68.6216 125.471 68.4134C126.435 68.1842 127.214 68.0803 127.806 68.1018C128.417 68.0617 128.951 68.1147 129.408 68.2608C129.896 68.4166 130.291 68.6606 130.596 68.9928C130.856 69.244 131.064 69.5623 131.22 69.9478C131.415 70.3123 131.56 70.6776 131.655 71.0436C131.789 71.3886 131.855 71.6785 131.854 71.9133C131.749 72.2824 131.599 72.688 131.406 73.1299C131.221 73.5411 131.02 73.8964 130.801 74.1958C130.612 74.5049 130.411 74.6254 130.198 74.5573C130.198 74.5573 130.148 74.558 130.048 74.5596C129.987 74.5401 129.934 74.6073 129.89 74.7611C129.802 75.0687 129.472 75.3494 128.9 75.6032C128.206 75.8181 127.633 75.9035 127.179 75.8594C126.735 75.7846 126.524 75.5327 126.548 75.1036C126.491 74.9513 126.461 74.8242 126.457 74.7222C126.453 74.6201 126.39 74.5497 126.268 74.5107C126.268 74.5107 126.236 74.45 126.171 74.3285C126.106 74.207 126.104 74.0386 126.166 73.8232C126.201 73.7002 126.278 73.6071 126.396 73.5441C126.522 73.4502 126.586 73.4033 126.586 73.4033C126.738 73.452 126.985 73.3461 127.326 73.0857C127.675 72.7944 127.999 72.4781 128.297 72.1366C128.633 71.7742 128.824 71.516 128.868 71.3622C128.921 71.1776 128.921 71.0602 128.869 71.01C128.848 70.9695 128.715 70.9103 128.471 70.8324C127.991 70.8806 127.403 70.9612 126.705 71.074C126.007 71.1869 125.339 71.3095 124.703 71.4418C124.105 71.5531 123.649 71.6928 123.335 71.861C123.151 72.0374 123.035 72.1514 122.987 72.2032C122.948 72.2243 122.867 72.2153 122.745 72.1763C122.78 72.0533 122.656 72.0807 122.372 72.2587C122.127 72.4155 121.795 72.6453 121.376 72.9478C120.987 73.26 120.598 73.5723 120.209 73.8845C119.859 74.1757 119.597 74.3941 119.422 74.5398C119.344 74.5818 119.214 74.742 119.035 75.0204C118.894 75.2778 118.789 75.5295 118.718 75.7756C118.491 76.1058 118.431 76.3721 118.539 76.5746C118.656 76.7463 118.912 77.1303 119.307 77.7265C120.145 78.8671 120.793 79.7962 121.253 80.5139C121.713 81.2316 122.046 81.8083 122.254 82.2441C122.462 82.6798 122.557 83.0459 122.538 83.3422C122.822 84.4403 122.787 85.2013 122.433 85.6253C122.078 86.0494 121.437 86.3145 120.508 86.4207C120.159 86.4771 119.621 86.4394 118.893 86.3078C118.165 86.1761 117.436 85.9934 116.704 85.7597C115.964 85.5567 115.389 85.3563 114.98 85.1584ZM140.865 92.6218C140.56 92.5244 140.289 92.253 140.05 91.8075C139.842 91.3718 139.687 90.8689 139.584 90.2988C139.521 89.7077 139.555 89.1814 139.688 88.72C139.82 88.2586 140.174 87.4314 140.749 86.2384C141.354 85.0551 142.01 83.871 142.715 82.6862C143.189 81.9643 143.397 81.5273 143.341 81.375C143.285 81.2228 142.825 81.2605 141.961 81.4882C141.472 81.5672 141.025 81.6762 140.619 81.8151C140.222 81.9233 139.862 82.0769 139.539 82.2758C139.351 82.3502 139.065 82.4771 138.681 82.6566C138.297 82.836 137.902 82.9953 137.496 83.1342C137.011 83.3152 136.385 83.5852 135.617 83.9441C134.848 84.3031 134.08 84.662 133.311 85.0209C132.574 85.3896 132.008 85.6791 131.615 85.8893C131.519 85.9928 131.396 86.0713 131.248 86.1246C131.1 86.178 130.945 86.1957 130.784 86.1777C130.631 86.129 130.472 86.0447 130.307 85.9248C129.998 85.7254 129.736 85.4232 129.519 85.0182C129.333 84.6229 129.297 84.2254 129.412 83.8255C129.5 83.5179 129.772 83.0339 130.227 82.3735C130.692 81.6824 131.276 80.8619 131.981 79.9118C132.717 78.9715 133.531 77.9892 134.423 76.9648C134.559 76.8402 134.688 76.68 134.811 76.4842C134.942 76.2576 135.063 76.0107 135.173 75.7436C135.313 75.4862 135.419 75.2345 135.489 74.9884C135.533 74.8346 135.593 74.6857 135.667 74.5416C135.781 74.3765 135.891 74.2268 135.996 74.0925C136.14 73.9371 136.251 73.8384 136.33 73.7964C136.523 73.5893 136.754 73.5959 137.023 73.8163C137.301 74.006 137.499 74.3041 137.615 74.7106C137.949 75.2873 138.023 75.8987 137.838 76.5447C137.683 77.2004 137.302 77.9515 136.693 78.7979C136.509 78.9743 136.341 79.1555 136.188 79.3416C136.074 79.5067 135.964 79.6564 135.859 79.7908C135.763 79.8943 135.686 79.9874 135.629 80.0699C135.581 80.1217 135.557 80.1476 135.557 80.1476C135.679 80.1866 135.993 80.1358 136.499 79.9953C137.005 79.8548 137.597 79.7078 138.273 79.5545C138.827 79.3622 139.311 79.1812 139.726 79.0114C140.18 78.8207 140.551 78.6874 140.839 78.6115C141.136 78.5048 141.315 78.4612 141.376 78.4807C141.498 78.5196 141.663 78.5222 141.873 78.4883C142.082 78.4545 142.265 78.3955 142.422 78.3114C142.58 78.2273 142.689 78.195 142.75 78.2145C142.85 78.213 142.9 78.2122 142.9 78.2122C142.9 78.2122 142.961 78.2317 143.083 78.2706C143.214 78.2788 143.358 78.2408 143.515 78.1568C143.812 78.0501 144.145 78.1062 144.515 78.3251C144.893 78.5132 145.215 78.7839 145.48 79.1371C145.745 79.4903 145.833 79.8207 145.745 80.1283C145.709 80.2513 145.709 80.3687 145.744 80.4805C145.817 80.5712 145.854 80.6166 145.854 80.6166C146.098 80.6945 146.14 81.1277 145.981 81.9162C145.852 82.7144 145.564 83.4283 145.117 84.0579C144.985 84.5193 144.735 85.0438 144.367 85.6313C144.029 86.2286 143.715 86.8 143.426 87.3455C142.961 88.0366 142.6 88.6598 142.341 89.215C142.082 89.7703 141.925 90.2576 141.872 90.6769C141.818 91.0963 141.832 91.4534 141.914 91.7481C141.974 92.0024 141.904 92.2485 141.702 92.4864C141.51 92.6935 141.231 92.7387 140.865 92.6218ZM147.338 92.8261C147.216 92.7871 147.072 92.7077 146.907 92.5877C146.781 92.4468 146.718 92.3763 146.718 92.3763C146.753 92.2532 146.752 92.0848 146.713 91.8711C146.705 91.667 146.719 91.5035 146.754 91.3804C146.576 91.1892 146.489 91.0272 146.494 90.8944C146.508 90.7309 146.624 90.4994 146.843 90.2C147.114 89.9508 147.499 89.5366 147.998 88.9572C148.506 88.3471 149.042 87.6957 149.606 87.0031C150.18 86.2796 150.734 85.5667 151.268 84.8643C151.802 84.1619 152.255 83.568 152.627 83.0824C153.008 82.5662 153.231 82.2514 153.297 82.1381C153.332 82.015 153.422 81.8758 153.567 81.7205C153.711 81.5651 153.862 81.4454 154.019 81.3613C154.325 81.2239 154.588 81.2913 154.809 81.5635C155.04 81.8049 155.189 82.1548 155.257 82.6131C155.365 83.0504 155.352 83.4998 155.22 83.9612C155.158 84.1765 154.847 84.6815 154.287 85.4762C153.735 86.2401 153.028 87.1391 152.166 88.1732C151.334 89.2171 150.437 90.2569 149.475 91.2925C148.762 92.0385 148.309 92.5151 148.116 92.7222C147.933 92.8986 147.673 92.9332 147.338 92.8261ZM159.073 77.4859C158.707 77.369 158.351 77.104 158.003 76.6909C157.695 76.2567 157.451 75.7755 157.269 75.2475C157.127 74.6985 157.122 74.1932 157.255 73.7318C157.299 73.578 157.452 73.3919 157.714 73.1735C157.976 72.9551 158.239 72.7367 158.501 72.5182C158.763 72.2998 158.903 72.1598 158.921 72.0983C159.165 72.1762 159.343 72.25 159.456 72.3197C159.609 72.3684 159.774 72.4884 159.952 72.6796C160.067 73.5557 160.298 74.3178 160.644 74.9658C161.021 75.6235 161.161 76.1215 161.064 76.4599C160.87 77.1366 160.686 77.5478 160.511 77.6934C160.345 77.8083 159.866 77.7391 159.073 77.4859ZM148.092 106.767C147.905 106.606 147.72 106.38 147.538 106.086C147.356 105.793 147.229 105.484 147.156 105.158C147.074 104.863 147.059 104.624 147.112 104.439C147.165 104.255 147.382 103.787 147.764 103.036C148.137 102.315 148.609 101.425 149.179 100.365C149.771 99.3451 150.387 98.2995 151.026 97.228C151.688 96.197 152.314 95.289 152.906 94.504C153.011 94.3697 153.354 93.9255 153.936 93.1713C154.558 92.3961 155.217 91.4314 155.914 90.2774C156.387 89.5555 156.968 88.7503 157.655 87.8618C158.342 86.9733 159.045 86.0897 159.763 85.2109C160.489 84.3014 161.104 83.4905 161.608 82.7784C162.112 82.0663 162.525 81.4933 162.849 81.0596C163.213 80.6048 163.427 80.3208 163.493 80.2075C163.607 80.0424 163.742 79.9178 163.9 79.8337C164.096 79.7286 164.284 79.6542 164.463 79.6106C164.65 79.5363 164.794 79.4983 164.895 79.4968C165.487 79.5183 165.894 79.8999 166.114 80.6417C166.187 80.9673 166.125 81.3 165.927 81.6399C165.73 81.9798 165.43 82.3877 165.027 82.8634L164.443 83.684L166.195 83.8407C166.469 83.9284 166.8 84.0509 167.187 84.2082C167.614 84.3446 168.026 84.476 168.422 84.6026C168.818 84.7292 169.099 84.8525 169.264 84.9724C169.987 85.2369 170.45 85.536 170.654 85.8697C170.888 86.2132 171.055 86.619 171.154 87.087C171.262 87.2895 171.383 87.5633 171.517 87.9083C171.66 88.2225 171.711 88.5076 171.671 88.7634C171.643 89.3253 171.48 89.8943 171.182 90.4706C170.923 91.0258 170.572 91.5519 170.13 92.0487C169.719 92.5552 169.229 92.9864 168.661 93.3423C168.133 93.6771 167.596 93.9252 167.05 94.0868C166.71 94.1124 166.396 94.1632 166.108 94.2391C165.829 94.2843 165.689 94.3068 165.689 94.3068C165.615 94.4509 165.209 94.5899 164.472 94.7237C163.744 94.8268 162.928 94.8854 162.026 94.8993C161.123 94.9132 160.354 94.8689 159.718 94.7664C159.496 94.729 159.182 94.6624 158.777 94.5666C158.372 94.4707 158.08 94.3272 157.902 94.136C157.585 93.9674 157.365 93.8636 157.243 93.8246C157.121 93.7857 157.042 93.8277 157.007 93.9508C156.959 94.0026 156.56 94.5804 155.811 95.6842C155.062 96.788 154.241 98.0869 153.347 99.5809C152.256 101.18 151.378 102.444 150.712 103.373C150.038 104.333 149.519 105.04 149.155 105.495C148.823 105.959 148.584 106.269 148.44 106.425C148.286 106.611 148.17 106.725 148.092 106.767ZM158.689 91.5667C158.727 91.7805 158.999 91.9345 159.505 92.0288C160.049 92.1021 160.712 92.1123 161.492 92.0594C162.312 91.9855 163.126 91.876 163.932 91.7308C164.748 91.5549 165.442 91.3401 166.014 91.0862C166.905 90.5315 167.657 89.9993 168.269 89.4896C168.889 88.9492 169.078 88.5227 168.835 88.21C168.641 87.6107 168.082 87.1803 167.159 86.919C166.236 86.6576 164.997 86.6818 163.445 86.9916C162.873 87.0106 162.407 87.1301 162.044 87.35C161.721 87.549 161.406 87.8346 161.1 88.2068C160.793 88.579 160.415 89.0289 159.964 89.5565C159.496 90.1456 159.167 90.5947 158.979 90.9038C158.79 91.213 158.694 91.434 158.689 91.5667ZM164.292 111.993C164.17 111.954 164.018 111.905 163.835 111.847C163.643 111.819 163.511 111.642 163.438 111.317C163.36 111.124 163.35 110.869 163.408 110.552C163.496 110.244 163.731 109.715 164.112 108.964C164.415 108.489 164.687 108.005 164.928 107.512C165.161 107.049 165.312 106.694 165.383 106.448C165.418 106.325 165.519 106.089 165.686 105.739C165.874 105.43 165.99 105.198 166.035 105.045C166.258 104.847 166.476 104.548 166.691 104.146C166.906 103.745 167.062 103.375 167.159 103.037C167.265 102.667 167.545 102.388 167.999 102.197C168.07 101.951 168.204 101.658 168.401 101.318C168.629 100.988 168.76 100.761 168.795 100.638C169.01 100.237 169.424 99.5462 170.038 98.567C170.691 97.5667 171.444 96.4475 172.298 95.2093C173.183 93.9809 174.044 92.7784 174.88 91.6017C175.716 90.4251 176.45 89.4338 177.08 88.6278C177.693 87.8834 178.149 87.223 178.447 86.6468C178.784 86.0495 178.997 85.597 179.086 85.2894C179.121 85.1664 179.178 85.0839 179.256 85.0418C179.344 84.969 179.529 84.8436 179.813 84.6657C180.206 84.4555 180.492 84.446 180.67 84.6372C180.879 84.8381 181.115 85.1152 181.38 85.4684C181.509 85.9462 181.58 86.3381 181.592 86.6442C181.635 86.96 181.498 87.4368 181.182 88.0746C181.05 88.536 180.859 88.9115 180.609 89.2012C180.36 89.4909 180.148 89.7085 179.973 89.8541C179.807 89.969 179.759 90.0208 179.829 90.0095C181.246 89.8243 182.431 89.8672 183.385 90.1384C184.378 90.3885 185.138 90.8157 185.663 91.4201C186.228 92.0034 186.581 92.6871 186.722 93.4709C186.863 94.2548 186.806 95.0927 186.55 95.9848C186.445 96.3539 186.24 96.7756 185.938 97.2498C185.645 97.6933 185.314 98.0914 184.947 98.4442C184.619 98.7759 184.337 99.0048 184.101 99.1309C183.979 99.092 183.826 99.1607 183.643 99.3371C183.468 99.4827 183.284 99.6591 183.092 99.8662C182.76 100.096 182.262 100.323 181.599 100.548C180.975 100.751 180.368 100.893 179.779 100.974C179.199 101.024 178.801 100.963 178.583 100.793C178.583 100.793 178.533 100.794 178.433 100.796C178.372 100.776 178.32 100.843 178.275 100.997C178.258 101.059 177.974 101.119 177.425 101.179C176.884 101.207 176.267 101.212 175.574 101.192C174.89 101.141 174.304 101.038 173.816 100.882C173.176 100.678 172.754 100.408 172.55 100.075C172.472 100.117 172.369 100.185 172.242 100.279C172.146 100.382 172.085 100.48 172.058 100.572C172.006 100.757 171.828 101.086 171.526 101.561C171.263 102.014 170.973 102.442 170.658 102.845C170.343 103.248 170.109 103.425 169.957 103.376C169.957 103.376 169.913 103.413 169.826 103.485C169.738 103.558 169.733 103.691 169.811 103.884C169.811 103.884 169.748 104.048 169.62 104.377C169.514 104.746 169.35 105.029 169.127 105.227C169.056 105.473 168.905 105.827 168.672 106.29C168.44 106.753 168.227 107.088 168.035 107.295C167.929 107.664 167.766 107.999 167.547 108.298C167.35 108.638 167.191 108.788 167.069 108.749C166.938 108.741 166.809 108.902 166.681 109.23C166.545 109.59 166.455 109.846 166.411 110C166.16 110.759 165.835 111.31 165.437 111.653C165.04 111.996 164.658 112.109 164.292 111.993ZM174.243 98.349C174.487 98.4269 175.021 98.4799 175.845 98.508C176.668 98.5361 177.521 98.523 178.401 98.4686C179.321 98.3931 180.028 98.2495 180.521 98.0377C181.517 97.5834 182.356 96.9784 183.038 96.2227C183.76 95.4459 183.981 94.5595 183.701 93.5634C183.581 93.0549 183.187 92.7445 182.52 92.6323C181.863 92.4893 181.091 92.5114 180.205 92.6986C179.32 92.8858 178.449 93.1953 177.593 93.627C177.113 93.9101 176.637 94.2951 176.164 94.7822C175.692 95.2693 175.265 95.7709 174.884 96.2872C174.534 96.8132 174.286 97.2713 174.141 97.6615C173.996 98.0516 174.03 98.2808 174.243 98.349ZM193.534 108.289C192.735 108.638 191.895 108.723 191.015 108.542C190.166 108.372 189.393 107.991 188.698 107.399C188.011 106.777 187.515 106.014 187.208 105.11C186.884 104.268 186.769 103.391 186.864 102.481C186.967 101.541 187.282 100.382 187.81 99.0063C188.246 97.8358 188.971 96.7579 189.985 95.7725C191.008 94.7563 192.129 93.9223 193.348 93.2706C194.597 92.6287 195.746 92.2741 196.797 92.2068C197.343 92.0453 197.763 92.0286 198.059 92.1567C198.395 92.2638 198.889 92.4553 199.542 92.731C200.216 93.0473 200.695 93.3513 200.977 93.6429C201.29 93.9444 201.509 94.283 201.634 94.6587C201.959 95.2662 202.132 95.825 202.152 96.3351C202.181 96.8144 202.134 97.2694 202.01 97.7001C201.694 98.3379 200.999 99.0223 199.924 99.7535C198.889 100.464 197.658 100.927 196.232 101.143C195.499 101.144 194.741 101.002 193.957 100.718C193.174 100.434 192.576 100.025 192.163 99.4904C191.655 99.0593 191.26 98.9837 190.981 99.2636C190.709 99.5128 190.321 100.228 189.816 101.41C189.359 102.54 189.204 103.43 189.35 104.082C189.505 104.702 189.828 105.141 190.32 105.399C190.894 105.717 191.34 105.96 191.658 106.128C192.015 106.276 192.496 106.279 193.103 106.137C193.679 105.985 194.032 105.913 194.163 105.921C194.302 105.899 194.411 105.866 194.49 105.824C194.608 105.761 194.863 105.625 195.256 105.414C195.531 105.267 195.743 105.167 195.892 105.114C196.049 105.03 196.204 105.012 196.356 105.061C196.508 105.109 196.624 105.23 196.701 105.423C196.788 105.585 196.884 105.716 196.988 105.817C197.293 105.914 197.301 106.118 197.012 106.429C196.754 106.749 196.306 107.093 195.668 107.46C195.039 107.796 194.328 108.073 193.534 108.289ZM196.293 98.4926C196.672 98.446 197.084 98.3426 197.529 98.1826C197.983 97.9919 198.381 97.7663 198.722 97.5058C199.102 97.2243 199.327 96.9605 199.398 96.7145C199.521 96.2838 199.425 95.8668 199.108 95.4633C198.8 95.0291 198.218 94.7931 197.364 94.7552C197.002 94.7404 196.555 94.8494 196.023 95.0822C195.499 95.2842 194.977 95.5372 194.457 95.8413C193.968 96.1551 193.553 96.4422 193.212 96.7027C192.902 96.9729 192.768 97.1485 192.812 97.2295C192.859 97.4125 193.083 97.6183 193.483 97.8469C193.892 98.0448 194.36 98.2111 194.887 98.3459C195.445 98.4904 195.913 98.5393 196.293 98.4926ZM204.339 113.403C203.947 113.144 203.637 112.893 203.406 112.652C203.185 112.38 202.903 111.971 202.56 111.425C202.336 110.816 202.178 110.262 202.088 109.763C202.029 109.274 202.048 108.743 202.146 108.169C202.253 107.566 202.434 106.818 202.689 105.926C202.795 105.556 203.015 105.022 203.349 104.323C203.713 103.633 204.101 102.918 204.513 102.176C204.965 101.414 205.359 100.734 205.697 100.137C206.065 99.5495 206.291 99.1683 206.374 98.9935C206.58 98.6228 206.494 98.3434 206.115 98.1553C205.737 97.9672 205.299 97.8106 204.802 97.6855C204.345 97.5395 204.054 97.3959 203.928 97.255C203.815 97.1852 203.767 97.1196 203.784 97.0581C203.811 96.9658 203.824 96.9197 203.824 96.9197C203.859 96.7966 203.866 96.7149 203.845 96.6744C203.862 96.6129 203.847 96.4906 203.8 96.3076C203.774 96.1651 203.853 96.0056 204.037 95.8292C204.26 95.6318 204.548 95.5559 204.901 95.6015C205.193 95.6277 205.572 95.6984 206.038 95.8137C206.543 95.908 207.062 95.9561 207.594 95.9581C208.134 95.9294 208.61 95.7791 209.021 95.5074C209.489 94.9183 210.025 94.2669 210.629 93.5532C211.233 92.8395 211.795 92.2133 212.316 91.6744C212.875 91.1145 213.238 90.7772 213.404 90.6623C214.002 90.551 214.414 90.5651 214.64 90.7045C214.875 90.8132 215.075 91.1623 215.238 91.7518C215.329 92.0158 215.387 92.2191 215.413 92.3616C215.469 92.5139 215.431 92.7033 215.3 92.9299C215.168 93.1565 214.89 93.4875 214.466 93.9228C214.072 94.3678 213.475 94.9997 212.675 95.8185C212.434 96.0774 212.218 96.3104 212.025 96.5176C211.841 96.6939 211.75 96.7821 211.75 96.7821C211.863 96.8518 212.041 96.9256 212.285 97.0035C212.529 97.0814 212.838 97.1634 213.213 97.2495C213.566 97.2951 214.006 97.3853 214.533 97.5201C215.069 97.6241 215.48 97.7556 215.767 97.9145C216.468 98.1385 216.947 98.4424 217.203 98.8264C217.468 99.1796 217.527 99.6687 217.381 100.294C217.345 100.651 217.211 100.827 216.98 100.82C216.78 100.824 216.268 100.694 215.445 100.431C215.171 100.343 214.74 100.222 214.152 100.068C213.564 99.9136 212.945 99.7496 212.296 99.5758C211.678 99.4118 211.131 99.2876 210.656 99.203C210.221 99.0974 209.994 99.0754 209.976 99.1369C209.867 99.1692 209.631 99.4128 209.268 99.8676C208.935 100.332 208.565 100.869 208.157 101.477C207.789 102.065 207.454 102.596 207.152 103.07C206.639 104.048 206.171 105.04 205.749 106.047C205.358 107.063 205.083 107.966 204.923 108.754C204.763 109.543 204.777 110.135 204.963 110.53C205.158 110.895 205.674 111.126 206.51 111.226C207.356 111.294 208.08 111.207 208.682 110.963C209.363 110.677 209.871 110.587 210.206 110.694C210.572 110.811 210.722 111.044 210.655 111.392C210.628 111.719 210.333 112.111 209.769 112.569C209.244 113.006 208.646 113.352 207.974 113.607C207.31 113.832 206.647 113.939 205.985 113.929C205.362 113.898 204.813 113.722 204.339 113.403ZM216.83 116.789C215.306 116.302 214.352 115.393 213.969 114.062C213.843 113.686 213.825 113.344 213.913 113.037C214.041 112.708 214.198 112.507 214.386 112.432C214.604 112.368 214.787 112.544 214.933 112.96C215.29 113.342 215.864 113.66 216.657 113.913C217.053 114.04 217.473 114.14 217.918 114.215C218.371 114.259 218.833 114.273 219.304 114.255C219.823 114.186 220.18 114.099 220.377 113.994C220.582 113.858 220.596 113.694 220.418 113.503L220.463 113.518C219.733 113.049 219.022 112.453 218.331 111.728C217.68 110.983 217.144 110.241 216.723 109.502C216.312 108.733 216.126 108.103 216.167 107.612C216.197 106.581 216.536 105.631 217.184 104.764C217.84 103.865 218.614 103.139 219.505 102.584C219.793 102.508 220.151 102.421 220.579 102.323C221.015 102.193 221.344 102.147 221.567 102.185L221.553 102.231C222.309 101.801 223.151 101.533 224.08 101.426C225.039 101.33 226.035 101.279 227.069 101.273L227.781 101.4C228.164 101.455 228.478 101.522 228.722 101.6C228.691 101.59 228.744 101.64 228.878 101.75C229.022 101.83 229.15 101.904 229.263 101.974C229.42 102.125 229.559 102.22 229.681 102.259C230.06 102.447 230.372 102.748 230.62 103.163C230.867 103.578 231.02 104.03 231.079 104.519C231.178 104.987 231.144 105.396 230.977 105.745C230.749 106.31 230.416 106.775 229.979 107.139C229.572 107.512 229.162 107.667 228.748 107.602C228.818 107.59 228.785 107.53 228.65 107.419C228.555 107.288 228.444 107.152 228.318 107.011L228.155 107.06C228.155 107.06 228.148 107.024 228.135 106.953C228.162 106.86 228.162 106.743 228.137 106.601C228.098 106.387 228.11 106.172 228.171 105.957C228.242 105.711 228.332 105.454 228.442 105.187C228.6 104.868 228.657 104.668 228.614 104.587C228.601 104.516 228.416 104.407 228.059 104.259C227.659 104.03 227.012 103.908 226.118 103.891C225.255 103.884 224.488 104.008 223.816 104.263C223.021 104.48 222.338 104.715 221.767 104.969C221.204 105.192 220.732 105.444 220.352 105.725C219.98 105.976 219.622 106.298 219.276 106.691C219.062 106.858 218.863 107.029 218.679 107.206C218.535 107.361 218.441 107.516 218.397 107.67C218.3 108.008 218.442 108.44 218.824 108.964C219.245 109.468 219.893 110.112 220.766 110.895C221.462 111.486 222.027 112.069 222.461 112.645C222.895 113.22 223.143 113.803 223.207 114.394C223.233 114.537 223.204 114.695 223.12 114.87C223.076 115.024 223.015 115.122 222.936 115.164C222.98 115.245 222.997 115.301 222.988 115.331L223.001 115.285C223.139 115.732 223.029 116.117 222.67 116.439C222.342 116.771 221.86 117.003 221.223 117.135C220.626 117.246 219.924 117.257 219.118 117.167L219.163 117.182C218.732 117.178 218.309 117.144 217.895 117.079C217.52 116.993 217.165 116.896 216.83 116.789Z" fill="black"/>
</svg>
