<svg width="235" height="166" viewBox="0 0 235 166" fill="none" xmlns="http://www.w3.org/2000/svg">
<path d="M144.749 93.2264C140.5 97.6593 142.213 105.199 143.113 110.532C144.62 119.473 148.231 128.143 153.546 135.743C162.083 147.951 174.948 156.729 189.565 161.508C187.031 161.723 184.495 161.938 181.959 162.153C179.705 162.344 179.633 165.558 181.959 165.454C188.411 165.163 194.864 164.865 201.318 164.565C202.902 164.491 203.637 162.822 202.583 161.736C197.08 156.06 191.614 150.346 186.037 144.729C184.513 143.194 182.111 145.455 183.577 147.004C187.685 151.35 191.859 155.644 196.029 159.938C182.37 156.544 170.09 149.855 160.852 139.754C155.17 133.542 150.868 126.361 148.133 118.631C145.96 112.484 141.429 99.797 146.054 94.1564C146.623 93.4636 145.37 92.5763 144.749 93.2264Z" fill="#040606"/>
<path d="M26.8942 106.969C25.5655 106.973 24.2738 106.638 23.0192 105.963C21.7955 105.281 20.9046 104.482 20.3464 103.567C20.202 103.175 20.0073 102.663 19.7622 102.032C19.5481 101.393 19.3627 100.796 19.2058 100.242C19.0799 99.6802 19.035 99.3452 19.0709 99.2373C19.1466 99.1523 19.1408 98.9559 19.0537 98.648C18.9878 98.5326 18.9467 98.3286 18.9303 98.0359C18.9363 97.7046 18.9422 97.3734 18.9482 97.0421C18.9988 96.6337 18.9936 96.3217 18.9326 96.1062C18.8628 95.8599 18.795 95.679 18.7291 95.5636C18.7291 95.5636 18.7495 95.4596 18.7904 95.2515C18.8225 95.0126 18.8832 94.816 18.9724 94.6617C19.1064 94.4302 19.1317 94.226 19.0483 94.049C18.9961 93.8643 18.9699 93.7719 18.9699 93.7719C18.904 93.6565 18.8871 93.4794 18.9192 93.2405C18.9513 93.0016 18.9965 92.8089 19.0547 92.6624C19.0994 92.5852 19.1421 92.4426 19.1829 92.2345C19.2461 91.9878 19.2777 91.8645 19.2777 91.8645C19.2515 91.7721 19.2439 91.5102 19.2547 91.0788C19.2966 90.6395 19.3453 90.1656 19.4008 89.6571C19.4476 89.1177 19.4919 88.6284 19.5338 88.1892C19.6067 87.7422 19.6723 87.4454 19.7305 87.2989L19.7044 87.2065C19.7414 86.8675 19.8206 86.5013 19.942 86.1081C19.9294 85.9464 19.9373 85.6806 19.9656 85.3107C19.9851 84.9101 20.0246 84.521 20.0839 84.1433C20.2161 83.3187 20.3998 82.3822 20.635 81.3339C20.8924 80.247 21.1853 79.1677 21.5135 78.096C21.8331 76.9935 22.1521 76.0066 22.4705 75.1353C22.8113 74.2253 23.1312 73.535 23.4301 73.0642C23.7921 72.3468 24.124 71.9338 24.4257 71.8251C24.7273 71.7164 25.1763 71.8346 25.7726 72.1796C26.0509 72.3407 26.2801 72.5634 26.4604 72.848C26.6407 73.1325 26.7502 73.4018 26.7888 73.6559C26.8499 73.8715 26.8226 74.0102 26.7072 74.0722C26.5248 74.2498 26.2991 74.6857 26.0302 75.3797C25.7526 76.043 25.4433 76.8296 25.1025 77.7396C24.7928 78.6417 24.4918 79.5747 24.1994 80.5384C23.9294 81.4636 23.6997 82.2962 23.5103 83.0362C23.3595 84.0304 23.2093 84.909 23.0597 85.6721C22.9013 86.4043 22.8221 86.7705 22.8221 86.7705C22.8172 86.8706 22.8079 86.9554 22.7943 87.0247C22.7807 87.0941 22.7671 87.1635 22.7535 87.2328C22.5581 88.3042 22.4186 89.279 22.3348 90.1575C22.2423 91.0051 22.1629 91.8989 22.0965 92.839C21.9713 93.1012 21.9237 93.344 21.9537 93.5673C21.9836 93.7906 21.9986 93.9023 21.9986 93.9023C21.9278 93.8871 21.9031 93.9757 21.9243 94.1683C21.9369 94.33 21.9271 94.5303 21.895 94.7692C21.7746 94.9313 21.7382 95.1548 21.7856 95.4397C21.8243 95.6938 21.8785 95.9441 21.9482 96.1904C21.8878 96.7991 21.8778 97.5271 21.9182 98.3744C21.9499 99.1909 22.0237 99.9803 22.1398 100.743C22.2782 101.466 22.4195 102.025 22.5639 102.417C22.7741 102.925 23.173 103.336 23.7606 103.65C24.3705 103.926 25.0561 104.117 25.8174 104.222C26.1936 104.26 26.519 104.294 26.7935 104.324C27.0592 104.323 27.3007 104.295 27.5179 104.241C27.775 104.209 28.0853 104.131 28.4491 104.007C28.8351 103.844 29.3522 103.616 30.0001 103.321L29.9536 103.333C30.3396 103.17 30.7368 102.988 31.1452 102.786C31.5759 102.546 31.98 102.33 32.3573 102.136C32.7123 101.981 33.0518 101.83 33.3758 101.683C33.6911 101.505 33.9331 101.361 34.1019 101.253C34.7324 100.897 35.1942 100.649 35.4871 100.51C35.7714 100.339 36.0085 100.296 36.1986 100.381C36.3886 100.465 36.5408 100.592 36.6552 100.761C36.7608 100.899 36.8063 101.119 36.7917 101.419C36.7732 101.589 36.5902 101.882 36.2429 102.299C35.8868 102.685 35.4376 103.094 34.8952 103.527C34.384 103.952 33.8596 104.331 33.3222 104.664C32.7799 105.097 32.096 105.499 31.2705 105.871C30.4761 106.236 29.6753 106.519 28.8684 106.721C28.0924 106.916 27.4344 106.999 26.8942 106.969ZM39.3094 100.194C39.1155 99.9785 38.908 99.8327 38.6869 99.7563C38.4571 99.6491 38.3248 99.5339 38.2899 99.4107C38.255 99.2875 38.2047 99.1683 38.1388 99.0529C38.0952 98.899 37.9939 98.776 37.8349 98.684C37.6274 98.5382 37.5253 98.1186 37.5285 97.4253C37.5229 96.7012 37.6024 95.8073 37.7667 94.7438C37.9223 93.6495 38.1425 92.4895 38.4272 91.2639C38.6057 90.9552 38.7625 90.5696 38.8975 90.1071C39.0325 89.6445 39.1447 89.336 39.234 89.1817C39.1991 89.0586 39.2151 88.9391 39.2821 88.8234C39.3404 88.6768 39.4316 88.588 39.5557 88.5569L39.4773 88.2797C39.4337 88.1258 39.4993 87.829 39.674 87.3894C39.8798 86.9421 40.139 86.4483 40.4515 85.9082C40.7553 85.3374 41.0833 84.7934 41.4356 84.2763C41.7791 83.7284 42.0799 83.3231 42.338 83.0605C42.8678 82.4659 43.461 82.0367 44.1177 81.773C44.8054 81.5015 45.4543 81.5036 46.0642 81.7792C46.1834 81.8482 46.3822 81.9633 46.6605 82.1243C46.9387 82.2853 47.2568 82.4693 47.6145 82.6763C47.9946 82.8448 48.3791 83.0286 48.7679 83.2278L50.9219 84.3197L50.7376 86.8392C50.6827 88.1721 50.8791 89.277 51.3268 90.154C51.8056 91.0232 52.3425 91.7458 52.9378 92.322C53.1888 92.6217 53.5907 92.8671 54.1434 93.0582C54.7272 93.2415 55.2451 93.3094 55.697 93.262C55.954 93.2305 56.213 93.2644 56.4738 93.3639C56.7347 93.4633 56.913 93.6823 57.0089 94.021C57.096 94.3289 57.1037 94.5908 57.0318 94.8067C56.96 95.0226 56.7776 95.2003 56.4846 95.3398C55.4952 95.7199 54.4633 95.7151 53.3889 95.3251C52.3456 94.9274 51.251 94.1138 50.1051 92.8844C49.9287 92.7308 49.6621 92.4349 49.3054 91.9968C48.971 91.5201 48.7665 91.2087 48.6919 91.0625C48.6113 91.2476 48.4613 91.5985 48.2419 92.1153C48.0138 92.6012 47.8328 92.9599 47.6989 93.1914C46.1227 95.9612 44.6366 97.9336 43.2405 99.1083C41.8668 100.244 40.5564 100.606 39.3094 100.194ZM40.2533 97.1867C40.3143 97.4023 40.6402 97.3205 41.231 96.9414C41.8441 96.5237 42.4515 95.9097 43.0531 95.0991C43.8556 93.9414 44.632 92.6913 45.3822 91.3489C46.1635 89.9986 46.7493 88.7799 47.1397 87.6926L47.6933 85.7729C47.1824 85.1426 46.7059 84.751 46.2637 84.5982C45.8439 84.4067 45.5098 84.3422 45.2615 84.4045C44.858 84.5057 44.3574 85.0271 43.7596 85.9685C43.1928 86.9022 42.6337 88.0978 42.0822 89.5553C41.5307 91.0127 41.0607 92.5817 40.672 94.2621C40.536 94.9558 40.4266 95.6263 40.3439 96.2736C40.2835 96.8824 40.2533 97.1867 40.2533 97.1867ZM62.0445 95.9233C61.6857 95.9474 61.2808 95.8676 60.8299 95.6839C60.4013 95.4617 59.9951 95.2009 59.6112 94.9015C59.2496 94.5635 58.9786 94.2523 58.7984 93.9677C58.7809 93.9062 58.7126 93.8409 58.5933 93.7719C58.5051 93.6951 58.461 93.6567 58.461 93.6567C58.3107 93.5954 58.1198 93.2146 57.8883 92.5143C57.6791 91.7753 57.4947 90.9477 57.3351 90.0314C57.1754 89.1151 57.0836 88.3797 57.0596 87.8251C57.0753 87.2935 57.1207 86.5731 57.1958 85.6639C57.2621 84.7239 57.3081 83.8879 57.3336 83.156L57.8324 80.1618L55.8263 80.1211C55.5916 80.114 55.3705 80.0376 55.163 79.8918C54.9866 79.7382 54.8809 79.5998 54.8461 79.4767C54.7763 79.2303 54.8332 78.9028 55.0167 78.494C55.1914 78.0544 55.3409 77.8191 55.465 77.7879C55.6289 77.7798 55.9126 77.7251 56.3161 77.6238C56.7507 77.5148 57.1653 77.3942 57.5601 77.2622C57.9549 77.1302 58.1945 77.0371 58.2789 76.9829C58.3856 76.8902 58.4879 76.782 58.5859 76.6585C58.6752 76.5042 58.7204 76.3115 58.7215 76.0804C58.7808 75.7028 58.8333 75.3598 58.879 75.0515C58.916 74.7125 58.9908 74.331 59.1035 73.907C59.2075 73.4522 59.2823 73.0706 59.328 72.7624C59.4048 72.4463 59.5286 72.003 59.6996 71.4325C59.7937 71.178 59.8904 70.8735 59.9894 70.5188C60.0885 70.1642 60.2472 69.8441 60.4655 69.5584C60.6751 69.242 60.924 69.0642 61.212 69.0249C61.5224 68.947 61.967 69.0498 62.5459 69.3332C62.8814 69.5788 63.0864 69.7747 63.161 69.9209C63.2356 70.067 63.1943 70.3907 63.037 70.8918C62.9368 71.4776 62.7901 72.075 62.5969 72.6841C62.4347 73.2854 62.288 73.8828 62.1568 74.4764C61.8519 75.2784 61.8678 75.6866 62.2043 75.7011C62.5408 75.7156 63.3924 75.4359 64.7592 74.8621C65.6157 74.4823 66.2805 74.365 66.7538 74.51C67.2183 74.6243 67.5556 74.9354 67.7659 75.4433C68.0682 76.1589 68.1169 76.6248 67.9122 76.841C67.7075 77.0573 67.0154 77.3134 65.836 77.6094C65.1259 77.9194 64.5114 78.1561 63.9925 78.3193C63.4649 78.4517 63.0769 78.549 62.8286 78.6113C62.4338 78.7434 62.1744 78.825 62.0502 78.8561C61.9261 78.8873 61.7486 78.9648 61.5177 79.0887C61.2868 79.2126 61.1311 79.3671 61.0505 79.5522C60.9923 79.6987 60.9359 79.9107 60.8815 80.1882C60.7922 80.3425 60.6975 80.7125 60.5974 81.2982C60.4972 81.884 60.3481 82.5315 60.1499 83.2408C60.0815 84.643 60.0751 86.0296 60.1307 87.4007C60.1777 88.741 60.278 90.0349 60.4317 91.2825C60.5254 92.0834 60.6935 92.6183 60.9358 92.8873C61.1695 93.1254 61.6209 93.1935 62.2901 93.0916C62.6402 93.0367 63.1834 92.9004 63.9196 92.6827C64.6781 92.4264 65.2572 92.1821 65.6569 91.9499C65.9547 91.7103 66.268 91.4668 66.5969 91.2194C66.9171 90.9412 67.2062 90.6708 67.4643 90.4082C67.7001 90.1841 67.9358 89.9601 68.1716 89.736C68.3986 89.4812 68.5121 89.3538 68.5121 89.3538C68.5976 89.0685 68.7465 88.9487 68.9589 88.9943C69.1713 89.04 69.3918 89.232 69.6206 89.5703C69.7252 89.9398 69.7565 90.3441 69.7146 90.7833C69.6727 91.2225 69.2336 91.8439 68.3973 92.6473C67.2446 93.8599 66.1047 94.7066 64.9776 95.1873C63.8728 95.6294 62.8951 95.8747 62.0445 95.9233ZM77.0604 92.65C75.6947 92.9927 74.4336 92.765 73.2769 91.967C72.1115 91.1382 71.3265 89.9502 70.9217 88.4029C70.67 87.2788 70.5517 86.0389 70.5669 84.683C70.6043 83.2886 70.7833 81.9246 71.1039 80.591C71.4158 79.2266 71.8333 78.0006 72.3565 76.913C72.8797 75.8254 73.508 74.9917 74.2415 74.4119C74.5083 74.1801 74.7993 73.9751 75.1146 73.7971C75.4609 73.6113 75.8203 73.4716 76.1927 73.3782C76.5341 73.2925 76.9085 73.2645 77.3158 73.2942C77.7144 73.2931 78.0553 73.323 78.3385 73.3839C78.9271 73.467 79.4047 73.6275 79.7712 73.8653C80.1377 74.1031 80.5211 74.518 80.9214 75.1101C81.1801 75.6717 81.3443 76.0757 81.414 76.3221C81.4837 76.5684 81.5107 76.9573 81.495 77.4889C81.4363 78.6908 81.2254 79.766 80.8623 80.7146C80.4992 81.6631 79.8994 82.5391 79.0631 83.3425C78.8584 83.5588 78.5984 83.7559 78.2831 83.934C77.9902 84.0734 77.673 84.186 77.3316 84.2717C76.7108 84.4274 76.0751 84.4715 75.4244 84.404C74.796 84.2979 74.2457 84.0567 73.7735 83.6805L73.3431 83.3928L73.308 83.7973C73.2329 84.7066 73.2025 85.5386 73.2167 86.2935C73.262 87.0407 73.3674 87.7067 73.533 88.2917C73.6376 88.6612 73.7689 89.0075 73.9268 89.3306C74.1158 89.646 74.3228 89.9073 74.5477 90.1147C74.7241 90.2683 74.9651 90.3562 75.2706 90.3785C75.5984 90.3622 75.933 90.3112 76.2744 90.2255C76.4917 90.171 76.7089 90.1165 76.9262 90.062C77.1658 89.9689 77.3811 89.8489 77.5723 89.702C78.0476 89.3849 78.41 89.0796 78.6593 88.7862C78.9397 88.485 79.2158 88.1684 79.4875 87.8364L79.6476 87.6973L79.601 87.7089C79.9212 87.4307 80.1948 87.1642 80.4218 86.9094C80.6799 86.6468 80.8089 86.5155 80.8089 86.5155C80.9331 86.4843 81.0354 86.3762 81.116 86.1911C81.3295 86.0056 81.6529 85.9739 82.0864 86.096C82.5509 86.2103 82.8311 86.4367 82.9269 86.7754C82.9395 86.9372 82.8695 87.2186 82.7171 87.6196C82.5559 87.9898 82.3594 88.3524 82.1275 88.7074C81.9266 89.0546 81.7374 89.2669 81.5598 89.3444C81.5375 89.383 81.4463 89.4719 81.2862 89.611C81.1175 89.7193 81.0107 89.812 80.9661 89.8892L81.0126 89.8775C80.8379 90.3171 80.6108 90.5719 80.3315 90.642L79.9591 90.7355C79.8959 90.9821 79.5621 91.3297 78.9578 91.7782C78.3446 92.1958 77.7122 92.4864 77.0604 92.65ZM76.2793 81.9635C76.838 81.8233 77.2755 81.5486 77.5918 81.1395C77.9305 80.6918 78.1984 80.2288 78.3954 79.7507C78.7809 78.7636 78.9112 77.8734 78.7864 77.0803C78.684 76.2486 78.434 75.7178 78.0365 75.4877C77.8241 75.4421 77.6403 75.4388 77.4851 75.4777C77.3522 75.4781 77.1015 75.5904 76.7329 75.8149C76.471 75.9465 76.1484 76.2748 75.765 76.7997C75.3817 77.3246 75.0115 77.8957 74.6544 78.5129C74.3282 79.1224 74.089 79.6276 73.9365 80.0286L73.6058 81.1504C73.828 80.9957 74.0477 80.8911 74.265 80.8366C74.5046 80.7435 74.6486 80.7238 74.6971 80.7776C74.7755 81.0547 74.8961 81.3048 75.059 81.5277C75.2441 81.7121 75.4317 81.8464 75.6218 81.9306C75.8429 82.0071 76.0621 82.018 76.2793 81.9635ZM90.6779 88.6394C89.9193 88.8957 89.1614 89.0364 88.4039 89.0616C87.6775 89.079 87.0137 88.9652 86.4125 88.7204C85.8337 88.4369 85.3727 88.0414 85.0296 87.5339C84.6903 87.1574 84.4988 86.8921 84.4553 86.7382C84.403 86.5535 84.468 86.3722 84.6504 86.1946C84.8987 86.1323 85.1378 86.1547 85.3676 86.2619C85.6197 86.3306 85.9383 86.399 86.3233 86.4673C86.9021 86.7508 87.5218 86.8261 88.1823 86.6933C88.8739 86.5528 89.4641 86.2893 89.9531 85.9028C90.442 85.5162 90.6653 85.1305 90.6228 84.7454C90.5879 84.6222 90.4803 84.4184 90.3001 84.1339C90.1198 83.8493 89.9196 83.5533 89.6996 83.2457C88.5304 82.286 87.5828 81.2871 86.8569 80.2491C86.1532 79.1726 85.6968 78.2648 85.4876 77.5258C85.3308 76.9716 85.3359 76.3438 85.503 75.6423C85.6614 74.91 85.9744 74.2544 86.4421 73.6753C86.8352 72.9501 87.3078 72.2709 87.8599 71.6377C88.412 71.0045 88.9815 70.4329 89.5685 69.9229C90.1865 69.405 90.753 68.9991 91.2681 68.7049C91.6095 68.6192 92.0726 68.5525 92.6575 68.5047C93.2423 68.4569 93.6608 68.4673 93.9129 68.5359C94.2892 68.5734 94.7109 68.8303 95.1782 69.3067C95.6367 69.7522 95.9401 70.2367 96.0883 70.7601C96.1493 70.9757 96.1656 71.2684 96.1374 71.6382C96.1091 72.0081 96.0206 72.459 95.872 72.9909C95.8437 73.3607 95.7956 73.7191 95.7276 74.0659C95.6508 74.382 95.6299 74.6016 95.6647 74.7248C95.6054 75.1024 95.4361 75.3263 95.1567 75.3964C94.8997 75.4279 94.5967 75.3555 94.2476 75.1793C93.9209 74.9645 93.6276 74.6918 93.3678 74.3613C93.113 73.9306 92.9618 73.5728 92.9144 73.2879C92.8583 72.9722 92.8909 72.6177 93.0123 72.2245C93.2579 71.8001 93.3632 71.5264 93.3283 71.4032C93.2935 71.2801 93.1053 71.2613 92.7639 71.347C92.5467 71.4015 92.1824 71.6413 91.6711 72.0664C91.1822 72.4529 90.6728 72.9435 90.143 73.5381C89.6356 74.0941 89.2144 74.6615 88.8796 75.2402C88.4468 75.9424 88.2031 76.4322 88.1487 76.7097C88.1253 76.9794 88.1877 77.3759 88.3359 77.8994C88.4579 78.3304 88.7035 78.8459 89.0728 79.4458C89.4731 80.0378 89.8123 80.4144 90.0906 80.5754C90.0906 80.5754 90.2603 80.7637 90.5995 81.1402C90.9301 81.486 91.3159 81.8508 91.7571 82.2348C93.2149 83.9795 93.8486 85.3375 93.6581 86.3086C93.4677 87.2798 92.4742 88.0567 90.6779 88.6394ZM105.765 87.7721C104.697 87.8752 103.89 87.6655 103.343 87.1432C102.836 86.6438 102.501 85.755 102.339 84.4767C102.359 83.8449 102.32 83.2942 102.22 82.8246C102.143 82.3164 102.195 81.9734 102.378 81.7957C102.378 81.7957 102.38 81.7457 102.385 81.6455C102.421 81.5375 102.379 81.4491 102.26 81.3801C102.147 80.9798 102.13 80.3905 102.208 79.6122C102.218 79.4119 102.235 79.1769 102.258 78.9072C102.304 78.599 102.327 78.4448 102.327 78.4448C102.102 78.2375 102.045 78.0373 102.157 77.8444C102.268 77.6515 102.384 77.474 102.505 77.3119C102.647 77.1113 102.615 76.938 102.407 76.7922C102.31 76.6846 102.31 76.3881 102.405 75.9025C102.491 75.3861 102.605 74.8465 102.745 74.2838C102.884 73.7211 102.962 73.2895 102.976 72.989C102.959 72.9274 102.976 72.6924 103.026 72.284C103.077 71.8755 103.141 71.3978 103.219 70.8506C103.297 70.3034 103.372 69.8063 103.445 69.3593C103.549 68.9046 103.614 68.6078 103.642 68.4691C103.908 68.2372 103.754 68.1606 103.178 68.2392C102.602 68.3178 102.007 68.4504 101.395 68.637C100.425 68.8476 99.6355 68.9961 99.0284 69.0825C98.4523 69.1611 97.9475 69.1394 97.514 69.0173C97.0196 68.6797 96.7927 68.4069 96.8336 68.1988C96.8967 67.9521 97.2343 67.7355 97.8463 67.5489C98.2411 67.4169 98.5471 67.3236 98.7644 67.2691C99.0127 67.2068 99.3187 67.1135 99.6824 66.9892C100.069 66.8264 100.667 66.5937 101.479 66.291L103.801 65.5105L103.719 64.6903C103.854 64.2277 103.955 63.823 104.023 63.4761C104.114 63.0907 104.173 62.7131 104.201 62.3432C104.23 61.9734 104.223 61.5959 104.18 61.2109C104.18 61.2109 104.25 60.9295 104.39 60.3668C104.521 59.7732 104.539 59.1916 104.444 58.6218C104.643 57.9125 104.812 57.2765 104.951 56.7138C105.083 56.1202 105.162 55.7541 105.189 55.6154C105.452 55.2526 105.646 55.0556 105.77 55.0245C105.925 54.9855 106.279 55.0616 106.832 55.2527C107.155 55.3365 107.455 55.459 107.733 55.62C108.012 55.781 108.217 55.9769 108.348 56.2076C108.472 56.4076 108.439 56.6465 108.252 56.9243C108.225 57.063 108.197 57.3173 108.169 57.6872C108.132 58.0262 108.113 58.3113 108.112 58.5424C107.987 58.8047 107.854 59.2172 107.714 59.7799C107.597 60.3041 107.561 60.8242 107.607 61.3402C107.507 61.9259 107.41 62.4616 107.314 62.9472C107.21 63.4019 107.096 63.6449 106.972 63.6761C107.121 63.9684 107.351 64.0756 107.662 63.9977C107.963 63.8891 108.467 63.7298 109.172 63.5198C109.744 63.3103 110.13 63.1475 110.33 63.0314C110.552 62.8767 110.84 62.8374 111.194 62.9134C111.41 63.09 111.604 63.3052 111.776 63.559C111.947 63.8127 112.037 64.0705 112.045 64.3324C112.074 64.5557 111.994 64.7408 111.803 64.8877C111.648 64.9267 111.348 65.1008 110.904 65.4102C110.482 65.681 109.918 65.9213 109.213 66.1312L106.811 66.9813L106.464 68.7502C106.36 69.205 106.278 69.6212 106.219 69.9989C106.151 70.3457 106.094 70.5577 106.05 70.6349C106.102 70.8196 106.072 71.124 105.959 71.548C105.878 71.9642 105.789 72.4151 105.694 72.9007C105.656 73.4708 105.574 74.0026 105.447 74.496C105.352 74.9816 105.304 75.2243 105.304 75.2243C105.18 75.2555 105.144 75.3634 105.197 75.5482C105.456 75.8787 105.488 76.1675 105.292 76.4146C105.163 76.5459 105.063 76.7195 104.991 76.9354C104.941 77.1127 104.917 77.2014 104.917 77.2014C105.076 77.2934 105.135 77.4434 105.094 77.6515C105.084 77.8518 105.048 78.0753 104.985 78.322C105.054 78.5684 105.077 78.9419 105.053 79.4427C105.059 79.9357 105.041 80.4018 105 80.841C105.187 81.3875 105.319 81.7338 105.393 81.8799C105.468 82.0261 105.563 82.0682 105.678 82.0063C105.842 81.9981 105.982 81.9631 106.097 81.9011C106.213 81.8392 106.333 81.7926 106.457 81.7615C106.839 81.4677 106.911 82.6038 106.674 85.1697C106.395 86.0641 106.21 86.704 106.12 87.0894C106.038 87.5056 105.92 87.7332 105.765 87.7721ZM126.064 82.5795C125.692 82.6729 125.325 82.5507 124.963 82.2127C124.724 82.0747 124.526 81.8441 124.368 81.521C124.25 81.2209 124.198 80.624 124.21 79.7304C124.215 78.8059 124.263 77.3922 124.356 75.4892C124.335 74.2413 124.344 73.3322 124.382 72.7621C124.412 72.1611 124.391 71.7375 124.322 71.4912C124.226 71.1525 124.178 70.8676 124.179 70.6365C124.203 70.3668 124.184 70.1242 124.123 69.9086C124.309 69.8619 124.447 69.6458 124.538 69.2604C124.628 68.875 124.653 68.3742 124.611 67.758C124.587 67.2034 124.578 66.7605 124.584 66.4292C124.612 66.0594 124.609 65.8129 124.574 65.6897C124.66 65.4045 124.706 64.9806 124.713 64.4183C124.751 63.8481 124.852 63.1468 125.015 62.3144C125.002 61.3284 125.011 60.3038 125.042 59.2406C125.065 58.1467 125.11 57.1297 125.176 56.1897C125.265 55.2111 125.348 54.4482 125.426 53.901C125.497 52.8609 125.574 52.1327 125.655 51.7165C125.728 51.2695 125.654 51.0077 125.433 50.9313C125.172 50.8319 125.051 50.5818 125.071 50.1812C125.091 49.7806 125.314 49.2792 125.742 48.6772C125.97 48.1912 126.187 47.8401 126.392 47.6239C126.588 47.3768 126.872 47.2066 127.244 47.1131C127.648 47.0119 128.231 46.8986 128.993 46.7732C129.56 46.6638 130.154 46.5313 130.775 46.3755C131.427 46.2119 131.83 46.1107 131.986 46.0717C132.3 46.1248 132.68 46.1777 133.128 46.2304C133.566 46.2523 133.958 46.2859 134.303 46.3312C134.679 46.3687 134.88 46.4336 134.907 46.526C134.959 46.7107 135.056 46.8183 135.197 46.8487C135.361 46.8406 135.525 46.8324 135.689 46.8243C135.906 46.7698 136.249 46.8651 136.717 47.1104C137.177 47.3248 137.678 47.6277 138.221 48.0191C138.756 48.3797 139.205 48.7945 139.571 49.2634C139.967 49.7245 140.293 50.1704 140.548 50.6011C140.834 51.024 141.021 51.686 141.11 52.5871C141.21 53.0567 141.263 53.5381 141.269 54.0311C141.307 54.5163 141.286 54.8515 141.205 55.0366C141.054 55.2065 140.926 55.4032 140.824 55.6269C140.721 55.8506 140.691 56.0394 140.735 56.1934C140.769 56.3165 140.731 56.5901 140.618 57.0141C140.496 57.4073 140.33 57.8777 140.12 58.4252C139.909 58.9727 139.667 59.5281 139.395 60.0912C139.122 60.6543 138.847 61.1519 138.571 61.584C138.307 62.1779 137.956 62.7605 137.52 63.3318C137.114 63.8952 136.733 64.37 136.377 64.7562C135.675 65.3282 134.879 65.9235 133.99 66.5422C133.133 67.1531 132.289 67.6947 131.458 68.1669C130.659 68.6313 129.96 68.9221 129.362 69.0392C128.497 69.3883 127.942 69.6594 127.697 69.8527C127.475 70.0073 127.363 70.3158 127.361 70.778C127.319 71.2172 127.281 71.6718 127.248 72.1418C127.237 72.5732 127.254 72.8659 127.297 73.0199C127.27 73.1586 127.224 73.5824 127.159 74.2913C127.116 74.9617 127.072 75.7475 127.028 76.649C127.015 77.5426 126.998 78.4209 126.976 79.2837C126.954 80.1466 126.956 80.8553 126.98 81.4099C126.977 81.8721 126.892 82.1574 126.723 82.2657C126.563 82.4048 126.343 82.5094 126.064 82.5795ZM127.784 66.8134C127.943 66.9054 128.429 66.8001 129.241 66.4974C130.053 66.1948 130.887 65.738 131.745 65.127C132.305 64.7557 132.851 64.3383 133.385 63.8746C133.95 63.4031 134.474 62.9087 134.96 62.3912C135.209 62.0978 135.566 61.5961 136.029 60.8861C136.493 60.1761 136.927 59.3584 137.33 58.4328C137.379 58.2555 137.451 57.9241 137.547 57.4385C137.664 56.9143 137.76 56.4288 137.832 55.9818C137.99 55.4806 138.09 54.7793 138.134 53.8779C138.17 52.9456 138.031 52.2219 137.719 51.7066C137.338 50.945 136.725 50.3073 135.881 49.7935C135.029 49.2488 134.118 48.9663 133.148 48.9458C132.431 48.994 131.839 49.0765 131.373 49.1933C130.939 49.3024 130.471 49.4693 129.969 49.6941C129.516 49.9726 129.205 50.2816 129.035 50.621C128.896 50.9527 128.767 51.6117 128.647 52.598C128.552 53.0836 128.429 53.8235 128.278 54.8177C128.119 55.781 128.008 56.6826 127.947 57.5225C127.963 59.6948 127.88 61.5131 127.696 62.9773C127.534 64.4029 127.439 65.3006 127.411 65.6704C127.538 66.0013 127.592 66.2515 127.574 66.4211C127.546 66.5598 127.617 66.6906 127.784 66.8134ZM148.462 74.2879C148.068 74.42 147.733 74.4709 147.459 74.4409C147.175 74.38 146.817 74.2886 146.384 74.1665C145.553 73.8144 144.892 73.4195 144.403 72.9817C143.935 72.5054 143.643 72.0016 143.526 71.4704C143.51 71.1777 143.44 70.9314 143.317 70.7314C143.225 70.5237 143.179 70.4198 143.179 70.4198C142.949 70.3126 142.861 70.2358 142.914 70.1894C142.959 70.1122 142.979 70.0082 142.975 69.8772C143.206 69.7534 143.189 69.5762 142.925 69.3458C142.762 69.1229 142.652 68.557 142.594 67.6481C142.558 66.7007 142.602 65.7992 142.726 64.9438C142.785 64.5662 142.876 64.0652 142.999 63.4409C143.152 62.8088 143.337 62.1689 143.552 61.5212C143.759 60.8427 143.97 60.2952 144.184 59.8786C144.649 58.9375 145.093 58.216 145.516 57.7142C145.962 57.1737 146.491 56.6946 147.104 56.277C147.655 55.8749 148.066 55.6234 148.336 55.5225C148.607 55.4216 149.047 55.509 149.657 55.7847C150.463 55.8133 151.109 55.981 151.595 56.2878C152.103 56.556 152.579 57.0632 153.023 57.8092C153.524 58.6398 153.902 59.6826 154.157 60.9376C154.435 62.154 154.348 63.8413 153.895 65.9995C153.645 67.3483 153.313 68.4046 152.897 69.1684C152.513 69.9244 152.013 70.7423 151.398 71.6222C150.947 72.2628 150.513 72.784 150.095 73.1857C149.677 73.5874 149.133 73.9548 148.462 74.2879ZM150.631 67.8573C150.99 66.7778 151.232 65.8103 151.355 64.9549C151.501 64.0609 151.513 62.9862 151.39 61.7309C151.356 61.3766 151.254 60.9571 151.084 60.4722C150.905 59.9566 150.692 59.4988 150.446 59.0989C150.231 58.6912 150.026 58.4953 149.831 58.5112C149.384 58.4585 148.933 58.5715 148.48 58.85C148.019 59.0978 147.58 59.6036 147.165 60.3674C146.811 61.1156 146.526 61.9291 146.31 62.8079C146.124 63.6789 145.991 64.6191 145.911 65.6284C145.832 66.6378 145.785 67.7049 145.77 68.8296C145.791 70.0775 146.06 70.9666 146.575 71.4967C147.122 72.019 147.771 72.0211 148.522 71.5029C149.264 70.954 149.967 69.7387 150.631 67.8573ZM161.825 71.4296C161.165 71.3312 160.515 71.1481 159.874 70.8802C159.224 70.5816 158.783 70.3132 158.549 70.075C158.471 69.7979 158.465 69.6014 158.532 69.4857C158.59 69.3392 158.841 69.2268 159.284 69.1486C159.75 69.0317 160.512 68.9064 161.571 68.7725C161.944 68.6791 162.401 68.5315 162.942 68.3297C163.483 68.1279 163.969 67.907 164.4 67.6671C164.861 67.4193 165.097 67.1952 165.107 66.9949C165.262 66.956 165.28 66.902 165.161 66.833C165.033 66.7332 164.889 66.6373 164.73 66.5453C164.606 66.5765 164.454 66.5653 164.272 66.5119C164.082 66.4277 163.925 66.4011 163.801 66.4323C163.757 66.2783 163.554 66.1479 163.192 66.0411C162.851 65.8956 162.508 65.8003 162.163 65.755C161.323 65.3721 160.594 65.0274 159.976 64.721C159.348 64.3838 159.075 64.1226 159.156 63.9375C159.121 63.8143 159.103 63.7527 159.103 63.7527C159.095 63.7219 159.09 63.7066 159.09 63.7066C158.873 63.7611 158.537 63.5155 158.084 62.9698C157.661 62.4163 157.38 61.8932 157.241 61.4006C157.136 61.0311 157.114 60.542 157.174 59.9332C157.226 59.2937 157.351 58.6193 157.549 57.91C157.747 57.2008 157.991 56.5954 158.282 56.0938C158.692 55.4302 159.234 54.7008 159.906 53.9055C160.57 53.0794 161.24 52.3341 161.916 51.6698C162.615 50.9669 163.221 50.4683 163.736 50.1742C164.234 49.8185 164.716 49.5822 165.181 49.4654C165.678 49.3408 166.143 49.3395 166.576 49.4616C166.93 49.5376 167.275 49.6985 167.611 49.9441C167.968 50.1511 168.284 50.3852 168.557 50.6463C168.853 50.8689 169.062 51.0802 169.185 51.2802C169.29 51.6497 169.377 52.0731 169.445 52.5505C169.505 52.9972 169.521 53.4054 169.493 53.7753C169.496 54.1373 169.388 54.3456 169.171 54.4001C169.171 54.4001 169.129 54.4272 169.044 54.4814C168.982 54.4969 168.973 54.5817 169.017 54.7357C169.104 55.0436 168.971 55.4561 168.619 55.9732C168.143 56.5214 167.7 56.8962 167.292 57.0976C166.875 57.2683 166.563 57.1651 166.357 56.7882C166.229 56.6884 166.136 56.5962 166.079 56.5116C166.022 56.4271 165.931 56.4003 165.807 56.4315C165.807 56.4315 165.747 56.397 165.628 56.328C165.509 56.259 165.419 56.1167 165.358 55.9012C165.323 55.778 165.339 55.6586 165.406 55.5428C165.464 55.3963 165.493 55.323 165.493 55.323C165.648 55.2841 165.802 55.0641 165.955 54.6631C166.098 54.2313 166.207 53.792 166.279 53.3449C166.375 52.8594 166.401 52.5396 166.357 52.3856C166.305 52.2009 166.243 52.1009 166.172 52.0857C166.133 52.0627 165.989 52.0824 165.74 52.1447C165.358 52.4384 164.9 52.8172 164.367 53.2808C163.833 53.7445 163.33 54.2004 162.859 54.6485C162.41 55.058 162.096 55.4171 161.917 55.7257C161.854 55.9724 161.816 56.1304 161.802 56.1998C161.78 56.2384 161.706 56.2732 161.582 56.3044C161.547 56.1812 161.456 56.2701 161.309 56.5709C161.183 56.8332 161.022 57.2034 160.825 57.6815C160.659 58.1519 160.493 58.6223 160.327 59.0926C160.183 59.5244 160.076 59.8483 160.004 60.0641C159.959 60.1413 159.934 60.3455 159.928 60.6768C159.944 60.9695 159.987 61.239 160.057 61.4853C160.037 61.8859 160.127 62.1438 160.326 62.2588C160.516 62.343 160.936 62.5344 161.585 62.8331C162.898 63.361 163.939 63.8089 164.708 64.1765C165.477 64.5442 166.065 64.8584 166.471 65.1192C166.877 65.3801 167.151 65.6412 167.291 65.9028C168.111 66.6863 168.482 67.3516 168.405 67.8988C168.327 68.4459 167.921 69.0094 167.188 69.5892C166.921 69.821 166.444 70.0727 165.756 70.3442C165.068 70.6157 164.352 70.8449 163.607 71.0318C162.871 71.2495 162.277 71.3821 161.825 71.4296ZM179.274 66.7542C178.805 66.74 178.409 66.691 178.086 66.6072C177.754 66.4925 177.299 66.2935 176.72 66.01C176.208 65.6109 175.783 65.223 175.443 64.8464C175.135 64.4621 174.871 64.0006 174.652 63.462C174.425 62.8925 174.185 62.1614 173.932 61.2684C173.827 60.899 173.732 60.3292 173.647 59.559C173.593 58.7811 173.546 57.9685 173.506 57.1213C173.488 56.2354 173.465 55.4497 173.437 54.7642C173.44 54.0709 173.431 53.6279 173.41 53.4354C173.39 53.0118 173.169 52.8198 172.748 52.8594C172.327 52.8991 171.873 52.9966 171.385 53.152C170.92 53.2689 170.596 53.3006 170.415 53.2471C170.282 53.2475 170.207 53.2169 170.189 53.1553C170.163 53.0629 170.15 53.0168 170.15 53.0168C170.115 52.8936 170.078 52.8205 170.038 52.7975C170.021 52.7359 169.944 52.6398 169.807 52.5093C169.71 52.4017 169.693 52.2245 169.756 51.9779C169.842 51.6926 170.046 51.4763 170.37 51.3291C170.632 51.1974 170.992 51.0578 171.449 50.9101C171.928 50.724 172.394 50.4916 172.847 50.213C173.291 49.9037 173.616 49.5253 173.822 49.0779C173.91 48.3305 174.022 47.4943 174.159 46.5695C174.296 45.6447 174.444 44.8162 174.602 44.0839C174.783 43.3131 174.914 42.8351 174.994 42.65C175.444 42.2405 175.801 42.0354 176.067 42.0346C176.324 42.0031 176.677 42.1947 177.127 42.6095C177.343 42.7861 177.5 42.9282 177.597 43.0358C177.725 43.1356 177.792 43.3164 177.8 43.5783C177.808 43.8402 177.746 44.2679 177.615 44.8615C177.515 45.4472 177.34 46.2989 177.092 47.4166C177.023 47.7634 176.962 48.0756 176.908 48.3531C176.845 48.5998 176.813 48.7231 176.813 48.7231C176.946 48.7227 177.137 48.6914 177.385 48.6291C177.633 48.5668 177.939 48.4735 178.303 48.3493C178.627 48.202 179.048 48.0468 179.567 47.8836C180.078 47.6896 180.497 47.5845 180.824 47.5682C181.538 47.389 182.105 47.3952 182.525 47.5866C182.936 47.7473 183.244 48.1316 183.45 48.7396C183.608 49.0628 183.587 49.2824 183.387 49.3985C183.218 49.5068 182.715 49.6661 181.877 49.8764C181.597 49.9464 181.167 50.0709 180.586 50.2496C180.005 50.4284 179.393 50.615 178.75 50.8093C178.138 50.9959 177.608 51.1784 177.16 51.3568C176.734 51.4966 176.53 51.5973 176.547 51.6589C176.471 51.7438 176.399 52.0753 176.33 52.6532C176.292 53.2234 176.26 53.8744 176.235 54.6063C176.231 55.2996 176.226 55.9275 176.219 56.4899C176.298 57.5913 176.424 58.681 176.596 59.759C176.799 60.8292 177.041 61.7414 177.321 62.4956C177.601 63.2498 177.924 63.7458 178.291 63.9836C178.648 64.1906 179.209 64.1159 179.972 63.7594C180.727 63.3722 181.296 62.9161 181.679 62.3913C182.107 61.7892 182.492 61.4454 182.833 61.3597C183.206 61.2662 183.456 61.3849 183.582 61.7158C183.732 62.0082 183.687 62.4975 183.449 63.1837C183.234 63.8314 182.908 64.4409 182.471 65.0121C182.026 65.5526 181.519 65.9931 180.95 66.3336C180.404 66.6355 179.845 66.7757 179.274 66.7542ZM191.675 63.0489C190.123 63.4383 188.833 63.1684 187.805 62.2391C187.501 61.9857 187.305 61.705 187.218 61.3971C187.153 61.0507 187.181 60.7964 187.301 60.6343C187.453 60.4644 187.7 60.5176 188.045 60.794C188.549 60.9313 189.204 60.8987 190.011 60.6962C190.415 60.5949 190.825 60.459 191.242 60.2884C191.651 60.087 192.05 59.8548 192.441 59.5918C192.846 59.2595 193.104 58.9968 193.216 58.8039C193.318 58.5803 193.244 58.4341 192.992 58.3654L193.038 58.3538C192.17 58.3407 191.252 58.2084 190.283 57.9569C189.337 57.6667 188.49 57.3185 187.744 56.9123C186.988 56.4752 186.499 56.0375 186.275 55.599C185.756 54.7068 185.544 53.7213 185.638 52.6426C185.722 51.533 185.997 50.5077 186.462 49.5666C186.667 49.3504 186.925 49.0877 187.236 48.7787C187.539 48.439 187.795 48.2264 188.003 48.1411L188.016 48.1873C188.432 47.4235 189.006 46.7517 189.74 46.172C190.504 45.5844 191.324 45.016 192.199 44.4666L192.871 44.199C193.226 44.044 193.528 43.9353 193.776 43.873C193.745 43.8808 193.816 43.896 193.988 43.9186C194.152 43.9105 194.301 43.9062 194.434 43.9059C194.646 43.9515 194.814 43.9587 194.938 43.9276C195.359 43.8879 195.784 43.9792 196.213 44.2014C196.641 44.4237 197.01 44.727 197.318 45.1113C197.648 45.457 197.835 45.8225 197.878 46.2075C197.981 46.8081 197.943 47.3783 197.763 47.918C197.615 48.45 197.347 48.7973 196.961 48.9602C197.015 48.9138 196.955 48.8793 196.782 48.8567C196.632 48.7954 196.466 48.7381 196.285 48.6847L196.171 48.8121C196.171 48.8121 196.147 48.7852 196.099 48.7314C196.073 48.639 196.011 48.5391 195.914 48.4315C195.769 48.2701 195.666 48.0817 195.605 47.8661C195.535 47.6198 195.476 47.3542 195.429 47.0693C195.395 46.715 195.338 46.5149 195.259 46.4689C195.21 46.4151 194.996 46.4195 194.614 46.4822C194.154 46.4989 193.539 46.7355 192.771 47.1921C192.034 47.6409 191.447 48.151 191.01 48.7222C190.449 49.3246 189.993 49.8844 189.64 50.4015C189.279 50.8878 189.012 51.3507 188.837 51.7903C188.653 52.1991 188.518 52.6617 188.432 53.178C188.338 53.4325 188.259 53.6831 188.196 53.9298C188.155 54.1379 188.156 54.3189 188.2 54.4729C188.296 54.8115 188.644 55.1033 189.246 55.3482C189.869 55.5545 190.758 55.7601 191.913 55.9649C192.816 56.1011 193.604 56.2992 194.276 56.5593C194.948 56.8194 195.466 57.1839 195.832 57.6528C195.929 57.7604 195.988 57.9105 196.009 58.103C196.053 58.2569 196.052 58.3725 196.007 58.4497C196.087 58.4957 196.131 58.5341 196.14 58.5648L196.127 58.5187C196.48 58.8258 196.588 59.2107 196.453 59.6733C196.35 60.1281 196.062 60.5795 195.59 61.0276C195.141 61.4371 194.55 61.8162 193.818 62.1649L193.864 62.1532C193.496 62.3776 193.118 62.5712 192.732 62.734C192.369 62.8583 192.016 62.9633 191.675 63.0489Z" fill="black"/>
</svg>
