<svg width="260" height="168" viewBox="0 0 260 168" fill="none" xmlns="http://www.w3.org/2000/svg">
<path d="M221.824 76.5468C227.685 78.2936 229.883 85.657 231.709 90.7129C234.77 99.1889 235.87 108.463 234.965 117.65C233.512 132.406 226.619 146.323 216.247 157.641C218.555 156.581 220.865 155.521 223.175 154.46C225.228 153.518 226.862 156.263 224.79 157.316C219.038 160.235 213.281 163.149 207.523 166.061C206.11 166.775 204.654 165.693 205.04 164.236C207.049 156.621 209.007 148.992 211.11 141.392C211.684 139.314 214.878 140.091 214.361 142.151C212.914 147.929 211.385 153.695 209.859 159.459C220.075 149.81 227.481 137.988 230.574 124.71C232.477 116.544 232.706 108.217 231.304 100.186C230.188 93.8011 227.924 80.599 221.144 77.9927C220.31 77.6732 220.966 76.2898 221.824 76.5468Z" fill="#040606"/>
<path d="M26.1242 112.541C24.7955 112.544 23.5038 112.209 22.2491 111.534C21.0255 110.852 20.1346 110.053 19.5763 109.138C19.432 108.746 19.2373 108.234 18.9922 107.603C18.7781 106.964 18.5926 106.368 18.4358 105.813C18.3099 105.251 18.265 104.916 18.3009 104.808C18.3766 104.724 18.3708 104.527 18.2837 104.219C18.2178 104.104 18.1766 103.9 18.1603 103.607C18.1662 103.276 18.1722 102.945 18.1782 102.613C18.2288 102.205 18.2235 101.893 18.1625 101.677C18.0928 101.431 18.025 101.25 17.9591 101.135C17.9591 101.135 17.9795 101.031 18.0203 100.823C18.0524 100.584 18.1131 100.387 18.2024 100.233C18.3364 100.001 18.3617 99.7971 18.2783 99.6202C18.226 99.4355 18.1999 99.3431 18.1999 99.3431C18.134 99.2277 18.1171 99.0506 18.1492 98.8117C18.1813 98.5728 18.2265 98.3801 18.2847 98.2335C18.3294 98.1564 18.3721 98.0138 18.4129 97.8056C18.4761 97.559 18.5076 97.4356 18.5076 97.4356C18.4815 97.3432 18.4738 97.0814 18.4847 96.6499C18.5266 96.2107 18.5753 95.7368 18.6308 95.2282C18.6775 94.6889 18.7219 94.1996 18.7638 93.7603C18.8367 93.3133 18.9023 93.0166 18.9605 92.8701L18.9344 92.7777C18.9714 92.4386 19.0506 92.0725 19.172 91.6793C19.1594 91.5175 19.1673 91.2517 19.1956 90.8819C19.2151 90.4813 19.2546 90.0921 19.3139 89.7145C19.4461 88.8899 19.6298 87.9534 19.865 86.9051C20.1224 85.8182 20.4153 84.7389 20.7435 83.6672C21.0631 82.5647 21.3821 81.5778 21.7005 80.7064C22.0413 79.7965 22.3612 79.1061 22.6601 78.6354C23.0221 77.918 23.354 77.5049 23.6556 77.3963C23.9573 77.2876 24.4063 77.4058 25.0026 77.7508C25.2809 77.9118 25.5101 78.1346 25.6904 78.4191C25.8707 78.7037 25.9801 78.973 26.0188 79.2271C26.0798 79.4426 26.0526 79.5814 25.9372 79.6433C25.7548 79.821 25.5291 80.2569 25.2602 80.9509C24.9825 81.6142 24.6733 82.4008 24.3325 83.3107C24.0228 84.2129 23.7217 85.1458 23.4294 86.1096C23.1594 87.0347 22.9297 87.8673 22.7403 88.6074C22.5895 89.6016 22.4393 90.4802 22.2896 91.2432C22.1313 91.9755 22.0521 92.3416 22.0521 92.3416C22.0472 92.4418 22.0379 92.5265 22.0243 92.5959C22.0107 92.6653 21.9971 92.7346 21.9835 92.804C21.7881 93.8753 21.6485 94.8502 21.5648 95.7286C21.4723 96.5763 21.3929 97.4701 21.3265 98.4101C21.2013 98.6724 21.1537 98.9152 21.1836 99.1385C21.2136 99.3618 21.2286 99.4735 21.2286 99.4735C21.1578 99.4583 21.133 99.5469 21.1543 99.7394C21.1668 99.9012 21.1571 100.102 21.125 100.34C21.0046 100.503 20.9682 100.726 21.0156 101.011C21.0543 101.265 21.1085 101.515 21.1782 101.762C21.1178 102.37 21.1078 103.098 21.1482 103.946C21.1798 104.762 21.2537 105.551 21.3698 106.314C21.5081 107.038 21.6495 107.596 21.7938 107.988C22.0041 108.496 22.403 108.907 22.9906 109.221C23.6005 109.497 24.2861 109.688 25.0473 109.793C25.4236 109.831 25.749 109.865 26.0234 109.895C26.2892 109.894 26.5307 109.866 26.7479 109.812C27.0049 109.78 27.3153 109.703 27.6791 109.578C28.0651 109.415 28.5821 109.187 29.2301 108.892L29.1835 108.904C29.5696 108.741 29.9668 108.559 30.3752 108.358C30.8059 108.118 31.2099 107.901 31.5873 107.707C31.9423 107.552 32.2818 107.401 32.6058 107.254C32.9211 107.076 33.1631 106.933 33.3319 106.824C33.9624 106.468 34.4242 106.22 34.7171 106.081C35.0013 105.911 35.2385 105.868 35.4285 105.952C35.6186 106.036 35.7708 106.163 35.8852 106.332C35.9908 106.47 36.0363 106.69 36.0216 106.99C36.0031 107.16 35.8202 107.453 35.4728 107.87C35.1167 108.256 34.6675 108.666 34.1252 109.098C33.6139 109.524 33.0896 109.902 32.5522 110.235C32.0099 110.668 31.326 111.07 30.5005 111.443C29.706 111.807 28.9053 112.09 28.0983 112.293C27.3224 112.487 26.6643 112.57 26.1242 112.541ZM38.5393 105.765C38.3455 105.55 38.138 105.404 37.9169 105.327C37.6871 105.22 37.5548 105.105 37.5199 104.982C37.485 104.859 37.4346 104.739 37.3687 104.624C37.3252 104.47 37.2239 104.347 37.0649 104.255C36.8574 104.109 36.7552 103.69 36.7584 102.996C36.7529 102.272 36.8323 101.379 36.9967 100.315C37.1523 99.2207 37.3725 98.0607 37.6571 96.835C37.8357 96.5264 37.9925 96.1408 38.1275 95.6782C38.2625 95.2156 38.3747 94.9072 38.4639 94.7529C38.4291 94.6297 38.4451 94.5103 38.5121 94.3945C38.5703 94.248 38.6615 94.1592 38.7857 94.128L38.7073 93.8509C38.6637 93.697 38.7293 93.4002 38.904 92.9606C39.1098 92.5132 39.369 92.0195 39.6815 91.4794C39.9853 90.9085 40.3133 90.3645 40.6656 89.8474C41.0091 89.2995 41.3099 88.8943 41.568 88.6317C42.0978 88.037 42.691 87.6079 43.3477 87.3442C44.0354 87.0727 44.6842 87.0747 45.2941 87.3504C45.4134 87.4194 45.6122 87.5344 45.8904 87.6954C46.1687 87.8565 46.4867 88.0405 46.8445 88.2475C47.2246 88.4159 47.6091 88.5998 47.9979 88.799L50.1519 89.8909L49.9676 92.4104C49.9127 93.7433 50.1091 94.8482 50.5568 95.7252C51.0355 96.5943 51.5725 97.317 52.1677 97.8931C52.4188 98.1929 52.8207 98.4383 53.3734 98.6294C53.9572 98.8127 54.475 98.8806 54.927 98.8331C55.184 98.8016 55.4429 98.8356 55.7038 98.935C55.9646 99.0345 56.143 99.2535 56.2389 99.5922C56.326 99.9001 56.3337 100.162 56.2618 100.378C56.1899 100.594 56.0075 100.771 55.7146 100.911C54.7252 101.291 53.6933 101.286 52.6189 100.896C51.5755 100.499 50.481 99.685 49.3351 98.4555C49.1587 98.302 48.8921 98.0061 48.5354 97.568C48.201 97.0913 47.9965 96.7798 47.9219 96.6337C47.8413 96.8188 47.6913 97.1697 47.4719 97.6864C47.2438 98.1724 47.0628 98.5311 46.9289 98.7625C45.3527 101.532 43.8666 103.505 42.4705 104.679C41.0968 105.816 39.7864 106.177 38.5393 105.765ZM39.4833 102.758C39.5443 102.973 39.8702 102.892 40.461 102.513C41.0741 102.095 41.6814 101.481 42.2831 100.67C43.0856 99.5126 43.862 98.2625 44.6122 96.92C45.3935 95.5698 45.9793 94.351 46.3696 93.2638L46.9232 91.3441C46.4124 90.7138 45.9359 90.3222 45.4937 90.1693C45.0739 89.9779 44.7398 89.9133 44.4915 89.9756C44.088 90.0769 43.5873 90.5982 42.9895 91.5397C42.4228 92.4734 41.8636 93.669 41.3122 95.1264C40.7607 96.5839 40.2906 98.1528 39.902 99.8333C39.7659 100.527 39.6566 101.197 39.5738 101.845C39.5135 102.454 39.4833 102.758 39.4833 102.758ZM61.2745 101.494C60.9157 101.519 60.5108 101.439 60.0599 101.255C59.6313 101.033 59.2251 100.772 58.8411 100.473C58.4795 100.135 58.2086 99.8234 58.0283 99.5389C58.0109 99.4773 57.9426 99.412 57.8233 99.343C57.7351 99.2662 57.691 99.2278 57.691 99.2278C57.5407 99.1666 57.3498 98.7858 57.1183 98.0854C56.9091 97.3465 56.7247 96.5188 56.5651 95.6026C56.4054 94.6863 56.3136 93.9508 56.2896 93.3962C56.3053 92.8647 56.3507 92.1443 56.4258 91.235C56.4921 90.295 56.5381 89.4591 56.5636 88.7272L57.0624 85.733L55.0563 85.6923C54.8216 85.6852 54.6005 85.6088 54.393 85.463C54.2166 85.3094 54.1109 85.171 54.0761 85.0478C54.0063 84.8015 54.0632 84.474 54.2467 84.0652C54.4214 83.6256 54.5709 83.3902 54.695 83.3591C54.8589 83.3509 55.1426 83.2962 55.5461 83.195C55.9806 83.0859 56.3953 82.9654 56.7901 82.8334C57.1848 82.7013 57.4244 82.6082 57.5088 82.5541C57.6156 82.4613 57.7179 82.3532 57.8159 82.2297C57.9052 82.0754 57.9504 81.8827 57.9515 81.6516C58.0108 81.2739 58.0633 80.931 58.109 80.6227C58.146 80.2836 58.2208 79.9021 58.3335 79.4781C58.4375 79.0233 58.5123 78.6418 58.558 78.3335C58.6348 78.0175 58.7586 77.5742 58.9295 77.0037C59.0237 76.7492 59.1203 76.4446 59.2194 76.09C59.3185 75.7354 59.4772 75.4152 59.6955 75.1296C59.9051 74.8132 60.154 74.6353 60.442 74.596C60.7524 74.5182 61.197 74.6209 61.7759 74.9044C62.1113 75.15 62.3164 75.3459 62.391 75.492C62.4656 75.6382 62.4243 75.9618 62.2669 76.463C62.1668 77.0487 62.0201 77.6462 61.8269 78.2553C61.6646 78.8566 61.5179 79.454 61.3868 80.0475C61.0819 80.8495 61.0977 81.2578 61.4343 81.2723C61.7708 81.2868 62.6224 81.0071 63.9891 80.4333C64.8457 80.0535 65.5105 79.9361 65.9837 80.0812C66.4482 80.1955 66.7856 80.5066 66.9959 81.0144C67.2981 81.73 67.3469 82.1959 67.1422 82.4122C66.9375 82.6285 66.2454 82.8846 65.066 83.1805C64.3559 83.4906 63.7414 83.7272 63.2225 83.8904C62.6949 84.0228 62.3069 84.1202 62.0586 84.1825C61.6638 84.3145 61.4043 84.3961 61.2802 84.4273C61.156 84.4584 60.9785 84.536 60.7477 84.6598C60.5168 84.7837 60.3611 84.9382 60.2805 85.1233C60.2222 85.2699 60.1659 85.4819 60.1115 85.7593C60.0222 85.9136 59.9275 86.2837 59.8273 86.8694C59.7272 87.4552 59.5781 88.1027 59.3799 88.8119C59.3114 90.2141 59.305 91.6008 59.3607 92.9719C59.4077 94.3122 59.508 95.6061 59.6617 96.8536C59.7554 97.6545 59.9235 98.1895 60.1658 98.4584C60.3994 98.6966 60.8509 98.7647 61.5201 98.6627C61.8702 98.6078 62.4134 98.4715 63.1496 98.2538C63.9081 97.9975 64.4872 97.7533 64.8868 97.5211C65.1847 97.2815 65.498 97.038 65.8269 96.7906C66.1471 96.5124 66.4362 96.2419 66.6943 95.9793C66.93 95.7553 67.1658 95.5312 67.4016 95.3072C67.6286 95.0523 67.7421 94.9249 67.7421 94.9249C67.8276 94.6397 67.9765 94.5199 68.1889 94.5655C68.4013 94.6111 68.6218 94.8031 68.8505 95.1414C68.9551 95.5109 68.9865 95.9153 68.9446 96.3545C68.9027 96.7937 68.4636 97.415 67.6273 98.2185C66.4746 99.4311 65.3347 100.278 64.2076 100.758C63.1027 101.201 62.1251 101.446 61.2745 101.494ZM76.2904 98.2212C74.9247 98.5638 73.6636 98.3362 72.5069 97.5382C71.3415 96.7094 70.5564 95.5213 70.1517 93.974C69.9 92.85 69.7817 91.6101 69.7968 90.2542C69.8343 88.8598 70.0133 87.4958 70.3339 86.1622C70.6458 84.7978 71.0633 83.5718 71.5865 82.4842C72.1097 81.3965 72.738 80.5629 73.4715 79.9831C73.7383 79.7513 74.0293 79.5463 74.3446 79.3683C74.6909 79.1824 75.0502 79.0428 75.4227 78.9493C75.7641 78.8637 76.1385 78.8357 76.5458 78.8654C76.9444 78.8643 77.2853 78.8942 77.5684 78.955C78.1571 79.0382 78.6347 79.1986 79.0012 79.4364C79.3677 79.6742 79.7511 80.0892 80.1513 80.6813C80.4101 81.2429 80.5743 81.6469 80.644 81.8932C80.7137 82.1395 80.7407 82.5285 80.725 83.0601C80.6663 84.262 80.4554 85.3372 80.0923 86.2857C79.7291 87.2343 79.1294 88.1102 78.2931 88.9137C78.0884 89.13 77.8284 89.3271 77.5131 89.5051C77.2202 89.6446 76.903 89.7572 76.5616 89.8428C75.9408 89.9986 75.3051 90.0427 74.6543 89.9752C74.0259 89.869 73.4757 89.6279 73.0035 89.2517L72.573 88.964L72.5379 89.3685C72.4629 90.2777 72.4325 91.1098 72.4467 91.8647C72.492 92.6118 72.5974 93.2779 72.763 93.8629C72.8676 94.2324 72.9989 94.5787 73.1568 94.9018C73.3458 95.2171 73.5527 95.4785 73.7777 95.6859C73.9541 95.8394 74.1951 95.9274 74.5005 95.9497C74.8284 95.9334 75.163 95.8824 75.5044 95.7967C75.7216 95.7422 75.9389 95.6877 76.1562 95.6331C76.3958 95.54 76.6111 95.4201 76.8022 95.2732C77.2776 94.956 77.6399 94.6507 77.8893 94.3573C78.1697 94.0561 78.4458 93.7395 78.7175 93.4075L78.8775 93.2684L78.831 93.2801C79.1511 93.0019 79.4247 92.7354 79.6518 92.4806C79.9099 92.2179 80.0389 92.0866 80.0389 92.0866C80.1631 92.0555 80.2654 91.9473 80.346 91.7622C80.5594 91.5768 80.8829 91.5451 81.3164 91.6671C81.7809 91.7814 82.061 92.0079 82.1569 92.3466C82.1694 92.5083 82.0995 92.7897 81.9471 93.1907C81.7859 93.5609 81.5894 93.9235 81.3574 94.2785C81.1565 94.6257 80.9673 94.8381 80.7898 94.9156C80.7675 94.9542 80.6763 95.043 80.5162 95.1821C80.3474 95.2904 80.2407 95.3832 80.1961 95.4603L80.2426 95.4487C80.0679 95.8882 79.8408 96.1431 79.5615 96.2132L79.189 96.3066C79.1259 96.5533 78.7921 96.9009 78.1877 97.3493C77.5746 97.767 76.9422 98.0576 76.2904 98.2212ZM75.5093 87.5347C76.068 87.3945 76.5055 87.1198 76.8218 86.7107C77.1605 86.2629 77.4283 85.8 77.6254 85.3218C78.0109 84.3347 78.1412 83.4446 78.0164 82.6515C77.914 81.8198 77.664 81.2889 77.2664 81.0589C77.0541 81.0133 76.8703 81.0099 76.7151 81.0489C76.5822 81.0492 76.3315 81.1616 75.9628 81.386C75.7009 81.5177 75.3783 81.846 74.995 82.3709C74.6117 82.8958 74.2415 83.4668 73.8843 84.0841C73.5582 84.6935 73.319 85.1988 73.1665 85.5998L72.8358 86.7215C73.058 86.5669 73.2777 86.4623 73.495 86.4078C73.7345 86.3147 73.8786 86.295 73.927 86.3488C74.0055 86.6259 74.1261 86.8759 74.289 87.0989C74.4741 87.2833 74.6617 87.4176 74.8518 87.5018C75.0729 87.5782 75.292 87.5892 75.5093 87.5347ZM89.9078 94.2105C89.1493 94.4668 88.3913 94.6076 87.6339 94.6327C86.9075 94.6501 86.2437 94.5364 85.6425 94.2915C85.0636 94.0081 84.6026 93.6126 84.2595 93.1051C83.9203 92.7286 83.7288 92.4633 83.6853 92.3094C83.633 92.1246 83.698 91.9434 83.8804 91.7657C84.1287 91.7034 84.3678 91.7259 84.5976 91.8331C84.8497 91.9017 85.1683 91.9702 85.5533 92.0385C86.1321 92.3219 86.7518 92.3973 87.4123 92.2645C88.1039 92.124 88.6941 91.8604 89.1831 91.4739C89.672 91.0874 89.8952 90.7016 89.8527 90.3166C89.8179 90.1934 89.7103 89.9896 89.53 89.705C89.3498 89.4205 89.1496 89.1244 88.9296 88.8169C87.7604 87.8572 86.8128 86.8583 86.0868 85.8203C85.3832 84.7437 84.9268 83.836 84.7176 83.097C84.5607 82.5428 84.5658 81.9149 84.733 81.2134C84.8913 80.4812 85.2044 79.8255 85.6721 79.2465C86.0652 78.5213 86.5378 77.8421 87.0899 77.2089C87.642 76.5757 88.2115 76.0041 88.7984 75.494C89.4164 74.9762 89.983 74.5702 90.4981 74.2761C90.8395 74.1904 91.3026 74.1237 91.8875 74.0759C92.4723 74.028 92.8908 74.0384 93.1429 74.1071C93.5192 74.1446 93.9409 74.4015 94.4082 74.8778C94.8667 75.3234 95.1701 75.8079 95.3182 76.3313C95.3793 76.5468 95.3956 76.8395 95.3673 77.2094C95.3391 77.5792 95.2506 78.0301 95.102 78.5621C95.0737 78.9319 95.0256 79.2903 94.9575 79.6371C94.8808 79.9532 94.8598 80.1728 94.8947 80.2959C94.8354 80.6736 94.6661 80.8974 94.3867 80.9675C94.1297 80.999 93.8267 80.9267 93.4776 80.7505C93.1509 80.5356 92.8576 80.263 92.5978 79.9324C92.3429 79.5017 92.1918 79.1439 92.1444 78.859C92.0883 78.5433 92.1209 78.1889 92.2423 77.7957C92.4878 77.3713 92.5932 77.0976 92.5583 76.9744C92.5235 76.8512 92.3353 76.8325 91.9939 76.9182C91.7766 76.9727 91.4124 77.2125 90.9011 77.6376C90.4121 78.0241 89.9028 78.5146 89.373 79.1093C88.8656 79.6653 88.4444 80.2327 88.1096 80.8113C87.6767 81.5135 87.4331 82.0034 87.3787 82.2809C87.3553 82.5505 87.4177 82.9471 87.5658 83.4705C87.6879 83.9016 87.9335 84.4171 88.3027 85.0169C88.703 85.609 89.0423 85.9856 89.3206 86.1466C89.3206 86.1466 89.4902 86.3348 89.8295 86.7114C90.1601 87.0571 90.5459 87.422 90.987 87.806C92.4449 89.5507 93.0786 90.9086 92.8881 91.8798C92.6976 92.851 91.7042 93.6279 89.9078 94.2105ZM104.995 93.3433C103.927 93.4463 103.12 93.2367 102.573 92.7144C102.066 92.215 101.731 91.3262 101.569 90.0478C101.589 89.4161 101.55 88.8654 101.45 88.3957C101.373 87.8875 101.425 87.5446 101.608 87.3669C101.608 87.3669 101.61 87.3168 101.615 87.2167C101.651 87.1087 101.609 87.0202 101.49 86.9512C101.377 86.551 101.36 85.9617 101.438 85.1834C101.448 84.9831 101.465 84.7481 101.488 84.4784C101.534 84.1701 101.557 84.016 101.557 84.016C101.332 83.8086 101.275 83.6085 101.387 83.4156C101.498 83.2227 101.614 83.0452 101.735 82.8831C101.877 82.6824 101.845 82.5092 101.637 82.3634C101.54 82.2558 101.54 81.9592 101.635 81.4736C101.721 80.9573 101.835 80.4177 101.975 79.855C102.114 79.2922 102.192 78.8606 102.206 78.5601C102.189 78.4986 102.206 78.2636 102.256 77.8551C102.307 77.4467 102.371 76.9689 102.449 76.4218C102.527 75.8746 102.602 75.3775 102.675 74.9305C102.779 74.4757 102.844 74.179 102.872 74.0402C103.138 73.8084 102.984 73.7318 102.408 73.8104C101.832 73.889 101.237 74.0216 100.625 74.2081C99.6545 74.4188 98.8655 74.5673 98.2584 74.6537C97.6823 74.7323 97.1775 74.7106 96.744 74.5885C96.2495 74.2509 96.0227 73.978 96.0635 73.7699C96.1267 73.5233 96.4643 73.3066 97.0763 73.1201C97.4711 72.988 97.7771 72.8948 97.9944 72.8402C98.2427 72.7779 98.5487 72.6847 98.9124 72.5604C99.2985 72.3976 99.8975 72.1648 100.709 71.8622L103.031 71.0816L102.949 70.2614C103.084 69.7989 103.185 69.3941 103.253 69.0473C103.344 68.6619 103.403 68.2842 103.431 67.9144C103.46 67.5446 103.453 67.1671 103.41 66.782C103.41 66.782 103.48 66.5007 103.62 65.9379C103.751 65.3444 103.769 64.7627 103.674 64.1929C103.873 63.4837 104.042 62.8477 104.181 62.2849C104.313 61.6914 104.392 61.3253 104.419 61.1865C104.682 60.8237 104.876 60.6268 105 60.5956C105.155 60.5567 105.509 60.6328 106.062 60.8238C106.385 60.9077 106.685 61.0301 106.963 61.1911C107.242 61.3522 107.447 61.548 107.578 61.7788C107.702 61.9787 107.669 62.2176 107.482 62.4955C107.455 62.6342 107.427 62.8885 107.399 63.2583C107.362 63.5974 107.343 63.8825 107.342 64.1136C107.217 64.3758 107.084 64.7883 106.944 65.3511C106.827 65.8752 106.791 66.3953 106.837 66.9113C106.737 67.4971 106.639 68.0327 106.544 68.5183C106.44 68.9731 106.326 69.2161 106.202 69.2472C106.351 69.5396 106.581 69.6468 106.891 69.5689C107.193 69.4602 107.697 69.3009 108.402 69.091C108.974 68.8815 109.36 68.7186 109.56 68.6025C109.782 68.4479 110.07 68.4085 110.424 68.4846C110.64 68.6612 110.834 68.8764 111.006 69.1301C111.177 69.3839 111.267 69.6417 111.274 69.9036C111.304 70.1269 111.224 70.312 111.033 70.4589C110.878 70.4978 110.578 70.672 110.134 70.9813C109.712 71.2521 109.148 71.4925 108.443 71.7024L106.041 72.5525L105.694 74.3214C105.59 74.7762 105.508 75.1924 105.449 75.57C105.381 75.9169 105.324 76.1289 105.28 76.206C105.332 76.3908 105.302 76.6951 105.189 77.1191C105.108 77.5354 105.019 77.9863 104.924 78.4718C104.886 79.042 104.804 79.5738 104.677 80.0671C104.582 80.5527 104.534 80.7955 104.534 80.7955C104.41 80.8267 104.374 80.9346 104.427 81.1194C104.686 81.4499 104.718 81.7387 104.522 81.9857C104.393 82.117 104.293 82.2907 104.221 82.5065C104.171 82.6839 104.147 82.7725 104.147 82.7725C104.306 82.8645 104.365 83.0146 104.324 83.2227C104.314 83.423 104.278 83.6465 104.215 83.8932C104.284 84.1395 104.307 84.5131 104.282 85.0139C104.289 85.5069 104.271 85.973 104.23 86.4122C104.417 86.9586 104.549 87.3049 104.623 87.4511C104.698 87.5973 104.793 87.6394 104.908 87.5774C105.072 87.5693 105.212 87.5342 105.327 87.4723C105.443 87.4103 105.563 87.3638 105.687 87.3326C106.069 87.0389 106.141 88.1749 105.904 90.7409C105.625 91.6352 105.44 92.2751 105.35 92.6605C105.268 93.0768 105.15 93.3043 104.995 93.3433ZM132.024 86.5607C131.422 86.547 130.933 86.5213 130.557 86.4839C130.189 86.4772 130.005 86.4738 130.005 86.4738C130.024 86.3043 129.953 86.1735 129.794 86.0815C129.666 85.9817 129.427 85.9592 129.077 86.0141C128.533 85.8538 127.999 85.6088 127.473 85.279C126.987 84.9722 126.564 84.6498 126.202 84.3118C125.84 83.9738 125.558 83.6819 125.356 83.4359C125.008 83.0286 124.821 82.7787 124.794 82.6864C124.791 82.5554 124.938 82.3701 125.235 82.1305C125.507 81.7985 125.734 81.6592 125.915 81.7127C126.127 81.7583 126.432 82.0117 126.828 82.4728C127.432 83.0797 128.268 83.4472 129.334 83.5753C130.432 83.6955 131.582 83.5884 132.784 83.2539C134.008 82.8807 135.109 82.3077 136.087 81.5346C137.104 80.7846 137.683 80.1282 137.823 79.5655C137.985 78.9642 137.689 78.3295 136.935 77.6613C136.772 77.4384 136.607 77.2655 136.439 77.1427C136.271 77.0199 136.013 76.8704 135.664 76.6941C135.346 76.5101 134.814 76.215 134.067 75.8088C133.54 75.71 133.049 75.6189 132.593 75.5355C132.169 75.4442 131.709 75.3453 131.213 75.2388C130.647 75.1171 129.941 74.9149 129.097 74.6321C128.274 74.3108 127.47 73.9356 126.684 73.5063C125.897 73.0771 125.295 72.6512 124.876 72.2286C124.249 71.8914 123.698 71.3536 123.223 70.6154C122.739 69.8464 122.397 68.9922 122.198 68.0529C121.999 67.1136 121.996 66.2239 122.19 65.3837C122.255 64.9059 122.417 64.3046 122.677 63.5797C122.96 62.8163 123.289 62.0412 123.664 61.2544C124.04 60.4676 124.418 59.7463 124.797 59.0905C125.177 58.4347 125.507 57.9561 125.787 57.6549C125.965 57.3463 126.16 57.0338 126.369 56.7174C126.57 56.3702 126.671 56.1966 126.671 56.1966C126.658 56.0348 126.683 55.9462 126.745 55.9306C126.838 55.9072 126.885 55.8955 126.885 55.8955C127.014 55.7642 127.311 55.5246 127.778 55.1767C128.245 54.8287 128.706 54.2844 129.161 53.5436C130.961 52.0365 132.448 50.8885 133.621 50.0995C134.794 49.3105 135.799 48.8109 136.637 48.6006C137.422 48.4367 138.173 48.4462 138.889 48.6291C139.628 48.7735 140.273 49.0568 140.825 49.4789C141.408 49.8933 141.85 50.4583 142.153 51.1739C142.579 51.8584 142.761 52.7361 142.698 53.807C142.627 54.8472 142.372 55.884 141.933 56.9175C141.517 57.9124 140.982 58.7227 140.328 59.3485C139.563 59.9361 139.022 60.2534 138.702 60.3005C138.406 60.309 138.19 60.0168 138.055 59.424C137.986 59.1777 137.981 58.8657 138.04 58.4881C138.13 58.1027 138.441 57.3816 138.973 56.3247C139.557 54.6284 139.835 53.3218 139.808 52.4052C139.782 51.4886 139.445 51.0619 138.798 51.1253C138.594 51.1105 138.253 51.1961 137.774 51.3823C137.326 51.5607 136.824 51.7855 136.269 52.0567C135.737 52.2892 135.286 52.5177 134.917 52.7421C134.54 52.9357 134.36 53.0633 134.378 53.1249C134.378 53.1249 134.391 53.1711 134.417 53.2635C134.443 53.3558 134.39 53.4022 134.257 53.4026C134.195 53.4181 133.966 53.6075 133.57 53.9706C133.174 54.3338 132.707 54.7973 132.168 55.3611C131.63 55.9249 131.091 56.4888 130.553 57.0526C130.014 57.6164 129.556 58.1107 129.178 58.5354C128.821 58.9216 128.637 59.1493 128.623 59.2187C128.657 59.573 128.387 59.9704 127.814 60.4111C127.298 60.9364 126.876 61.6193 126.549 62.4598C126.252 63.2926 125.942 64.3103 125.618 65.513C125.291 66.3536 125.136 67.2168 125.154 68.1026C125.163 68.9577 125.346 69.6043 125.703 70.0424C125.998 70.4961 126.658 71.0066 127.682 71.5739C128.707 72.1411 129.925 72.627 131.336 73.0314C132.557 73.3516 133.669 73.6991 134.673 74.0738C135.668 74.4177 136.503 74.7852 137.179 75.1763C137.886 75.5595 138.389 75.9279 138.688 76.2814C139.209 76.7114 139.625 77.1841 139.938 77.6993C140.272 78.176 140.509 78.6607 140.648 79.1534C140.819 79.6382 140.899 80.0964 140.888 80.5278C140.81 81.0749 140.566 81.6803 140.155 82.344C139.776 82.9998 139.395 83.359 139.014 83.4217C138.699 83.5998 138.466 83.7737 138.314 83.9436C138.194 84.1057 138.038 84.2602 137.847 84.4071C137.665 84.5848 137.234 84.8248 136.555 85.1271C135.907 85.4216 135.168 85.6894 134.339 85.9304C133.519 86.2023 132.747 86.4124 132.024 86.5607ZM160.494 74.6681C159.873 74.8239 159.326 74.8292 158.853 74.6842C158.371 74.5083 157.903 74.1475 157.45 73.6018C157.204 73.2019 156.96 72.7519 156.719 72.2518C156.5 71.7132 156.325 71.2129 156.194 70.7511C156.055 70.2584 156.01 69.9235 156.059 69.7461C156.148 69.5918 156.134 69.3646 156.016 69.0645C155.92 68.7258 155.82 68.3717 155.715 68.0022C155.51 67.3942 155.259 67.0945 154.962 67.103C154.687 67.0729 154.341 67.2587 153.923 67.6605C153.46 68.1394 152.862 68.7842 152.127 69.5951C151.384 70.3752 150.611 71.2285 149.81 72.1551C149.04 73.074 148.324 74.0119 147.665 74.9689C147.191 75.8792 146.933 76.554 146.891 76.9932C146.872 77.3939 146.738 77.6253 146.489 77.6876C146.276 77.8731 146.063 77.943 145.851 77.8974C145.661 77.8132 145.376 77.6868 144.995 77.5184C144.708 77.3266 144.426 77.1502 144.148 76.9892C143.861 76.7974 143.669 76.6477 143.572 76.5401C143.528 76.3861 143.483 76.0512 143.437 75.5351C143.39 75.0191 143.36 74.4992 143.344 73.9754C143.36 73.4438 143.377 73.0933 143.396 72.9238C143.551 72.8848 143.632 72.6997 143.637 72.3684C143.674 72.0294 143.765 71.644 143.909 71.2122C143.866 70.8271 143.882 70.2955 143.956 69.6174C144.052 68.9007 144.139 68.2688 144.217 67.7216C144.442 66.8736 144.563 66.1839 144.579 65.6523C144.625 65.1129 144.575 64.4659 144.428 63.7114C144.362 63.596 144.363 63.4805 144.43 63.3647C144.488 63.2182 144.579 63.1294 144.703 63.0982C144.882 62.7896 145.159 62.654 145.536 62.6915C145.903 62.6982 146.279 62.8512 146.663 63.1506C147.431 63.7494 147.866 64.4646 147.968 65.2963C148.093 66.0895 147.91 67.3225 147.42 68.9955C147.342 69.5427 147.28 69.9704 147.234 70.2787C147.211 70.5484 147.221 70.7602 147.265 70.9141C147.265 70.9141 147.389 70.7674 147.639 70.474C147.919 70.1728 148.222 69.833 148.547 69.4547C148.894 69.0377 149.17 68.7211 149.375 68.5049C149.487 68.312 149.765 67.9453 150.211 67.4048C150.656 66.8644 151.137 66.3315 151.653 65.8063C152.191 65.2424 152.607 64.8908 152.9 64.7513C153.114 64.5659 153.347 64.3919 153.6 64.2294C153.845 64.0362 154.029 63.924 154.153 63.8928C154.401 63.8305 154.751 63.8912 155.202 64.0748C155.675 64.2199 156.135 64.4344 156.581 64.7182C157.018 64.9712 157.302 65.2131 157.434 65.4438C157.469 65.567 157.504 65.6901 157.539 65.8133C157.605 65.9287 157.671 66.044 157.737 66.1594C157.974 66.5285 158.189 67.0518 158.38 67.7292C158.603 68.3988 158.762 69.0185 158.857 69.5883C158.951 70.1581 158.934 70.5086 158.805 70.6399C158.805 70.6399 158.818 70.6861 158.845 70.7785C158.893 70.8323 158.979 70.8436 159.103 70.8125C159.138 70.9356 159.16 71.0126 159.169 71.0434C159.014 71.0823 158.991 71.2365 159.1 71.5058C159.201 71.7443 159.373 71.9981 159.615 72.267C159.888 72.5282 160.144 72.7278 160.383 72.8658C160.86 73.1418 161.115 73.457 161.149 73.8112C161.174 74.1347 160.956 74.4203 160.494 74.6681ZM164.499 73.5148C164.375 73.546 164.211 73.5541 164.007 73.5393C163.826 73.4858 163.735 73.4591 163.735 73.4591C163.7 73.336 163.61 73.1937 163.465 73.0323C163.35 72.8631 163.276 72.717 163.241 72.5938C162.989 72.5252 162.83 72.4332 162.764 72.3178C162.689 72.1716 162.666 71.9136 162.694 71.5438C162.793 71.1892 162.902 70.6342 163.021 69.8789C163.131 69.0929 163.243 68.2567 163.358 67.3705C163.464 66.4535 163.559 65.5558 163.643 64.6774C163.727 63.7989 163.799 63.0553 163.859 62.4466C163.911 61.8071 163.935 61.4218 163.931 61.2909C163.896 61.1677 163.899 61.0021 163.94 60.794C163.981 60.5859 164.046 60.4047 164.135 60.2504C164.322 59.9725 164.582 59.8909 164.913 60.0056C165.236 60.0894 165.547 60.3081 165.847 60.6617C166.169 60.9766 166.395 61.365 166.526 61.8269C166.587 62.0424 166.589 62.6356 166.531 63.6064C166.465 64.5464 166.338 65.683 166.15 67.0162C165.993 68.3417 165.779 69.6981 165.507 71.0854C165.294 72.0952 165.16 72.7388 165.106 73.0163C165.043 73.263 164.84 73.4291 164.499 73.5148ZM166.388 54.2932C166.015 54.3867 165.573 54.3494 165.06 54.1813C164.569 53.9747 164.108 53.6947 163.675 53.3416C163.265 52.9498 162.995 52.523 162.864 52.0611C162.82 51.9072 162.852 51.6683 162.96 51.3444C163.068 51.0206 163.176 50.6968 163.284 50.3729C163.391 50.0491 163.437 49.8564 163.419 49.7948C163.667 49.7325 163.858 49.7011 163.991 49.7008C164.146 49.6618 164.35 49.6767 164.602 49.7453C165.161 50.4294 165.759 50.9555 166.395 51.3235C167.062 51.6837 167.443 52.0332 167.539 52.3719C167.731 53.0493 167.791 53.4959 167.719 53.7118C167.639 53.8969 167.195 54.0907 166.388 54.2932ZM174.094 82.1875C173.791 82.5273 173.399 82.6093 172.917 82.4334C172.466 82.2497 172.069 81.9042 171.726 81.3967C171.383 80.8892 171.233 80.3003 171.275 79.6299C171.285 79.4296 171.291 79.0984 171.293 78.6361C171.304 78.2047 171.282 77.8312 171.225 77.5155C171.195 77.2921 171.184 76.8993 171.191 76.3369C171.207 75.8053 171.238 75.2699 171.285 74.7305C171.363 74.1833 171.433 73.7864 171.496 73.5397C171.595 73.1851 171.619 72.7998 171.568 72.384C171.548 71.9604 171.507 71.6408 171.446 71.4252C171.447 71.1941 171.455 70.9283 171.47 70.6279C171.516 70.3196 171.579 70.0729 171.659 69.8878C171.652 69.6259 171.671 69.3408 171.716 69.0326C171.753 68.6935 171.819 68.3967 171.913 68.1423C171.914 67.9112 171.887 67.6378 171.831 67.3221C171.805 66.9986 171.851 66.8059 171.966 66.7439C171.962 66.613 171.943 66.4859 171.908 66.3628C171.904 66.2318 171.918 66.0469 171.95 65.808C171.917 65.4537 171.917 64.926 171.951 64.2249C171.985 63.5238 172.049 62.7494 172.141 61.9018C172.23 60.9232 172.145 60.0375 171.888 59.2448C171.652 58.4134 171.276 57.9638 170.758 57.8959C170.475 57.835 170.272 57.7046 170.149 57.5047C170.017 57.2739 169.978 57.0198 170.033 56.7424C170.087 56.4649 170.225 56.2488 170.447 56.0941C170.692 55.9009 170.974 55.7807 171.293 55.7336C171.643 55.6787 171.955 55.6663 172.23 55.6964C172.495 55.6956 172.621 55.73 172.608 55.7993C172.651 55.9533 172.755 56.0262 172.919 56.018C172.955 55.9101 173.11 55.9867 173.383 56.2479C173.679 56.4705 173.972 56.7431 174.263 57.0659C174.554 57.3887 174.721 57.627 174.764 57.781C174.737 57.9197 174.728 58.0045 174.737 58.0352C174.737 58.0352 174.799 58.0197 174.923 57.9885C174.923 57.9885 175.072 57.8687 175.37 57.6291C175.659 57.3587 175.959 57.069 176.27 56.76C176.604 56.4124 176.816 56.1615 176.905 56.0072C176.905 56.0072 176.974 55.9569 177.112 55.8564C177.272 55.7173 177.396 55.5706 177.486 55.4162C178.037 55.0142 178.691 54.8005 179.448 54.7753C180.237 54.7424 180.905 54.8715 181.453 55.1627C182.292 55.7767 182.811 56.4378 183.012 57.146C183.243 57.8464 183.294 58.7899 183.165 59.9766C183.146 60.1461 183.081 60.4429 182.968 60.8669C182.877 61.2523 182.783 61.6224 182.684 61.977C182.576 62.3008 182.522 62.4628 182.522 62.4628C182.122 63.7503 181.545 64.8843 180.792 65.8647C180.039 66.8451 179.245 67.7371 178.408 68.5405C178.159 68.8339 177.881 69.0851 177.574 69.2939C177.29 69.4641 177.028 69.5958 176.789 69.6889C176.54 69.7512 176.361 69.7633 176.25 69.725C175.839 69.5644 175.381 69.1188 174.875 68.3884C174.833 68.8276 174.791 69.2668 174.749 69.706C174.73 70.1067 174.722 70.3725 174.726 70.5034C174.756 70.7267 174.777 70.9193 174.789 71.081C174.793 71.212 174.746 71.3392 174.648 71.4627C174.648 71.4627 174.65 71.5282 174.654 71.6591C174.658 71.7901 174.601 72.0021 174.485 72.2951C174.427 73.2659 174.366 74.1058 174.3 74.8147C174.244 75.5544 174.203 76.1746 174.179 76.6754C174.163 77.207 174.161 77.6692 174.173 78.0621C174.346 78.909 174.406 79.7678 174.353 80.6384C174.309 81.5398 174.223 82.0562 174.094 82.1875ZM175.908 67.6345C176.015 67.5417 176.231 67.3062 176.556 66.9278C176.903 66.5109 177.284 66.0361 177.698 65.5034C178.104 64.94 178.472 64.419 178.802 63.9404C179.163 63.4541 179.395 63.0991 179.497 62.8755C179.667 62.536 179.817 62.1851 179.947 61.8227C180.069 61.4295 180.135 61.0172 180.146 60.5857C180.169 60.3161 180.199 60.0117 180.236 59.6726C180.273 59.3336 180.299 59.0138 180.314 58.7133C180.368 58.4359 180.345 58.1778 180.244 57.9393C180.166 57.6622 180.007 57.4546 179.769 57.3166C179.636 57.317 179.29 57.5028 178.73 57.8741C178.162 58.2146 177.57 58.7093 176.956 59.358C176.333 59.976 175.843 60.7092 175.484 61.5576C175.068 62.5525 174.831 63.5353 174.773 64.5061C174.747 65.4691 174.836 66.2546 175.041 66.8626C175.278 67.4629 175.567 67.7201 175.908 67.6345ZM188.763 80.881C188.519 80.8432 188.243 80.7476 187.933 80.5944C187.624 80.4412 187.353 80.2455 187.119 80.0073C186.894 79.7999 186.756 79.6039 186.703 79.4191C186.651 79.2344 186.589 78.7223 186.518 77.8828C186.455 77.0741 186.387 76.069 186.312 74.8674C186.278 73.6889 186.25 72.4757 186.23 71.2277C186.248 70.0028 186.302 68.9011 186.391 67.9225C186.409 67.753 186.467 67.1943 186.565 66.2465C186.684 65.2601 186.736 64.0929 186.72 62.7448C186.742 61.882 186.811 60.8919 186.927 59.7746C187.043 58.6572 187.174 57.536 187.321 56.4109C187.459 55.255 187.555 54.2417 187.607 53.3711C187.66 52.5004 187.71 51.7954 187.757 51.2561C187.826 50.6781 187.858 50.3237 187.855 50.1927C187.864 49.9924 187.914 49.8151 188.003 49.6608C188.115 49.4679 188.235 49.3058 188.364 49.1745C188.484 49.0124 188.587 48.9042 188.671 48.8501C189.186 48.5559 189.733 48.6661 190.311 49.1807C190.544 49.4189 190.667 49.7344 190.678 50.1272C190.69 50.5201 190.65 51.0248 190.558 51.6413L190.494 52.6468L192.065 51.8567C192.345 51.7866 192.69 51.7164 193.103 51.6459C193.537 51.5369 193.956 51.4317 194.36 51.3305C194.763 51.2292 195.067 51.186 195.27 51.2009C196.024 51.0447 196.575 51.0548 196.924 51.231C197.305 51.3995 197.66 51.6566 197.99 52.0023C198.189 52.1173 198.436 52.2861 198.732 52.5087C199.019 52.7005 199.213 52.9157 199.314 53.1542C199.586 53.6465 199.747 54.2161 199.797 54.8631C199.87 55.4715 199.849 56.1032 199.736 56.7583C199.653 57.4056 199.464 58.0301 199.169 58.6318C198.896 59.1949 198.571 59.6888 198.192 60.1136C197.917 60.3146 197.677 60.5233 197.472 60.7395C197.258 60.925 197.152 61.0177 197.152 61.0177C197.164 61.1795 196.892 61.5114 196.337 62.0137C195.772 62.4852 195.11 62.9646 194.35 63.452C193.591 63.9394 192.914 64.3071 192.319 64.5553C192.11 64.6406 191.809 64.7493 191.414 64.8813C191.019 65.0133 190.696 65.045 190.444 64.9764C190.085 65.0005 189.843 65.0281 189.719 65.0593C189.595 65.0904 189.55 65.1676 189.585 65.2907C189.572 65.3601 189.537 66.0612 189.482 67.3941C189.428 68.7269 189.414 70.2638 189.441 72.0047C189.357 73.9385 189.277 75.4756 189.201 76.6159C189.133 77.7871 189.065 78.6616 188.996 79.2395C188.958 79.8097 188.918 80.1988 188.878 80.407C188.846 80.6458 188.807 80.8039 188.763 80.881ZM189.758 62.3783C189.903 62.5397 190.216 62.5273 190.695 62.3411C191.196 62.1163 191.765 61.7758 192.4 61.3196C193.058 60.8248 193.692 60.303 194.301 59.7544C194.901 59.175 195.378 58.6268 195.73 58.1097C196.195 57.1686 196.553 56.3202 196.805 55.5646C197.048 54.7782 196.983 54.3161 196.612 54.1785C196.131 53.7715 195.429 53.7002 194.507 53.9647C193.585 54.2291 192.545 54.9022 191.389 55.9838C190.913 56.3009 190.579 56.6485 190.387 57.0265C190.217 57.3659 190.1 57.7745 190.036 58.2523C189.972 58.7301 189.887 59.312 189.782 59.9979C189.695 60.7454 189.652 61.3001 189.655 61.6622C189.658 62.0242 189.692 62.263 189.758 62.3783ZM211.908 62.3109C211.413 63.0287 210.744 63.5428 209.901 63.8533C209.089 64.1559 208.232 64.2391 207.329 64.1029C206.418 63.936 205.594 63.5492 204.857 62.9426C204.137 62.3976 203.578 61.7136 203.179 60.8904C202.771 60.0364 202.428 58.8856 202.152 57.4381C201.905 56.214 201.953 54.9158 202.296 53.5436C202.63 52.1407 203.143 50.8412 203.835 49.6453C204.558 48.4416 205.349 47.5342 206.206 46.9233C206.585 46.4986 206.933 46.2627 207.252 46.2156C207.594 46.1299 208.115 46.0322 208.815 45.9224C209.555 45.8357 210.122 45.8418 210.515 45.9409C210.94 46.0322 211.305 46.2045 211.609 46.4579C212.206 46.8029 212.647 47.1869 212.933 47.6098C213.21 48.0019 213.409 48.4135 213.531 48.8446C213.599 49.5531 213.369 50.5013 212.841 51.6891C212.335 52.8383 211.533 53.8805 210.435 54.8156C209.813 55.2025 209.094 55.4817 208.278 55.6535C207.463 55.8252 206.739 55.7925 206.107 55.5554C205.447 55.457 205.072 55.6006 204.982 55.986C204.883 56.3406 204.93 57.1532 205.123 58.4238C205.33 59.625 205.668 60.4637 206.135 60.9401C206.593 61.3856 207.1 61.5884 207.653 61.5483C208.309 61.5157 208.816 61.4874 209.175 61.4633C209.556 61.4006 209.967 61.1491 210.407 60.7088C210.817 60.2763 211.079 60.0291 211.195 59.9672C211.302 59.8744 211.377 59.7895 211.422 59.7123C211.489 59.5966 211.634 59.3458 211.857 58.96C212.013 58.69 212.141 58.4932 212.239 58.3697C212.328 58.2154 212.45 58.1187 212.605 58.0798C212.76 58.0409 212.922 58.0828 213.09 58.2056C213.249 58.2976 213.399 58.3588 213.541 58.3892C213.851 58.3113 213.965 58.4805 213.884 58.8967C213.833 59.3052 213.633 59.8334 213.285 60.4814C212.928 61.0987 212.469 61.7085 211.908 62.3109ZM209.09 52.5313C209.388 52.2917 209.684 51.9866 209.978 51.616C210.263 51.2147 210.482 50.8135 210.634 50.4125C210.809 49.9729 210.862 49.63 210.792 49.3836C210.67 48.9526 210.368 48.6491 209.886 48.4732C209.395 48.2666 208.777 48.3723 208.031 48.7903C207.716 48.9683 207.393 49.2966 207.063 49.7751C206.725 50.2229 206.415 50.7129 206.133 51.2452C205.883 51.7697 205.681 52.2325 205.529 52.6335C205.407 53.0267 205.386 53.2463 205.466 53.2923C205.603 53.4229 205.901 53.4799 206.362 53.4632C206.814 53.4157 207.299 53.3104 207.818 53.1472C208.368 52.9762 208.792 52.7709 209.09 52.5313ZM221.579 61.2692C221.22 61.2933 220.815 61.2135 220.364 61.0299C219.936 60.8077 219.53 60.5469 219.146 60.2475C218.784 59.9095 218.513 59.5982 218.333 59.3137C218.315 59.2521 218.247 59.1868 218.128 59.1178C218.04 59.041 217.996 59.0026 217.996 59.0026C217.845 58.9414 217.654 58.5606 217.423 57.8602C217.214 57.1213 217.029 56.2936 216.87 55.3774C216.71 54.4611 216.618 53.7256 216.594 53.1711C216.61 52.6395 216.655 51.9191 216.73 51.0098C216.797 50.0698 216.843 49.2339 216.868 48.502L217.367 45.5078L215.361 45.4671C215.126 45.46 214.905 45.3836 214.698 45.2378C214.521 45.0842 214.415 44.9458 214.381 44.8226C214.311 44.5763 214.368 44.2488 214.551 43.84C214.726 43.4004 214.875 43.165 215 43.1339C215.164 43.1257 215.447 43.071 215.851 42.9698C216.285 42.8607 216.7 42.7402 217.095 42.6082C217.489 42.4761 217.729 42.383 217.813 42.3289C217.92 42.2361 218.022 42.128 218.12 42.0045C218.21 41.8502 218.255 41.6575 218.256 41.4264C218.315 41.0487 218.368 40.7058 218.414 40.3975C218.451 40.0585 218.525 39.6769 218.638 39.2529C218.742 38.7981 218.817 38.4166 218.863 38.1083C218.939 37.7923 219.063 37.349 219.234 36.7785C219.328 36.524 219.425 36.2194 219.524 35.8648C219.623 35.5102 219.782 35.1901 220 34.9044C220.21 34.588 220.459 34.4101 220.747 34.3708C221.057 34.293 221.502 34.3957 222.08 34.6792C222.416 34.9248 222.621 35.1207 222.696 35.2668C222.77 35.413 222.729 35.7367 222.572 36.2378C222.471 36.8236 222.325 37.421 222.131 38.0301C221.969 38.6314 221.823 39.2288 221.691 39.8223C221.386 40.6243 221.402 41.0326 221.739 41.0471C222.075 41.0616 222.927 40.7819 224.294 40.2081C225.15 39.8283 225.815 39.7109 226.288 39.856C226.753 39.9703 227.09 40.2814 227.3 40.7892C227.603 41.5048 227.651 41.9708 227.447 42.187C227.242 42.4033 226.55 42.6594 225.371 42.9553C224.66 43.2654 224.046 43.502 223.527 43.6652C222.999 43.7976 222.611 43.895 222.363 43.9573C221.968 44.0893 221.709 44.1709 221.585 44.2021C221.461 44.2332 221.283 44.3108 221.052 44.4346C220.821 44.5585 220.666 44.713 220.585 44.8981C220.527 45.0447 220.47 45.2567 220.416 45.5341C220.327 45.6885 220.232 46.0585 220.132 46.6442C220.032 47.23 219.883 47.8775 219.684 48.5867C219.616 49.989 219.61 51.3756 219.665 52.7467C219.712 54.087 219.813 55.3809 219.966 56.6284C220.06 57.4293 220.228 57.9643 220.47 58.2332C220.704 58.4714 221.155 58.5395 221.825 58.4375C222.175 58.3826 222.718 58.2463 223.454 58.0286C224.213 57.7724 224.792 57.5281 225.191 57.2959C225.489 57.0563 225.803 56.8128 226.131 56.5654C226.452 56.2872 226.741 56.0167 226.999 55.7541C227.235 55.5301 227.47 55.306 227.706 55.082C227.933 54.8272 228.047 54.6997 228.047 54.6997C228.132 54.4145 228.281 54.2947 228.493 54.3403C228.706 54.3859 228.926 54.5779 229.155 54.9163C229.26 55.2857 229.291 55.6901 229.249 56.1293C229.207 56.5685 228.768 57.1898 227.932 57.9933C226.779 59.2059 225.639 60.0525 224.512 60.5332C223.407 60.9754 222.43 61.2207 221.579 61.2692ZM236.392 57.4534C235.633 57.7097 234.875 57.8504 234.118 57.8756C233.391 57.893 232.727 57.7793 232.126 57.5344C231.547 57.251 231.086 56.8555 230.743 56.348C230.404 55.9714 230.213 55.7062 230.169 55.5522C230.117 55.3675 230.182 55.1863 230.364 55.0086C230.612 54.9463 230.851 54.9688 231.081 55.076C231.333 55.1446 231.652 55.2131 232.037 55.2814C232.616 55.5648 233.235 55.6402 233.896 55.5074C234.588 55.3668 235.178 55.1033 235.667 54.7168C236.156 54.3303 236.379 53.9445 236.336 53.5594C236.302 53.4363 236.194 53.2324 236.014 52.9479C235.833 52.6634 235.633 52.3673 235.413 52.0598C234.244 51.1 233.296 50.1012 232.571 49.0632C231.867 47.9866 231.41 47.0788 231.201 46.3399C231.044 45.7856 231.05 45.1578 231.217 44.4563C231.375 43.7241 231.688 43.0684 232.156 42.4894C232.549 41.7642 233.021 41.085 233.574 40.4518C234.126 39.8186 234.695 39.2469 235.282 38.7369C235.9 38.2191 236.467 37.8131 236.982 37.519C237.323 37.4333 237.786 37.3666 238.371 37.3187C238.956 37.2709 239.374 37.2813 239.627 37.35C240.003 37.3875 240.425 37.6444 240.892 38.1207C241.35 38.5663 241.654 39.0508 241.802 39.5742C241.863 39.7897 241.879 40.0824 241.851 40.4523C241.823 40.8221 241.734 41.273 241.586 41.805C241.557 42.1748 241.509 42.5331 241.441 42.88C241.364 43.196 241.344 43.4156 241.378 43.5388C241.319 43.9164 241.15 44.1403 240.87 44.2104C240.613 44.2419 240.31 44.1696 239.961 43.9933C239.635 43.7785 239.341 43.5059 239.081 43.1753C238.827 42.7446 238.675 42.3868 238.628 42.1019C238.572 41.7862 238.605 41.4318 238.726 41.0386C238.972 40.6142 239.077 40.3404 239.042 40.2173C239.007 40.0941 238.819 40.0754 238.478 40.161C238.26 40.2156 237.896 40.4554 237.385 40.8805C236.896 41.267 236.386 41.7575 235.857 42.3521C235.349 42.9082 234.928 43.4755 234.593 44.0542C234.16 44.7564 233.917 45.2463 233.862 45.5237C233.839 45.7934 233.901 46.19 234.05 46.7134C234.172 47.1445 234.417 47.6599 234.786 48.2598C235.187 48.8519 235.526 49.2284 235.804 49.3894C235.804 49.3894 235.974 49.5777 236.313 49.9543C236.644 50.3 237.03 50.6649 237.471 51.0489C238.929 52.7936 239.562 54.1515 239.372 55.1227C239.181 56.0938 238.188 56.8708 236.392 57.4534Z" fill="black"/>
</svg>
