<svg width="152" height="145" viewBox="0 0 152 145" fill="none" xmlns="http://www.w3.org/2000/svg">
<path d="M77.2235 74.0394C74.1464 79.3525 77.5961 86.2715 79.7342 91.2395C83.3174 99.5694 88.8793 107.136 95.8436 113.261C107.03 123.098 121.608 128.579 136.942 129.759C134.531 130.568 132.118 131.378 129.705 132.187C127.561 132.907 128.252 136.046 130.487 135.394C136.686 133.583 142.885 131.765 149.084 129.944C150.605 129.497 150.924 127.701 149.643 126.896C142.951 122.686 136.288 118.429 129.538 114.293C127.694 113.163 125.897 115.929 127.687 117.086C132.708 120.335 137.781 123.518 142.849 126.701C128.775 126.641 115.26 123.051 103.892 115.427C96.8999 110.738 91.0185 104.78 86.5302 97.9183C82.9626 92.4619 75.5547 81.2094 78.7118 74.6336C79.1008 73.8256 77.6732 73.2604 77.2235 74.0394Z" fill="#040606"/>
<path d="M29.8679 70.859C29.4954 70.9525 29.1284 70.8302 28.7668 70.4922C28.5282 70.3542 28.33 70.1237 28.1721 69.8005C28.0539 69.5004 28.0013 68.9035 28.0143 68.0099C28.0185 67.0855 28.0671 65.6717 28.16 63.7687C28.1392 62.5208 28.1479 61.6118 28.1859 61.0416C28.2153 60.4407 28.1951 60.017 28.1254 59.7707C28.0295 59.432 27.9821 59.1471 27.9831 58.916C28.0065 58.6463 27.9877 58.4037 27.9267 58.1882C28.1129 58.1414 28.2512 57.9254 28.3416 57.5399C28.4319 57.1545 28.4564 56.6537 28.415 56.0376C28.3909 55.483 28.3819 55.04 28.3879 54.7088C28.4162 54.3389 28.4129 54.0924 28.378 53.9693C28.4635 53.684 28.5097 53.2602 28.5167 52.6978C28.5548 52.1276 28.6555 51.4263 28.8187 50.5939C28.8056 49.6079 28.8147 48.5833 28.8462 47.5201C28.869 46.4262 28.9135 45.4092 28.9799 44.4692C29.0685 43.4906 29.1518 42.7277 29.2296 42.1806C29.3008 41.1404 29.3773 40.4122 29.4589 39.996C29.5318 39.549 29.4578 39.2873 29.2367 39.2108C28.9758 39.1114 28.8552 38.8614 28.8747 38.4607C28.8943 38.0601 29.1181 37.5588 29.546 36.9567C29.7741 36.4708 29.9905 36.1197 30.1953 35.9034C30.3913 35.6564 30.6755 35.4861 31.048 35.3926C31.4515 35.2914 32.0344 35.1781 32.7967 35.0528C33.3641 34.9434 33.9582 34.8108 34.5789 34.655C35.2307 34.4915 35.6342 34.3902 35.7894 34.3513C36.1036 34.4043 36.4842 34.4572 36.9313 34.5099C37.3697 34.5318 37.7615 34.5654 38.1067 34.6107C38.483 34.6482 38.6842 34.7131 38.7103 34.8055C38.7626 34.9902 38.8596 35.0978 39.0011 35.1283C39.1651 35.1201 39.329 35.112 39.4929 35.1038C39.7101 35.0493 40.0529 35.1446 40.5212 35.3899C40.9809 35.6043 41.4821 35.9072 42.0251 36.2986C42.5593 36.6592 43.0091 37.074 43.3745 37.5429C43.771 38.004 44.0967 38.45 44.3516 38.8807C44.6375 39.3036 44.8249 39.9656 44.9137 40.8666C45.0134 41.3363 45.0666 41.8176 45.0731 42.3106C45.1108 42.7958 45.0893 43.131 45.0087 43.3161C44.8573 43.486 44.7302 43.6828 44.6273 43.9065C44.5244 44.1301 44.4948 44.319 44.5383 44.4729C44.5732 44.5961 44.5343 44.8696 44.4216 45.2936C44.3002 45.6869 44.1342 46.1572 43.9235 46.7047C43.7128 47.2523 43.4711 47.8076 43.1983 48.3707C42.9256 48.9338 42.6509 49.4314 42.3743 49.8636C42.1103 50.4575 41.7599 51.04 41.3233 51.6113C40.9177 52.1748 40.5368 52.6496 40.1807 53.0357C39.4783 53.6077 38.6828 54.203 37.7942 54.8217C36.9366 55.4327 36.0926 55.9742 35.2623 56.4464C34.4629 56.9108 33.764 57.2016 33.1656 57.3188C32.3004 57.6678 31.7455 57.9389 31.501 58.1322C31.2789 58.2869 31.1667 58.5953 31.1646 59.0575C31.1227 59.4967 31.0852 59.9513 31.052 60.4214C31.0412 60.8528 31.0575 61.1455 31.1011 61.2994C31.0739 61.4382 31.0277 61.862 30.9624 62.5709C30.9194 63.2412 30.8759 64.0271 30.8319 64.9285C30.8189 65.8221 30.8016 66.7004 30.7799 67.5633C30.7582 68.4261 30.7594 69.1348 30.7834 69.6894C30.7812 70.1516 30.6958 70.4369 30.527 70.5452C30.3669 70.6843 30.1472 70.7889 29.8679 70.859ZM31.5881 55.0929C31.7472 55.1849 32.2326 55.0796 33.0445 54.7769C33.8563 54.4743 34.6911 54.0175 35.5487 53.4066C36.1084 53.0353 36.6551 52.6178 37.1887 52.1541C37.7533 51.6827 38.2782 51.1882 38.7633 50.6707C39.0127 50.3773 39.3693 49.8756 39.8332 49.1656C40.2971 48.4557 40.7304 47.6379 41.1333 46.7124C41.1828 46.5351 41.2552 46.2036 41.3505 45.718C41.4681 45.1939 41.5633 44.7083 41.6362 44.2613C41.7935 43.7601 41.8942 43.0588 41.9382 42.1574C41.9735 41.2252 41.8352 40.5014 41.5231 39.9861C41.1413 39.2245 40.5286 38.5868 39.6851 38.073C38.8328 37.5284 37.9218 37.2458 36.952 37.2254C36.2343 37.2735 35.6427 37.356 35.1771 37.4729C34.7426 37.5819 34.2746 37.7488 33.7731 37.9736C33.32 38.2521 33.0086 38.5611 32.8387 38.9006C32.6999 39.2322 32.5706 39.8912 32.4509 40.8776C32.3557 41.3631 32.2327 42.103 32.082 43.0972C31.9225 44.0606 31.8121 44.9622 31.7506 45.802C31.7672 47.9744 31.6835 49.7926 31.4996 51.2568C31.338 52.6824 31.243 53.5801 31.2148 53.95C31.3417 54.2809 31.3959 54.5311 31.3774 54.7006C31.3502 54.8393 31.4204 54.9701 31.5881 55.0929ZM50.6586 62.5256C50.2551 62.6269 49.9075 62.6317 49.6156 62.54C49.3547 62.4406 49.0144 62.2952 48.5945 62.1037C47.8305 61.6359 47.2459 61.156 46.8407 60.6641C46.4268 60.1414 46.1923 59.6066 46.1373 59.0598C46.1607 58.7901 46.1264 58.5514 46.0343 58.3437C45.9646 58.0974 45.9297 57.9742 45.9297 57.9742C45.731 57.8592 45.6583 57.7785 45.7116 57.7321C45.7563 57.655 45.7922 57.547 45.8194 57.4083C46.0056 57.3616 46.0198 57.1766 45.8618 56.8535C45.73 56.6228 45.7017 56.0528 45.7767 55.1436C45.8518 54.2344 46.0175 53.3519 46.2739 52.4961C46.373 52.1414 46.539 51.6711 46.772 51.085C46.9963 50.4681 47.256 49.8588 47.5511 49.2571C47.8685 48.6168 48.1698 48.096 48.4551 47.6947C49.048 46.8534 49.5958 46.2048 50.0983 45.7489C50.6009 45.293 51.1718 44.9024 51.811 44.5771C52.4503 44.2518 52.8941 44.058 53.1424 43.9957C53.4217 43.9256 53.8639 44.0785 54.4689 44.4543C55.2699 44.5831 55.8866 44.8241 56.319 45.1773C56.7825 45.5226 57.1784 46.0993 57.5068 46.9073C57.8614 47.8076 58.0845 48.8894 58.1761 50.1525C58.29 51.377 57.9746 53.0226 57.2299 55.0892C56.7677 56.3923 56.2892 57.4028 55.7943 58.1206C55.2906 58.8076 54.6629 59.5257 53.9109 60.275C53.3812 60.8696 52.883 61.3409 52.4163 61.6888C51.941 62.006 51.3551 62.2849 50.6586 62.5256ZM53.7423 56.5085C54.2519 55.4902 54.6194 54.5571 54.8447 53.7091C55.1011 52.8533 55.2698 51.8051 55.3508 50.5647C55.3791 50.1948 55.339 49.7597 55.2306 49.2592C55.1135 48.728 54.9629 48.2547 54.7788 47.8392C54.617 47.3851 54.4343 47.1506 54.2307 47.1358C53.7972 47.0137 53.3297 47.0651 52.8282 47.2898C52.318 47.4838 51.8266 47.9204 51.354 48.5996C50.6185 49.6416 50.0637 50.8526 49.6897 52.2325C49.3071 53.5817 48.9878 55.0963 48.7321 56.7764C48.5803 58.0016 48.7244 58.9218 49.1644 59.5369C49.6268 60.1134 50.2663 60.2002 51.0831 59.7974C51.9222 59.356 52.8086 58.2597 53.7423 56.5085ZM65.6285 59.7091C64.9691 59.6107 64.3189 59.4276 63.6779 59.1598C63.0283 58.8611 62.5866 58.5927 62.353 58.3545C62.2746 58.0774 62.2688 57.881 62.3358 57.7652C62.394 57.6187 62.6448 57.5063 63.088 57.4281C63.5536 57.3113 64.3159 57.1859 65.375 57.0521C65.7475 56.9586 66.2043 56.811 66.7456 56.6092C67.2868 56.4074 67.7728 56.1866 68.2035 55.9466C68.6653 55.6988 68.901 55.4748 68.9108 55.2744C69.066 55.2355 69.084 55.1815 68.9647 55.1125C68.8367 55.0127 68.6932 54.9168 68.5342 54.8248C68.4101 54.856 68.2573 54.8448 68.076 54.7914C67.8859 54.7072 67.7288 54.6807 67.6047 54.7118C67.5611 54.5579 67.358 54.4275 66.9953 54.3206C66.655 54.1752 66.3122 54.0798 65.9669 54.0345C65.1272 53.6516 64.3981 53.307 63.7794 53.0005C63.1521 52.6633 62.8787 52.4021 62.9593 52.217C62.9244 52.0938 62.907 52.0323 62.907 52.0323C62.8983 52.0015 62.8939 51.9861 62.8939 51.9861C62.6767 52.0406 62.3412 51.795 61.8875 51.2493C61.4649 50.6958 61.1839 50.1727 61.0445 49.6801C60.9399 49.3106 60.9178 48.8215 60.9781 48.2127C61.0298 47.5732 61.1547 46.8988 61.3529 46.1895C61.551 45.4803 61.7952 44.8749 62.0854 44.3734C62.4959 43.7097 63.0373 42.9803 63.7098 42.185C64.3735 41.3589 65.0435 40.6137 65.7197 39.9493C66.4183 39.2464 67.0251 38.7479 67.5402 38.4537C68.0379 38.098 68.5195 37.8617 68.9851 37.7449C69.4817 37.6203 69.9467 37.619 70.3802 37.7411C70.7341 37.8172 71.0788 37.978 71.4143 38.2236C71.7721 38.4306 72.0876 38.6647 72.361 38.9259C72.6567 39.1485 72.8661 39.3597 72.9892 39.5597C73.0938 39.9292 73.1804 40.3526 73.2491 40.8301C73.309 41.2767 73.3249 41.6849 73.2966 42.0548C73.2993 42.4169 73.1921 42.6251 72.9748 42.6797C72.9748 42.6797 72.9326 42.7067 72.8482 42.7609C72.7861 42.7765 72.7769 42.8612 72.8205 43.0152C72.9076 43.3231 72.7751 43.7356 72.4228 44.2527C71.9464 44.8009 71.504 45.1758 71.0956 45.3772C70.6785 45.5478 70.3668 45.4446 70.1603 45.0677C70.0324 44.9679 69.9398 44.8757 69.8826 44.7912C69.8254 44.7066 69.7347 44.6799 69.6106 44.711C69.6106 44.711 69.551 44.6765 69.4317 44.6075C69.3124 44.5385 69.2223 44.3962 69.1613 44.1807C69.1264 44.0575 69.1425 43.9381 69.2095 43.8224C69.2677 43.6758 69.2968 43.6026 69.2968 43.6026C69.452 43.5636 69.6058 43.3437 69.7583 42.9427C69.902 42.5109 70.0103 42.0715 70.0832 41.6245C70.1785 41.1389 70.2043 40.8191 70.1607 40.6652C70.1084 40.4804 70.0469 40.3805 69.9761 40.3652C69.9364 40.3422 69.7923 40.3619 69.544 40.4242C69.1618 40.718 68.7039 41.0967 68.1703 41.5604C67.6367 42.024 67.1341 42.4799 66.6626 42.928C66.2134 43.3375 65.8995 43.6966 65.7209 44.0052C65.6578 44.2519 65.6194 44.4099 65.6058 44.4793C65.5835 44.5179 65.5102 44.5527 65.3861 44.5839C65.3512 44.4607 65.26 44.5496 65.1125 44.8504C64.9873 45.1127 64.8261 45.4829 64.629 45.961C64.463 46.4314 64.297 46.9018 64.1309 47.3721C63.9872 47.8039 63.8794 48.1278 63.8076 48.3437C63.7629 48.4208 63.7376 48.625 63.7317 48.9563C63.748 49.249 63.7911 49.5185 63.8608 49.7648C63.8412 50.1655 63.9308 50.4233 64.1296 50.5383C64.3197 50.6225 64.7395 50.814 65.3892 51.1126C66.7021 51.6406 67.743 52.0884 68.5119 52.4561C69.2809 52.8237 69.8684 53.138 70.2747 53.3988C70.6809 53.6596 70.9543 53.9208 71.0948 54.1823C71.915 54.9658 72.2861 55.6311 72.2083 56.1783C72.1305 56.7255 71.7249 57.2889 70.9915 57.8687C70.7247 58.1005 70.2474 58.3522 69.5597 58.6237C68.872 58.8952 68.1556 59.1244 67.4107 59.3113C66.6745 59.529 66.0805 59.6616 65.6285 59.7091ZM83.078 55.0337C82.6086 55.0196 82.2125 54.9706 81.8896 54.8867C81.5579 54.7721 81.1027 54.573 80.5238 54.2896C80.0119 53.8904 79.5863 53.5025 79.247 53.126C78.9388 52.7416 78.6752 52.2801 78.4562 51.7415C78.2286 51.1721 77.9884 50.4409 77.7356 49.548C77.631 49.1785 77.5362 48.6087 77.4512 47.8386C77.3972 47.0607 77.35 46.2481 77.3097 45.4008C77.2916 44.5149 77.2687 43.7292 77.2408 43.0437C77.244 42.3504 77.235 41.9074 77.2137 41.7149C77.1935 41.2913 76.973 41.0993 76.5521 41.139C76.1311 41.1786 75.6767 41.2762 75.1888 41.4316C74.7233 41.5484 74.3998 41.5801 74.2185 41.5267C74.0856 41.527 74.0105 41.4964 73.9931 41.4348C73.9669 41.3425 73.9538 41.2963 73.9538 41.2963C73.919 41.1731 73.8817 41.1 73.8419 41.077C73.8245 41.0155 73.7474 40.9194 73.6107 40.7888C73.5138 40.6812 73.4969 40.5041 73.56 40.2574C73.6455 39.9721 73.8502 39.7559 74.1742 39.6086C74.4361 39.4769 74.7955 39.3373 75.2523 39.1897C75.7315 39.0035 76.1976 38.7711 76.6506 38.4925C77.095 38.1832 77.42 37.8048 77.6258 37.3575C77.7134 36.61 77.8258 35.7738 77.9629 34.849C78.1 33.9242 78.2478 33.0957 78.4062 32.3634C78.5869 31.5926 78.7175 31.1146 78.7981 30.9295C79.2473 30.52 79.6048 30.3149 79.8705 30.3142C80.1275 30.2826 80.4809 30.4743 80.9308 30.889C81.147 31.0656 81.3035 31.2077 81.4005 31.3153C81.5284 31.4151 81.5963 31.5959 81.6039 31.8578C81.6116 32.1197 81.5498 32.5474 81.4186 33.141C81.3185 33.7267 81.144 34.5784 80.8953 35.6961C80.8273 36.043 80.766 36.3551 80.7116 36.6326C80.6485 36.8793 80.6169 37.0026 80.6169 37.0026C80.7498 37.0023 80.9403 36.9709 81.1886 36.9086C81.4369 36.8463 81.743 36.753 82.1067 36.6288C82.4307 36.4815 82.8521 36.3263 83.3711 36.1631C83.8813 35.9691 84.3003 35.864 84.6281 35.8477C85.342 35.6686 85.9088 35.6747 86.3287 35.8662C86.7398 36.0268 87.0481 36.4111 87.2534 37.0192C87.4114 37.3423 87.3904 37.5619 87.1906 37.678C87.0218 37.7863 86.5184 37.9456 85.6804 38.1559C85.401 38.226 84.9709 38.3504 84.3899 38.5292C83.8089 38.7079 83.1968 38.8945 82.5537 39.0888C81.9417 39.2754 81.4116 39.4579 80.9635 39.6363C80.5377 39.7761 80.3335 39.8768 80.3509 39.9384C80.2752 40.0233 80.2028 40.3548 80.1337 40.9327C80.0957 41.5029 80.0639 42.1539 80.0384 42.8858C80.0352 43.5792 80.03 44.207 80.023 44.7694C80.1021 45.8708 80.2277 46.9605 80.3999 48.0385C80.6031 49.1087 80.8447 50.0209 81.1246 50.7751C81.4046 51.5293 81.7278 52.0253 82.0943 52.2631C82.4521 52.4701 83.0127 52.3954 83.7761 52.039C84.5308 51.6517 85.0998 51.1957 85.4831 50.6708C85.911 50.0687 86.2957 49.7249 86.6371 49.6392C87.0096 49.5457 87.2593 49.6645 87.3862 49.9954C87.5354 50.2877 87.4911 50.777 87.2532 51.4633C87.0376 52.1109 86.7115 52.7204 86.2748 53.2917C85.8295 53.8321 85.3225 54.2726 84.7541 54.6131C84.2079 54.915 83.6493 55.0552 83.078 55.0337ZM95.4785 51.3285C93.9266 51.7179 92.6368 51.4479 91.6092 50.5186C91.3048 50.2652 91.109 49.9846 91.0218 49.6767C90.957 49.3302 90.9847 49.0759 91.1051 48.9138C91.2564 48.7439 91.5042 48.7971 91.8484 49.0735C92.3526 49.2108 93.0083 49.1782 93.8152 48.9757C94.2187 48.8745 94.629 48.7385 95.0461 48.5679C95.4545 48.3665 95.8542 48.1343 96.2451 47.8713C96.6497 47.539 96.9078 47.2764 97.0194 47.0835C97.1223 46.8598 97.0476 46.7136 96.7955 46.645L96.8421 46.6333C95.9741 46.6203 95.0557 46.4879 94.087 46.2364C93.1405 45.9462 92.294 45.598 91.5474 45.1918C90.7921 44.7548 90.3025 44.317 90.0787 43.8785C89.5602 42.9863 89.3477 42.0008 89.4413 40.9221C89.5261 39.8126 89.801 38.7872 90.266 37.8461C90.4707 37.6299 90.7288 37.3673 91.0402 37.0583C91.3429 36.7185 91.5986 36.5059 91.8071 36.4206L91.8202 36.4668C92.2356 35.703 92.81 35.0313 93.5435 34.4515C94.3079 33.8639 95.1277 33.2955 96.0027 32.7461L96.6749 32.4785C97.0299 32.3235 97.3316 32.2148 97.5799 32.1525C97.5488 32.1603 97.6196 32.1755 97.7923 32.1982C97.9562 32.19 98.1045 32.1858 98.2374 32.1854C98.4498 32.231 98.618 32.2383 98.7422 32.2071C99.1631 32.1675 99.5879 32.2587 100.016 32.481C100.445 32.7032 100.813 33.0065 101.122 33.3908C101.452 33.7366 101.639 34.102 101.681 34.487C101.785 35.0876 101.747 35.6578 101.567 36.1975C101.418 36.7295 101.151 37.0769 100.765 37.2397C100.818 37.1933 100.759 37.1588 100.586 37.1362C100.436 37.075 100.27 37.0176 100.089 36.9642L99.9752 37.0916C99.9752 37.0916 99.951 37.0647 99.9025 37.0109C99.8764 36.9186 99.8148 36.8186 99.7179 36.711C99.5725 36.5496 99.4693 36.3612 99.4083 36.1456C99.3385 35.8993 99.28 35.6337 99.2326 35.3488C99.1988 34.9945 99.1421 34.7944 99.0626 34.7484C99.0142 34.6946 98.7993 34.6991 98.4182 34.7617C97.9575 34.7784 97.343 35.015 96.5747 35.4716C95.8375 35.9204 95.2505 36.4305 94.8138 37.0017C94.253 37.6041 93.7965 38.1639 93.4442 38.681C93.0832 39.1673 92.8154 39.6302 92.6406 40.0698C92.4572 40.4786 92.3222 40.9412 92.2356 41.4576C92.1414 41.712 92.0628 41.9626 91.9996 42.2093C91.9588 42.4174 91.9602 42.5984 92.0038 42.7524C92.0996 43.0911 92.4482 43.3829 93.0494 43.6277C93.6729 43.834 94.5621 44.0396 95.7171 44.2444C96.62 44.3806 97.4074 44.5788 98.0794 44.8388C98.7513 45.0989 99.27 45.4634 99.6355 45.9323C99.7324 46.0399 99.7915 46.19 99.8128 46.3825C99.8563 46.5365 99.8558 46.652 99.8112 46.7292C99.8907 46.7752 99.9348 46.8136 99.9435 46.8444L99.9304 46.7982C100.283 47.1054 100.392 47.4902 100.257 47.9528C100.153 48.4076 99.8656 48.859 99.394 49.3071C98.9448 49.7167 98.354 50.0957 97.6217 50.4444L97.6682 50.4327C97.2996 50.6571 96.9223 50.8507 96.5362 51.0136C96.1725 51.1378 95.8199 51.2428 95.4785 51.3285Z" fill="black"/>
</svg>
