<svg width="173" height="140" viewBox="0 0 173 140" fill="none" xmlns="http://www.w3.org/2000/svg">
<path d="M103.611 60.422C109.203 57.848 115.755 61.9571 120.492 64.5684C128.436 68.9451 135.425 75.2292 140.841 82.7794C149.539 94.9064 153.567 110.014 153.237 125.469C154.28 123.133 155.323 120.796 156.366 118.458C157.292 116.381 160.351 117.371 159.482 119.545C157.071 125.576 154.651 131.606 152.23 137.635C151.636 139.115 149.816 139.264 149.14 137.905C145.604 130.809 142.019 123.738 138.563 116.591C137.618 114.639 140.549 113.103 141.526 115.005C144.268 120.337 146.94 125.715 149.613 131.089C150.933 117.001 148.685 103.137 142.208 91.0376C138.225 83.5966 132.869 77.1457 126.476 72.0029C121.393 67.9148 110.914 59.4335 104.056 61.9676C103.214 62.2801 102.791 60.798 103.611 60.422Z" fill="#040606"/>
<path d="M18.7793 75.5309C18.4069 75.6244 18.0398 75.5021 17.6782 75.1642C17.4397 75.0262 17.2415 74.7956 17.0835 74.4725C16.9653 74.1724 16.9127 73.5755 16.9257 72.6819C16.93 71.7574 16.9786 70.3437 17.0715 68.4407C17.0507 67.1928 17.0593 66.2837 17.0974 65.7136C17.1267 65.1126 17.1065 64.689 17.0368 64.4426C16.9409 64.1039 16.8935 63.819 16.8946 63.5879C16.918 63.3183 16.8992 63.0756 16.8382 62.8601C17.0244 62.8134 17.1627 62.5973 17.253 62.2119C17.3434 61.8265 17.3679 61.3257 17.3264 60.7095C17.3024 60.1549 17.2934 59.712 17.2993 59.3807C17.3276 59.0109 17.3243 58.7644 17.2895 58.6412C17.3749 58.3559 17.4212 57.9321 17.4282 57.3697C17.4663 56.7996 17.5669 56.0983 17.7302 55.2659C17.717 54.2798 17.7262 53.2553 17.7577 52.1921C17.7804 51.0981 17.825 50.0811 17.8913 49.1411C17.98 48.1625 18.0632 47.3997 18.1411 46.8525C18.2123 45.8123 18.2887 45.0841 18.3704 44.6679C18.4433 44.2209 18.3692 43.9592 18.1481 43.8828C17.8873 43.7833 17.7666 43.5333 17.7862 43.1327C17.8058 42.732 18.0295 42.2307 18.4575 41.6287C18.6856 41.1427 18.902 40.7916 19.1067 40.5754C19.3027 40.3283 19.587 40.1581 19.9594 40.0646C20.3629 39.9633 20.9458 39.8501 21.7082 39.7247C22.2756 39.6153 22.8696 39.4827 23.4904 39.327C24.1422 39.1634 24.5457 39.0622 24.7009 39.0232C25.0151 39.0763 25.3957 39.1292 25.8428 39.1819C26.2811 39.2038 26.6729 39.2374 27.0182 39.2827C27.3944 39.3202 27.5956 39.3851 27.6218 39.4775C27.6741 39.6622 27.771 39.7698 27.9126 39.8002C28.0765 39.7921 28.2404 39.7839 28.4043 39.7758C28.6216 39.7212 28.9644 39.8166 29.4327 40.0618C29.8923 40.2763 30.3936 40.5792 30.9365 40.9706C31.4707 41.3312 31.9206 41.746 32.286 42.2149C32.6825 42.676 33.0081 43.1219 33.263 43.5526C33.5489 43.9755 33.7363 44.6375 33.8252 45.5386C33.9249 46.0082 33.978 46.4895 33.9846 46.9826C34.0222 47.4678 34.0007 47.8029 33.9202 47.988C33.7688 48.1579 33.6417 48.3547 33.5388 48.5784C33.4359 48.8021 33.4062 48.9909 33.4498 49.1448C33.4847 49.268 33.4458 49.5416 33.3331 49.9656C33.2117 50.3588 33.0456 50.8292 32.835 51.3767C32.6243 51.9242 32.3826 52.4795 32.1098 53.0426C31.837 53.6057 31.5624 54.1034 31.2858 54.5355C31.0218 55.1294 30.6714 55.712 30.2347 56.2832C29.8291 56.8467 29.4483 57.3215 29.0922 57.7077C28.3898 58.2796 27.5943 58.875 26.7056 59.4937C25.8481 60.1046 25.0041 60.6462 24.1737 61.1183C23.3744 61.5827 22.6755 61.8735 22.0771 61.9907C21.2118 62.3397 20.657 62.6109 20.4125 62.8041C20.1903 62.9588 20.0782 63.2673 20.0761 63.7295C20.0342 64.1687 19.9967 64.6233 19.9635 65.0933C19.9526 65.5247 19.969 65.8174 20.0126 65.9714C19.9854 66.1101 19.9391 66.5339 19.8738 67.2428C19.8309 67.9131 19.7874 68.699 19.7434 69.6005C19.7304 70.4941 19.7131 71.3723 19.6914 72.2352C19.6697 73.098 19.6708 73.8068 19.6948 74.3614C19.6927 74.8236 19.6072 75.1088 19.4384 75.2171C19.2784 75.3562 19.0587 75.4608 18.7793 75.5309ZM20.4996 59.7649C20.6586 59.8569 21.1441 59.7515 21.9559 59.4489C22.7678 59.1462 23.6025 58.6894 24.4601 58.0785C25.0199 57.7072 25.5665 57.2897 26.1001 56.8261C26.6648 56.3546 27.1897 55.8602 27.6748 55.3427C27.9242 55.0493 28.2808 54.5476 28.7447 53.8376C29.2085 53.1276 29.6419 52.3098 30.0448 51.3843C30.0943 51.207 30.1667 50.8756 30.2619 50.39C30.3795 49.8658 30.4748 49.3802 30.5477 48.9332C30.705 48.4321 30.8057 47.7308 30.8497 46.8293C30.885 45.8971 30.7466 45.1734 30.4345 44.6581C30.0528 43.8965 29.4401 43.2588 28.5966 42.7449C27.7443 42.2003 26.8333 41.9178 25.8634 41.8973C25.1458 41.9455 24.5541 42.028 24.0886 42.1448C23.654 42.2539 23.186 42.4208 22.6845 42.6455C22.2315 42.9241 21.9201 43.2331 21.7502 43.5725C21.6114 43.9041 21.4821 44.5631 21.3624 45.5495C21.2672 46.0351 21.1442 46.775 20.9934 47.7691C20.834 48.7325 20.7235 49.6341 20.6621 50.474C20.6786 52.6463 20.5949 54.4646 20.411 55.9287C20.2494 57.3543 20.1545 58.2521 20.1262 58.6219C20.2531 58.9528 20.3073 59.203 20.2888 59.3725C20.2616 59.5113 20.3319 59.6421 20.4996 59.7649ZM38.3902 66.5043C38.0499 66.3589 37.7871 66.194 37.602 66.0096C37.4478 65.8174 37.3302 65.4018 37.249 64.7626C37.0981 63.8771 37.0087 63.0916 36.9808 62.406C36.9443 61.6897 36.9126 60.8732 36.8859 59.9566C36.8433 59.5715 36.8354 58.8975 36.862 57.9345C36.9196 56.9637 37.0175 55.9003 37.1557 54.7444C37.2939 53.5885 37.4495 52.4942 37.6226 51.4614C37.787 50.3979 37.9589 49.5963 38.1386 49.0565C38.3346 48.8095 38.6077 48.6585 38.9578 48.6036C39.339 48.541 39.6886 48.6017 40.0066 48.7857C40.4264 48.9771 40.6125 49.4581 40.5646 50.2286C40.5391 50.9605 40.3786 52.1549 40.083 53.812C39.9459 54.7368 39.8452 55.4381 39.781 55.9159C39.7081 56.3629 39.7002 56.6287 39.7574 56.7133C39.8059 56.7671 39.9325 56.6858 40.1372 56.4696C40.2276 56.0841 40.46 55.6136 40.8346 55.0579C41.2005 54.4714 41.6018 53.8926 42.0384 53.3213C42.4751 52.7501 42.8938 52.2328 43.2945 51.7695C43.6952 51.3062 43.9757 51.005 44.1357 50.8659C44.3405 50.6496 44.5849 50.4564 44.8692 50.2861C45.1757 50.0773 45.3824 49.9265 45.4891 49.8338C46.1071 49.316 46.8016 49.0098 47.5727 48.9152C48.3437 48.8207 48.8877 48.981 49.2047 49.3961C49.3054 49.6346 49.4508 49.796 49.6409 49.8802C49.862 49.9566 49.9725 49.9949 49.9725 49.9949C50.0967 49.9637 50.1718 49.9943 50.198 50.0867C50.2552 50.1713 50.2837 50.2136 50.2837 50.2136C50.3448 50.4291 50.2133 50.6105 49.8893 50.7577C49.5876 50.8664 49.1928 50.9984 48.705 51.1538C48.3102 51.2859 47.975 51.4524 47.6995 51.6535C47.424 51.8545 47.0951 52.1019 46.7129 52.3957C45.7252 53.369 44.7797 54.3153 43.8764 55.2345C43.0042 56.1459 42.2239 57.265 41.5358 58.5919C41.3882 58.8928 41.2538 59.2398 41.1324 59.633C41.011 60.0262 40.8828 60.4541 40.7478 60.9167C40.6362 61.1096 40.5769 61.4872 40.5698 62.0496C40.5628 62.612 40.567 63.155 40.5823 63.6788C40.6199 64.1641 40.6518 64.4529 40.6779 64.5452C40.6779 64.5452 40.6749 64.7109 40.669 65.0421C40.6543 65.3426 40.5775 65.6587 40.4387 65.9903C40.2057 66.5764 39.9651 66.9006 39.7168 66.9629C39.4685 67.0252 39.0263 66.8723 38.3902 66.5043ZM56.4372 62.9651C56.0337 63.0664 55.686 63.0712 55.3941 62.9795C55.1333 62.8801 54.7929 62.7346 54.3731 62.5432C53.609 62.0754 53.0244 61.5955 52.6193 61.1036C52.2054 60.5809 51.9709 60.0461 51.9158 59.4993C51.9392 59.2296 51.9049 58.9909 51.8128 58.7832C51.7431 58.5369 51.7083 58.4137 51.7083 58.4137C51.5095 58.2987 51.4368 58.218 51.4902 58.1716C51.5348 58.0945 51.5707 57.9865 51.5979 57.8478C51.7842 57.8011 51.7983 57.6161 51.6404 57.293C51.5086 57.0623 51.4802 56.4923 51.5552 55.5831C51.6303 54.6739 51.796 53.7913 52.0524 52.9356C52.1515 52.5809 52.3175 52.1106 52.5505 51.5245C52.7748 50.9076 53.0345 50.2983 53.3296 49.6966C53.647 49.0563 53.9483 48.5355 54.2336 48.1342C54.8266 47.2929 55.3743 46.6443 55.8769 46.1884C56.3794 45.7325 56.9503 45.3419 57.5896 45.0166C58.2288 44.6913 58.6726 44.4975 58.9209 44.4352C59.2002 44.3651 59.6424 44.518 60.2474 44.8938C61.0485 45.0226 61.6652 45.2636 62.0976 45.6167C62.561 45.9621 62.9569 46.5388 63.2854 47.3468C63.64 48.2471 63.863 49.3289 63.9546 50.592C64.0686 51.8165 63.7532 53.4621 63.0085 55.5287C62.5463 56.8318 62.0677 57.8423 61.5728 58.5601C61.0692 59.2471 60.4414 59.9652 59.6895 60.7145C59.1597 61.3091 58.6615 61.7804 58.1949 62.1283C57.7195 62.4455 57.1336 62.7244 56.4372 62.9651ZM59.5208 56.9479C60.0304 55.9297 60.3979 54.9966 60.6233 54.1486C60.8796 53.2928 61.0483 52.2446 61.1294 51.0041C61.1576 50.6343 61.1176 50.1992 61.0092 49.6987C60.892 49.1675 60.7414 48.6942 60.5573 48.2787C60.3956 47.8246 60.2129 47.5901 60.0092 47.5753C59.5757 47.4532 59.1083 47.5046 58.6068 47.7293C58.0965 47.9233 57.6051 48.3599 57.1326 49.0391C56.397 50.0811 55.8422 51.2921 55.4683 52.672C55.0856 54.0212 54.7664 55.5358 54.5106 57.2158C54.3588 58.4411 54.5029 59.3613 54.943 59.9764C55.4053 60.5529 56.0449 60.6397 56.8616 60.2369C57.7007 59.7955 58.5871 58.6992 59.5208 56.9479ZM64.9065 72.4149C64.1539 72.3399 63.4092 71.9992 62.6724 71.3926C61.9133 70.8246 61.3074 70.1522 60.8548 69.3754C60.3712 68.6064 60.1751 67.9136 60.2665 67.2971C60.285 67.1275 60.3278 66.9849 60.3947 66.8692C60.4307 66.7612 60.5107 66.6917 60.6349 66.6605C60.728 66.6371 60.9001 66.7753 61.1511 67.0751C61.4022 67.3748 61.6377 67.6785 61.8577 67.986C62.0865 68.3244 62.2139 68.5397 62.2401 68.6321C62.2924 68.8168 62.5018 69.0281 62.8683 69.2659C63.2037 69.5115 63.577 69.7146 63.9881 69.8753C64.3993 70.0359 64.7334 70.1005 64.9904 70.069C65.5888 69.9518 66.1219 69.6037 66.5896 69.0246C67.097 68.4686 67.4694 67.4353 67.7067 65.9248C67.9271 65.1769 68.0627 64.5988 68.1133 64.1904C68.1639 63.7819 68.1679 63.3852 68.1254 63.0001C68.0829 62.6151 68.0477 62.0798 68.0199 61.3942C68.0492 60.7933 68.0238 60.0577 67.9437 59.1874C67.8549 58.2863 67.7704 57.4007 67.6902 56.5304C67.6101 55.6601 67.5692 54.9284 67.5675 54.3352C67.4716 53.9965 67.416 53.5653 67.4008 53.0415C67.4165 52.5099 67.4894 52.0629 67.6195 51.7005C67.5732 51.1845 67.5522 50.4642 67.5564 49.5398C67.5607 48.6154 67.5892 47.7178 67.6419 46.8472C67.6859 45.9458 67.7289 45.2754 67.7708 44.8362C67.8252 44.5587 67.8598 44.2698 67.8744 43.9693C67.8891 43.6688 67.9634 43.4028 68.0973 43.1714C68.2759 42.8627 68.5471 42.6463 68.9108 42.5221C69.2746 42.3978 69.7222 42.335 70.2536 42.3335C70.5281 42.3636 70.8883 42.5205 71.3343 42.8043C71.7803 43.0881 72.1487 43.3914 72.4395 43.7142C72.7527 43.9983 72.8292 44.21 72.6691 44.3491C72.704 44.4722 72.6196 44.5264 72.4159 44.5115C72.2433 44.4889 72.0794 44.4971 71.9242 44.536C71.7652 44.444 71.6391 44.4097 71.546 44.433C71.4442 44.4256 71.3933 44.4219 71.3933 44.4219C71.207 44.4686 71.0483 44.7888 70.9172 45.3823C70.786 45.9758 70.6897 46.6925 70.6282 47.5323C70.5581 48.3414 70.5034 49.1466 70.4643 49.9478C70.4475 50.7105 70.438 51.323 70.4359 51.7852C70.4446 51.816 70.4541 52.1434 70.4646 52.7673C70.4662 53.3605 70.4568 53.973 70.4361 54.6047C70.4466 55.2287 70.4624 55.6369 70.4836 55.8294C70.5338 56.4764 70.5913 56.9731 70.6561 57.3196C70.7122 57.6353 70.7324 58.0589 70.7167 58.5905C70.6078 59.1455 70.5897 59.7271 70.6621 60.3355C70.7744 60.9669 70.7935 61.6216 70.7195 62.2997C70.7425 63.0854 70.6965 63.9214 70.5817 64.8076C70.4979 65.686 70.3477 66.5646 70.1311 67.4434C69.9134 68.5533 69.6303 69.4323 69.2819 70.0804C68.9645 70.7206 68.5768 71.2301 68.1189 71.6088C67.8521 71.8407 67.3773 72.0423 66.6944 72.2136C66.0116 72.3849 65.4156 72.452 64.9065 72.4149ZM68.6513 36.8491C68.1743 36.5731 67.8127 36.2351 67.5665 35.8352C67.3427 35.3967 67.3473 34.8844 67.5803 34.2983C67.724 33.8665 67.7833 33.4889 67.7582 33.1654C67.7642 32.8342 67.7323 32.5454 67.6626 32.299C68.2718 31.7504 68.7869 31.4563 69.2079 31.4166C69.6511 31.3384 70.1113 31.4373 70.5883 31.7133C71.2554 32.0735 71.6116 32.6272 71.6568 33.3743C71.7244 34.0829 71.4904 34.9001 70.9546 35.826C70.5975 36.4432 70.2457 36.8448 69.8994 37.0306C69.5444 37.1856 69.1284 37.1251 68.6513 36.8491ZM81.2066 57.6401C79.841 57.9828 78.5798 57.7551 77.4231 56.9571C76.2577 56.1283 75.4727 54.9403 75.0679 53.393C74.8163 52.269 74.698 51.029 74.7131 49.6731C74.7505 48.2787 74.9296 46.9147 75.2502 45.5811C75.562 44.2167 75.9796 42.9907 76.5028 41.9031C77.026 40.8155 77.6543 39.9818 78.3877 39.402C78.6545 39.1702 78.9455 38.9653 79.2608 38.7872C79.6071 38.6014 79.9665 38.4617 80.339 38.3683C80.6804 38.2826 81.0547 38.2546 81.462 38.2843C81.8606 38.2832 82.2015 38.3131 82.4847 38.374C83.0733 38.4571 83.5509 38.6176 83.9174 38.8554C84.2839 39.0932 84.6673 39.5081 85.0676 40.1002C85.3263 40.6619 85.4905 41.0658 85.5602 41.3122C85.63 41.5585 85.657 41.9474 85.6412 42.479C85.5825 43.6809 85.3716 44.7562 85.0085 45.7047C84.6454 46.6532 84.0457 47.5292 83.2093 48.3326C83.0046 48.5489 82.7446 48.746 82.4294 48.9241C82.1364 49.0636 81.8192 49.1761 81.4778 49.2618C80.8571 49.4176 80.2213 49.4617 79.5706 49.3941C78.9422 49.288 78.3919 49.0468 77.9198 48.6706L77.4893 48.3829L77.4542 48.7875C77.3791 49.6967 77.3487 50.5287 77.363 51.2836C77.4082 52.0308 77.5137 52.6968 77.6793 53.2818C77.7838 53.6513 77.9151 53.9976 78.0731 54.3207C78.262 54.6361 78.469 54.8974 78.6939 55.1048C78.8703 55.2584 79.1113 55.3463 79.4168 55.3686C79.7446 55.3523 80.0792 55.3013 80.4206 55.2156C80.6379 55.1611 80.8552 55.1066 81.0724 55.0521C81.312 54.959 81.5274 54.839 81.7185 54.6921C82.1938 54.375 82.5562 54.0697 82.8056 53.7763C83.086 53.4751 83.362 53.1585 83.6337 52.8265L83.7938 52.6874L83.7472 52.6991C84.0674 52.4209 84.341 52.1543 84.568 51.8995C84.8261 51.6369 84.9552 51.5056 84.9552 51.5056C85.0793 51.4744 85.1817 51.3663 85.2622 51.1812C85.4757 50.9957 85.7991 50.964 86.2326 51.0861C86.6971 51.2004 86.9773 51.4269 87.0732 51.7656C87.0857 51.9273 87.0158 52.2087 86.8633 52.6097C86.7022 52.9799 86.5056 53.3425 86.2737 53.6975C86.0728 54.0447 85.8836 54.257 85.7061 54.3346C85.6838 54.3731 85.5926 54.462 85.4325 54.6011C85.2637 54.7094 85.157 54.8021 85.1123 54.8793L85.1589 54.8676C84.9841 55.3072 84.7571 55.562 84.4777 55.6321L84.1053 55.7256C84.0421 55.9722 83.7084 56.3198 83.104 56.7683C82.4909 57.1859 81.8584 57.4765 81.2066 57.6401ZM80.4255 46.9536C80.9842 46.8134 81.4217 46.5388 81.7381 46.1296C82.0767 45.6819 82.3446 45.2189 82.5417 44.7408C82.9271 43.7537 83.0574 42.8636 82.9327 42.0704C82.8302 41.2387 82.5802 40.7079 82.1827 40.4779C81.9703 40.4322 81.7865 40.4289 81.6313 40.4678C81.4985 40.4682 81.2477 40.5806 80.8791 40.805C80.6172 40.9366 80.2946 41.2649 79.9113 41.7898C79.528 42.3147 79.1577 42.8858 78.8006 43.503C78.4745 44.1125 78.2352 44.6177 78.0828 45.0187L77.7521 46.1405C77.9742 45.9858 78.1939 45.8812 78.4112 45.8267C78.6508 45.7336 78.7948 45.7139 78.8433 45.7677C78.9217 46.0449 79.0424 46.2949 79.2052 46.5178C79.3904 46.7022 79.578 46.8365 79.768 46.9207C79.9891 46.9972 80.2083 47.0081 80.4255 46.9536ZM96.8831 52.2719C96.5319 52.5579 96.0881 52.7517 95.5518 52.8533C95.0154 52.9549 94.2536 52.9647 93.2664 52.8826C93.2043 52.8982 93.0472 52.8717 92.7951 52.803C92.574 52.7266 92.3287 52.6233 92.0591 52.4931C91.8119 52.3243 91.5913 52.1323 91.3974 51.9171C90.7004 51.3335 90.2023 50.3373 89.9032 48.9284C89.6041 47.5195 89.568 45.7477 89.7949 43.6132C89.8814 43.0969 90.0417 42.4301 90.2758 41.6129C90.5409 40.7879 90.8079 40.0283 91.0768 39.3343C91.3681 38.6017 91.5938 38.1658 91.7538 38.0267C91.7538 38.0267 91.9071 37.9223 92.2137 37.7135C92.5202 37.5046 92.8981 37.1954 93.3473 36.7859C93.4851 36.6854 93.6383 36.581 93.8071 36.4727C94.007 36.3566 94.2112 36.2559 94.4197 36.1706C94.6283 36.0853 94.8145 36.0385 94.9784 36.0304C95.6079 35.9054 96.3095 35.9767 97.0833 36.2442C97.8794 36.4731 98.5732 36.8102 99.1646 37.2554C99.7473 37.6698 100.018 38.0966 99.9758 38.5358C99.9933 38.5974 99.935 38.7439 99.8011 38.9754C99.6895 39.1683 99.5512 39.3843 99.3862 39.6236C99.2436 39.8243 99.1319 40.0172 99.0514 40.2023C98.9485 40.426 98.753 40.5574 98.4649 40.5968C98.2079 40.6283 97.9403 40.5635 97.662 40.4025C97.4061 40.2029 97.2103 39.9223 97.0746 39.5606C96.9428 39.3298 96.6447 39.1573 96.1802 39.043C95.7467 38.921 95.53 38.8599 95.53 38.8599C95.2817 38.9222 94.9901 39.2427 94.6553 39.8214C94.3428 40.3615 94.0564 40.994 93.7962 41.7188C93.3944 42.4132 93.1007 43.1959 92.9151 44.0669C92.7208 44.9072 92.5954 45.6971 92.5388 46.4368C92.5046 47.1379 92.4801 47.6387 92.4654 47.9392C92.4284 48.2782 92.5349 48.7132 92.7849 49.2441C93.0349 49.7749 93.2394 50.0863 93.3984 50.1784C93.54 50.2088 93.8547 50.1463 94.3426 49.9909C94.8616 49.8277 95.4649 49.6104 96.1526 49.3389C96.8316 49.0366 97.4907 48.7228 98.13 48.3975C98.7693 48.0722 99.28 47.7626 99.6622 47.4689C100.147 46.9514 100.598 46.6074 101.016 46.4368C101.433 46.2661 101.759 46.1844 101.993 46.1914C102.37 46.2289 102.619 46.3476 102.742 46.5476C102.865 46.7475 102.858 47.0133 102.719 47.345C102.571 47.6458 102.273 48.001 101.824 48.4105C101.397 48.7814 101.025 49.1715 100.709 49.5806C100.415 49.9512 100.29 50.2135 100.333 50.3674C100.209 50.3986 100.082 50.4798 99.9533 50.6111C99.8466 50.7038 99.7423 50.7465 99.6405 50.7391C99.5784 50.7546 99.3432 50.8631 98.9348 51.0645C98.5264 51.2659 98.1069 51.4866 97.6762 51.7266C97.2765 51.9588 97.0122 52.1406 96.8831 52.2719ZM110.154 49.8817C109.795 49.9058 109.39 49.826 108.939 49.6423C108.511 49.4201 108.105 49.1593 107.721 48.8599C107.359 48.5219 107.088 48.2107 106.908 47.9262C106.89 47.8646 106.822 47.7993 106.703 47.7303C106.615 47.6535 106.57 47.6151 106.57 47.6151C106.42 47.5539 106.229 47.1731 105.998 46.4727C105.789 45.7337 105.604 44.9061 105.445 43.9898C105.285 43.0735 105.193 42.3381 105.169 41.7835C105.185 41.2519 105.23 40.5315 105.305 39.6223C105.372 38.6823 105.418 37.8463 105.443 37.1144L105.942 34.1202L103.936 34.0795C103.701 34.0724 103.48 33.996 103.273 33.8502C103.096 33.6966 102.99 33.5582 102.956 33.4351C102.886 33.1888 102.943 32.8612 103.126 32.4524C103.301 32.0128 103.45 31.7775 103.575 31.7463C103.738 31.7382 104.022 31.6835 104.426 31.5822C104.86 31.4732 105.275 31.3527 105.67 31.2206C106.064 31.0886 106.304 30.9955 106.388 30.9413C106.495 30.8486 106.597 30.7405 106.695 30.6169C106.785 30.4626 106.83 30.2699 106.831 30.0388C106.89 29.6612 106.943 29.3182 106.989 29.01C107.026 28.6709 107.1 28.2894 107.213 27.8654C107.317 27.4106 107.392 27.029 107.438 26.7208C107.514 26.4047 107.638 25.9614 107.809 25.3909C107.903 25.1364 108 24.8319 108.099 24.4773C108.198 24.1226 108.357 23.8025 108.575 23.5169C108.785 23.2004 109.033 23.0226 109.322 22.9833C109.632 22.9054 110.077 23.0082 110.655 23.2916C110.991 23.5372 111.196 23.7331 111.271 23.8793C111.345 24.0254 111.304 24.3491 111.146 24.8503C111.046 25.436 110.9 26.0334 110.706 26.6425C110.544 27.2438 110.397 27.8413 110.266 28.4348C109.961 29.2368 109.977 29.645 110.314 29.6595C110.65 29.674 111.502 29.3944 112.869 28.8206C113.725 28.4407 114.39 28.3234 114.863 28.4685C115.328 28.5827 115.665 28.8938 115.875 29.4017C116.178 30.1173 116.226 30.5832 116.022 30.7995C115.817 31.0157 115.125 31.2718 113.945 31.5678C113.235 31.8779 112.621 32.1145 112.102 32.2777C111.574 32.4101 111.186 32.5074 110.938 32.5697C110.543 32.7018 110.284 32.7834 110.16 32.8145C110.036 32.8457 109.858 32.9232 109.627 33.0471C109.396 33.171 109.241 33.3255 109.16 33.5106C109.102 33.6571 109.045 33.8691 108.991 34.1466C108.902 34.3009 108.807 34.6709 108.707 35.2567C108.607 35.8424 108.458 36.4899 108.259 37.1992C108.191 38.6014 108.185 39.988 108.24 41.3591C108.287 42.6994 108.388 43.9933 108.541 45.2409C108.635 46.0418 108.803 46.5767 109.045 46.8457C109.279 47.0838 109.73 47.1519 110.4 47.05C110.75 46.9951 111.293 46.8588 112.029 46.6411C112.788 46.3848 113.367 46.1406 113.766 45.9084C114.064 45.6687 114.378 45.4252 114.706 45.1778C115.027 44.8996 115.316 44.6292 115.574 44.3666C115.81 44.1425 116.045 43.9185 116.281 43.6944C116.508 43.4396 116.622 43.3122 116.622 43.3122C116.707 43.0269 116.856 42.9071 117.068 42.9527C117.281 42.9984 117.501 43.1904 117.73 43.5287C117.835 43.8982 117.866 44.3025 117.824 44.7417C117.782 45.181 117.343 45.8023 116.507 46.6057C115.354 47.8183 114.214 48.665 113.087 49.1457C111.982 49.5878 111.005 49.8331 110.154 49.8817ZM124.966 46.0659C124.208 46.3221 123.45 46.4629 122.693 46.4881C121.966 46.5055 121.302 46.3917 120.701 46.1468C120.122 45.8634 119.661 45.4679 119.318 44.9604C118.979 44.5839 118.787 44.3186 118.744 44.1647C118.692 43.9799 118.757 43.7987 118.939 43.6211C119.187 43.5587 119.426 43.5812 119.656 43.6884C119.908 43.7571 120.227 43.8255 120.612 43.8938C121.191 44.1773 121.81 44.2526 122.471 44.1198C123.163 43.9793 123.753 43.7158 124.242 43.3292C124.731 42.9427 124.954 42.5569 124.911 42.1719C124.877 42.0487 124.769 41.8449 124.589 41.5603C124.408 41.2758 124.208 40.9798 123.988 40.6722C122.819 39.7125 121.871 38.7136 121.145 37.6756C120.442 36.599 119.985 35.6913 119.776 34.9523C119.619 34.3981 119.624 33.7702 119.792 33.0688C119.95 32.3365 120.263 31.6808 120.731 31.1018C121.124 30.3766 121.596 29.6974 122.148 29.0642C122.701 28.431 123.27 27.8594 123.857 27.3494C124.475 26.8315 125.042 26.4255 125.557 26.1314C125.898 26.0457 126.361 25.979 126.946 25.9312C127.531 25.8834 127.949 25.8938 128.202 25.9624C128.578 25.9999 129 26.2568 129.467 26.7332C129.925 27.1787 130.229 27.6632 130.377 28.1866C130.438 28.4022 130.454 28.6949 130.426 29.0647C130.398 29.4345 130.309 29.8854 130.161 30.4174C130.132 30.7872 130.084 31.1456 130.016 31.4924C129.939 31.8085 129.918 32.0281 129.953 32.1512C129.894 32.5289 129.725 32.7527 129.445 32.8228C129.188 32.8544 128.885 32.782 128.536 32.6058C128.209 32.391 127.916 32.1183 127.656 31.7878C127.402 31.3571 127.25 30.9993 127.203 30.7144C127.147 30.3987 127.18 30.0442 127.301 29.651C127.546 29.2266 127.652 28.9529 127.617 28.8297C127.582 28.7066 127.394 28.6878 127.053 28.7735C126.835 28.828 126.471 29.0678 125.96 29.4929C125.471 29.8794 124.961 30.37 124.432 30.9646C123.924 31.5206 123.503 32.088 123.168 32.6667C122.735 33.3689 122.492 33.8587 122.437 34.1362C122.414 34.4059 122.476 34.8024 122.624 35.3259C122.747 35.7569 122.992 36.2724 123.361 36.8723C123.762 37.4643 124.101 37.8409 124.379 38.0019C124.379 38.0019 124.549 38.1902 124.888 38.5667C125.219 38.9125 125.605 39.2773 126.046 39.6613C127.504 41.406 128.137 42.7639 127.947 43.7351C127.756 44.7063 126.763 45.4832 124.966 46.0659Z" fill="black"/>
</svg>
