<svg width="226" height="150" viewBox="0 0 226 150" fill="none" xmlns="http://www.w3.org/2000/svg">
<path d="M157.343 69.64C162.987 67.284 169.348 71.5954 173.961 74.3557C181.694 78.9822 188.414 85.468 193.526 93.1545C201.737 105.5 205.205 120.639 204.335 135.966C205.452 133.685 206.57 131.402 207.687 129.119C208.681 127.091 211.683 128.182 210.744 130.309C208.137 136.209 205.523 142.108 202.907 148.006C202.264 149.454 200.452 149.537 199.829 148.164C196.567 140.996 193.255 133.849 190.075 126.633C189.205 124.662 192.17 123.242 193.073 125.164C195.609 130.554 198.073 135.987 200.538 141.416C202.344 127.48 200.6 113.639 194.593 101.4C190.9 93.8726 185.809 87.2793 179.641 81.9476C174.737 77.7092 164.63 68.9186 157.731 71.1899C156.883 71.4701 156.516 69.984 157.343 69.64Z" fill="#040606"/>
<path d="M19.9115 94.5318C19.5391 94.6252 19.172 94.503 18.8104 94.165C18.5719 94.027 18.3737 93.7964 18.2157 93.4733C18.0975 93.1732 18.0449 92.5763 18.0579 91.6827C18.0622 90.7583 18.1108 89.3445 18.2037 87.4415C18.1829 86.1936 18.1915 85.2846 18.2296 84.7144C18.2589 84.1134 18.2387 83.6898 18.169 83.4435C18.0732 83.1048 18.0258 82.8199 18.0268 82.5888C18.0502 82.3191 18.0314 82.0765 17.9704 81.8609C18.1566 81.8142 18.2949 81.5981 18.3853 81.2127C18.4756 80.8273 18.5001 80.3265 18.4586 79.7103C18.4346 79.1557 18.4256 78.7128 18.4315 78.3815C18.4598 78.0117 18.4565 77.7652 18.4217 77.642C18.5071 77.3568 18.5534 76.933 18.5604 76.3706C18.5985 75.8004 18.6991 75.0991 18.8624 74.2667C18.8493 73.2807 18.8584 72.2561 18.8899 71.1929C18.9127 70.099 18.9572 69.082 19.0235 68.142C19.1122 67.1634 19.1955 66.4005 19.2733 65.8533C19.3445 64.8132 19.4209 64.085 19.5026 63.6688C19.5755 63.2218 19.5014 62.96 19.2803 62.8836C19.0195 62.7842 18.8989 62.5341 18.9184 62.1335C18.938 61.7329 19.1617 61.2315 19.5897 60.6295C19.8178 60.1435 20.0342 59.7924 20.2389 59.5762C20.4349 59.3291 20.7192 59.1589 21.0916 59.0654C21.4951 58.9642 22.078 58.8509 22.8404 58.7255C23.4078 58.6161 24.0018 58.4836 24.6226 58.3278C25.2744 58.1642 25.6779 58.063 25.8331 58.0241C26.1473 58.0771 26.5279 58.13 26.975 58.1827C27.4133 58.2046 27.8051 58.2382 28.1504 58.2835C28.5266 58.321 28.7279 58.3859 28.754 58.4783C28.8063 58.663 28.9032 58.7706 29.0448 58.801C29.2087 58.7929 29.3726 58.7847 29.5365 58.7766C29.7538 58.7221 30.0966 58.8174 30.5649 59.0627C31.0245 59.2771 31.5258 59.58 32.0687 59.9714C32.603 60.332 33.0528 60.7468 33.4182 61.2157C33.8147 61.6768 34.1404 62.1227 34.3952 62.5534C34.6812 62.9764 34.8685 63.6383 34.9574 64.5394C35.0571 65.0091 35.1102 65.4904 35.1168 65.9834C35.1544 66.4686 35.133 66.8038 35.0524 66.9889C34.901 67.1588 34.7739 67.3555 34.671 67.5792C34.5681 67.8029 34.5384 67.9917 34.582 68.1457C34.6169 68.2688 34.578 68.5424 34.4653 68.9664C34.3439 69.3596 34.1779 69.83 33.9672 70.3775C33.7565 70.9251 33.5148 71.4804 33.242 72.0435C32.9693 72.6066 32.6946 73.1042 32.418 73.5363C32.154 74.1302 31.8036 74.7128 31.367 75.2841C30.9613 75.8475 30.5805 76.3223 30.2244 76.7085C29.522 77.2805 28.7265 77.8758 27.8379 78.4945C26.9803 79.1054 26.1363 79.647 25.3059 80.1192C24.5066 80.5836 23.8077 80.8744 23.2093 80.9915C22.344 81.3406 21.7892 81.6117 21.5447 81.805C21.3226 81.9596 21.2104 82.2681 21.2083 82.7303C21.1664 83.1695 21.1289 83.6241 21.0957 84.0941C21.0848 84.5256 21.1012 84.8182 21.1448 84.9722C21.1176 85.1109 21.0713 85.5348 21.0061 86.2437C20.9631 86.914 20.9196 87.6999 20.8756 88.6013C20.8626 89.4949 20.8453 90.3732 20.8236 91.236C20.8019 92.0989 20.803 92.8076 20.827 93.3622C20.8249 93.8244 20.7394 94.1097 20.5707 94.218C20.4106 94.3571 20.1909 94.4617 19.9115 94.5318ZM21.6318 78.7657C21.7908 78.8577 22.2763 78.7524 23.0881 78.4497C23.9 78.1471 24.7347 77.6903 25.5923 77.0794C26.1521 76.7081 26.6987 76.2906 27.2323 75.8269C27.797 75.3554 28.3219 74.861 28.807 74.3435C29.0564 74.0501 29.413 73.5484 29.8769 72.8384C30.3407 72.1284 30.7741 71.3107 31.177 70.3851C31.2265 70.2078 31.2989 69.8764 31.3942 69.3908C31.5117 68.8666 31.607 68.3811 31.6799 67.9341C31.8372 67.4329 31.9379 66.7316 31.9819 65.8302C32.0172 64.898 31.8788 64.1742 31.5668 63.6589C31.185 62.8973 30.5723 62.2596 29.7288 61.7458C28.8765 61.2011 27.9655 60.9186 26.9957 60.8981C26.278 60.9463 25.6863 61.0288 25.2208 61.1456C24.7862 61.2547 24.3182 61.4216 23.8167 61.6464C23.3637 61.9249 23.0523 62.2339 22.8824 62.5733C22.7436 62.905 22.6143 63.564 22.4946 64.5503C22.3994 65.0359 22.2764 65.7758 22.1256 66.77C21.9662 67.7333 21.8557 68.635 21.7943 69.4748C21.8108 71.6471 21.7271 73.4654 21.5432 74.9296C21.3816 76.3552 21.2867 77.2529 21.2584 77.6227C21.3853 77.9536 21.4395 78.2039 21.421 78.3734C21.3938 78.5121 21.4641 78.6429 21.6318 78.7657ZM48.7869 84.8128C48.3894 84.5828 47.9613 84.245 47.5028 83.7994C47.0355 83.3231 46.6085 82.7542 46.2219 82.0928C46.0901 81.862 45.9632 81.5311 45.8411 81.1C45.7502 80.6612 45.663 80.3533 45.5797 80.1763C45.5476 80.4152 45.4577 80.6851 45.3102 80.9859C45.185 81.2482 45.0511 81.4797 44.9084 81.6804C44.8191 81.8347 44.6095 82.1511 44.2796 82.6296C43.9409 83.0773 43.5848 83.4635 43.2113 83.788C42.3701 84.6917 41.6168 85.2599 40.9514 85.4928C40.317 85.718 39.6004 85.5351 38.8015 84.9441C38.1916 84.6684 37.7083 84.3115 37.3516 83.8734C37.0259 83.4275 36.8341 82.7501 36.7763 81.8412C36.5334 80.748 36.3922 79.6622 36.3529 78.5838C36.3049 77.4746 36.4248 75.9606 36.7127 74.0416C37.0071 72.6156 37.2423 71.5673 37.4181 70.8966C37.5852 70.1952 37.6979 69.7712 37.7561 69.6246C38.1781 69.3539 38.5704 69.2719 38.9331 69.3788C39.2871 69.4548 39.5561 69.7006 39.7402 70.1161C40.0136 70.3773 40.1307 70.9085 40.0916 71.7098C40.0835 72.5032 39.9526 73.5089 39.699 74.7268C39.5608 75.8827 39.4536 77.0308 39.3775 78.1711C39.3324 79.3036 39.3834 80.2472 39.5305 81.0017C39.6776 81.7563 39.9902 82.156 40.4683 82.2009C40.7912 82.2848 41.2592 82.1179 41.8723 81.7002C42.5165 81.2747 43.1336 80.4603 43.7238 79.257C44.345 78.0458 44.7914 76.3344 45.0629 74.1228C45.1369 73.4447 45.1706 72.8591 45.164 72.3661C45.1487 71.8423 45.0738 71.284 44.9392 70.6912C44.7725 70.3373 44.6965 70.0101 44.7112 69.7096C44.7482 69.3706 44.9224 69.0466 45.2339 68.7376C45.3144 68.5525 45.4459 68.3711 45.6283 68.1934C45.802 67.9849 45.9417 67.9499 46.0473 68.0882L46.7792 67.8551C46.8946 67.7932 46.994 67.8507 47.0773 68.0277C47.183 68.166 47.3308 68.2773 47.5209 68.3615C47.9407 68.553 48.2038 69.13 48.3101 70.0927C48.4164 71.0553 48.3479 72.4576 48.1047 74.2994C47.8723 75.7097 47.739 76.7655 47.7047 77.4666C47.7015 78.1599 47.7716 78.8184 47.9148 79.442C48.0717 79.9962 48.3285 80.4924 48.6852 80.9305C49.0419 81.3686 49.5097 81.7294 50.0886 82.0129C50.491 82.1427 50.747 82.3423 50.8565 82.6116C50.997 82.8732 51.104 83.1926 51.1776 83.5698C51.1939 83.8625 51.0731 84.1402 50.815 84.4028C50.5792 84.6269 50.2751 84.7856 49.9026 84.8791C49.5302 84.9725 49.1583 84.9504 48.7869 84.8128ZM58.0892 81.7366C57.451 81.8308 57.0412 81.8511 56.8599 81.7977C56.7096 81.7365 56.4847 81.5291 56.1852 81.1756C55.8584 80.9608 55.6422 80.7842 55.5366 80.6458C55.462 80.4996 55.4227 80.3611 55.4189 80.2301C55.5741 80.1912 55.7138 80.1561 55.8379 80.125C55.9534 80.063 56.0135 79.982 56.0184 79.8818C55.9923 79.7895 56.0214 79.7162 56.1058 79.662C56.2212 79.6001 56.3454 79.569 56.4782 79.5686C57.0767 79.4514 57.7693 79.0797 58.5561 78.4536C59.3652 77.7889 60.1928 76.9547 61.0389 75.9509C61.9074 74.9085 62.723 73.797 63.4857 72.6163C63.9964 71.3669 64.3551 70.403 64.562 69.7245C64.7601 69.0153 64.838 68.4681 64.7955 68.083C64.7442 67.6672 64.6018 67.3402 64.3682 67.102C64.1743 66.8868 63.6981 66.9074 62.9396 67.1637C62.1724 67.3892 61.3948 67.9306 60.607 68.7878C59.5077 69.954 58.6547 70.9925 58.0482 71.9032C57.4417 72.8138 56.9234 73.8013 56.4933 74.8656C56.3322 75.2358 56.1884 75.6675 56.0622 76.1609C55.9669 76.6465 55.8853 77.0627 55.8172 77.4096C55.7492 77.7564 55.7152 77.9298 55.7152 77.9298C55.7501 78.053 55.6074 78.2537 55.2872 78.5319C54.9981 78.8023 54.7294 78.9686 54.4811 79.0309C54.3395 79.0005 54.1383 78.9356 53.8775 78.8362C53.639 78.6981 53.4494 78.4984 53.3089 78.2368C53.0481 78.1374 52.858 78.0532 52.7388 77.9842C52.6195 77.9152 52.5269 77.823 52.461 77.7076C52.3777 77.5307 52.3415 77.2265 52.3523 76.795C52.3632 76.3636 52.3552 75.6896 52.3284 74.7729C52.288 73.9257 52.2545 73.0437 52.2277 72.127C52.232 71.2026 52.2556 70.4052 52.2985 69.7349C52.3415 69.0646 52.4008 68.687 52.4765 68.602C52.4765 68.602 52.4993 68.4479 52.545 68.1396C52.5908 67.8313 52.5613 67.4925 52.4567 67.123C52.4142 66.7379 52.4158 66.3913 52.4615 66.083C52.5383 65.767 52.5592 65.5473 52.5244 65.4242C52.6224 65.3007 52.704 64.8844 52.7693 64.1755C52.8346 63.4666 52.9053 62.542 52.9814 61.4017C52.9552 61.3093 52.9811 60.9896 53.0589 60.4424C53.128 59.8644 53.2219 59.1978 53.3405 58.4426C53.4504 57.6565 53.556 56.8551 53.6572 56.0382C53.7807 55.1828 53.8683 54.4353 53.92 53.7958C54.1443 53.1789 54.2885 52.6315 54.3527 52.1537C54.4392 51.6374 54.5781 51.3057 54.7692 51.1588C54.9157 51.0891 55.1062 51.0578 55.3409 51.0648C55.598 51.0333 55.8525 51.0519 56.1047 51.1205C56.3878 51.1814 56.6419 51.3155 56.8668 51.5229C57.0035 51.6535 57.1048 51.7765 57.1707 51.8918C57.2366 52.0072 57.2554 52.2498 57.2271 52.6197C57.1901 52.9587 57.0943 53.5598 56.9397 54.4231C56.8075 55.2477 56.6004 56.4539 56.3185 58.0416C55.9724 60.107 55.7248 61.9335 55.5758 63.5208C55.4267 65.1081 55.3228 66.5027 55.2641 67.7046C55.2054 68.9065 55.1342 69.9467 55.0504 70.8251L55.1053 71.8996L55.9554 70.4991C56.3251 70.0436 56.7196 69.4994 57.1388 68.8666C57.558 68.2338 57.9326 67.6781 58.2626 67.1996C58.4586 66.9525 58.7322 66.686 59.0834 66.4C59.4569 66.0754 59.8236 65.7856 60.1835 65.5304C60.5434 65.2752 60.8122 65.1088 60.9897 65.0313C61.0741 64.9771 61.2938 64.8725 61.6488 64.7175C62.0038 64.5625 62.4452 64.4187 62.9728 64.2863C63.6556 64.115 64.2424 64.1326 64.733 64.3393C65.2547 64.5382 65.8132 64.9257 66.4084 65.5018C66.9328 66.0627 67.2817 66.7667 67.4549 67.6136C67.6194 68.4297 67.5847 69.2464 67.3506 70.0636C67.2303 70.2257 67.123 70.434 67.0288 70.6884C66.9259 70.9121 66.8919 71.0855 66.9268 71.2087C66.9568 71.432 66.8038 71.9486 66.4679 72.7584C66.1233 73.5374 65.77 74.2856 65.4079 75.003C65.0148 75.7282 64.4976 76.4845 63.8562 77.272C63.2061 78.0288 62.5429 78.7393 61.8667 79.4036C61.2128 80.0294 60.6326 80.5048 60.1262 80.8297C59.8866 80.9228 59.5471 81.0739 59.1077 81.2831C58.6596 81.4615 58.3201 81.6127 58.0892 81.7366ZM72.1871 76.715C71.8245 76.6081 71.5394 76.4818 71.3319 76.336C71.1244 76.1902 70.9727 75.948 70.8769 75.6093C70.7461 75.1474 70.6731 74.6546 70.6578 74.1308C70.6338 73.5762 70.6142 73.037 70.5989 72.5132C70.5041 71.9434 70.4248 71.3697 70.361 70.7921C70.3196 70.176 70.3843 69.5826 70.5552 69.0121C70.5655 67.7564 70.5956 66.5122 70.6455 65.2795C70.6868 64.016 70.6728 62.7334 70.6035 61.4317C70.6845 60.1912 70.7582 59.101 70.8245 58.161C70.9132 57.1824 71.0141 55.9534 71.1272 54.474C71.1887 53.6342 71.1905 52.7598 71.1327 51.8509C71.0972 50.9035 71.1965 50.0212 71.4306 49.204C71.5383 48.8801 71.6126 48.6142 71.6535 48.4061C71.7166 48.1594 71.7841 47.9281 71.856 47.7122C71.8521 47.5812 71.9235 47.4809 72.0699 47.4112C72.2475 47.3336 72.4536 47.2984 72.6883 47.3055C72.9229 47.3125 73.1242 47.3775 73.2919 47.5003C73.3763 47.4461 73.5111 47.5112 73.6962 47.6956C73.9037 47.8414 74.1044 48.0219 74.2983 48.2371C74.4921 48.4522 74.5997 48.6561 74.621 48.8486C74.6558 48.9718 74.6727 49.1489 74.6716 49.38C74.7016 49.6033 74.6807 49.8229 74.6088 50.0388C74.5195 50.1931 74.4477 50.409 74.3932 50.6865C74.3611 50.9254 74.2931 51.2723 74.1891 51.727C74.1783 52.1585 74.1873 52.6014 74.2162 53.0558C74.2364 53.4795 74.2169 53.8801 74.1575 54.2577C74.138 54.6584 74.083 55.0514 73.9927 55.4368C73.9333 55.8145 73.9031 56.1188 73.9021 56.3499C73.8853 57.1126 73.8176 57.8716 73.6989 58.6269C73.6113 59.3744 73.5678 60.1602 73.5685 60.9845C73.5604 61.778 73.561 62.6023 73.5703 63.4573C73.571 64.2816 73.4698 65.0985 73.2667 65.9079C73.1453 66.3011 73.1122 66.7711 73.1672 67.3179C73.2223 67.8647 73.2773 68.4115 73.3324 68.9583C73.303 69.5592 73.2805 70.1255 73.2647 70.6571C73.2713 71.1501 73.292 71.4582 73.3269 71.5814C73.3324 72.3055 73.3845 73.0179 73.4831 73.7187C73.6041 74.3808 73.6101 74.9894 73.5013 75.5443C73.5574 75.86 73.565 76.1219 73.5242 76.33C73.4834 76.5381 73.3587 76.6848 73.1502 76.7702C72.9329 76.8247 72.6119 76.8063 72.1871 76.715ZM80.5257 75.4141C80.0427 75.4693 79.5477 75.2473 79.0406 74.7479C78.556 74.21 78.2129 73.7025 78.0113 73.2254C77.9726 72.9713 77.9035 72.6095 77.8038 72.1398C77.7351 71.6624 77.6621 71.1696 77.5847 70.6613C77.5433 70.0452 77.5135 69.2942 77.4955 68.4083C77.4687 67.4917 77.4419 66.575 77.4151 65.6584C77.4194 64.7339 77.4275 63.9405 77.4394 63.2779C77.4513 62.6154 77.4709 62.2147 77.4981 62.076C77.5836 61.7907 77.8144 61.6669 78.1907 61.7043C78.567 61.7418 78.8986 61.8565 79.1856 62.0483C79.4416 62.2479 79.633 62.5131 79.7599 62.844C79.9179 63.1672 80.0108 63.6715 80.0386 64.357C80.0975 65.0348 80.1193 66.0516 80.1042 67.4074C80.1114 68.7247 80.1309 69.7916 80.1625 70.6081C80.2165 71.386 80.3767 72.1867 80.643 73.0103C80.8152 74.0883 80.9051 74.7582 80.9128 75.0201C80.9117 75.2512 80.7827 75.3826 80.5257 75.4141ZM80.6634 55.6426C80.5654 55.7662 80.4543 55.8435 80.3302 55.8746C80.2284 55.8672 80.0315 55.8177 79.7396 55.726C79.5136 55.7498 79.1951 55.6813 78.7839 55.5207C78.3951 55.3214 78.0373 55.1144 77.7106 54.8996C77.4062 54.6462 77.2453 54.4887 77.2278 54.4272C77.1096 54.127 77.0162 53.7383 76.9475 53.2608C76.9012 52.7448 76.9499 52.2709 77.0936 51.8391C77.2286 51.3766 77.5245 51.0715 77.9814 50.9239C78.1055 50.8927 78.2185 50.8808 78.3204 50.8883C78.4222 50.8957 78.732 50.9334 79.2499 51.0013C79.6289 51.4008 80.0254 51.862 80.4393 52.3847C80.8445 52.8766 81.11 53.4035 81.2358 53.9656C81.353 54.4968 81.1622 55.0558 80.6634 55.6426ZM92.3321 72.6988C91.9809 72.9848 91.5372 73.1786 91.0008 73.2802C90.4645 73.3818 89.7027 73.3916 88.7154 73.3096C88.6533 73.3251 88.4962 73.2986 88.2441 73.23C88.023 73.1535 87.7777 73.0502 87.5081 72.92C87.2609 72.7512 87.0403 72.5592 86.8465 72.344C86.1494 71.7605 85.6513 70.7642 85.3522 69.3553C85.0532 67.9464 85.017 66.1747 85.2439 64.0402C85.3304 63.5238 85.4907 62.857 85.7248 62.0398C85.9899 61.2148 86.2569 60.4553 86.5259 59.7612C86.8171 59.0286 87.0428 58.5927 87.2029 58.4536C87.2029 58.4536 87.3562 58.3492 87.6627 58.1404C87.9693 57.9315 88.3471 57.6224 88.7963 57.2128C88.9341 57.1123 89.0874 57.0079 89.2562 56.8996C89.456 56.7835 89.6602 56.6828 89.8687 56.5975C90.0773 56.5122 90.2635 56.4655 90.4274 56.4573C91.0569 56.3323 91.7585 56.4036 92.5323 56.6711C93.3285 56.9 94.0222 57.2371 94.6137 57.6823C95.1963 58.0967 95.4667 58.5235 95.4249 58.9627C95.4423 59.0243 95.384 59.1708 95.2501 59.4023C95.1385 59.5952 95.0002 59.8112 94.8352 60.0505C94.6926 60.2512 94.581 60.4441 94.5004 60.6292C94.3975 60.8529 94.202 60.9844 93.914 61.0237C93.657 61.0552 93.3893 60.9904 93.111 60.8294C92.8551 60.6298 92.6593 60.3492 92.5237 59.9875C92.3919 59.7567 92.0937 59.5842 91.6292 59.4699C91.1958 59.3479 90.979 59.2868 90.979 59.2868C90.7307 59.3491 90.4392 59.6696 90.1043 60.2483C89.7918 60.7884 89.5055 61.4209 89.2452 62.1457C88.8434 62.8401 88.5497 63.6228 88.3641 64.4938C88.1698 65.3341 88.0444 66.124 87.9878 66.8637C87.9536 67.5648 87.9291 68.0656 87.9145 68.3661C87.8775 68.7051 87.984 69.1401 88.234 69.671C88.4839 70.2018 88.6884 70.5133 88.8475 70.6053C88.989 70.6357 89.3038 70.5732 89.7917 70.4178C90.3106 70.2546 90.9139 70.0373 91.6016 69.7658C92.2806 69.4635 92.9398 69.1497 93.579 68.8244C94.2183 68.4991 94.729 68.1896 95.1113 67.8958C95.5964 67.3783 96.0475 67.0343 96.4646 66.8637C96.8817 66.693 97.2076 66.6113 97.4423 66.6183C97.8186 66.6558 98.0683 66.7745 98.1913 66.9745C98.3144 67.1745 98.3066 67.4402 98.1677 67.7719C98.0202 68.0727 97.7218 68.4279 97.2726 68.8374C96.8457 69.2083 96.4741 69.5984 96.1578 70.0075C95.8638 70.3781 95.7386 70.6404 95.7821 70.7943C95.658 70.8255 95.5314 70.9067 95.4023 71.038C95.2956 71.1308 95.1914 71.1734 95.0895 71.166C95.0274 71.1816 94.7922 71.29 94.3838 71.4915C93.9755 71.6929 93.5559 71.9136 93.1252 72.1535C92.7255 72.3857 92.4612 72.5675 92.3321 72.6988ZM104.472 69.3064C104.117 69.4614 103.696 69.5011 103.209 69.4254C102.722 69.3497 102.26 69.1853 101.823 68.9323C101.417 68.6715 101.115 68.368 100.917 68.0219C100.61 67.4065 100.461 66.5864 100.47 65.5618C100.501 64.4987 100.644 63.3582 100.897 62.1403C101.173 60.8839 101.525 59.6581 101.951 58.4629C102.408 57.2599 102.92 56.1915 103.487 55.2579C104.076 54.2856 104.673 53.5752 105.277 53.1268C105.558 52.8256 105.782 52.6208 105.951 52.5125C106.142 52.3656 106.355 52.2957 106.59 52.3028C106.855 52.3021 107.256 52.3664 107.791 52.4959C108.261 52.5101 108.626 52.5668 108.887 52.6663C109.147 52.7657 109.514 53.0035 109.986 53.3797C110.365 53.7792 110.682 54.1944 110.937 54.6251C111.192 55.0558 111.449 55.552 111.707 56.1136C112.173 56.821 112.41 57.3057 112.418 57.5676C112.417 57.7987 112.372 57.9914 112.283 58.1458C112.121 58.516 112.103 58.6855 112.227 58.6543C112.227 58.6543 112.229 58.7198 112.233 58.8508C112.259 58.9431 112.24 59.1127 112.177 59.3593C112.152 60.0913 112.181 60.8423 112.267 61.6124C112.374 62.3439 112.555 62.925 112.81 63.3557C113.25 63.9708 113.813 64.2582 114.5 64.2178C115.187 64.1774 115.775 63.7328 116.267 62.8841C116.538 62.5521 116.803 62.2548 117.061 61.9922C117.311 61.6987 117.47 61.6752 117.54 61.9215C117.54 61.9215 117.599 61.956 117.719 62.025C117.829 62.0632 117.947 62.0668 118.071 62.0356C118.226 61.9967 118.336 62.0349 118.402 62.1503C118.499 62.2579 118.547 62.4272 118.546 62.6583C118.567 62.8508 118.535 63.0897 118.45 63.375C118.115 63.9537 117.969 64.32 118.013 64.4739C118.013 64.4739 117.968 64.5511 117.879 64.7054C117.812 64.8212 117.685 65.0179 117.498 65.2958C117.035 65.7747 116.369 66.1231 115.5 66.3412C114.662 66.5515 113.962 66.5457 113.401 66.3238C112.839 66.102 112.274 65.7491 111.705 65.2654C111.167 64.7738 110.775 64.3281 110.529 63.9282L110.165 63.5247L109.063 64.7411C108.818 65.1654 108.537 65.5822 108.22 65.9913C107.935 66.3927 107.748 66.6705 107.659 66.8248C107.6 66.9714 107.522 67.1064 107.424 67.2299C107.357 67.3456 107.262 67.4191 107.138 67.4502C107.013 67.4814 106.905 67.5087 106.812 67.532C106.719 67.5554 106.672 67.5671 106.672 67.5671C106.707 67.6902 106.595 67.8831 106.337 68.1458C106.11 68.4006 105.812 68.6402 105.444 68.8646C105.106 69.0812 104.782 69.2285 104.472 69.3064ZM103.3 66.9292C103.486 66.8825 103.773 66.6621 104.16 66.2682C104.57 65.8357 105.013 65.3453 105.489 64.797C105.996 64.241 106.426 63.7044 106.779 63.1873C107.162 62.6624 107.416 62.2689 107.541 62.0066C107.631 61.8523 107.776 61.6015 107.977 61.2543C108.169 60.8763 108.343 60.5523 108.499 60.2823C108.987 59.3026 109.235 58.3004 109.244 57.2759C109.244 56.2205 108.995 55.4585 108.497 54.99C108.277 54.6824 108.07 54.5366 107.875 54.5526C107.68 54.5685 107.322 54.7736 106.802 55.1679C106.491 55.4769 106.143 56.0094 105.759 56.7654C105.397 57.4828 105.018 58.3197 104.624 59.276C104.252 60.1937 103.92 61.1345 103.628 62.0982C103.336 63.0619 103.119 63.9407 102.978 64.7346C102.837 65.5284 102.823 66.1255 102.937 66.5257C102.972 66.6489 103.033 66.7489 103.121 66.8257C103.241 66.8947 103.3 66.9292 103.3 66.9292ZM123.379 65.848C123.021 65.8721 122.616 65.7923 122.165 65.6086C121.736 65.3864 121.33 65.1256 120.946 64.8262C120.584 64.4882 120.314 64.177 120.133 63.8924C120.116 63.8309 120.048 63.7656 119.928 63.6966C119.84 63.6198 119.796 63.5814 119.796 63.5814C119.646 63.5201 119.455 63.1393 119.223 62.439C119.014 61.7 118.83 60.8724 118.67 59.9561C118.51 59.0398 118.419 58.3044 118.395 57.7498C118.41 57.2182 118.456 56.4978 118.531 55.5886C118.597 54.6486 118.643 53.8126 118.669 53.0807L119.167 50.0865L117.161 50.0458C116.927 50.0387 116.705 49.9623 116.498 49.8165C116.322 49.6629 116.216 49.5245 116.181 49.4014C116.111 49.155 116.168 48.8275 116.352 48.4187C116.526 47.9791 116.676 47.7438 116.8 47.7126C116.964 47.7045 117.248 47.6498 117.651 47.5485C118.086 47.4395 118.5 47.3189 118.895 47.1869C119.29 47.0549 119.529 46.9618 119.614 46.9076C119.721 46.8149 119.823 46.7067 119.921 46.5832C120.01 46.4289 120.055 46.2362 120.056 46.0051C120.116 45.6275 120.168 45.2845 120.214 44.9762C120.251 44.6372 120.326 44.2557 120.438 43.8317C120.542 43.3769 120.617 42.9953 120.663 42.6871C120.74 42.371 120.864 41.9277 121.034 41.3572C121.129 41.1027 121.225 40.7982 121.324 40.4435C121.423 40.0889 121.582 39.7688 121.8 39.4831C122.01 39.1667 122.259 38.9889 122.547 38.9496C122.857 38.8717 123.302 38.9745 123.881 39.2579C124.216 39.5035 124.421 39.6994 124.496 39.8456C124.571 39.9917 124.529 40.3154 124.372 40.8165C124.272 41.4023 124.125 41.9997 123.932 42.6088C123.77 43.2101 123.623 43.8075 123.492 44.4011C123.187 45.2031 123.203 45.6113 123.539 45.6258C123.876 45.6403 124.727 45.3606 126.094 44.7868C126.951 44.407 127.615 44.2897 128.089 44.4347C128.553 44.549 128.891 44.8601 129.101 45.368C129.403 46.0836 129.452 46.5495 129.247 46.7657C129.042 46.982 128.35 47.2381 127.171 47.5341C126.461 47.8441 125.846 48.0808 125.327 48.244C124.8 48.3764 124.412 48.4737 124.164 48.536C123.769 48.6681 123.509 48.7497 123.385 48.7808C123.261 48.812 123.083 48.8895 122.853 49.0134C122.622 49.1373 122.466 49.2918 122.385 49.4769C122.327 49.6234 122.271 49.8354 122.216 50.1129C122.127 50.2672 122.032 50.6372 121.932 51.2229C121.832 51.8087 121.683 52.4562 121.485 53.1655C121.416 54.5677 121.41 55.9543 121.466 57.3254C121.513 58.6657 121.613 59.9596 121.767 61.2072C121.86 62.0081 122.028 62.543 122.271 62.812C122.504 63.0501 122.956 63.1182 123.625 63.0163C123.975 62.9614 124.518 62.8251 125.255 62.6074C126.013 62.3511 126.592 62.1068 126.992 61.8746C127.29 61.635 127.603 61.3915 127.932 61.1441C128.252 60.8659 128.541 60.5955 128.799 60.3328C129.035 60.1088 129.271 59.8848 129.507 59.6607C129.734 59.4059 129.847 59.2785 129.847 59.2785C129.933 58.9932 130.081 58.8734 130.294 58.919C130.506 58.9647 130.727 59.1567 130.956 59.495C131.06 59.8645 131.091 60.2688 131.05 60.708C131.008 61.1472 130.569 61.7686 129.732 62.572C128.58 63.7846 127.44 64.6313 126.313 65.112C125.208 65.5541 124.23 65.7994 123.379 65.848ZM134.208 61.8942C133.89 61.7102 133.616 61.449 133.388 61.1106C133.19 60.7645 133.054 60.4028 132.981 60.0256C132.907 59.6483 132.898 59.3209 132.952 59.0434C132.882 58.7971 132.861 58.6046 132.888 58.4659C132.938 58.2885 132.93 58.1422 132.864 58.0268C132.798 57.9114 132.768 57.6881 132.774 57.3569C132.78 57.0256 132.79 56.7097 132.805 56.4092C132.883 55.8621 132.95 55.2187 133.006 54.479C133.054 53.7085 133.091 52.9573 133.116 52.2254C133.142 51.4935 133.163 50.8617 133.178 50.3302C133.194 49.7986 133.2 49.4673 133.196 49.3364C133.092 48.9669 133.283 48.7044 133.771 48.549C134.109 48.3324 134.388 48.2623 134.609 48.3387C134.822 48.3844 135.153 48.6146 135.602 49.0293C135.92 49.2134 136.118 49.5595 136.196 50.0677C136.273 50.5759 136.245 51.2423 136.113 52.067C136.059 52.3445 136.004 52.7375 135.948 53.2461C135.924 53.7469 135.933 54.1898 135.975 54.5749C135.921 54.8523 135.866 55.2454 135.811 55.7539C135.777 56.2239 135.755 56.6747 135.745 57.1061C135.726 57.2756 135.729 57.5221 135.754 57.8456C135.771 58.1383 135.78 58.4657 135.783 58.8277C135.777 59.159 135.731 59.4672 135.646 59.7525C135.724 61.085 135.669 61.8902 135.482 62.168C135.326 62.4381 134.901 62.3468 134.208 61.8942ZM133.416 42.0097C133.217 41.8947 133.017 41.7142 132.814 41.4683C132.603 41.1915 132.447 40.9339 132.346 40.6953C132.236 40.426 132.228 40.2797 132.321 40.2563C132.561 40.1632 132.782 39.8275 132.984 39.2492C133.186 38.6709 133.203 38.2048 133.037 37.8508C133.002 37.7277 133.018 37.6082 133.085 37.4925C133.143 37.346 133.23 37.2417 133.345 37.1798C133.648 36.84 133.996 36.7197 134.39 36.8187C134.806 36.8792 135.239 37.1168 135.689 37.5316C136.134 38.0465 136.351 38.5197 136.34 38.9511C136.32 39.3518 136.127 39.9609 135.76 40.7784C135.469 41.5111 135.13 41.9588 134.744 42.1216C134.389 42.2767 133.946 42.2394 133.416 42.0097ZM145.87 58.6709C145.254 58.9576 144.848 59.1089 144.653 59.1248C144.48 59.1022 144.179 58.9798 143.751 58.7575C143.185 58.6358 142.678 58.4331 142.232 58.1493C141.817 57.8577 141.476 57.5312 141.207 57.1699C140.961 56.7699 140.814 56.4275 140.767 56.1426C140.555 55.0416 140.492 53.8208 140.578 52.4801C140.664 51.1395 140.856 49.8217 141.154 48.5267C141.452 47.2317 141.845 46.0943 142.332 45.1146C142.842 44.0964 143.403 43.3784 144.016 42.9608C144.567 42.5587 145.131 42.3183 145.707 42.2397C146.283 42.1611 146.77 42.3524 147.166 42.8135C147.884 43.5896 147.937 44.1865 147.324 44.6041C147.231 44.6275 147.135 44.7009 147.037 44.8245C146.93 44.9172 146.895 45.0251 146.929 45.1483C147.071 45.1787 147.417 45.1084 147.967 44.9375C148.508 44.7357 149.04 44.5031 149.564 44.2398C150.11 43.9379 150.455 43.6866 150.597 43.4859C150.758 43.3468 150.884 43.2655 150.977 43.2422C151.07 43.2188 151.312 43.1912 151.702 43.1593C152.273 43.1809 152.589 43.2994 152.65 43.5149C152.685 43.6381 152.766 43.7496 152.894 43.8494C153.014 43.9184 153.135 43.9373 153.259 43.9061C153.485 43.8824 153.494 44.0288 153.284 44.3452C153.105 44.6538 152.767 45.1015 152.268 45.6884C151.783 46.2058 151.48 46.5456 151.36 46.7077C151.262 46.8312 151.307 47.0507 151.496 47.366C151.91 47.8887 152.117 48.5622 152.118 49.3865C152.119 50.2107 151.953 51.0932 151.621 52.034C151.289 52.9747 150.82 53.9004 150.213 54.8111C149.629 55.6832 148.956 56.4785 148.196 57.197C147.457 57.8769 146.682 58.3682 145.87 58.6709ZM144.504 56.8373C144.628 56.8061 144.828 56.6901 145.103 56.489C145.37 56.2572 145.584 56.0717 145.744 55.9326C145.833 55.7783 145.949 55.6008 146.092 55.4001C146.256 55.1609 146.397 55.0103 146.512 54.9483C146.636 54.9172 146.778 54.832 146.938 54.6929C147.09 54.523 147.288 54.2259 147.534 53.8015C147.771 53.3464 148.068 52.6946 148.426 51.8463C148.855 51.0131 149.162 50.2766 149.347 49.6367C149.523 48.966 149.463 48.4038 149.168 47.9501C149.103 47.8347 148.988 47.7811 148.824 47.7893C148.691 47.7896 148.498 47.7555 148.246 47.6869C147.936 47.7647 147.619 47.7618 147.296 47.6779C146.996 47.5555 146.636 47.3985 146.216 47.2071L145.209 46.4703L144.64 47.454C144.283 48.0713 143.964 48.9427 143.685 50.0682C143.427 51.155 143.256 52.2533 143.171 53.3628C143.078 54.4416 143.083 55.2812 143.186 55.8818C143.286 56.3515 143.451 56.6399 143.68 56.7471C143.91 56.8543 144.185 56.8844 144.504 56.8373ZM170.848 53.6893C170.538 53.7671 170.164 53.6796 169.727 53.4266C169.321 53.1657 168.924 52.8202 168.536 52.3898C168.17 51.9209 167.922 51.4555 167.792 50.9937C167.661 50.5318 167.526 49.6424 167.385 48.3255C167.276 47.0008 167.21 45.649 167.185 44.2702C167.207 43.4073 167.154 42.926 167.026 42.8262C166.898 42.7264 166.526 43.0009 165.912 43.6497C165.539 43.9742 165.216 44.3025 164.944 44.6345C164.664 44.9357 164.439 45.256 164.269 45.5954C164.149 45.7575 163.973 46.0161 163.741 46.3711C163.509 46.7261 163.257 47.0696 162.985 47.4016C162.669 47.8107 162.279 48.3703 161.815 49.0803C161.351 49.7903 160.887 50.5003 160.423 51.2102C159.99 51.9124 159.662 52.4564 159.439 52.8422C159.412 52.981 159.349 53.1121 159.251 53.2356C159.153 53.3591 159.031 53.4558 158.885 53.5255C158.729 53.5644 158.55 53.5765 158.346 53.5616C157.979 53.5549 157.596 53.4366 157.199 53.2066C156.832 52.9688 156.592 52.6497 156.479 52.2494C156.392 51.9415 156.368 51.3869 156.407 50.5857C156.437 49.7536 156.502 48.7481 156.6 47.5692C156.73 46.3825 156.904 45.1187 157.123 43.7777C157.172 43.6004 157.198 43.3961 157.199 43.165C157.191 42.9031 157.163 42.6297 157.116 42.3448C157.1 42.0521 157.057 41.7826 156.987 41.5363C156.943 41.3824 156.915 41.2245 156.903 41.0628C156.913 40.8625 156.927 40.6775 156.945 40.508C156.986 40.2999 157.029 40.1573 157.073 40.0801C157.128 39.8026 157.328 39.6865 157.673 39.7318C158.009 39.7463 158.334 39.8956 158.647 40.1798C159.235 40.4941 159.62 40.9745 159.803 41.6211C160.017 42.2599 160.089 43.0994 160.017 44.1395C159.954 44.3862 159.907 44.629 159.875 44.8679C159.865 45.0682 159.851 45.2531 159.832 45.4227C159.805 45.5614 159.789 45.6809 159.784 45.781C159.77 45.8504 159.764 45.8851 159.764 45.8851C159.888 45.8539 160.128 45.6453 160.484 45.2591C160.84 44.873 161.265 44.4366 161.759 43.9499C162.129 43.4944 162.445 43.0852 162.708 42.7224C162.993 42.3211 163.238 42.0123 163.443 41.796C163.639 41.549 163.768 41.4176 163.83 41.4021C163.954 41.3709 164.096 41.2858 164.256 41.1467C164.416 41.0076 164.541 40.8609 164.63 40.7066C164.72 40.5523 164.795 40.4673 164.858 40.4517C164.942 40.3976 164.984 40.3705 164.984 40.3705C164.984 40.3705 165.046 40.3549 165.17 40.3238C165.286 40.2618 165.388 40.1537 165.477 39.9994C165.673 39.7523 165.986 39.6244 166.416 39.6155C166.837 39.5758 167.253 39.6363 167.664 39.797C168.075 39.9576 168.324 40.1919 168.411 40.4998C168.446 40.623 168.508 40.7229 168.596 40.7997C168.707 40.8379 168.762 40.8571 168.762 40.8571C169.01 40.7947 169.274 41.1407 169.554 41.8949C169.865 42.6413 169.997 43.3997 169.949 44.1702C170.08 44.632 170.144 45.2096 170.14 45.9029C170.168 46.5885 170.203 47.2393 170.244 47.8555C170.214 48.6876 170.235 49.4078 170.307 50.0162C170.38 50.6245 170.504 51.1211 170.679 51.5058C170.854 51.8905 171.055 52.1865 171.28 52.3939C171.465 52.5783 171.534 52.8246 171.489 53.1329C171.434 53.4103 171.221 53.5958 170.848 53.6893ZM180.313 51.2153C178.762 51.6047 177.472 51.3347 176.444 50.4054C176.14 50.152 175.944 49.8714 175.857 49.5635C175.792 49.217 175.82 48.9627 175.94 48.8006C176.091 48.6307 176.339 48.684 176.683 48.9604C177.188 49.0977 177.843 49.065 178.65 48.8626C179.054 48.7613 179.464 48.6254 179.881 48.4548C180.289 48.2533 180.689 48.0212 181.08 47.7582C181.485 47.4258 181.743 47.1632 181.854 46.9703C181.957 46.7466 181.883 46.6004 181.63 46.5318L181.677 46.5201C180.809 46.5071 179.891 46.3748 178.922 46.1232C177.975 45.8331 177.129 45.4849 176.382 45.0786C175.627 44.6416 175.137 44.2038 174.914 43.7653C174.395 42.8731 174.183 41.8877 174.276 40.8089C174.361 39.6994 174.636 38.6741 175.101 37.733C175.306 37.5167 175.564 37.2541 175.875 36.9451C176.178 36.6053 176.433 36.3928 176.642 36.3075L176.655 36.3536C177.071 35.5899 177.645 34.9181 178.378 34.3383C179.143 33.7508 179.963 33.1823 180.838 32.633L181.51 32.3654C181.865 32.2103 182.166 32.1017 182.415 32.0393C182.384 32.0471 182.455 32.0624 182.627 32.085C182.791 32.0768 182.939 32.0726 183.072 32.0722C183.285 32.1179 183.453 32.1251 183.577 32.094C183.998 32.0543 184.423 32.1456 184.851 32.3678C185.28 32.59 185.648 32.8933 185.957 33.2776C186.287 33.6234 186.474 33.9888 186.516 34.3739C186.62 34.9745 186.582 35.5446 186.402 36.0844C186.253 36.6163 185.986 36.9637 185.6 37.1265C185.653 37.0802 185.594 37.0457 185.421 37.023C185.271 36.9618 185.105 36.9045 184.924 36.851L184.81 36.9785C184.81 36.9785 184.786 36.9516 184.737 36.8978C184.711 36.8054 184.65 36.7054 184.553 36.5978C184.407 36.4365 184.304 36.248 184.243 36.0325C184.173 35.7862 184.115 35.5205 184.067 35.2356C184.034 34.8814 183.977 34.6812 183.898 34.6352C183.849 34.5814 183.634 34.5859 183.253 34.6485C182.792 34.6652 182.178 34.9019 181.41 35.3585C180.672 35.8073 180.085 36.3173 179.649 36.8886C179.088 37.491 178.631 38.0507 178.279 38.5678C177.918 39.0541 177.65 39.5171 177.476 39.9566C177.292 40.3654 177.157 40.828 177.071 41.3444C176.976 41.5989 176.898 41.8494 176.835 42.0961C176.794 42.3042 176.795 42.4853 176.839 42.6392C176.935 42.9779 177.283 43.2697 177.884 43.5146C178.508 43.7208 179.397 43.9264 180.552 44.1313C181.455 44.2674 182.242 44.4656 182.914 44.7257C183.586 44.9858 184.105 45.3503 184.47 45.8192C184.567 45.9268 184.626 46.0768 184.648 46.2693C184.691 46.4233 184.691 46.5388 184.646 46.616C184.726 46.662 184.77 46.7004 184.778 46.7312L184.765 46.685C185.118 46.9922 185.227 47.3771 185.092 47.8396C184.988 48.2944 184.7 48.7459 184.229 49.194C183.78 49.6035 183.189 49.9826 182.457 50.3312L182.503 50.3195C182.135 50.544 181.757 50.7376 181.371 50.9004C181.007 51.0247 180.655 51.1296 180.313 51.2153Z" fill="black"/>
</svg>
