<svg width="173" height="134" viewBox="0 0 173 134" fill="none" xmlns="http://www.w3.org/2000/svg">
<path d="M103.611 54.745C109.203 52.171 115.755 56.28 120.492 58.8914C128.436 63.2681 135.425 69.5522 140.841 77.1024C149.539 89.2294 153.567 104.337 153.237 119.792C154.28 117.456 155.323 115.119 156.366 112.781C157.292 110.704 160.351 111.694 159.482 113.868C157.071 119.899 154.651 125.929 152.23 131.958C151.636 133.438 149.816 133.587 149.14 132.228C145.604 125.132 142.019 118.061 138.563 110.914C137.618 108.962 140.549 107.426 141.526 109.328C144.268 114.66 146.94 120.038 149.613 125.412C150.933 111.324 148.685 97.4602 142.208 85.3606C138.225 77.9196 132.869 71.4687 126.476 66.3259C121.393 62.2378 110.914 53.7565 104.056 56.2906C103.214 56.6031 102.791 55.121 103.611 54.745Z" fill="#040606"/>
<path d="M25.5096 68.2638C24.9074 68.25 24.4181 68.2244 24.0418 68.1869C23.6742 68.1802 23.4905 68.1769 23.4905 68.1769C23.509 68.0073 23.4387 67.8766 23.2797 67.7846C23.1517 67.6848 22.9127 67.6623 22.5625 67.7172C22.0185 67.5569 21.4838 67.3119 20.9583 66.982C20.4725 66.6752 20.0488 66.3528 19.6872 66.0149C19.3256 65.6769 19.0435 65.3849 18.8409 65.139C18.4929 64.7316 18.3059 64.4818 18.2797 64.3894C18.2759 64.2585 18.4229 64.0732 18.7207 63.8336C18.9924 63.5016 19.2189 63.3623 19.4003 63.4157C19.6126 63.4614 19.9171 63.7147 20.3135 64.1759C20.9175 64.7828 21.7528 65.1503 22.8196 65.2783C23.9174 65.3986 25.0672 65.2914 26.2689 64.9569C27.493 64.5838 28.594 64.0107 29.5719 63.2377C30.5896 62.4877 31.1683 61.8313 31.3082 61.2686C31.4704 60.6673 31.1744 60.0325 30.4202 59.3644C30.2573 59.1414 30.0921 58.9685 29.9243 58.8457C29.7566 58.7229 29.4982 58.5734 29.1491 58.3972C28.8311 58.2132 28.2988 57.9181 27.5522 57.5118C27.0256 57.4131 26.5345 57.322 26.0787 57.2385C25.6539 57.1472 25.1938 57.0483 24.6982 56.9418C24.1319 56.8201 23.4265 56.6179 22.5819 56.3352C21.7596 56.0139 20.9553 55.6386 20.1689 55.2094C19.3826 54.7801 18.78 54.3542 18.3612 53.9317C17.7339 53.5944 17.1827 53.0567 16.7078 52.3185C16.2242 51.5494 15.8827 50.6953 15.6833 49.756C15.4839 48.8167 15.4814 47.9269 15.6757 47.0867C15.7399 46.6089 15.9021 46.0076 16.1623 45.2828C16.4449 44.5194 16.774 43.7443 17.1496 42.9575C17.5253 42.1707 17.9028 41.4494 18.2823 40.7935C18.6618 40.1377 18.9917 39.6592 19.2722 39.358C19.4507 39.0494 19.6448 38.7368 19.8544 38.4204C20.0553 38.0732 20.1558 37.8996 20.1558 37.8996C20.1433 37.7379 20.168 37.6492 20.2301 37.6336C20.3232 37.6103 20.3698 37.5986 20.3698 37.5986C20.4988 37.4673 20.7966 37.2277 21.2633 36.8797C21.7299 36.5318 22.1908 35.9874 22.646 35.2467C24.4466 33.7395 25.9333 32.5915 27.1062 31.8026C28.279 31.0136 29.2845 30.514 30.1225 30.3037C30.9072 30.1398 31.6578 30.1493 32.3744 30.3322C33.1134 30.4765 33.7587 30.7598 34.3103 31.182C34.893 31.5964 35.3355 32.1614 35.6378 32.877C36.0642 33.5614 36.2462 34.4391 36.1837 35.5101C36.1125 36.5503 35.8574 37.5871 35.4186 38.6206C35.0022 39.6155 34.467 40.4258 33.813 41.0516C33.0486 41.6391 32.5068 41.9564 32.1877 42.0035C31.8909 42.012 31.6753 41.7199 31.5407 41.1271C31.471 40.8808 31.4658 40.5688 31.5251 40.1912C31.6154 39.8057 31.9266 39.0846 32.4585 38.0278C33.0421 36.3314 33.3205 35.0249 33.2937 34.1083C33.2669 33.1916 32.9301 32.765 32.2832 32.8284C32.0795 32.8135 31.7381 32.8992 31.2589 33.0854C30.8108 33.2638 30.3093 33.4886 29.7545 33.7597C29.2219 33.9923 28.7713 34.2208 28.4027 34.4452C28.0254 34.6388 27.8454 34.7664 27.8628 34.828C27.8628 34.828 27.8759 34.8742 27.9021 34.9665C27.9282 35.0589 27.8749 35.1053 27.742 35.1056C27.6799 35.1212 27.451 35.3106 27.0551 35.6737C26.6593 36.0369 26.1921 36.5003 25.6536 37.0642C25.1151 37.628 24.5766 38.1918 24.0381 38.7557C23.4996 39.3195 23.0412 39.8138 22.6628 40.2385C22.3067 40.6246 22.1218 40.8524 22.1082 40.9218C22.142 41.276 21.8723 41.6735 21.2989 42.1142C20.7827 42.6394 20.3611 43.3223 20.0339 44.1629C19.7377 44.9957 19.4274 46.0134 19.103 47.216C18.7758 48.0566 18.6213 48.9198 18.6393 49.8057C18.6487 50.6607 18.8317 51.3073 19.1884 51.7455C19.483 52.1992 20.1428 52.7097 21.1677 53.2769C22.1925 53.8442 23.4104 54.33 24.8214 54.7345C26.0422 55.0547 27.1545 55.4021 28.1581 55.7769C29.153 56.1208 29.9884 56.4883 30.6642 56.8793C31.371 57.2626 31.8742 57.631 32.1737 57.9845C32.6943 58.4145 33.1107 58.8871 33.4228 59.4024C33.7571 59.8791 33.9941 60.3638 34.1335 60.8564C34.304 61.3413 34.3838 61.7994 34.373 62.2308C34.2952 62.778 34.051 63.3834 33.6405 64.047C33.261 64.7029 32.8807 65.0621 32.4995 65.1248C32.1842 65.3028 31.9509 65.4768 31.7996 65.6467C31.6792 65.8088 31.5235 65.9633 31.3324 66.1102C31.15 66.2878 30.7193 66.5278 30.0403 66.8301C29.3923 67.1246 28.6537 67.3924 27.8244 67.6335C27.0038 67.9053 26.2322 68.1155 25.5096 68.2638ZM41.5706 61.0183C41.1671 61.1196 40.8194 61.1244 40.5275 61.0327C40.2667 60.9333 39.9263 60.7879 39.5065 60.5964C38.7424 60.1286 38.1578 59.6487 37.7527 59.1568C37.3388 58.6341 37.1043 58.0994 37.0492 57.5526C37.0726 57.2829 37.0383 57.0442 36.9462 56.8364C36.8765 56.5901 36.8417 56.4669 36.8417 56.4669C36.6429 56.3519 36.5702 56.2712 36.6236 56.2249C36.6682 56.1477 36.7041 56.0398 36.7313 55.901C36.9176 55.8543 36.9317 55.6694 36.7738 55.3462C36.642 55.1155 36.6136 54.5455 36.6886 53.6363C36.7637 52.7271 36.9294 51.8446 37.1858 50.9888C37.2849 50.6342 37.4509 50.1638 37.6839 49.5777C37.9082 48.9608 38.1679 48.3515 38.463 47.7498C38.7804 47.1096 39.0817 46.5888 39.367 46.1874C39.96 45.3461 40.5077 44.6975 41.0103 44.2416C41.5128 43.7857 42.0837 43.3951 42.723 43.0699C43.3622 42.7446 43.806 42.5508 44.0543 42.4885C44.3336 42.4184 44.7758 42.5712 45.3808 42.947C46.1819 43.0758 46.7986 43.3168 47.231 43.67C47.6944 44.0154 48.0903 44.592 48.4188 45.4C48.7733 46.3004 48.9964 47.3821 49.088 48.6452C49.202 49.8698 48.8866 51.5153 48.1419 53.5819C47.6797 54.8851 47.2011 55.8955 46.7062 56.6133C46.2026 57.3003 45.5748 58.0184 44.8229 58.7677C44.2931 59.3623 43.7949 59.8336 43.3283 60.1816C42.8529 60.4987 42.267 60.7776 41.5706 61.0183ZM44.6542 55.0012C45.1638 53.9829 45.5313 53.0498 45.7567 52.2018C46.013 51.346 46.1817 50.2979 46.2628 49.0574C46.291 48.6875 46.251 48.2524 46.1426 47.752C46.0254 47.2207 45.8748 46.7474 45.6907 46.3319C45.529 45.8778 45.3463 45.6434 45.1426 45.6285C44.7091 45.5064 44.2417 45.5578 43.7402 45.7826C43.2299 45.9765 42.7385 46.4131 42.266 47.0923C41.5304 48.1343 40.9756 49.3453 40.6017 50.7252C40.219 52.0744 39.8998 53.589 39.644 55.2691C39.4922 56.4943 39.6363 57.4145 40.0764 58.0296C40.5387 58.6061 41.1783 58.6929 41.995 58.2901C42.8341 57.8487 43.7205 56.7524 44.6542 55.0012ZM58.5791 56.9483C57.7225 57.3281 56.887 57.4883 56.0723 57.4289C55.249 57.3387 54.5174 57.0441 53.8775 56.5451C53.2599 56.0076 52.8117 55.2461 52.5328 54.2608C52.1782 53.3605 51.9862 52.271 51.9567 50.9923C51.9184 49.6828 52.0198 48.3382 52.2609 46.9587C52.5331 45.5713 52.8997 44.3416 53.3608 43.2695C53.7724 42.3748 54.2014 41.5416 54.6479 40.7701C55.0943 39.9985 55.5353 39.4426 55.9709 39.1025C56.3531 38.8087 56.7261 38.5997 57.0899 38.4755C57.4759 38.3126 57.7931 38.2001 58.0414 38.1378C58.5729 38.1363 59.1659 38.2348 59.8204 38.4333C60.4973 38.5933 60.888 38.858 60.9926 39.2274C60.9926 39.2274 61.0367 39.2658 61.125 39.3426C61.2355 39.3808 61.2908 39.4 61.2908 39.4C61.477 39.3532 61.6888 39.5144 61.9263 39.8835C62.1948 40.2449 62.4186 40.6834 62.5978 41.199C62.7683 41.6839 62.8084 42.119 62.718 42.5044C62.7595 43.1206 62.686 43.6832 62.4977 44.1921C62.3093 44.701 62.091 44.9867 61.8427 45.049C61.7185 45.0801 61.5987 45.1267 61.4833 45.1886C61.3902 45.212 61.3654 45.3006 61.409 45.4546C61.4526 45.6085 61.3769 45.6935 61.1819 45.7094C61.018 45.7176 60.8212 45.668 60.5914 45.5608C60.3529 45.4228 60.1522 45.2423 59.9893 45.0194C59.9458 44.8654 59.9338 44.5881 59.9533 44.1875C59.9729 43.7869 59.9619 43.2785 59.9205 42.6623C59.8627 41.7534 59.6903 41.2031 59.4033 41.0113C59.1076 40.7887 58.6842 40.8784 58.1332 41.2805C57.4793 41.9063 56.9043 42.6936 56.4083 43.6425C55.9434 44.5836 55.5904 45.744 55.3493 47.1236C55.0995 48.4724 54.9989 50.1135 55.0475 52.0469C55.0618 52.8018 55.1585 53.4371 55.3377 53.9527C55.5479 54.4606 55.704 54.7182 55.8058 54.7257C56.2752 54.7398 56.8736 54.6226 57.6011 54.3741C58.3199 54.0948 58.8238 53.82 59.1129 53.5496C59.5398 53.1786 60.007 52.7151 60.5144 52.1591C61.0132 51.5723 61.4474 51.0511 61.8171 50.5956C61.9461 50.4643 62.0888 50.2636 62.245 49.9935C62.4013 49.7235 62.5861 49.4957 62.7996 49.3103C62.9433 48.8785 63.0995 48.6084 63.2683 48.5001C63.4371 48.3918 63.7077 48.2909 64.0802 48.1975C64.3459 48.1967 64.6049 48.2307 64.857 48.2993C65.1091 48.368 65.2836 48.4561 65.3806 48.5637C65.5086 48.6635 65.4925 48.7829 65.3324 48.922C65.2083 48.9532 65.1438 49.0188 65.1389 49.119C65.1563 49.1806 65.165 49.2114 65.165 49.2114C65.2619 49.3189 65.1964 49.6157 64.9682 50.1016C64.7625 50.549 64.4766 51.0659 64.1108 51.6524C63.7449 52.2389 63.3771 52.7599 63.0074 53.2154C62.66 53.6323 62.3932 53.8641 62.207 53.9109C61.8966 53.9888 61.7676 54.1201 61.8199 54.3048C61.8373 54.3664 61.6481 54.5788 61.2523 54.9419C60.8875 55.2973 60.4451 55.6721 59.9251 56.0664C59.4361 56.4529 58.9874 56.7469 58.5791 56.9483ZM70.8011 52.8921C70.3181 52.9473 69.8231 52.7253 69.3161 52.2259C68.8314 51.688 68.4883 51.1805 68.2867 50.7034C68.2481 50.4493 68.1789 50.0875 68.0792 49.6178C68.0105 49.1404 67.9375 48.6476 67.8601 48.1393C67.8187 47.5232 67.7889 46.7722 67.7709 45.8863C67.7441 44.9697 67.7173 44.053 67.6906 43.1364C67.6948 42.2119 67.7029 41.4185 67.7148 40.7559C67.7267 40.0934 67.7463 39.6928 67.7735 39.554C67.859 39.2688 68.0899 39.1449 68.4661 39.1824C68.8424 39.2198 69.1741 39.3345 69.461 39.5263C69.717 39.7259 69.9084 39.9911 70.0353 40.322C70.1933 40.6452 70.2862 41.1495 70.314 41.835C70.3729 42.5128 70.3948 43.5296 70.3796 44.8854C70.3869 46.2027 70.4063 47.2696 70.438 48.0861C70.4919 48.864 70.6521 49.6647 70.9185 50.4883C71.0906 51.5663 71.1806 52.2362 71.1882 52.4981C71.1871 52.7293 71.0581 52.8606 70.8011 52.8921ZM70.9388 33.1206C70.8408 33.2442 70.7297 33.3215 70.6056 33.3527C70.5038 33.3452 70.3069 33.2957 70.015 33.204C69.7891 33.2278 69.4705 33.1593 69.0594 32.9987C68.6705 32.7994 68.3128 32.5924 67.986 32.3776C67.6816 32.1242 67.5207 31.9667 67.5032 31.9052C67.385 31.605 67.2916 31.2163 67.223 30.7388C67.1766 30.2228 67.2253 29.7489 67.369 29.3171C67.504 28.8546 67.8 28.5495 68.2568 28.4019C68.381 28.3707 68.494 28.3588 68.5958 28.3663C68.6976 28.3737 69.0075 28.4114 69.5253 28.4793C69.9043 28.8788 70.3008 29.34 70.7147 29.8627C71.1199 30.3546 71.3854 30.8815 71.5112 31.4436C71.6284 31.9748 71.4376 32.5338 70.9388 33.1206ZM78.6984 50.8115C78.3434 50.9665 77.9225 51.0062 77.4356 50.9305C76.9488 50.8548 76.4868 50.6904 76.0495 50.4374C75.6432 50.1766 75.3413 49.8731 75.1436 49.527C74.8364 48.9116 74.6874 48.0915 74.6965 47.0669C74.728 46.0038 74.8706 44.8633 75.1242 43.6454C75.4002 42.389 75.7513 41.1632 76.1775 39.968C76.6348 38.765 77.1468 37.6966 77.7136 36.763C78.3027 35.7907 78.8995 35.0803 79.5038 34.6319C79.7843 34.3307 80.0089 34.1259 80.1776 34.0176C80.3688 33.8707 80.5817 33.8008 80.8164 33.8079C81.0821 33.8072 81.4826 33.8715 82.0179 34.001C82.4873 34.0152 82.8524 34.0719 83.1133 34.1714C83.3741 34.2708 83.7406 34.5086 84.2127 34.8848C84.5918 35.2843 84.9087 35.6995 85.1636 36.1302C85.4185 36.5609 85.6753 37.057 85.934 37.6187C86.4002 38.3261 86.6371 38.8108 86.6448 39.0727C86.6437 39.3038 86.5985 39.4965 86.5092 39.6509C86.3481 40.0211 86.3296 40.1906 86.4537 40.1594C86.4537 40.1594 86.4557 40.2249 86.4595 40.3559C86.4856 40.4482 86.4671 40.6178 86.404 40.8644C86.3785 41.5963 86.4082 42.3474 86.4932 43.1175C86.6006 43.849 86.7817 44.4301 87.0366 44.8608C87.4766 45.4759 88.04 45.7633 88.7266 45.7229C89.4133 45.6825 90.0022 45.2379 90.4932 44.3892C90.7649 44.0572 91.0298 43.7599 91.2879 43.4973C91.5373 43.2038 91.6968 43.1803 91.7665 43.4266C91.7665 43.4266 91.8262 43.4611 91.9454 43.5301C92.056 43.5683 92.1733 43.5719 92.2975 43.5407C92.4527 43.5018 92.5632 43.54 92.6291 43.6554C92.726 43.763 92.774 43.9323 92.7729 44.1634C92.7942 44.3559 92.7621 44.5948 92.6766 44.8801C92.3418 45.4588 92.1961 45.8251 92.2397 45.979C92.2397 45.979 92.1951 46.0562 92.1058 46.2105C92.0388 46.3263 91.9117 46.523 91.7244 46.8009C91.2616 47.2798 90.5957 47.6282 89.7266 47.8463C88.8886 48.0566 88.1889 48.0508 87.6274 47.8289C87.066 47.6071 86.5007 47.2542 85.9316 46.7705C85.3936 46.2789 85.0015 45.8332 84.7553 45.4333L84.3918 45.0298L83.29 46.2462C83.0445 46.6705 82.7636 47.0873 82.4472 47.4964C82.1619 47.8978 81.9746 48.1756 81.8853 48.3299C81.8271 48.4765 81.749 48.6115 81.651 48.735C81.584 48.8507 81.4884 48.9242 81.3643 48.9553C81.2401 48.9865 81.1315 49.0138 81.0384 49.0371C80.9453 49.0605 80.8987 49.0722 80.8987 49.0722C80.9336 49.1953 80.822 49.3882 80.5639 49.6508C80.3368 49.9057 80.039 50.1453 79.6704 50.3697C79.3328 50.5863 79.0088 50.7336 78.6984 50.8115ZM77.5269 48.4343C77.7131 48.3876 77.9998 48.1672 78.3869 47.7733C78.7964 47.3408 79.2393 46.8504 79.7157 46.3021C80.2232 45.7461 80.653 45.2095 81.0053 44.6924C81.3886 44.1675 81.6428 43.774 81.7681 43.5117C81.8574 43.3574 82.0025 43.1066 82.2034 42.7594C82.3955 42.3814 82.5698 42.0574 82.726 41.7874C83.2133 40.8077 83.4615 39.8055 83.4706 38.781C83.4711 37.7256 83.2222 36.9636 82.7239 36.4951C82.5038 36.1875 82.2964 36.0417 82.1014 36.0577C81.9065 36.0736 81.549 36.2787 81.029 36.673C80.7176 36.982 80.3697 37.5145 79.9853 38.2705C79.6232 38.9879 79.2451 39.8248 78.851 40.7811C78.4792 41.6988 78.1471 42.6396 77.8548 43.6033C77.5625 44.567 77.3458 45.4458 77.2049 46.2397C77.0639 47.0335 77.0501 47.6306 77.1634 48.0308C77.1982 48.154 77.2598 48.254 77.348 48.3308C77.4673 48.3998 77.5269 48.4343 77.5269 48.4343ZM94.1502 46.2416C93.7875 46.1348 93.5024 46.0085 93.2949 45.8627C93.0875 45.7169 92.9358 45.4746 92.8399 45.1359C92.7092 44.6741 92.6362 44.1812 92.6209 43.6574C92.5968 43.1029 92.5772 42.5637 92.5619 42.0399C92.4671 41.4701 92.3878 40.8964 92.324 40.3188C92.2826 39.7026 92.3473 39.1093 92.5183 38.5387C92.5285 37.283 92.5586 36.0388 92.6086 34.8061C92.6498 33.5426 92.6358 32.2601 92.5665 30.9583C92.6476 29.7179 92.7212 28.6276 92.7876 27.6876C92.8762 26.709 92.9771 25.48 93.0902 24.0006C93.1517 23.1608 93.1535 22.2864 93.0957 21.3776C93.0602 20.4301 93.1595 19.5478 93.3936 18.7306C93.5014 18.4068 93.5757 18.1408 93.6165 17.9327C93.6796 17.686 93.7471 17.4547 93.819 17.2388C93.8152 17.1079 93.8865 17.0075 94.033 16.9378C94.2105 16.8603 94.4166 16.825 94.6513 16.8321C94.886 16.8392 95.0872 16.9041 95.2549 17.0269C95.3393 16.9727 95.4741 17.0379 95.6593 17.2222C95.8667 17.368 96.0674 17.5485 96.2613 17.7637C96.4552 17.9789 96.5627 18.1827 96.584 18.3752C96.6188 18.4984 96.6357 18.6755 96.6347 18.9066C96.6647 19.13 96.6437 19.3496 96.5719 19.5655C96.4826 19.7198 96.4107 19.9357 96.3563 20.2131C96.3242 20.452 96.2561 20.7989 96.1522 21.2537C96.1413 21.6851 96.1504 22.128 96.1793 22.5825C96.1994 23.0061 96.1799 23.4067 96.1206 23.7844C96.101 24.185 96.046 24.578 95.9557 24.9635C95.8964 25.3411 95.8662 25.6455 95.8651 25.8766C95.8483 26.6393 95.7806 27.3982 95.6619 28.1535C95.5744 28.901 95.5309 29.6869 95.5315 30.5111C95.5234 31.3046 95.524 32.1289 95.5334 32.984C95.534 33.8082 95.4328 34.6251 95.2297 35.4345C95.1084 35.8277 95.0752 36.2977 95.1302 36.8445C95.1853 37.3913 95.2403 37.9381 95.2954 38.4849C95.266 39.0859 95.2435 39.6522 95.2278 40.1837C95.2343 40.6767 95.2551 40.9848 95.2899 41.108C95.2954 41.8321 95.3475 42.5445 95.4461 43.2453C95.5671 43.9075 95.5731 44.516 95.4643 45.071C95.5204 45.3867 95.5281 45.6486 95.4872 45.8567C95.4464 46.0648 95.3217 46.2115 95.1132 46.2968C94.8959 46.3513 94.5749 46.3329 94.1502 46.2416ZM104.666 45.2352C103.114 45.6246 101.825 45.3547 100.797 44.4253C100.493 44.172 100.297 43.8913 100.21 43.5834C100.145 43.2369 100.173 42.9826 100.293 42.8205C100.444 42.6507 100.692 42.7039 101.036 42.9803C101.54 43.1176 102.196 43.085 103.003 42.8825C103.407 42.7812 103.817 42.6453 104.234 42.4747C104.642 42.2733 105.042 42.0411 105.433 41.7781C105.838 41.4457 106.096 41.1831 106.207 40.9902C106.31 40.7665 106.235 40.6204 105.983 40.5517L106.03 40.54C105.162 40.527 104.244 40.3947 103.275 40.1431C102.328 39.853 101.482 39.5048 100.735 39.0985C99.9799 38.6615 99.4904 38.2237 99.2665 37.7853C98.748 36.8931 98.5356 35.9076 98.6291 34.8288C98.714 33.7193 98.9889 32.694 99.4538 31.7529C99.6585 31.5366 99.9166 31.274 100.228 30.965C100.531 30.6252 100.786 30.4127 100.995 30.3274L101.008 30.3736C101.423 29.6098 101.998 28.938 102.731 28.3582C103.496 27.7707 104.316 27.2022 105.191 26.6529L105.863 26.3853C106.218 26.2302 106.519 26.1216 106.768 26.0593C106.737 26.0671 106.807 26.0823 106.98 26.1049C107.144 26.0968 107.292 26.0925 107.425 26.0921C107.638 26.1378 107.806 26.145 107.93 26.1139C108.351 26.0742 108.776 26.1655 109.204 26.3877C109.633 26.6099 110.001 26.9132 110.309 27.2976C110.64 27.6433 110.827 28.0087 110.869 28.3938C110.973 28.9944 110.935 29.5645 110.755 30.1043C110.606 30.6362 110.339 30.9836 109.953 31.1464C110.006 31.1001 109.947 31.0656 109.774 31.0429C109.624 30.9817 109.458 30.9244 109.277 30.871L109.163 30.9984C109.163 30.9984 109.139 30.9715 109.09 30.9177C109.064 30.8253 109.003 30.7253 108.906 30.6178C108.76 30.4564 108.657 30.2679 108.596 30.0524C108.526 29.8061 108.468 29.5405 108.42 29.2556C108.387 28.9013 108.33 28.7012 108.25 28.6552C108.202 28.6014 107.987 28.6058 107.606 28.6685C107.145 28.6851 106.531 28.9218 105.763 29.3784C105.025 29.8272 104.438 30.3372 104.002 30.9085C103.441 31.5109 102.984 32.0706 102.632 32.5877C102.271 33.074 102.003 33.537 101.828 33.9766C101.645 34.3854 101.51 34.8479 101.423 35.3643C101.329 35.6188 101.251 35.8694 101.187 36.116C101.147 36.3241 101.148 36.5052 101.192 36.6591C101.287 36.9978 101.636 37.2896 102.237 37.5345C102.861 37.7408 103.75 37.9463 104.905 38.1512C105.808 38.2874 106.595 38.4855 107.267 38.7456C107.939 39.0057 108.458 39.3702 108.823 39.8391C108.92 39.9467 108.979 40.0967 109.001 40.2893C109.044 40.4432 109.044 40.5588 108.999 40.6359C109.079 40.6819 109.123 40.7203 109.131 40.7511L109.118 40.7049C109.471 41.0121 109.58 41.397 109.445 41.8596C109.341 42.3144 109.053 42.7658 108.582 43.2139C108.133 43.6234 107.542 44.0025 106.81 44.3511L106.856 44.3395C106.487 44.5639 106.11 44.7575 105.724 44.9203C105.36 45.0446 105.008 45.1495 104.666 45.2352Z" fill="black"/>
</svg>
