<svg width="121" height="159" viewBox="0 0 121 159" fill="none" xmlns="http://www.w3.org/2000/svg">
<path d="M71.4935 87.38C74.7791 92.5425 71.6584 99.6131 69.7539 104.674C66.5623 113.16 61.3739 120.976 54.7308 127.417C44.0608 137.763 29.8336 143.916 14.6694 145.81C17.0974 146.506 19.5272 147.202 21.9571 147.898C24.1162 148.516 23.5674 151.683 21.3212 151.137C15.0906 149.617 8.85952 148.09 2.62876 146.561C1.09971 146.185 0.704281 144.407 1.94097 143.543C8.39692 139.027 14.8233 134.464 21.3401 130.02C23.1206 128.805 25.0253 131.483 23.2989 132.723C18.4589 136.201 13.5643 139.616 8.67371 143.032C22.6372 142.315 35.8914 138.1 46.8394 129.955C53.5723 124.947 59.1482 118.723 63.302 111.661C66.6037 106.045 73.4628 94.4626 70.0425 88.0428C69.6212 87.2541 71.0131 86.6231 71.4935 87.38Z" fill="#040606"/>
<path d="M18.3032 55.3167C17.8369 54.9353 17.4669 54.6141 17.1933 54.3531C16.9077 54.1217 16.7648 54.006 16.7648 54.006C16.8837 53.8837 16.9088 53.7374 16.84 53.567C16.8005 53.4096 16.6259 53.2449 16.3161 53.0727C15.9858 52.6117 15.715 52.0895 15.5036 51.5062C15.3094 50.9655 15.1737 50.4507 15.0965 49.9618C15.0194 49.4729 14.9766 49.0692 14.9682 48.7506C14.9444 48.2154 14.9507 47.9033 14.9869 47.8144C15.0644 47.7088 15.2943 47.6532 15.6765 47.6475C16.095 47.5529 16.3592 47.5825 16.4693 47.7362C16.6087 47.9028 16.6928 48.2898 16.7216 48.8973C16.8244 49.7473 17.2569 50.5509 18.0191 51.3081C18.8106 52.0783 19.783 52.7012 20.9362 53.1768C22.1308 53.6357 23.3513 53.8612 24.5978 53.8534C25.8615 53.8882 26.7216 53.7268 27.1781 53.3692C27.6759 52.9949 27.833 52.3124 27.6495 51.3217C27.6583 51.0457 27.6343 50.8077 27.5776 50.6077C27.5209 50.4077 27.4092 50.1309 27.2424 49.7772C27.1049 49.4365 26.8668 48.8764 26.5281 48.0968C26.1737 47.695 25.8425 47.321 25.5346 46.9748C25.2559 46.6415 24.954 46.2805 24.6288 45.8917C24.2572 45.4473 23.8254 44.8539 23.3335 44.1114C22.8829 43.3522 22.4797 42.5616 22.1238 41.7394C21.768 40.9172 21.5549 40.2107 21.4847 39.62C21.1976 38.9682 21.094 38.2052 21.1737 37.331C21.2655 36.4272 21.5218 35.5437 21.9424 34.6805C22.3631 33.8174 22.9085 33.1144 23.5786 32.5715C23.9231 32.2343 24.4209 31.8601 25.072 31.4487C25.7644 31.0207 26.5007 30.6121 27.2809 30.2229C28.0611 29.8337 28.8025 29.4973 29.5051 29.2137C30.2078 28.9302 30.7623 28.7559 31.1686 28.6909C31.4993 28.5575 31.8446 28.4305 32.2045 28.31C32.5765 28.1599 32.7625 28.0848 32.7625 28.0848C32.8521 27.9496 32.9262 27.8949 32.9847 27.9208C33.0725 27.9597 33.1163 27.9791 33.1163 27.9791C33.2989 27.955 33.6811 27.9493 34.263 27.9621C34.8449 27.9749 35.5432 27.8293 36.3578 27.5253C38.7045 27.4449 40.5829 27.4544 41.9929 27.554C43.4029 27.6535 44.5029 27.8782 45.293 28.2279C46.0124 28.5814 46.5983 29.0507 47.0508 29.6358C47.5445 30.2042 47.879 30.8245 48.0542 31.4967C48.2586 32.1819 48.2599 32.8996 48.0579 33.6497C47.9731 34.4516 47.5766 35.2555 46.8684 36.0614C46.1723 36.8376 45.3334 37.4981 44.3517 38.0429C43.4113 38.571 42.4909 38.8806 41.5904 38.9717C40.6262 38.9646 40.0039 38.8814 39.7233 38.7223C39.4841 38.5464 39.4938 38.1834 39.7524 37.6333C39.849 37.3962 40.0368 37.147 40.3159 36.8858C40.6243 36.6375 41.3132 36.2604 42.3827 35.7545C43.8864 34.7761 44.9096 33.9174 45.4524 33.1783C45.9953 32.4392 45.9922 31.8956 45.4432 31.5476C45.2918 31.4106 44.9699 31.2681 44.4776 31.1201C44.0145 30.9851 43.4809 30.8537 42.8766 30.7262C42.3137 30.5819 41.8179 30.4848 41.3893 30.435C40.9727 30.3555 40.7523 30.3453 40.7282 30.4046C40.7282 30.4046 40.7101 30.4491 40.6738 30.538C40.6376 30.6269 40.567 30.6306 40.4621 30.5492C40.4035 30.5232 40.1065 30.5317 39.5711 30.5744C39.0356 30.6172 38.3822 30.6952 37.6108 30.8084C36.8394 30.9217 36.068 31.0349 35.2966 31.1481C34.5252 31.2613 33.8597 31.369 33.3 31.471C32.7817 31.5564 32.4959 31.6222 32.4425 31.6685C32.2512 31.9686 31.794 32.116 31.0709 32.1107C30.3408 32.2072 29.5882 32.4862 28.8132 32.9476C28.0674 33.422 27.1967 34.0334 26.201 34.7819C25.426 35.2433 24.7731 35.8288 24.2423 36.5383C23.7236 37.2181 23.4701 37.8405 23.4818 38.4053C23.435 38.9443 23.6411 39.7526 24.1001 40.8303C24.5591 41.908 25.2203 43.0403 26.0839 44.2272C26.8494 45.2307 27.5125 46.1889 28.0732 47.1017C28.6459 47.985 29.0784 48.7886 29.3706 49.5126C29.6921 50.2496 29.8622 50.8496 29.8808 51.3126C30.0267 51.9719 30.0642 52.6006 29.9932 53.1988C29.9636 53.7804 29.8522 54.3082 29.659 54.7824C29.4952 55.2695 29.2762 55.6798 29.0023 56.0133C28.6043 56.3968 28.0394 56.7238 27.3075 56.9944C26.6048 57.278 26.084 57.3273 25.7449 57.1422C25.3869 57.0886 25.0959 57.0822 24.872 57.123C24.6775 57.1768 24.4596 57.2028 24.2186 57.201C23.9655 57.2289 23.4783 57.1531 22.757 56.9737C22.065 56.8073 21.3179 56.564 20.5158 56.2438C19.7017 55.9533 18.9641 55.6443 18.3032 55.3167ZM35.4226 59.4853C35.0422 59.3169 34.7651 59.1068 34.5914 58.855C34.4469 58.6161 34.2681 58.2921 34.0549 57.8829C33.7403 57.044 33.5747 56.3061 33.5579 55.669C33.5531 55.0023 33.6973 54.4364 33.9902 53.9715C34.1746 53.7732 34.2944 53.5639 34.3496 53.3435C34.4462 53.1064 34.4945 52.9879 34.4945 52.9879C34.4085 52.7749 34.4009 52.6666 34.4714 52.6629C34.5541 52.6295 34.6488 52.5665 34.7557 52.4739C34.9312 52.5516 35.0561 52.4145 35.1304 52.0626C35.1684 51.7996 35.4967 51.3328 36.1152 50.6622C36.7338 49.9916 37.4073 49.3978 38.136 48.8808C38.4322 48.6622 38.8525 48.3935 39.3968 48.0748C39.9531 47.7264 40.5327 47.4058 41.1355 47.113C41.7796 46.8035 42.3376 46.5783 42.8094 46.4374C43.7944 46.1389 44.6252 45.9646 45.3019 45.9143C45.9786 45.8641 46.6689 45.9074 47.373 46.0442C48.0771 46.1811 48.5462 46.3013 48.7803 46.4049C49.0436 46.5215 49.2982 46.914 49.544 47.5825C50.0962 48.1768 50.4342 48.7462 50.5578 49.2907C50.7107 49.8481 50.668 50.5463 50.4299 51.3853C50.1556 52.3133 49.6659 53.3033 48.9611 54.3555C48.2976 55.391 47.0366 56.4942 45.1781 57.6653C44.012 58.4084 43.0131 58.9106 42.1813 59.172C41.3617 59.4037 40.4249 59.5837 39.3712 59.7118C38.5877 59.8547 37.905 59.9197 37.3231 59.907C36.7532 59.8646 36.1197 59.724 35.4226 59.4853ZM41.5554 56.6386C42.5836 56.1494 43.4474 55.6398 44.1467 55.1099C44.8753 54.593 45.6531 53.8704 46.4802 52.9423C46.73 52.6681 46.9661 52.3004 47.1885 51.8392C47.423 51.3483 47.5954 50.8825 47.7059 50.4417C47.8577 49.9842 47.8579 49.687 47.7065 49.55C47.4399 49.1871 47.0397 48.9399 46.5061 48.8086C45.9845 48.6477 45.3285 48.6896 44.5381 48.9343C43.3172 49.3032 42.1348 49.9166 40.991 50.7745C39.8594 51.6027 38.6759 52.6004 37.4407 53.7675C36.5672 54.6401 36.1147 55.4542 36.0833 56.2099C36.0931 56.9488 36.5439 57.4107 37.4356 57.5956C38.3687 57.7639 39.7419 57.4449 41.5554 56.6386ZM51.3355 66.7402C50.4266 66.5127 49.6693 66.125 49.0636 65.577C48.47 64.9994 48.0744 64.317 47.8769 63.53C47.7208 62.7263 47.8358 61.8503 48.2221 60.9019C48.4965 59.974 49.0153 58.9969 49.7787 57.9706C50.5542 56.9147 51.4613 55.9171 52.5001 54.9778C53.5681 54.0515 54.6137 53.3076 55.6367 52.7461C56.5117 52.2939 57.3624 51.901 58.1891 51.5674C59.0157 51.2337 59.7054 51.0668 60.258 51.0666C60.7401 51.0702 61.1627 51.1349 61.5259 51.2607C61.9305 51.3698 62.2498 51.4762 62.4839 51.5798C62.9037 51.9056 63.3106 52.3481 63.7046 52.9073C64.1398 53.4498 64.285 53.8989 64.1401 54.2545C64.1401 54.2545 64.1513 54.3119 64.1736 54.4267C64.2372 54.5249 64.2691 54.5739 64.2691 54.5739C64.4446 54.6517 64.5125 54.9091 64.4726 55.3461C64.462 55.7962 64.3687 56.2796 64.1927 56.7964C64.0288 57.2835 63.7927 57.6512 63.4844 57.8995C63.138 58.4107 62.734 58.809 62.2724 59.0944C61.8108 59.3797 61.4629 59.4706 61.2289 59.367C61.1118 59.3152 60.9887 59.2782 60.8596 59.256C60.7718 59.2171 60.6978 59.2718 60.6374 59.4199C60.5771 59.5681 60.4651 59.5885 60.3017 59.4812C60.1674 59.3868 60.0427 59.2266 59.9275 59.0007C59.8244 58.7452 59.7772 58.4794 59.786 58.2035C59.8463 58.0553 60.0074 57.8293 60.2693 57.5255C60.5312 57.2217 60.8354 56.8141 61.1818 56.3029C61.6953 55.5508 61.898 55.0109 61.7897 54.6831C61.6935 54.3257 61.3046 54.136 60.6228 54.114C59.7223 54.205 58.7846 54.472 57.8099 54.915C56.8643 55.3709 55.8722 56.0685 54.8334 57.0078C53.8067 57.9174 52.7178 59.1494 51.5666 60.7036C51.1134 61.3075 50.7989 61.8678 50.6229 62.3846C50.4762 62.9143 50.4408 63.2134 50.5165 63.2819C50.8778 63.5818 51.4217 63.8576 52.1481 64.1092C52.8866 64.3312 53.453 64.4246 53.8472 64.3892C54.412 64.3594 55.0654 64.2814 55.8076 64.1552C56.5618 63.9994 57.2247 63.8557 57.7964 63.724C57.9789 63.6999 58.2148 63.6294 58.5042 63.5126C58.7935 63.3959 59.0793 63.33 59.3617 63.3151C59.7406 63.0631 60.03 62.9464 60.2297 62.9648C60.4294 62.9833 60.7048 63.0702 61.0559 63.2257C61.2659 63.3886 61.4491 63.5746 61.6056 63.7839C61.7622 63.9931 61.8456 64.1699 61.8558 64.3144C61.8953 64.4718 61.8092 64.5561 61.5974 64.5673C61.4803 64.5154 61.3891 64.5275 61.3236 64.6035C61.2995 64.6627 61.2874 64.6924 61.2874 64.6924C61.2976 64.8368 61.0634 65.0304 60.5846 65.2732C60.1471 65.4993 59.6038 65.731 58.9545 65.9682C58.3053 66.2055 57.6948 66.39 57.1231 66.5217C56.5928 66.6367 56.2398 66.6553 56.0642 66.5776C55.7716 66.448 55.5891 66.4722 55.5167 66.65C55.4926 66.7092 55.2127 66.7603 54.6773 66.803C54.1711 66.8588 53.5917 66.8821 52.9392 66.8731C52.3159 66.877 51.7813 66.8327 51.3355 66.7402ZM63.4663 71.0615C63.0516 70.8079 62.7979 70.3283 62.7054 69.6227C62.6542 68.9004 62.6959 68.2893 62.8305 67.7892C62.9564 67.5651 63.1245 67.2372 63.3348 66.8056C63.5744 66.387 63.82 65.9535 64.0717 65.5053C64.418 64.994 64.8566 64.3836 65.3874 63.6741C65.9302 62.935 66.473 62.1959 67.0158 61.4568C67.5879 60.7306 68.0824 60.11 68.4994 59.595C68.9164 59.08 69.1783 58.7762 69.2851 58.6836C69.528 58.5113 69.7862 58.5556 70.0598 58.8167C70.3333 59.0777 70.5243 59.3721 70.6325 59.6999C70.7115 60.0147 70.6993 60.3416 70.5957 60.6805C70.5215 61.0324 70.2844 61.4872 69.8846 62.0448C69.5141 62.6153 68.9058 63.4304 68.0598 64.49C67.2551 65.5329 66.614 66.386 66.1367 67.0492C65.7007 67.6957 65.3344 68.4255 65.0377 69.2386C64.5102 70.1944 64.169 70.7779 64.0139 70.9891C63.8709 71.1706 63.6883 71.1947 63.4663 71.0615ZM75.7383 55.559C75.5851 55.5961 75.4499 55.5887 75.3329 55.5369C75.2572 55.4684 75.1325 55.3082 74.9587 55.0564C74.766 54.9361 74.557 54.6862 74.3317 54.3066C74.1477 53.9103 73.993 53.527 73.8675 53.1566C73.7834 52.7696 73.7534 52.5464 73.7776 52.4872C73.869 52.1779 74.0345 51.8139 74.2741 51.3953C74.5551 50.9599 74.885 50.6163 75.2639 50.3643C75.6549 50.0827 76.0759 50.0242 76.5269 50.1889C76.644 50.2407 76.7403 50.3008 76.816 50.3693C76.8917 50.4378 77.1128 50.6582 77.4793 51.0303C77.5323 51.5785 77.5612 52.1859 77.566 52.8526C77.5828 53.4897 77.4679 54.0685 77.2214 54.589C76.9869 55.0798 76.4925 55.4032 75.7383 55.559ZM70.9723 74.2796C70.5971 74.1834 70.2408 73.9558 69.9036 73.5966C69.5664 73.2374 69.3032 72.8236 69.1141 72.3551C68.9543 71.8995 68.9029 71.4745 68.96 71.08C69.0965 70.4059 69.4835 69.6677 70.121 68.8656C70.7999 68.0468 71.6139 67.2353 72.5631 66.4313C73.5536 65.6105 74.5845 64.8601 75.6559 64.1801C76.7565 63.513 77.8174 62.9857 78.8386 62.5983C79.9012 62.1943 80.8086 62.0014 81.561 62.0196C81.9674 61.9547 82.2704 61.9314 82.4701 61.9499C82.7112 61.9517 82.922 62.0275 83.1027 62.1775C83.3126 62.3404 83.5888 62.6375 83.9311 63.0689C84.2925 63.3688 84.5454 63.6382 84.6899 63.8771C84.8343 64.1159 84.977 64.5289 85.1178 65.1159C85.1708 65.6641 85.1653 66.1864 85.1013 66.6827C85.0372 67.1791 84.9344 67.7282 84.7929 68.3302C84.7252 69.1747 84.6138 69.7026 84.4587 69.9138C84.3157 70.0953 84.1615 70.2194 83.9962 70.2862C83.6414 70.4789 83.5225 70.6011 83.6395 70.653C83.6395 70.653 83.6008 70.7058 83.5232 70.8113C83.487 70.9003 83.3681 71.0225 83.1666 71.1782C82.6962 71.7395 82.2576 72.3498 81.8509 73.0093C81.4855 73.6521 81.2708 74.2216 81.2067 74.718C81.1753 75.4736 81.4426 76.0467 82.0088 76.4373C82.575 76.8279 83.3127 76.8397 84.222 76.4727C84.6405 76.3781 85.0322 76.3067 85.3972 76.2584C85.7743 76.1805 85.9146 76.2601 85.818 76.4972C85.818 76.4972 85.8438 76.561 85.8954 76.6888C85.959 76.787 86.0494 76.8619 86.1664 76.9137C86.3127 76.9785 86.3763 77.0767 86.3573 77.2081C86.3676 77.3526 86.3012 77.5156 86.1582 77.6971C86.0565 77.862 85.8842 78.0306 85.6413 78.2029C85.0213 78.4531 84.6812 78.6523 84.6208 78.8005C84.6208 78.8005 84.5382 78.8339 84.3728 78.9006C84.2488 78.9506 84.0275 79.0276 83.709 79.1314C83.0495 79.2242 82.3101 79.0893 81.4908 78.7265C80.7008 78.3768 80.1527 77.9417 79.8466 77.4214C79.5404 76.9011 79.3118 76.2752 79.1608 75.5437C79.039 74.8252 79.0041 74.2325 79.0561 73.7658L79.0177 73.2241L77.4008 73.5052C76.9462 73.6887 76.4683 73.8445 75.9672 73.9724C75.4954 74.1133 75.1768 74.2171 75.0115 74.2839C74.8754 74.3635 74.7307 74.4219 74.5775 74.459C74.4535 74.5091 74.333 74.5082 74.2159 74.4564C74.0989 74.4045 73.9965 74.3592 73.9087 74.3203C73.8209 74.2815 73.777 74.262 73.777 74.262C73.7287 74.3806 73.5221 74.464 73.157 74.5123C72.8213 74.5735 72.439 74.5792 72.0104 74.5293C71.611 74.4924 71.2649 74.4092 70.9723 74.2796ZM71.5112 71.6848C71.6868 71.7625 72.0483 71.7652 72.5959 71.6928C73.1847 71.6037 73.8356 71.4896 74.5485 71.3504C75.2906 71.2243 75.9596 71.0657 76.5554 70.8747C77.1805 70.6968 77.6231 70.5429 77.8832 70.4132C78.0485 70.3464 78.3172 70.238 78.6892 70.0879C79.0732 69.9081 79.4099 69.7598 79.6992 69.6431C80.6861 69.1705 81.4983 68.5331 82.1358 67.731C82.7854 66.8992 83.0579 66.1454 82.9534 65.4694C82.9691 65.0916 82.8952 64.849 82.7317 64.7417C82.5682 64.6343 82.1602 64.5761 81.5077 64.5671C81.0721 64.6191 80.4702 64.8248 79.7021 65.1844C78.9753 65.5272 78.1624 65.9544 77.2633 66.4658C76.4056 66.9606 75.5651 67.498 74.7417 68.0779C73.9184 68.6578 73.2069 69.2174 72.6074 69.7565C72.0079 70.2956 71.6297 70.7578 71.4728 71.1431C71.4245 71.2616 71.4115 71.3783 71.4338 71.4931C71.4854 71.6209 71.5112 71.6848 71.5112 71.6848ZM85.9654 80.1828C85.7452 79.8755 85.5982 79.6005 85.5243 79.3579C85.4504 79.1153 85.4799 78.831 85.6127 78.5051C85.7937 78.0605 86.0394 77.6271 86.3495 77.2047C86.6718 76.7527 86.988 76.3155 87.2982 75.8932C87.574 75.3856 87.8644 74.8846 88.1695 74.39C88.5159 73.8787 88.932 73.4508 89.4177 73.1062C90.1983 72.1225 90.9874 71.1601 91.7852 70.219C92.595 69.2483 93.373 68.2285 94.1192 67.1597C94.9462 66.2316 95.675 65.4174 96.3056 64.7171C96.9776 64.0002 97.8132 63.0934 98.8125 61.9966C99.3776 61.3723 99.9169 60.6841 100.43 59.9321C100.985 59.1633 101.606 58.5288 102.294 58.0285C102.578 57.8395 102.8 57.6755 102.96 57.5366C103.162 57.381 103.357 57.2401 103.547 57.1141C103.624 57.0086 103.742 56.9733 103.901 57.0085C104.088 57.0566 104.273 57.1556 104.453 57.3055C104.634 57.4555 104.753 57.6305 104.809 57.8305C104.909 57.8397 104.975 57.9739 105.008 58.2332C105.082 58.4758 105.129 58.7415 105.149 59.0304C105.17 59.3193 105.129 59.5462 105.028 59.7111C104.979 59.8296 104.884 59.9797 104.741 60.1612C104.627 60.3557 104.475 60.516 104.286 60.642C104.12 60.7087 103.931 60.8347 103.717 61.02C103.545 61.1885 103.278 61.4201 102.916 61.7147C102.642 62.0482 102.377 62.4029 102.12 62.779C101.876 63.1254 101.614 63.4292 101.335 63.6904C101.073 63.9942 100.788 64.2702 100.479 64.5185C100.2 64.7797 99.989 65.0011 99.846 65.1827C99.3636 65.7736 98.8433 66.3303 98.2851 66.8528C97.7562 67.3882 97.2384 67.981 96.7318 68.6312C96.2373 69.2518 95.7307 69.902 95.212 70.5818C94.7054 71.2321 94.1231 71.8138 93.4651 72.327C93.1275 72.5623 92.8122 72.9124 92.5192 73.3774C92.2262 73.8423 91.9332 74.3073 91.6402 74.7722C91.2474 75.2279 90.8812 75.6605 90.5418 76.0699C90.2437 76.4626 90.0705 76.7183 90.0222 76.8368C89.5811 77.4111 89.1838 78.0048 88.8305 78.6179C88.5185 79.2143 88.1488 79.6978 87.7216 80.0684C87.5716 80.3518 87.4166 80.563 87.2563 80.7019C87.0961 80.8409 86.9076 80.8798 86.6907 80.8188C86.4859 80.7281 86.2441 80.5161 85.9654 80.1828ZM94.8752 85.8589C93.4122 85.2112 92.5614 84.2049 92.323 82.8401C92.2389 82.4531 92.2572 82.1114 92.3779 81.815C92.5399 81.502 92.7182 81.3185 92.9128 81.2648C93.1367 81.224 93.2992 81.4184 93.4006 81.848C93.7136 82.2664 94.2506 82.6441 95.0113 82.9809C95.3917 83.1493 95.7988 83.2945 96.2326 83.4166C96.6785 83.5091 97.1364 83.5719 97.6064 83.6051C98.1298 83.592 98.4948 83.5437 98.7015 83.4603C98.9202 83.3472 98.9513 83.1861 98.7948 82.9769L98.8387 82.9963C98.1624 82.452 97.5198 81.7828 96.9108 80.9884C96.3432 80.1775 95.89 79.3822 95.5513 78.6026C95.2247 77.7934 95.1081 77.1471 95.2014 76.6637C95.3415 75.6413 95.7802 74.7337 96.5177 73.9408C97.2671 73.1183 98.1146 72.479 99.0601 72.0231C99.3546 71.9786 99.7196 71.9303 100.155 71.8783C100.603 71.7967 100.935 71.7864 101.152 71.8474L101.134 71.8919C101.931 71.5453 102.798 71.3691 103.732 71.3632C104.697 71.3703 105.693 71.4265 106.72 71.5317L107.415 71.7343C107.79 71.8305 108.095 71.9304 108.329 72.034C108.3 72.021 108.346 72.0766 108.468 72.2006C108.603 72.295 108.722 72.383 108.827 72.4644C108.966 72.6311 109.095 72.7403 109.212 72.7921C109.568 73.0198 109.847 73.353 110.048 73.7919C110.249 74.2308 110.353 74.6965 110.359 75.1891C110.407 75.6651 110.33 76.0679 110.126 76.3976C109.838 76.9348 109.457 77.3609 108.984 77.6759C108.539 78.0038 108.115 78.1133 107.71 78.0041C107.781 78.0004 107.755 77.9365 107.633 77.8125C107.552 77.6717 107.457 77.5245 107.347 77.3709L107.179 77.4015C107.179 77.4015 107.176 77.3654 107.171 77.2931C107.207 77.2042 107.22 77.0875 107.21 76.9431C107.195 76.7264 107.229 76.5143 107.314 76.3069C107.41 76.0698 107.528 75.8244 107.666 75.5706C107.857 75.2705 107.935 75.0779 107.901 74.9927C107.896 74.9205 107.724 74.7918 107.385 74.6067C107.011 74.3365 106.381 74.145 105.495 74.0323C104.637 73.9326 103.861 73.9736 103.165 74.1553C102.352 74.2852 101.648 74.4456 101.052 74.6366C100.468 74.7979 99.9724 74.9981 99.5642 75.2371C99.1681 75.4465 98.7771 75.7282 98.3912 76.082C98.1604 76.2247 97.9442 76.3739 97.7427 76.5295C97.5825 76.6684 97.4722 76.812 97.4118 76.9602C97.2791 77.2862 97.3743 77.7306 97.6976 78.2935C98.0623 78.8398 98.6369 79.5489 99.4214 80.4209C100.049 81.0837 100.548 81.7243 100.918 82.3428C101.288 82.9612 101.473 83.5677 101.472 84.1622C101.482 84.3067 101.437 84.4613 101.335 84.6262C101.275 84.7744 101.203 84.8651 101.12 84.8985C101.155 84.9837 101.166 85.0411 101.154 85.0707L101.172 85.0263C101.261 85.4855 101.11 85.856 100.719 86.1376C100.358 86.4322 99.853 86.6111 99.2056 86.6743C98.5995 86.7208 97.9006 86.6562 97.1087 86.4805L97.1526 86.4999C96.7239 86.4501 96.3073 86.3706 95.9028 86.2614C95.5396 86.1356 95.197 86.0014 94.8752 85.8589Z" fill="black"/>
</svg>
