<svg width="171" height="161" viewBox="0 0 171 161" fill="none" xmlns="http://www.w3.org/2000/svg">
<path d="M77.7508 89.3726C74.6737 94.6858 78.1234 101.605 80.2615 106.573C83.8447 114.903 89.4067 122.47 96.371 128.594C107.557 138.432 122.136 143.912 137.469 145.092C135.058 145.901 132.645 146.711 130.232 147.521C128.088 148.24 128.779 151.379 131.014 150.728C137.213 148.917 143.412 147.098 149.611 145.277C151.132 144.83 151.452 143.034 150.17 142.229C143.479 138.019 136.815 133.762 130.066 129.627C128.222 128.496 126.424 131.262 128.215 132.42C133.235 135.668 138.308 138.851 143.377 142.035C129.302 141.974 115.787 138.385 104.419 130.76C97.4273 126.072 91.5458 120.114 87.0576 113.252C83.4899 107.795 76.082 96.5427 79.2391 89.9668C79.6282 89.1588 78.2006 88.5937 77.7508 89.3726Z" fill="#040606"/>
<path d="M25.275 87.2792C25.0267 87.3415 24.6907 87.2115 24.267 86.8891C23.8434 86.5667 23.5948 86.2168 23.5212 85.8396C23.4128 85.3391 23.352 84.5959 23.3388 83.6099C23.3257 82.6239 23.3392 81.6147 23.3794 80.5823C23.4196 79.5499 23.4854 78.7255 23.5768 78.1089C23.5615 77.5851 23.5481 77.1268 23.5367 76.734C23.5475 76.3025 23.551 76.0214 23.5472 75.8904C23.6054 75.7439 23.6536 75.3855 23.6917 74.8154C23.7608 74.2374 23.7877 73.6865 23.7724 73.1628C23.7647 72.9009 23.7581 72.4078 23.7526 71.6837C23.7694 70.921 23.7868 70.0428 23.8046 69.049C23.8536 68.0474 23.8913 67.0651 23.9179 66.1021C23.9755 65.1313 24.0171 64.2799 24.0426 63.548C24.0681 62.8161 24.0814 62.3346 24.0825 62.1035C24.2262 61.6717 24.3122 61.2709 24.3405 60.9011C24.3688 60.5312 24.381 60.2808 24.3772 60.1499C24.5285 59.98 24.5936 59.7988 24.5723 59.6062C24.5424 59.3829 24.5099 59.2097 24.4751 59.0865C24.4315 58.9326 24.4432 58.7977 24.5102 58.682C24.6082 58.5585 24.6397 58.4351 24.6049 58.312C24.7029 58.1884 24.7413 58.0304 24.72 57.8379C24.69 57.6146 24.7309 57.4064 24.8425 57.2136L24.853 56.37L27.5868 55.6345C27.6293 56.0196 27.6669 56.5048 27.6996 57.0902C27.7236 57.6448 27.6292 58.427 27.4164 59.4367C27.4355 60.0914 27.4062 60.6924 27.3284 61.2396C27.2816 61.7789 27.2955 62.1217 27.3701 62.2679C27.3255 62.345 27.273 62.688 27.2126 63.2967C27.1833 63.8977 27.1422 64.6335 27.0895 65.5041C27.0678 66.367 27.0306 67.2337 26.9778 68.1043C26.9561 68.9672 26.9238 69.7338 26.8809 70.4041C26.8602 71.0359 26.8407 71.4365 26.8222 71.606C26.7133 72.161 26.6388 72.9546 26.5986 73.987C26.5584 75.0194 26.4589 76.4294 26.3 78.2171C26.1912 78.772 26.09 79.5889 25.9964 80.6676C25.9339 81.7386 25.9073 82.7016 25.9167 83.5566C25.9152 84.8431 25.9022 85.7368 25.8777 86.2376C25.893 86.7614 25.8585 87.0503 25.7741 87.1045C25.6984 87.1894 25.532 87.2477 25.275 87.2792ZM17.8558 59.6592C16.9954 59.9081 16.3306 60.0255 15.8612 60.0114C15.4228 59.9894 15.196 59.7166 15.1807 59.1928C15.1692 58.7999 15.2925 58.4722 15.5506 58.2096C15.8087 57.947 16.2195 57.6955 16.7831 57.4551C17.1071 57.3079 17.5198 57.1219 18.0213 56.8971C18.5538 56.6645 19.0553 56.4398 19.5258 56.2228C20.5152 55.8426 21.3227 55.5245 21.9483 55.2686C22.605 55.0049 23.2816 54.7527 23.978 54.512C24.6745 54.2713 25.5571 53.9838 26.626 53.6497C27.5087 53.3622 28.256 53.1252 28.8681 52.9387C29.5024 52.7135 29.8196 52.601 29.8196 52.601C29.9127 52.5776 30.2473 52.5266 30.8235 52.448C31.3996 52.3694 32.0266 52.2945 32.7045 52.2233C33.3825 52.1521 33.8941 52.1392 34.2393 52.1845C34.9967 52.1593 35.5699 52.2463 35.9587 52.4455C36.3785 52.637 36.7246 52.9788 36.9969 53.4711C37.1946 53.8172 37.26 54.0482 37.193 54.1639C37.1174 54.2488 36.9728 54.384 36.7594 54.5695C36.1065 54.9642 35.6094 55.2043 35.268 55.29C34.9265 55.3757 34.5168 55.3961 34.0387 55.3511C33.8399 55.2361 33.6145 55.1443 33.3623 55.0757C33.1412 54.9992 32.7737 54.9925 32.2596 55.0556C31.7679 55.08 31.0012 55.19 29.9596 55.3854C29.1166 55.6958 28.3693 55.9328 27.7175 56.0964C27.0657 56.26 26.7616 56.4187 26.8052 56.5727L24.0976 57.4005L21.8817 58.2038C21.58 58.3125 21.1585 58.4677 20.6173 58.6695C20.0673 58.8405 19.5372 59.023 19.027 59.2169C18.5081 59.3801 18.1177 59.5276 17.8558 59.6592ZM38.1835 81.1216C37.78 81.2228 37.4323 81.2276 37.1404 81.136C36.8796 81.0366 36.5392 80.8911 36.1194 80.6997C35.3553 80.2319 34.7707 79.752 34.3655 79.2601C33.9516 78.7374 33.7172 78.2026 33.6621 77.6558C33.6855 77.3861 33.6512 77.1474 33.5591 76.9397C33.4894 76.6933 33.4546 76.5702 33.4546 76.5702C33.2558 76.4552 33.1831 76.3745 33.2364 76.3281C33.2811 76.251 33.317 76.143 33.3442 76.0043C33.5305 75.9575 33.5446 75.7726 33.3866 75.4495C33.2548 75.2188 33.2265 74.6488 33.3015 73.7396C33.3766 72.8303 33.5423 71.9478 33.7987 71.092C33.8978 70.7374 34.0638 70.267 34.2968 69.6809C34.5211 69.064 34.7808 68.4548 35.0759 67.8531C35.3933 67.2128 35.6946 66.692 35.9799 66.2906C36.5728 65.4493 37.1206 64.8007 37.6231 64.3449C38.1257 63.889 38.6966 63.4984 39.3359 63.1731C39.9751 62.8478 40.4189 62.654 40.6672 62.5917C40.9465 62.5216 41.3887 62.6745 41.9937 63.0503C42.7948 63.1791 43.4115 63.42 43.8439 63.7732C44.3073 64.1186 44.7032 64.6953 45.0317 65.5033C45.3862 66.4036 45.6093 67.4853 45.7009 68.7485C45.8149 69.973 45.4995 71.6186 44.7547 73.6852C44.2926 74.9883 43.814 75.9988 43.3191 76.7166C42.8155 77.4035 42.1877 78.1217 41.4358 78.871C40.906 79.4656 40.4078 79.9369 39.9411 80.2848C39.4658 80.602 38.8799 80.8809 38.1835 81.1216ZM41.2671 75.1044C41.7767 74.0862 42.1442 73.153 42.3695 72.305C42.6259 71.4492 42.7946 70.4011 42.8757 69.1606C42.9039 68.7908 42.8639 68.3556 42.7555 67.8552C42.6383 67.324 42.4877 66.8506 42.3036 66.4351C42.1419 65.9811 41.9591 65.7466 41.7555 65.7318C41.322 65.6097 40.8545 65.661 40.353 65.8858C39.8428 66.0798 39.3514 66.5164 38.8788 67.1956C38.1433 68.2376 37.5885 69.4485 37.2146 70.8285C36.8319 72.1776 36.5127 73.6923 36.2569 75.3723C36.1051 76.5976 36.2492 77.5178 36.6892 78.1329C37.1516 78.7094 37.7912 78.7962 38.6079 78.3934C39.447 77.952 40.3334 76.8557 41.2671 75.1044ZM54.6527 75.8512C54.0358 76.138 53.6299 76.2893 53.4349 76.3052C53.2623 76.2826 52.9617 76.1601 52.5332 75.9379C51.9668 75.8162 51.4607 75.6134 51.0147 75.3296C50.5997 75.038 50.258 74.7116 49.9895 74.3502C49.7433 73.9503 49.5965 73.6079 49.5491 73.323C49.3372 72.222 49.2742 71.0012 49.3601 69.6605C49.446 68.3199 49.6381 67.002 49.9364 65.707C50.2346 64.412 50.6274 63.2747 51.1147 62.295C51.6243 61.2768 52.1856 60.5588 52.7987 60.1411C53.3497 59.739 53.9133 59.4987 54.4894 59.4201C55.0655 59.3415 55.5518 59.5327 55.9483 59.9939C56.6666 60.77 56.7192 61.3668 56.1061 61.7845C56.013 61.8079 55.9174 61.8813 55.8194 62.0048C55.7127 62.0976 55.6768 62.2055 55.7116 62.3287C55.8532 62.3591 56.199 62.2888 56.749 62.1179C57.2902 61.9161 57.8227 61.6835 58.3466 61.4202C58.8927 61.1182 59.2371 60.8669 59.3797 60.6663C59.5398 60.5272 59.6664 60.4459 59.7595 60.4226C59.8526 60.3992 60.0941 60.3716 60.484 60.3397C61.0553 60.3612 61.3714 60.4798 61.4324 60.6953C61.4672 60.8185 61.5487 60.93 61.6766 61.0298C61.7959 61.0988 61.9176 61.1177 62.0417 61.0865C62.2677 61.0628 62.2759 61.2091 62.0663 61.5256C61.8877 61.8342 61.5491 62.2819 61.0503 62.8688C60.5652 63.3862 60.2625 63.726 60.1421 63.8881C60.0441 64.0116 60.0896 64.231 60.2786 64.5464C60.6925 65.0691 60.8998 65.7426 60.9004 66.5668C60.901 67.3911 60.7353 68.2736 60.4032 69.2144C60.0711 70.1551 59.6018 71.0808 58.9953 71.9915C58.4111 72.8636 57.7387 73.6589 56.978 74.3774C56.2397 75.0573 55.4646 75.5486 54.6527 75.8512ZM53.2861 74.0177C53.4102 73.9865 53.61 73.8704 53.8856 73.6694C54.1524 73.4376 54.3658 73.2521 54.5259 73.113C54.6152 72.9587 54.7311 72.7812 54.8738 72.5805C55.0388 72.3412 55.179 72.1906 55.2944 72.1287C55.4185 72.0975 55.5607 72.0124 55.7207 71.8733C55.8721 71.7034 56.0706 71.4063 56.3161 70.9819C56.5529 70.5268 56.8505 69.875 57.2087 69.0266C57.6377 68.1935 57.9445 67.457 58.129 66.8171C58.3048 66.1464 58.2454 65.5842 57.9508 65.1305C57.8849 65.0151 57.77 64.9615 57.6061 64.9697C57.4732 64.97 57.2807 64.9359 57.0286 64.8672C56.7182 64.9451 56.4016 64.9421 56.0786 64.8583C55.778 64.7358 55.4178 64.5789 54.998 64.3875L53.9916 63.6507L53.4224 64.6344C53.0652 65.2517 52.7467 66.1231 52.467 67.2485C52.2095 68.3354 52.0384 69.4337 51.9535 70.5432C51.86 71.6219 51.8649 72.4616 51.9685 73.0622C52.0682 73.5318 52.2329 73.8203 52.4627 73.9275C52.6925 74.0347 52.967 74.0648 53.2861 74.0177ZM66.7517 74.695C66.2056 74.9969 65.6896 74.9944 65.2039 74.6876C64.7492 74.373 64.3731 73.8078 64.0757 72.9921C63.7783 72.1763 63.5925 71.1677 63.5183 69.9661C63.5689 69.5577 63.5929 69.1725 63.5901 68.8104C63.5786 68.4176 63.5424 68.1134 63.4814 67.8978C63.4563 67.5744 63.4541 67.0967 63.4747 66.465C63.4866 65.8025 63.5097 65.1206 63.5439 64.4195C63.5782 63.7184 63.6187 63.0982 63.6655 62.5588C63.7346 61.9808 63.7827 61.6225 63.8099 61.4838C63.9341 61.4526 64.0122 61.3176 64.0443 61.0787C64.0764 60.8398 64.062 60.6126 64.001 60.397C63.9312 60.1507 63.8994 59.8619 63.9053 59.5307C63.9423 59.1916 64.0055 58.9449 64.0947 58.7906C64.0512 58.6367 64.0343 58.4595 64.044 58.2592C64.0762 58.0203 64.0748 57.8393 64.0399 57.7161C64.005 57.593 64.0012 57.462 64.0284 57.3233C64.0867 57.1767 64.0984 57.0419 64.0635 56.9187C64.1675 56.4639 64.2682 55.7626 64.3655 54.8148C64.4852 53.8285 64.5943 52.7458 64.6928 51.5669C64.8222 50.3802 64.925 49.2167 65.0012 48.0764C65.0773 46.9361 65.1238 45.9846 65.1406 45.2219C65.1797 44.4206 65.1775 43.943 65.1339 43.789C65.0642 43.5427 65.074 43.3424 65.1632 43.1881C65.2525 43.0338 65.4213 42.9254 65.6696 42.8631C65.7366 42.7474 65.8278 42.6586 65.9432 42.5966C66.0897 42.5269 66.225 42.4764 66.3492 42.4453C66.3492 42.4453 66.4287 42.4913 66.5877 42.5833C66.7467 42.6753 66.9852 42.8133 67.3032 42.9973C67.6126 43.1506 67.822 43.3618 67.9314 43.6312C68.0719 43.8927 68.1945 44.2082 68.2991 44.5777C68.4124 44.978 68.4661 45.3437 68.4601 45.675C68.4541 46.0063 68.3943 46.4995 68.2805 47.1546C68.1668 47.8097 67.9894 48.827 67.7483 50.2066C67.6743 50.8847 67.5761 51.5359 67.4536 52.1603C67.3224 52.7538 67.2743 53.1121 67.3091 53.2353C67.344 53.3585 67.3342 53.5588 67.2798 53.8362C67.2564 54.1059 67.2349 54.4411 67.2154 54.8417C67.1609 55.1192 67.0948 55.5315 67.017 56.0787C66.9305 56.5951 66.8415 57.1615 66.7501 57.778C66.681 58.356 66.6255 58.8646 66.5836 59.3038C66.533 59.7122 66.5164 59.9472 66.5338 60.0088C66.5687 60.132 66.588 60.259 66.5919 60.39C66.6267 60.5131 66.5995 60.6519 66.5102 60.8062C66.3861 60.8373 66.3346 60.9492 66.3559 61.1417C66.3995 61.2957 66.4212 61.3726 66.4212 61.3726C66.5084 61.6805 66.4911 62.5588 66.3692 64.0074C66.352 65.8254 66.3265 67.4972 66.2929 69.0226C66.2904 70.5402 66.4111 71.73 66.6551 72.5922C66.8643 73.3311 66.9882 73.8277 67.0269 74.0818C67.0569 74.3051 66.9652 74.5095 66.7517 74.695ZM76.2067 71.8772C75.4481 72.1335 74.6902 72.2743 73.9327 72.2994C73.2063 72.3168 72.5425 72.2031 71.9413 71.9582C71.3625 71.6748 70.9015 71.2793 70.5584 70.7718C70.2191 70.3953 70.0276 70.13 69.9841 69.9761C69.9318 69.7913 69.9968 69.6101 70.1792 69.4324C70.4275 69.3701 70.6666 69.3926 70.8964 69.4998C71.1485 69.5684 71.4671 69.6369 71.8521 69.7052C72.4309 69.9886 73.0506 70.064 73.7111 69.9312C74.4027 69.7907 74.9929 69.5271 75.4819 69.1406C75.9708 68.7541 76.1941 68.3683 76.1516 67.9833C76.1167 67.8601 76.0091 67.6562 75.8289 67.3717C75.6486 67.0872 75.4484 66.7911 75.2284 66.4836C74.0592 65.5238 73.1116 64.525 72.3857 63.487C71.682 62.4104 71.2256 61.5027 71.0164 60.7637C70.8595 60.2095 70.8647 59.5816 71.0318 58.8801C71.1902 58.1479 71.5032 57.4922 71.9709 56.9132C72.364 56.188 72.8366 55.5088 73.3887 54.8756C73.9408 54.2424 74.5103 53.6708 75.0973 53.1607C75.7153 52.6429 76.2818 52.2369 76.7969 51.9428C77.1383 51.8571 77.6014 51.7904 78.1863 51.7425C78.7711 51.6947 79.1896 51.7051 79.4417 51.7738C79.818 51.8113 80.2397 52.0682 80.707 52.5445C81.1655 52.9901 81.4689 53.4746 81.6171 53.998C81.6781 54.2135 81.6944 54.5062 81.6662 54.8761C81.6379 55.2459 81.5494 55.6968 81.4008 56.2288C81.3725 56.5986 81.3244 56.957 81.2564 57.3038C81.1796 57.6199 81.1587 57.8395 81.1935 57.9626C81.1342 58.3403 80.9649 58.5641 80.6855 58.6342C80.4285 58.6657 80.1255 58.5934 79.7764 58.4171C79.4497 58.2023 79.1564 57.9297 78.8966 57.5991C78.6418 57.1684 78.4906 56.8106 78.4432 56.5257C78.3871 56.21 78.4197 55.8556 78.5411 55.4624C78.7867 55.038 78.892 54.7642 78.8571 54.6411C78.8223 54.5179 78.6341 54.4992 78.2927 54.5848C78.0755 54.6394 77.7112 54.8792 77.1999 55.3043C76.711 55.6908 76.2016 56.1813 75.6718 56.776C75.1644 57.332 74.7432 57.8994 74.4084 58.478C73.9756 59.1802 73.7319 59.6701 73.6775 59.9475C73.6541 60.2172 73.7165 60.6138 73.8647 61.1372C73.9867 61.5683 74.2323 62.0838 74.6016 62.6836C75.0019 63.2757 75.3411 63.6522 75.6194 63.8133C75.6194 63.8133 75.7891 64.0015 76.1283 64.3781C76.4589 64.7238 76.8447 65.0887 77.2858 65.4727C78.7437 67.2174 79.3774 68.5753 79.1869 69.5465C78.9965 70.5176 78.003 71.2946 76.2067 71.8772ZM101.095 67.6107C100.781 67.3266 100.224 67.2356 99.4218 67.338C98.6507 67.4325 97.7307 67.6469 96.6618 67.9811C96.2447 68.1517 95.817 68.226 95.3787 68.2041C94.949 68.213 94.5752 68.1254 94.2572 67.9414C93.9789 67.7804 93.8359 67.5689 93.8283 67.307C93.7547 66.9298 93.9823 66.5594 94.511 66.1959C95.0708 65.8246 96.0136 65.4561 97.3395 65.0904L99.7939 64.425L99.998 63.3845C100.026 63.0147 100.046 62.4985 100.058 61.8359C100.07 61.1734 100.085 60.4608 100.101 59.6981C100.104 59.2359 100.124 58.6041 100.163 57.8029C100.202 57.0016 100.244 56.1502 100.288 55.2488C100.332 54.3474 100.371 53.5461 100.405 52.845C100.431 52.1131 100.436 51.6008 100.419 51.3081C100.465 50.9998 100.505 50.4951 100.539 49.794C100.565 49.0621 100.575 48.3341 100.569 47.61C100.586 46.8473 100.582 46.3042 100.557 45.9807C100.675 43.3458 100.715 41.4892 100.675 40.4108C100.627 39.3016 100.537 38.7472 100.404 38.7476C100.28 38.7787 99.9739 38.872 99.486 39.0274C99.0291 39.175 98.5146 39.3536 97.9423 39.5632C97.3923 39.7341 96.8933 39.9088 96.4451 40.0872C96.028 40.2579 95.7816 40.3856 95.706 40.4706C95.6118 40.7251 95.361 40.8374 94.9537 40.8077C94.5464 40.778 94.2526 40.6209 94.0723 40.3364C93.9629 40.0671 93.8863 39.8554 93.8428 39.7015C93.8302 39.5397 93.8885 39.3932 94.0175 39.2619C94.1825 39.0226 94.5448 38.7173 95.1046 38.3461C95.6556 37.944 96.293 37.5532 97.0166 37.1737C97.7713 36.7865 98.4925 36.4571 99.1802 36.1856C99.6904 35.9917 100.188 35.7515 100.672 35.4651C101.147 35.148 101.505 34.8273 101.746 34.5031C101.999 34.3406 102.241 34.1975 102.472 34.0736C102.734 33.9419 103.009 33.8564 103.297 33.8171C103.589 33.9088 104.029 33.8806 104.619 33.7326C105.24 33.5769 105.887 33.3979 106.561 33.1958C108.256 32.6057 109.407 32.2674 110.014 32.181C110.652 32.0868 111.141 32.228 111.48 32.6046C111.801 33.1506 111.963 33.6047 111.965 33.9668C111.959 34.298 111.688 34.5145 111.152 34.6161C110.89 34.7478 110.395 34.9378 109.668 35.1863C108.963 35.3963 108.211 35.6179 107.413 35.8512C105.261 36.5889 104.143 37.1004 104.057 37.3856C103.968 37.5399 103.894 37.6904 103.836 37.8369C103.809 37.9756 103.755 38.1375 103.674 38.3226C103.74 38.438 103.776 38.8578 103.782 39.5819C103.809 40.2674 103.795 40.98 103.739 41.7197C103.728 42.1511 103.703 42.7675 103.664 43.5688C103.624 44.37 103.578 45.206 103.526 46.0766C103.495 46.9087 103.463 47.6753 103.429 48.3764C103.386 49.0467 103.348 49.5013 103.316 49.7402C103.27 50.0485 103.249 50.3837 103.252 50.7457C103.277 51.0692 103.296 51.3118 103.308 51.4735C103.301 53.0913 103.274 54.4664 103.229 55.599C103.215 56.7237 103.182 57.7214 103.129 58.5921C103.099 59.4241 103.08 60.2369 103.071 61.0304C103.055 61.7931 103.044 62.6367 103.04 63.5611C103.04 63.5611 103.268 63.4873 103.725 63.3397C104.204 63.1535 104.839 62.9283 105.628 62.6643C107.043 62.1443 108.057 61.791 108.669 61.6044C109.312 61.4101 109.76 61.3472 110.012 61.4159C110.255 61.4537 110.463 61.5995 110.634 61.8533C111.49 62.5288 111.729 63.079 111.351 63.5037C110.972 63.9284 109.91 64.3435 108.163 64.7488C106.566 65.2154 105.338 65.5731 104.478 65.822C103.657 66.0939 103.089 66.3188 102.774 66.4969C102.49 66.6671 102.347 66.8678 102.346 67.0989C102.416 67.3452 102.326 67.4995 102.078 67.5618C101.83 67.6241 101.502 67.6404 101.095 67.6107ZM126.276 57.2357C125.539 56.8602 124.936 56.4343 124.469 55.958C124.032 55.4738 123.567 54.6508 123.072 53.489C122.853 52.9503 122.71 52.2112 122.644 51.2715C122.568 50.3011 122.558 49.265 122.611 48.1632C122.665 47.0615 122.792 46.0404 122.991 45.1001C123.181 44.1289 123.433 43.3733 123.745 42.8332C123.987 42.2779 124.212 41.9575 124.421 41.8722C124.652 41.7483 125.117 41.7471 125.816 41.8684C126.271 42.183 126.563 42.5713 126.694 43.0331C126.825 43.495 126.787 44.0651 126.58 44.7436C126.194 45.7307 125.948 46.9139 125.839 48.2931C125.753 49.6337 125.772 50.8162 125.896 51.8404C125.882 52.9652 125.943 53.7084 126.078 54.0701C126.214 54.4318 126.563 54.608 127.126 54.5988C127.75 54.5739 128.388 54.1832 129.038 53.4264C129.679 52.6389 130.244 51.6398 130.732 50.429C131.212 49.1874 131.51 47.8924 131.627 46.544C131.691 46.0662 131.687 45.5231 131.615 44.9147C131.573 44.2986 131.575 43.8363 131.621 43.5281C131.602 42.8733 131.693 42.3724 131.894 42.0252C132.086 41.6472 132.333 41.4038 132.634 41.2951C132.927 41.1557 133.209 41.1511 133.478 41.2813C133.792 41.3344 134.007 41.4455 134.121 41.6146C134.227 41.753 134.349 42.1841 134.487 42.9078C134.81 44.0471 134.836 45.0793 134.566 46.0044C134.296 46.9296 134.117 47.8815 134.028 48.86C133.932 49.5767 133.717 50.4054 133.385 51.3462C133.084 52.2791 132.699 53.1507 132.231 53.9608C131.793 54.7632 131.314 55.3615 130.794 55.7558C130.082 56.5281 129.384 56.9999 128.701 57.1713C128.041 57.304 127.233 57.3255 126.276 57.2357ZM143.697 54.6946C142.145 55.0841 140.855 54.8141 139.827 53.8848C139.523 53.6314 139.327 53.3508 139.24 53.0429C139.175 52.6964 139.203 52.4421 139.323 52.28C139.475 52.1101 139.722 52.1633 140.067 52.4397C140.571 52.577 141.226 52.5444 142.033 52.3419C142.437 52.2407 142.847 52.1047 143.264 51.9341C143.673 51.7327 144.072 51.5005 144.463 51.2375C144.868 50.9052 145.126 50.6425 145.238 50.4497C145.34 50.226 145.266 50.0798 145.014 50.0112L145.06 49.9995C144.192 49.9864 143.274 49.8541 142.305 49.6026C141.359 49.3124 140.512 48.9642 139.766 48.558C139.01 48.1209 138.521 47.6832 138.297 47.2447C137.778 46.3525 137.566 45.367 137.659 44.2883C137.744 43.1787 138.019 42.1534 138.484 41.2123C138.689 40.9961 138.947 40.7334 139.258 40.4245C139.561 40.0847 139.817 39.8721 140.025 39.7868L140.038 39.833C140.454 39.0692 141.028 38.3975 141.762 37.8177C142.526 37.2301 143.346 36.6617 144.221 36.1123L144.893 35.8447C145.248 35.6897 145.55 35.581 145.798 35.5187C145.767 35.5265 145.838 35.5417 146.01 35.5644C146.174 35.5562 146.323 35.5519 146.456 35.5516C146.668 35.5972 146.836 35.6045 146.96 35.5733C147.381 35.5336 147.806 35.6249 148.235 35.8472C148.663 36.0694 149.032 36.3727 149.34 36.757C149.67 37.1028 149.857 37.4682 149.899 37.8532C150.003 38.4538 149.965 39.024 149.785 39.5637C149.637 40.0957 149.369 40.4431 148.983 40.6059C149.037 40.5595 148.977 40.525 148.804 40.5024C148.654 40.4412 148.488 40.3838 148.307 40.3304L148.193 40.4578C148.193 40.4578 148.169 40.4309 148.121 40.3771C148.095 40.2848 148.033 40.1848 147.936 40.0772C147.791 39.9158 147.687 39.7274 147.626 39.5118C147.557 39.2655 147.498 38.9999 147.451 38.715C147.417 38.3607 147.36 38.1606 147.281 38.1146C147.232 38.0608 147.018 38.0652 146.636 38.1279C146.176 38.1446 145.561 38.3812 144.793 38.8378C144.056 39.2866 143.469 39.7967 143.032 40.3679C142.471 40.9703 142.015 41.5301 141.662 42.0472C141.301 42.5335 141.034 42.9964 140.859 43.436C140.675 43.8448 140.54 44.3074 140.454 44.8238C140.36 45.0782 140.281 45.3288 140.218 45.5755C140.177 45.7836 140.178 45.9646 140.222 46.1186C140.318 46.4573 140.666 46.749 141.268 46.9939C141.891 47.2002 142.78 47.4058 143.935 47.6106C144.838 47.7468 145.626 47.945 146.298 48.205C146.97 48.4651 147.488 48.8296 147.854 49.2985C147.951 49.4061 148.01 49.5562 148.031 49.7487C148.075 49.9027 148.074 50.0182 148.029 50.0954C148.109 50.1414 148.153 50.1798 148.162 50.2106L148.149 50.1644C148.502 50.4716 148.61 50.8564 148.475 51.319C148.371 51.7738 148.084 52.2252 147.612 52.6733C147.163 53.0828 146.572 53.4619 145.84 53.8106L145.886 53.7989C145.518 54.0233 145.14 54.2169 144.754 54.3798C144.391 54.504 144.038 54.609 143.697 54.6946ZM161.881 49.0928C161.386 49.8106 160.717 50.3247 159.874 50.6352C159.063 50.9378 158.205 51.021 157.302 50.8848C156.391 50.7179 155.567 50.3311 154.83 49.7245C154.11 49.1795 153.551 48.4954 153.152 47.6723C152.744 46.8183 152.402 45.6675 152.125 44.22C151.878 42.9959 151.926 41.6977 152.269 40.3255C152.603 38.9226 153.116 37.6231 153.808 36.4272C154.531 35.2235 155.322 34.3161 156.179 33.7052C156.558 33.2805 156.906 33.0446 157.226 32.9975C157.567 32.9118 158.088 32.8141 158.788 32.7043C159.528 32.6176 160.095 32.6237 160.489 32.7228C160.913 32.8141 161.278 32.9864 161.582 33.2398C162.179 33.5848 162.62 33.9688 162.906 34.3917C163.183 34.7838 163.383 35.1954 163.505 35.6265C163.572 36.335 163.342 37.2832 162.814 38.471C162.308 39.6202 161.506 40.6623 160.408 41.5975C159.786 41.9843 159.067 42.2636 158.252 42.4353C157.436 42.607 156.712 42.5744 156.08 42.3373C155.42 42.2389 155.045 42.3825 154.955 42.7679C154.856 43.1225 154.903 43.9351 155.096 45.2057C155.304 46.4069 155.641 47.2456 156.108 47.722C156.566 48.1675 157.073 48.3703 157.626 48.3302C158.282 48.2976 158.789 48.2693 159.148 48.2452C159.529 48.1825 159.94 47.931 160.381 47.4907C160.79 47.0582 161.052 46.811 161.168 46.749C161.275 46.6563 161.35 46.5714 161.395 46.4942C161.462 46.3785 161.607 46.1277 161.83 45.7419C161.987 45.4719 162.114 45.2751 162.212 45.1516C162.301 44.9973 162.423 44.9006 162.578 44.8617C162.734 44.8227 162.895 44.8647 163.063 44.9875C163.222 45.0795 163.372 45.1407 163.514 45.1711C163.824 45.0932 163.938 45.2624 163.857 45.6786C163.806 46.087 163.607 46.6153 163.258 47.2633C162.901 47.8806 162.442 48.4904 161.881 49.0928ZM159.063 39.3132C159.361 39.0736 159.657 38.7685 159.951 38.3979C160.236 37.9965 160.455 37.5954 160.607 37.1944C160.782 36.7548 160.835 36.4118 160.765 36.1655C160.643 35.7345 160.341 35.431 159.859 35.2551C159.368 35.0485 158.75 35.1542 158.004 35.5722C157.689 35.7502 157.366 36.0785 157.036 36.557C156.698 37.0048 156.388 37.4948 156.106 38.0271C155.856 38.5516 155.654 39.0144 155.502 39.4154C155.38 39.8086 155.36 40.0282 155.439 40.0742C155.576 40.2048 155.874 40.2617 156.335 40.2451C156.787 40.1976 157.272 40.0923 157.791 39.9291C158.341 39.7581 158.765 39.5528 159.063 39.3132Z" fill="black"/>
</svg>
