<svg width="173" height="148" viewBox="0 0 173 148" fill="none" xmlns="http://www.w3.org/2000/svg">
<path d="M103.611 68.3163C109.203 65.7423 115.755 69.8513 120.492 72.4627C128.436 76.8394 135.425 83.1235 140.841 90.6737C149.539 102.801 153.567 117.908 153.237 133.363C154.28 131.027 155.323 128.69 156.366 126.352C157.292 124.275 160.351 125.265 159.482 127.44C157.071 133.47 154.651 139.5 152.23 145.529C151.636 147.009 149.816 147.158 149.14 145.799C145.604 138.704 142.019 131.632 138.563 124.486C137.618 122.533 140.549 120.997 141.526 122.899C144.268 128.231 146.94 133.609 149.613 138.983C150.933 124.895 148.685 111.031 142.208 98.9319C138.225 91.4909 132.869 85.04 126.476 79.8972C121.393 75.8091 110.914 67.3278 104.056 69.8619C103.214 70.1744 102.791 68.6923 103.611 68.3163Z" fill="#040606"/>
<path d="M23.6155 82.0138C23.3672 82.0761 23.0312 81.9461 22.6075 81.6237C22.1838 81.3013 21.9352 80.9515 21.8616 80.5742C21.7532 80.0738 21.6925 79.3306 21.6793 78.3445C21.6661 77.3585 21.6796 76.3493 21.7198 75.317C21.76 74.2846 21.8258 73.4601 21.9173 72.8436C21.902 72.3198 21.8886 71.8615 21.8771 71.4686C21.888 71.0372 21.8915 70.756 21.8876 70.6251C21.9459 70.4785 21.994 70.1202 22.0321 69.55C22.1012 68.9721 22.1281 68.4212 22.1128 67.8974C22.1052 67.6355 22.0986 67.1425 22.0931 66.4184C22.1099 65.6557 22.1272 64.7774 22.1451 63.7836C22.194 62.782 22.2317 61.7997 22.2583 60.8367C22.316 59.8659 22.3575 59.0146 22.3831 58.2827C22.4086 57.5508 22.4219 57.0693 22.4229 56.8382C22.5667 56.4064 22.6527 56.0055 22.6809 55.6357C22.7092 55.2659 22.7214 55.0155 22.7176 54.8845C22.869 54.7146 22.934 54.5334 22.9128 54.3409C22.8828 54.1176 22.8504 53.9443 22.8155 53.8212C22.772 53.6672 22.7836 53.5324 22.8506 53.4166C22.9486 53.2931 22.9802 53.1698 22.9453 53.0466C23.0433 52.9231 23.0817 52.765 23.0604 52.5725C23.0305 52.3492 23.0713 52.1411 23.1829 51.9482L23.1934 51.1046L25.9272 50.3692C25.9697 50.7542 26.0073 51.2395 26.0401 51.8248C26.0641 52.3794 25.9697 53.1616 25.7569 54.1713C25.776 54.8261 25.7466 55.427 25.6688 55.9742C25.6221 56.5136 25.636 56.8563 25.7106 57.0025C25.6659 57.0797 25.6134 57.4226 25.553 58.0314C25.5237 58.6323 25.4827 59.3681 25.4299 60.2387C25.4082 61.1016 25.371 61.9683 25.3183 62.839C25.2966 63.7018 25.2642 64.4684 25.2213 65.1387C25.2007 65.7705 25.1811 66.1711 25.1626 66.3407C25.0537 66.8956 24.9792 67.6893 24.939 68.7217C24.8988 69.754 24.7993 71.164 24.6405 72.9517C24.5316 73.5066 24.4304 74.3235 24.3369 75.4022C24.2744 76.4732 24.2478 77.4362 24.2571 78.2913C24.2556 79.5778 24.2426 80.4714 24.2182 80.9722C24.2335 81.496 24.1989 81.785 24.1145 81.8391C24.0388 81.9241 23.8725 81.9823 23.6155 82.0138ZM16.1962 54.3939C15.3359 54.6428 14.671 54.7601 14.2016 54.746C13.7633 54.7241 13.5364 54.4512 13.5211 53.9274C13.5097 53.5346 13.633 53.2068 13.8911 52.9442C14.1491 52.6816 14.56 52.4301 15.1235 52.1898C15.4475 52.0425 15.8603 51.8565 16.3618 51.6317C16.8943 51.3992 17.3958 51.1744 17.8662 50.9574C18.8556 50.5772 19.6631 50.2592 20.2888 50.0033C20.9455 49.7395 21.622 49.4873 22.3185 49.2466C23.0149 49.0059 23.8976 48.7185 24.9665 48.3843C25.8491 48.0969 26.5965 47.8599 27.2085 47.6733C27.8429 47.4482 28.1601 47.3356 28.1601 47.3356C28.2532 47.3122 28.5878 47.2613 29.1639 47.1826C29.74 47.104 30.367 47.0291 31.045 46.958C31.7229 46.8868 32.2345 46.8738 32.5797 46.9191C33.3372 46.8939 33.9103 46.9809 34.2991 47.1802C34.719 47.3716 35.0651 47.7135 35.3374 48.2058C35.5351 48.5519 35.6005 48.7828 35.5335 48.8985C35.4578 48.9835 35.3132 49.1187 35.0998 49.3042C34.4469 49.6988 33.9498 49.939 33.6084 50.0247C33.267 50.1103 32.8572 50.1307 32.3791 50.0858C32.1803 49.9708 31.9549 49.879 31.7028 49.8103C31.4817 49.7339 31.1141 49.7272 30.6001 49.7902C30.1084 49.8147 29.3417 49.9246 28.3 50.12C27.4571 50.4305 26.7097 50.6675 26.0579 50.831C25.4062 50.9946 25.102 51.1533 25.1456 51.3073L22.438 52.1351L20.2221 52.9385C19.9204 53.0472 19.499 53.2024 18.9577 53.4041C18.4078 53.5751 17.8777 53.7576 17.3675 53.9516C16.8485 54.1148 16.4581 54.2622 16.1962 54.3939ZM36.5239 75.8562C36.1204 75.9575 35.7727 75.9623 35.4809 75.8706C35.22 75.7712 34.8797 75.6258 34.4598 75.4343C33.6958 74.9665 33.1112 74.4866 32.706 73.9947C32.2921 73.472 32.0576 72.9372 32.0026 72.3904C32.026 72.1208 31.9916 71.882 31.8996 71.6743C31.8299 71.428 31.795 71.3048 31.795 71.3048C31.5962 71.1898 31.5235 71.1091 31.5769 71.0628C31.6215 70.9856 31.6575 70.8776 31.6847 70.7389C31.8709 70.6922 31.885 70.5073 31.7271 70.1841C31.5953 69.9534 31.5669 69.3834 31.642 68.4742C31.717 67.565 31.8828 66.6825 32.1392 65.8267C32.2382 65.472 32.4043 65.0017 32.6373 64.4156C32.8616 63.7987 33.1212 63.1894 33.4163 62.5877C33.7337 61.9475 34.0351 61.4266 34.3204 61.0253C34.9133 60.184 35.461 59.5354 35.9636 59.0795C36.4661 58.6236 37.0371 58.233 37.6763 57.9077C38.3156 57.5825 38.7593 57.3887 39.0076 57.3263C39.287 57.2563 39.7292 57.4091 40.3342 57.7849C41.1352 57.9137 41.7519 58.1547 42.1843 58.5079C42.6477 58.8533 43.0437 59.4299 43.3721 60.2379C43.7267 61.1383 43.9498 62.22 44.0414 63.4831C44.1553 64.7077 43.8399 66.3532 43.0952 68.4198C42.633 69.723 42.1545 70.7334 41.6595 71.4512C41.1559 72.1382 40.5281 72.8563 39.7762 73.6056C39.2464 74.2002 38.7482 74.6715 38.2816 75.0194C37.8062 75.3366 37.2203 75.6155 36.5239 75.8562ZM39.6076 69.8391C40.1172 68.8208 40.4846 67.8877 40.71 67.0397C40.9664 66.1839 41.1351 65.1358 41.2161 63.8953C41.2444 63.5254 41.2043 63.0903 41.0959 62.5898C40.9788 62.0586 40.8282 61.5853 40.6441 61.1698C40.4823 60.7157 40.2996 60.4813 40.0959 60.4664C39.6625 60.3443 39.195 60.3957 38.6935 60.6205C38.1833 60.8144 37.6919 61.251 37.2193 61.9302C36.4837 62.9722 35.929 64.1832 35.555 65.5631C35.1723 66.9123 34.8531 68.4269 34.5973 70.107C34.4455 71.3322 34.5896 72.2524 35.0297 72.8675C35.4921 73.444 36.1316 73.5308 36.9484 73.128C37.7875 72.6866 38.6739 71.5903 39.6076 69.8391ZM52.9932 70.5859C52.3763 70.8726 51.9703 71.0239 51.7754 71.0399C51.6028 71.0172 51.3022 70.8948 50.8736 70.6726C50.3073 70.5508 49.8011 70.3481 49.3551 70.0643C48.9401 69.7727 48.5984 69.4462 48.3299 69.0849C48.0837 68.685 47.937 68.3426 47.8896 68.0577C47.6776 66.9566 47.6146 65.7358 47.7005 64.3952C47.7864 63.0545 47.9785 61.7367 48.2768 60.4417C48.5751 59.1467 48.9679 58.0093 49.4551 57.0297C49.9647 56.0114 50.5261 55.2934 51.1392 54.8758C51.6902 54.4737 52.2538 54.2333 52.8299 54.1547C53.406 54.0761 53.8923 54.2674 54.2887 54.7285C55.0071 55.5046 55.0597 56.1015 54.4466 56.5191C54.3534 56.5425 54.2579 56.616 54.1599 56.7395C54.0532 56.8322 54.0172 56.9402 54.0521 57.0633C54.1937 57.0938 54.5394 57.0235 55.0894 56.8525C55.6307 56.6507 56.1632 56.4182 56.687 56.1548C57.2331 55.8529 57.5775 55.6016 57.7202 55.4009C57.8803 55.2618 58.0069 55.1806 58.1 55.1572C58.1931 55.1338 58.4346 55.1062 58.8245 55.0743C59.3957 55.0959 59.7118 55.2144 59.7728 55.43C59.8077 55.5531 59.8891 55.6646 60.0171 55.7644C60.1363 55.8334 60.258 55.8523 60.3822 55.8212C60.6082 55.7974 60.6164 55.9438 60.4067 56.2602C60.2282 56.5688 59.8895 57.0166 59.3908 57.6034C58.9056 58.1209 58.6029 58.4606 58.4826 58.6227C58.3846 58.7463 58.4301 58.9657 58.619 59.281C59.0329 59.8037 59.2402 60.4772 59.2408 61.3015C59.2415 62.1258 59.0757 63.0083 58.7437 63.949C58.4116 64.8897 57.9423 65.8154 57.3358 66.7261C56.7516 67.5982 56.0791 68.3935 55.3185 69.112C54.5802 69.7919 53.8051 70.2832 52.9932 70.5859ZM51.6265 68.7523C51.7507 68.7212 51.9505 68.6051 52.226 68.404C52.4928 68.1722 52.7062 67.9867 52.8663 67.8476C52.9556 67.6933 53.0716 67.5158 53.2142 67.3151C53.3792 67.0759 53.5194 66.9253 53.6348 66.8633C53.759 66.8322 53.9011 66.7471 54.0612 66.608C54.2125 66.4381 54.411 66.1409 54.6565 65.7166C54.8934 65.2614 55.1909 64.6097 55.5491 63.7613C55.9781 62.9281 56.2849 62.1916 56.4694 61.5517C56.6453 60.881 56.5859 60.3188 56.2912 59.8651C56.2253 59.7498 56.1104 59.6962 55.9465 59.7043C55.8136 59.7047 55.6211 59.6705 55.369 59.6019C55.0586 59.6798 54.742 59.6768 54.4191 59.5929C54.1185 59.4705 53.7583 59.3136 53.3384 59.1221L52.332 58.3853L51.7628 59.3691C51.4057 59.9863 51.0872 60.8577 50.8074 61.9832C50.5499 63.0701 50.3788 64.1683 50.294 65.2778C50.2004 66.3566 50.2054 67.1962 50.3089 67.7968C50.4086 68.2665 50.5734 68.5549 50.8032 68.6621C51.033 68.7694 51.3074 68.7994 51.6265 68.7523ZM65.0922 69.4296C64.546 69.7315 64.0301 69.7291 63.5443 69.4223C63.0896 69.1077 62.7135 68.5425 62.4161 67.7267C62.1187 66.911 61.933 65.9023 61.8588 64.7008C61.9094 64.2923 61.9333 63.9071 61.9306 63.545C61.9191 63.1522 61.8828 62.848 61.8218 62.6325C61.7968 62.309 61.7945 61.8314 61.8152 61.1996C61.8271 60.5371 61.8502 59.8553 61.8844 59.1542C61.9186 58.4531 61.9591 57.8328 62.0059 57.2934C62.075 56.7155 62.1232 56.3571 62.1504 56.2184C62.2745 56.1872 62.3527 56.0522 62.3848 55.8133C62.4169 55.5744 62.4024 55.3472 62.3414 55.1317C62.2717 54.8854 62.2398 54.5966 62.2458 54.2653C62.2828 53.9262 62.3459 53.6796 62.4352 53.5252C62.3916 53.3713 62.3747 53.1942 62.3845 52.9938C62.4166 52.7549 62.4152 52.5739 62.3804 52.4508C62.3455 52.3276 62.3417 52.1966 62.3689 52.0579C62.4271 51.9114 62.4388 51.7765 62.404 51.6534C62.5079 51.1986 62.6086 50.4973 62.706 49.5495C62.8257 48.5631 62.9348 47.4805 63.0332 46.3016C63.1627 45.1149 63.2655 43.9514 63.3416 42.811C63.4177 41.6707 63.4642 40.7192 63.481 39.9565C63.5201 39.1552 63.5179 38.6776 63.4743 38.5237C63.4046 38.2773 63.4144 38.077 63.5037 37.9227C63.593 37.7684 63.7618 37.6601 64.0101 37.5978C64.077 37.482 64.1682 37.3932 64.2837 37.3313C64.4301 37.2615 64.5655 37.2111 64.6896 37.1799C64.6896 37.1799 64.7691 37.2259 64.9281 37.3179C65.0871 37.41 65.3257 37.548 65.6437 37.732C65.953 37.8852 66.1624 38.0965 66.2719 38.3658C66.4124 38.6273 66.5349 38.9428 66.6395 39.3123C66.7528 39.7126 66.8065 40.0784 66.8005 40.4096C66.7946 40.7409 66.7347 41.2341 66.621 41.8892C66.5072 42.5443 66.3298 43.5617 66.0887 44.9413C66.0147 45.6194 65.9165 46.2706 65.7941 46.8949C65.6629 47.4884 65.6147 47.8468 65.6496 47.9699C65.6844 48.0931 65.6747 48.2934 65.6202 48.5709C65.5968 48.8406 65.5754 49.1757 65.5558 49.5764C65.5014 49.8538 65.4353 50.2662 65.3574 50.8133C65.2709 51.3297 65.1819 51.8962 65.0905 52.5127C65.0214 53.0906 64.9659 53.5992 64.924 54.0384C64.8734 54.4469 64.8568 54.6819 64.8743 54.7434C64.9091 54.8666 64.9285 54.9937 64.9323 55.1246C64.9672 55.2478 64.94 55.3865 64.8507 55.5408C64.7265 55.572 64.6751 55.6838 64.6963 55.8763C64.7399 56.0303 64.7617 56.1073 64.7617 56.1073C64.8488 56.4152 64.8315 57.2934 64.7097 58.742C64.6924 60.5601 64.667 62.2318 64.6334 63.7572C64.6308 65.2748 64.7515 66.4647 64.9956 67.3268C65.2047 68.0658 65.3287 68.5623 65.3674 68.8164C65.3973 69.0397 65.3056 69.2441 65.0922 69.4296ZM74.5471 66.6119C73.7886 66.8682 73.0306 67.0089 72.2732 67.0341C71.5468 67.0515 70.883 66.9377 70.2818 66.6929C69.7029 66.4094 69.2419 66.0139 68.8988 65.5064C68.5595 65.1299 68.3681 64.8646 68.3245 64.7107C68.2722 64.526 68.3373 64.3447 68.5197 64.1671C68.768 64.1048 69.007 64.1272 69.2368 64.2344C69.489 64.3031 69.8075 64.3715 70.1925 64.4398C70.7714 64.7233 71.3911 64.7986 72.0516 64.6659C72.7431 64.5253 73.3334 64.2618 73.8223 63.8753C74.3113 63.4887 74.5345 63.103 74.492 62.7179C74.4571 62.5947 74.3496 62.3909 74.1693 62.1064C73.989 61.8218 73.7889 61.5258 73.5689 61.2182C72.3997 60.2585 71.4521 59.2596 70.7261 58.2216C70.0225 57.1451 69.566 56.2373 69.3569 55.4983C69.2 54.9441 69.2051 54.3163 69.3722 53.6148C69.5306 52.8825 69.8436 52.2269 70.3113 51.6478C70.7044 50.9226 71.177 50.2434 71.7291 49.6102C72.2812 48.977 72.8507 48.4054 73.4377 47.8954C74.0557 47.3775 74.6222 46.9716 75.1373 46.6774C75.4788 46.5917 75.9419 46.525 76.5267 46.4772C77.1115 46.4294 77.53 46.4398 77.7821 46.5084C78.1584 46.5459 78.5802 46.8028 79.0474 47.2792C79.506 47.7247 79.8093 48.2092 79.9575 48.7326C80.0185 48.9482 80.0349 49.2409 80.0066 49.6107C79.9783 49.9806 79.8899 50.4315 79.7413 50.9634C79.713 51.3333 79.6648 51.6916 79.5968 52.0384C79.52 52.3545 79.4991 52.5741 79.534 52.6973C79.4746 53.0749 79.3053 53.2988 79.026 53.3689C78.769 53.4004 78.4659 53.328 78.1169 53.1518C77.7901 52.937 77.4969 52.6643 77.2371 52.3338C76.9822 51.9031 76.8311 51.5453 76.7837 51.2604C76.7275 50.9447 76.7602 50.5902 76.8816 50.197C77.1271 49.7726 77.2324 49.4989 77.1976 49.3757C77.1627 49.2526 76.9746 49.2338 76.6332 49.3195C76.4159 49.374 76.0516 49.6138 75.5404 50.0389C75.0514 50.4254 74.542 50.916 74.0123 51.5106C73.5048 52.0666 73.0837 52.634 72.7488 53.2127C72.316 53.9149 72.0724 54.4047 72.0179 54.6822C71.9945 54.9519 72.0569 55.3484 72.2051 55.8719C72.3271 56.3029 72.5728 56.8184 72.942 57.4183C73.3423 58.0103 73.6816 58.3869 73.9599 58.5479C73.9599 58.5479 74.1295 58.7362 74.4688 59.1127C74.7993 59.4585 75.1852 59.8233 75.6263 60.2073C77.0842 61.952 77.7179 63.31 77.5274 64.2811C77.3369 65.2523 76.3435 66.0292 74.5471 66.6119ZM99.435 62.3454C99.1219 62.0612 98.5643 61.9703 97.7622 62.0726C96.9911 62.1672 96.0712 62.3815 95.0023 62.7157C94.5852 62.8863 94.1575 62.9607 93.7191 62.9388C93.2895 62.9476 92.9156 62.8601 92.5976 62.6761C92.3193 62.515 92.1764 62.3036 92.1687 62.0417C92.0952 61.6644 92.3228 61.294 92.8515 60.9305C93.4112 60.5592 94.354 60.1907 95.6799 59.825L98.1344 59.1597L98.3385 58.1192C98.3668 57.7493 98.3869 57.2331 98.3988 56.5706C98.4107 55.908 98.425 55.1954 98.4418 54.4327C98.444 53.9705 98.4646 53.3388 98.5037 52.5375C98.5429 51.7362 98.5844 50.8849 98.6285 49.9834C98.6725 49.082 98.7116 48.2807 98.7459 47.5796C98.7714 46.8477 98.776 46.3354 98.7596 46.0427C98.8053 45.7345 98.8453 45.2298 98.8795 44.5287C98.905 43.7968 98.915 43.0688 98.9095 42.3446C98.9263 41.582 98.9222 41.0389 98.8971 40.7154C99.0156 38.0805 99.0551 36.2238 99.0158 35.1454C98.9678 34.0362 98.8773 33.4818 98.7445 33.4822C98.6203 33.5134 98.3143 33.6066 97.8264 33.762C97.3696 33.9097 96.855 34.0882 96.2827 34.2978C95.7328 34.4688 95.2337 34.6435 94.7856 34.8219C94.3685 34.9925 94.1221 35.1203 94.0464 35.2052C93.9522 35.4597 93.7015 35.5721 93.2942 35.5424C92.8868 35.5127 92.593 35.3556 92.4128 35.071C92.3033 34.8017 92.2268 34.5901 92.1832 34.4361C92.1707 34.2744 92.2289 34.1278 92.358 33.9965C92.5229 33.7573 92.8853 33.452 93.445 33.0807C93.9961 32.6786 94.6334 32.2878 95.357 31.9084C96.1117 31.5212 96.8329 31.1918 97.5207 30.9203C98.0309 30.7263 98.528 30.4861 99.0121 30.1998C99.4874 29.8826 99.8454 29.562 100.086 29.2378C100.339 29.0753 100.581 28.9321 100.812 28.8082C101.074 28.6766 101.349 28.5911 101.637 28.5518C101.929 28.6434 102.37 28.6152 102.96 28.4673C103.58 28.3115 104.228 28.1325 104.902 27.9304C106.596 27.3403 107.747 27.0021 108.354 26.9157C108.993 26.8215 109.481 26.9627 109.821 27.3392C110.141 27.8853 110.303 28.3393 110.306 28.7014C110.3 29.0327 110.029 29.2491 109.492 29.3507C109.23 29.4824 108.736 29.6725 108.008 29.921C107.303 30.1309 106.551 30.3525 105.753 30.5858C103.602 31.3235 102.483 31.835 102.398 32.1203C102.309 32.2746 102.235 32.425 102.177 32.5715C102.149 32.7103 102.095 32.8722 102.015 33.0573C102.081 33.1727 102.117 33.5924 102.122 34.3165C102.15 35.0021 102.136 35.7147 102.079 36.4544C102.068 36.8858 102.043 37.5021 102.004 38.3034C101.965 39.1047 101.919 39.9406 101.866 40.8113C101.836 41.6433 101.803 42.4099 101.769 43.111C101.726 43.7814 101.689 44.236 101.657 44.4749C101.611 44.7831 101.589 45.1183 101.592 45.4804C101.617 45.8038 101.636 46.0464 101.649 46.2082C101.641 47.8259 101.615 49.2011 101.57 50.3336C101.556 51.4584 101.522 52.4561 101.47 53.3267C101.439 54.1588 101.42 54.9716 101.412 55.765C101.395 56.5277 101.385 57.3713 101.38 58.2957C101.38 58.2957 101.609 58.2219 102.066 58.0743C102.545 57.8881 103.179 57.663 103.969 57.3989C105.384 56.8789 106.397 56.5256 107.009 56.3391C107.653 56.1447 108.1 56.0819 108.352 56.1505C108.596 56.1884 108.803 56.3342 108.975 56.5879C109.831 57.2635 110.07 57.8136 109.691 58.2384C109.313 58.6631 108.25 59.0781 106.503 59.4835C104.907 59.9501 103.678 60.3078 102.818 60.5566C101.997 60.8285 101.43 61.0534 101.114 61.2315C100.83 61.4017 100.687 61.6024 100.686 61.8335C100.756 62.0799 100.667 62.2342 100.418 62.2965C100.17 62.3588 99.8423 62.3751 99.435 62.3454ZM124.617 51.9703C123.879 51.5949 123.276 51.169 122.809 50.6926C122.373 50.2085 121.907 49.3855 121.412 48.2236C121.193 47.685 121.05 46.9458 120.984 46.0062C120.909 45.0357 120.898 43.9996 120.952 42.8979C121.006 41.7961 121.132 40.7751 121.331 39.8347C121.522 38.8635 121.773 38.1079 122.086 37.5678C122.328 37.0125 122.553 36.6922 122.761 36.6069C122.992 36.483 123.457 36.4817 124.156 36.6031C124.611 36.9177 124.904 37.3059 125.034 37.7677C125.165 38.2296 125.127 38.7998 124.92 39.4782C124.535 40.4653 124.288 41.6485 124.18 43.0277C124.094 44.3684 124.113 45.5508 124.237 46.575C124.222 47.6998 124.283 48.443 124.419 48.8047C124.554 49.1664 124.904 49.3426 125.466 49.3334C126.091 49.3086 126.728 48.9178 127.378 48.1611C128.019 47.3736 128.584 46.3744 129.073 45.1636C129.552 43.9221 129.851 42.6271 129.968 41.2786C130.032 40.8008 130.028 40.2578 129.955 39.6494C129.914 39.0332 129.916 38.571 129.961 38.2627C129.942 37.608 130.033 37.107 130.234 36.7598C130.426 36.3818 130.673 36.1385 130.975 36.0298C131.268 35.8903 131.549 35.8857 131.819 36.0159C132.133 36.069 132.347 36.1801 132.462 36.3493C132.567 36.4876 132.689 36.9187 132.828 37.6425C133.15 38.7817 133.176 39.8139 132.906 40.7391C132.636 41.6642 132.457 42.6161 132.368 43.5947C132.272 44.3114 132.058 45.1401 131.726 46.0808C131.425 47.0138 131.04 47.8853 130.571 48.6955C130.133 49.4978 129.654 50.0962 129.134 50.4905C128.422 51.2628 127.725 51.7346 127.042 51.9059C126.381 52.0387 125.573 52.0601 124.617 51.9703ZM142.037 49.4293C140.485 49.8187 139.195 49.5488 138.168 48.6194C137.863 48.3661 137.668 48.0854 137.58 47.7775C137.516 47.431 137.543 47.1767 137.664 47.0146C137.815 46.8447 138.063 46.898 138.407 47.1744C138.911 47.3117 139.567 47.2791 140.374 47.0766C140.777 46.9753 141.188 46.8394 141.605 46.6688C142.013 46.4674 142.413 46.2352 142.804 45.9722C143.208 45.6398 143.466 45.3772 143.578 45.1843C143.681 44.9606 143.606 44.8145 143.354 44.7458L143.401 44.7341C142.533 44.7211 141.614 44.5888 140.646 44.3372C139.699 44.0471 138.853 43.6989 138.106 43.2926C137.351 42.8556 136.861 42.4178 136.637 41.9793C136.119 41.0871 135.906 40.1017 136 39.0229C136.085 37.9134 136.36 36.8881 136.825 35.947C137.029 35.7307 137.287 35.4681 137.599 35.1591C137.902 34.8193 138.157 34.6068 138.366 34.5215L138.379 34.5677C138.794 33.8039 139.369 33.1321 140.102 32.5523C140.867 31.9648 141.686 31.3963 142.561 30.847L143.234 30.5794C143.589 30.4243 143.89 30.3157 144.139 30.2534C144.107 30.2611 144.178 30.2764 144.351 30.299C144.515 30.2908 144.663 30.2866 144.796 30.2862C145.008 30.3319 145.177 30.3391 145.301 30.308C145.722 30.2683 146.147 30.3596 146.575 30.5818C147.004 30.804 147.372 31.1073 147.68 31.4917C148.011 31.8374 148.197 32.2028 148.24 32.5879C148.343 33.1885 148.305 33.7586 148.126 34.2984C147.977 34.8303 147.71 35.1777 147.324 35.3405C147.377 35.2942 147.317 35.2597 147.145 35.237C146.995 35.1758 146.829 35.1185 146.647 35.0651L146.534 35.1925C146.534 35.1925 146.51 35.1656 146.461 35.1118C146.435 35.0194 146.373 34.9194 146.277 34.8118C146.131 34.6505 146.028 34.462 145.967 34.2465C145.897 34.0002 145.839 33.7346 145.791 33.4497C145.757 33.0954 145.701 32.8952 145.621 32.8492C145.573 32.7954 145.358 32.7999 144.977 32.8626C144.516 32.8792 143.902 33.1159 143.133 33.5725C142.396 34.0213 141.809 34.5313 141.372 35.1026C140.812 35.705 140.355 36.2647 140.003 36.7818C139.642 37.2681 139.374 37.7311 139.199 38.1707C139.016 38.5794 138.881 39.042 138.794 39.5584C138.7 39.8129 138.621 40.0634 138.558 40.3101C138.517 40.5182 138.519 40.6993 138.562 40.8532C138.658 41.1919 139.007 41.4837 139.608 41.7286C140.232 41.9349 141.121 42.1404 142.276 42.3453C143.179 42.4815 143.966 42.6796 144.638 42.9397C145.31 43.1998 145.829 43.5643 146.194 44.0332C146.291 44.1408 146.35 44.2908 146.371 44.4833C146.415 44.6373 146.414 44.7529 146.37 44.83C146.449 44.876 146.493 44.9144 146.502 44.9452L146.489 44.899C146.842 45.2062 146.951 45.5911 146.816 46.0537C146.712 46.5084 146.424 46.9599 145.953 47.408C145.503 47.8175 144.913 48.1966 144.18 48.5452L144.227 48.5336C143.858 48.758 143.481 48.9516 143.095 49.1144C142.731 49.2387 142.379 49.3436 142.037 49.4293ZM160.222 43.8275C159.727 44.5452 159.058 45.0594 158.215 45.3698C157.403 45.6724 156.546 45.7557 155.643 45.6195C154.731 45.4525 153.907 45.0657 153.17 44.4592C152.451 43.9142 151.892 43.2301 151.492 42.4069C151.084 41.5529 150.742 40.4022 150.465 38.9547C150.219 37.7305 150.267 36.4323 150.609 35.0602C150.944 33.6572 151.457 32.3578 152.149 31.1618C152.872 29.9581 153.662 29.0508 154.52 28.4399C154.898 28.0151 155.247 27.7792 155.566 27.7321C155.907 27.6465 156.428 27.5487 157.128 27.439C157.868 27.3522 158.435 27.3584 158.829 27.4574C159.254 27.5487 159.618 27.7211 159.923 27.9744C160.519 28.3195 160.96 28.7034 161.246 29.1264C161.523 29.5185 161.723 29.9301 161.845 30.3611C161.913 31.0697 161.682 32.0178 161.154 33.2056C160.648 34.3548 159.846 35.397 158.748 36.3321C158.126 36.719 157.408 36.9983 156.592 37.17C155.776 37.3417 155.052 37.309 154.42 37.0719C153.761 36.9736 153.386 37.1171 153.295 37.5025C153.196 37.8572 153.243 38.6698 153.437 39.9403C153.644 41.1415 153.981 41.9803 154.448 42.4566C154.907 42.9022 155.413 43.1049 155.967 43.0649C156.622 43.0323 157.13 43.0039 157.489 42.9798C157.87 42.9172 158.281 42.6657 158.721 42.2254C159.13 41.7929 159.393 41.5456 159.508 41.4837C159.615 41.391 159.691 41.306 159.735 41.2289C159.802 41.1131 159.947 40.8624 160.171 40.4766C160.327 40.2065 160.454 40.0097 160.552 39.8862C160.641 39.7319 160.764 39.6353 160.919 39.5963C161.074 39.5574 161.235 39.5993 161.403 39.7221C161.562 39.8141 161.712 39.8753 161.854 39.9058C162.164 39.8279 162.279 39.997 162.197 40.4133C162.147 40.8217 161.947 41.3499 161.599 41.998C161.241 42.6152 160.782 43.2251 160.222 43.8275ZM157.404 34.0478C157.701 33.8082 157.997 33.5031 158.291 33.1326C158.577 32.7312 158.795 32.33 158.948 31.929C159.123 31.4894 159.175 31.1465 159.105 30.9002C158.983 30.4691 158.681 30.1656 158.2 29.9898C157.709 29.7831 157.091 29.8888 156.345 30.3068C156.029 30.4849 155.707 30.8132 155.377 31.2917C155.038 31.7394 154.728 32.2294 154.447 32.7617C154.196 33.2863 153.995 33.749 153.842 34.15C153.721 34.5432 153.7 34.7628 153.779 34.8088C153.916 34.9394 154.215 34.9964 154.676 34.9797C155.127 34.9323 155.613 34.8269 156.132 34.6637C156.682 34.4928 157.106 34.2875 157.404 34.0478Z" fill="black"/>
</svg>
