<svg xmlns="http://www.w3.org/2000/svg" width="356" height="144"><svg id="barcodeSVG" role="img" aria-label="Barcode preview" width="354px" height="142px" x="0px" y="0px" viewBox="0 0 354 142" xmlns="http://www.w3.org/2000/svg" version="1.1" style="transform: translate(0,0)"><rect x="0" y="0" width="354" height="142" style="fill:#ffffff;"/><g transform="translate(10, 10)" style="fill:#000000;"><rect x="0" y="0" width="4" height="100"/><rect x="6" y="0" width="2" height="100"/><rect x="12" y="0" width="6" height="100"/><rect x="22" y="0" width="6" height="100"/><rect x="34" y="0" width="4" height="100"/><rect x="40" y="0" width="2" height="100"/><rect x="44" y="0" width="4" height="100"/><rect x="52" y="0" width="4" height="100"/><rect x="58" y="0" width="4" height="100"/><rect x="66" y="0" width="6" height="100"/><rect x="74" y="0" width="4" height="100"/><rect x="80" y="0" width="6" height="100"/><rect x="88" y="0" width="4" height="100"/><rect x="98" y="0" width="2" height="100"/><rect x="106" y="0" width="2" height="100"/><rect x="110" y="0" width="6" height="100"/><rect x="118" y="0" width="4" height="100"/><rect x="124" y="0" width="6" height="100"/><rect x="132" y="0" width="2" height="100"/><rect x="136" y="0" width="6" height="100"/><rect x="144" y="0" width="4" height="100"/><rect x="154" y="0" width="2" height="100"/><rect x="162" y="0" width="8" height="100"/><rect x="172" y="0" width="2" height="100"/><rect x="176" y="0" width="4" height="100"/><rect x="188" y="0" width="2" height="100"/><rect x="192" y="0" width="2" height="100"/><rect x="198" y="0" width="6" height="100"/><rect x="206" y="0" width="4" height="100"/><rect x="212" y="0" width="6" height="100"/><rect x="220" y="0" width="2" height="100"/><rect x="224" y="0" width="6" height="100"/><rect x="236" y="0" width="4" height="100"/><rect x="242" y="0" width="6" height="100"/><rect x="250" y="0" width="2" height="100"/><rect x="254" y="0" width="8" height="100"/><rect x="264" y="0" width="4" height="100"/><rect x="272" y="0" width="6" height="100"/><rect x="282" y="0" width="2" height="100"/><rect x="286" y="0" width="4" height="100"/><rect x="296" y="0" width="2" height="100"/><rect x="304" y="0" width="2" height="100"/><rect x="308" y="0" width="4" height="100"/><rect x="318" y="0" width="6" height="100"/><rect x="326" y="0" width="2" height="100"/><rect x="330" y="0" width="4" height="100"/><text style="font: 20px Roboto" text-anchor="middle" x="167" y="122">590123412345797823462</text></g></svg></svg>