<svg width="265" height="143" viewBox="0 0 265 143" fill="none" xmlns="http://www.w3.org/2000/svg">
<path d="M214.217 50.0151C220.32 50.4141 224.101 57.1041 227.005 61.6272C231.875 69.2097 235.011 78.0067 236.173 87.1647C238.039 101.874 234.414 116.976 226.82 130.318C228.835 128.771 230.851 127.223 232.868 125.675C234.659 124.3 236.863 126.612 235.077 128.1C230.119 132.226 225.154 136.348 220.188 140.468C218.969 141.479 217.309 140.747 217.361 139.241C217.627 131.37 217.837 123.496 218.197 115.619C218.294 113.466 221.581 113.512 221.536 115.635C221.411 121.59 221.202 127.552 220.997 133.511C228.811 121.831 233.401 108.658 233.462 95.0245C233.501 86.6403 231.872 78.4708 228.718 70.953C226.209 64.9763 221.065 52.6088 213.875 51.5761C212.991 51.4501 213.323 49.9555 214.217 50.0151Z" fill="#040606"/>
<path d="M26.1242 106.969C24.7955 106.973 23.5038 106.638 22.2491 105.963C21.0255 105.281 20.1346 104.482 19.5763 103.567C19.432 103.175 19.2373 102.663 18.9922 102.032C18.7781 101.393 18.5926 100.796 18.4358 100.242C18.3099 99.6802 18.265 99.3452 18.3009 99.2373C18.3766 99.1523 18.3708 98.9559 18.2837 98.648C18.2178 98.5326 18.1766 98.3286 18.1603 98.0359C18.1662 97.7046 18.1722 97.3734 18.1782 97.0421C18.2288 96.6337 18.2235 96.3217 18.1625 96.1062C18.0928 95.8599 18.025 95.679 17.9591 95.5636C17.9591 95.5636 17.9795 95.4596 18.0203 95.2515C18.0524 95.0126 18.1131 94.816 18.2024 94.6617C18.3364 94.4302 18.3617 94.226 18.2783 94.049C18.226 93.8643 18.1999 93.7719 18.1999 93.7719C18.134 93.6565 18.1171 93.4794 18.1492 93.2405C18.1813 93.0016 18.2265 92.8089 18.2847 92.6624C18.3294 92.5852 18.3721 92.4426 18.4129 92.2345C18.4761 91.9878 18.5076 91.8645 18.5076 91.8645C18.4815 91.7721 18.4738 91.5102 18.4847 91.0788C18.5266 90.6395 18.5753 90.1656 18.6308 89.6571C18.6775 89.1177 18.7219 88.6284 18.7638 88.1892C18.8367 87.7422 18.9023 87.4454 18.9605 87.2989L18.9344 87.2065C18.9714 86.8675 19.0506 86.5013 19.172 86.1081C19.1594 85.9464 19.1673 85.6806 19.1956 85.3107C19.2151 84.9101 19.2546 84.521 19.3139 84.1433C19.4461 83.3187 19.6298 82.3822 19.865 81.3339C20.1224 80.247 20.4153 79.1677 20.7435 78.096C21.0631 76.9935 21.3821 76.0066 21.7005 75.1353C22.0413 74.2253 22.3612 73.535 22.6601 73.0642C23.0221 72.3468 23.354 71.9338 23.6556 71.8251C23.9573 71.7164 24.4063 71.8346 25.0026 72.1796C25.2809 72.3407 25.5101 72.5634 25.6904 72.848C25.8707 73.1325 25.9801 73.4018 26.0188 73.6559C26.0798 73.8715 26.0526 74.0102 25.9372 74.0722C25.7548 74.2498 25.5291 74.6857 25.2602 75.3797C24.9825 76.043 24.6733 76.8296 24.3325 77.7396C24.0228 78.6417 23.7217 79.5747 23.4294 80.5384C23.1594 81.4636 22.9297 82.2962 22.7403 83.0362C22.5895 84.0304 22.4393 84.909 22.2896 85.6721C22.1313 86.4043 22.0521 86.7705 22.0521 86.7705C22.0472 86.8706 22.0379 86.9554 22.0243 87.0247C22.0107 87.0941 21.9971 87.1635 21.9835 87.2328C21.7881 88.3042 21.6485 89.279 21.5648 90.1575C21.4723 91.0051 21.3929 91.8989 21.3265 92.839C21.2013 93.1012 21.1537 93.344 21.1836 93.5673C21.2136 93.7906 21.2286 93.9023 21.2286 93.9023C21.1578 93.8871 21.133 93.9757 21.1543 94.1683C21.1668 94.33 21.1571 94.5303 21.125 94.7692C21.0046 94.9313 20.9682 95.1548 21.0156 95.4397C21.0543 95.6938 21.1085 95.9441 21.1782 96.1904C21.1178 96.7991 21.1078 97.5271 21.1482 98.3744C21.1798 99.1909 21.2537 99.9803 21.3698 100.743C21.5081 101.466 21.6495 102.025 21.7938 102.417C22.0041 102.925 22.403 103.336 22.9906 103.65C23.6005 103.926 24.2861 104.117 25.0473 104.222C25.4236 104.26 25.749 104.294 26.0234 104.324C26.2892 104.323 26.5307 104.295 26.7479 104.241C27.0049 104.209 27.3153 104.131 27.6791 104.007C28.0651 103.844 28.5821 103.616 29.2301 103.321L29.1835 103.333C29.5696 103.17 29.9668 102.988 30.3752 102.786C30.8059 102.546 31.2099 102.33 31.5873 102.136C31.9423 101.981 32.2818 101.83 32.6058 101.683C32.9211 101.505 33.1631 101.361 33.3319 101.253C33.9624 100.897 34.4242 100.649 34.7171 100.51C35.0013 100.339 35.2385 100.296 35.4285 100.381C35.6186 100.465 35.7708 100.592 35.8852 100.761C35.9908 100.899 36.0363 101.119 36.0216 101.419C36.0031 101.589 35.8202 101.882 35.4728 102.299C35.1167 102.685 34.6675 103.094 34.1252 103.527C33.6139 103.952 33.0896 104.331 32.5522 104.664C32.0099 105.097 31.326 105.499 30.5005 105.871C29.706 106.236 28.9053 106.519 28.0983 106.721C27.3224 106.916 26.6643 106.999 26.1242 106.969ZM38.5393 100.194C38.3455 99.9785 38.138 99.8327 37.9169 99.7563C37.6871 99.6491 37.5548 99.5339 37.5199 99.4107C37.485 99.2875 37.4346 99.1683 37.3687 99.0529C37.3252 98.899 37.2239 98.776 37.0649 98.684C36.8574 98.5382 36.7552 98.1186 36.7584 97.4253C36.7529 96.7012 36.8323 95.8073 36.9967 94.7438C37.1523 93.6495 37.3725 92.4895 37.6571 91.2639C37.8357 90.9552 37.9925 90.5696 38.1275 90.1071C38.2625 89.6445 38.3747 89.336 38.4639 89.1817C38.4291 89.0586 38.4451 88.9391 38.5121 88.8234C38.5703 88.6768 38.6615 88.588 38.7857 88.5569L38.7073 88.2797C38.6637 88.1258 38.7293 87.829 38.904 87.3894C39.1098 86.9421 39.369 86.4483 39.6815 85.9082C39.9853 85.3374 40.3133 84.7934 40.6656 84.2763C41.0091 83.7284 41.3099 83.3231 41.568 83.0605C42.0978 82.4659 42.691 82.0367 43.3477 81.773C44.0354 81.5015 44.6842 81.5036 45.2941 81.7792C45.4134 81.8482 45.6122 81.9633 45.8904 82.1243C46.1687 82.2853 46.4867 82.4693 46.8445 82.6763C47.2246 82.8448 47.6091 83.0286 47.9979 83.2278L50.1519 84.3197L49.9676 86.8392C49.9127 88.1721 50.1091 89.277 50.5568 90.154C51.0355 91.0232 51.5725 91.7458 52.1677 92.322C52.4188 92.6217 52.8207 92.8671 53.3734 93.0582C53.9572 93.2415 54.475 93.3094 54.927 93.262C55.184 93.2305 55.4429 93.2644 55.7038 93.3639C55.9646 93.4633 56.143 93.6823 56.2389 94.021C56.326 94.3289 56.3337 94.5908 56.2618 94.8067C56.1899 95.0226 56.0075 95.2003 55.7146 95.3398C54.7252 95.7199 53.6933 95.7151 52.6189 95.3251C51.5755 94.9274 50.481 94.1138 49.3351 92.8844C49.1587 92.7308 48.8921 92.4349 48.5354 91.9968C48.201 91.5201 47.9965 91.2087 47.9219 91.0625C47.8413 91.2476 47.6913 91.5985 47.4719 92.1153C47.2438 92.6012 47.0628 92.9599 46.9289 93.1914C45.3527 95.9612 43.8666 97.9336 42.4705 99.1083C41.0968 100.244 39.7864 100.606 38.5393 100.194ZM39.4833 97.1867C39.5443 97.4023 39.8702 97.3205 40.461 96.9414C41.0741 96.5237 41.6814 95.9097 42.2831 95.0991C43.0856 93.9414 43.862 92.6913 44.6122 91.3489C45.3935 89.9986 45.9793 88.7799 46.3696 87.6926L46.9232 85.7729C46.4124 85.1426 45.9359 84.751 45.4937 84.5982C45.0739 84.4067 44.7398 84.3422 44.4915 84.4045C44.088 84.5057 43.5873 85.0271 42.9895 85.9685C42.4228 86.9022 41.8636 88.0978 41.3122 89.5553C40.7607 91.0127 40.2906 92.5817 39.902 94.2621C39.7659 94.9558 39.6566 95.6263 39.5738 96.2736C39.5135 96.8824 39.4833 97.1867 39.4833 97.1867ZM61.2745 95.9233C60.9157 95.9474 60.5108 95.8676 60.0599 95.6839C59.6313 95.4617 59.2251 95.2009 58.8411 94.9015C58.4795 94.5635 58.2086 94.2523 58.0283 93.9677C58.0109 93.9062 57.9426 93.8409 57.8233 93.7719C57.7351 93.6951 57.691 93.6567 57.691 93.6567C57.5407 93.5954 57.3498 93.2146 57.1183 92.5143C56.9091 91.7753 56.7247 90.9477 56.5651 90.0314C56.4054 89.1151 56.3136 88.3797 56.2896 87.8251C56.3053 87.2935 56.3507 86.5731 56.4258 85.6639C56.4921 84.7239 56.5381 83.8879 56.5636 83.156L57.0624 80.1618L55.0563 80.1211C54.8216 80.114 54.6005 80.0376 54.393 79.8918C54.2166 79.7382 54.1109 79.5998 54.0761 79.4767C54.0063 79.2303 54.0632 78.9028 54.2467 78.494C54.4214 78.0544 54.5709 77.8191 54.695 77.7879C54.8589 77.7798 55.1426 77.7251 55.5461 77.6238C55.9806 77.5148 56.3953 77.3942 56.7901 77.2622C57.1848 77.1302 57.4244 77.0371 57.5088 76.9829C57.6156 76.8902 57.7179 76.782 57.8159 76.6585C57.9052 76.5042 57.9504 76.3115 57.9515 76.0804C58.0108 75.7028 58.0633 75.3598 58.109 75.0515C58.146 74.7125 58.2208 74.331 58.3335 73.907C58.4375 73.4522 58.5123 73.0706 58.558 72.7624C58.6348 72.4463 58.7586 72.003 58.9295 71.4325C59.0237 71.178 59.1203 70.8735 59.2194 70.5188C59.3185 70.1642 59.4772 69.8441 59.6955 69.5584C59.9051 69.242 60.154 69.0642 60.442 69.0249C60.7524 68.947 61.197 69.0498 61.7759 69.3332C62.1113 69.5788 62.3164 69.7747 62.391 69.9209C62.4656 70.067 62.4243 70.3907 62.2669 70.8918C62.1668 71.4776 62.0201 72.075 61.8269 72.6841C61.6646 73.2854 61.5179 73.8828 61.3868 74.4764C61.0819 75.2784 61.0977 75.6866 61.4343 75.7011C61.7708 75.7156 62.6224 75.4359 63.9891 74.8621C64.8457 74.4823 65.5105 74.365 65.9837 74.51C66.4482 74.6243 66.7856 74.9354 66.9959 75.4433C67.2981 76.1589 67.3469 76.6248 67.1422 76.841C66.9375 77.0573 66.2454 77.3134 65.066 77.6094C64.3559 77.9194 63.7414 78.1561 63.2225 78.3193C62.6949 78.4517 62.3069 78.549 62.0586 78.6113C61.6638 78.7434 61.4043 78.825 61.2802 78.8561C61.156 78.8873 60.9785 78.9648 60.7477 79.0887C60.5168 79.2126 60.3611 79.3671 60.2805 79.5522C60.2222 79.6987 60.1659 79.9107 60.1115 80.1882C60.0222 80.3425 59.9275 80.7125 59.8273 81.2982C59.7272 81.884 59.5781 82.5315 59.3799 83.2408C59.3114 84.643 59.305 86.0296 59.3607 87.4007C59.4077 88.741 59.508 90.0349 59.6617 91.2825C59.7554 92.0834 59.9235 92.6183 60.1658 92.8873C60.3994 93.1254 60.8509 93.1935 61.5201 93.0916C61.8702 93.0367 62.4134 92.9004 63.1496 92.6827C63.9081 92.4264 64.4872 92.1821 64.8868 91.9499C65.1847 91.7103 65.498 91.4668 65.8269 91.2194C66.1471 90.9412 66.4362 90.6708 66.6943 90.4082C66.93 90.1841 67.1658 89.9601 67.4016 89.736C67.6286 89.4812 67.7421 89.3538 67.7421 89.3538C67.8276 89.0685 67.9765 88.9487 68.1889 88.9943C68.4013 89.04 68.6218 89.232 68.8505 89.5703C68.9551 89.9398 68.9865 90.3441 68.9446 90.7833C68.9027 91.2225 68.4636 91.8439 67.6273 92.6473C66.4746 93.8599 65.3347 94.7066 64.2076 95.1873C63.1027 95.6294 62.1251 95.8747 61.2745 95.9233ZM76.2904 92.65C74.9247 92.9927 73.6636 92.765 72.5069 91.967C71.3415 91.1382 70.5564 89.9502 70.1517 88.4029C69.9 87.2788 69.7817 86.0389 69.7968 84.683C69.8343 83.2886 70.0133 81.9246 70.3339 80.591C70.6458 79.2266 71.0633 78.0006 71.5865 76.913C72.1097 75.8254 72.738 74.9917 73.4715 74.4119C73.7383 74.1801 74.0293 73.9751 74.3446 73.7971C74.6909 73.6113 75.0502 73.4716 75.4227 73.3782C75.7641 73.2925 76.1385 73.2645 76.5458 73.2942C76.9444 73.2931 77.2853 73.323 77.5684 73.3839C78.1571 73.467 78.6347 73.6275 79.0012 73.8653C79.3677 74.1031 79.7511 74.518 80.1513 75.1101C80.4101 75.6717 80.5743 76.0757 80.644 76.3221C80.7137 76.5684 80.7407 76.9573 80.725 77.4889C80.6663 78.6908 80.4554 79.766 80.0923 80.7146C79.7291 81.6631 79.1294 82.5391 78.2931 83.3425C78.0884 83.5588 77.8284 83.7559 77.5131 83.934C77.2202 84.0734 76.903 84.186 76.5616 84.2717C75.9408 84.4274 75.3051 84.4715 74.6543 84.404C74.0259 84.2979 73.4757 84.0567 73.0035 83.6805L72.573 83.3928L72.5379 83.7973C72.4629 84.7066 72.4325 85.5386 72.4467 86.2935C72.492 87.0407 72.5974 87.7067 72.763 88.2917C72.8676 88.6612 72.9989 89.0075 73.1568 89.3306C73.3458 89.646 73.5527 89.9073 73.7777 90.1147C73.9541 90.2683 74.1951 90.3562 74.5005 90.3785C74.8284 90.3622 75.163 90.3112 75.5044 90.2255C75.7216 90.171 75.9389 90.1165 76.1562 90.062C76.3958 89.9689 76.6111 89.8489 76.8022 89.702C77.2776 89.3849 77.6399 89.0796 77.8893 88.7862C78.1697 88.485 78.4458 88.1684 78.7175 87.8364L78.8775 87.6973L78.831 87.7089C79.1511 87.4307 79.4247 87.1642 79.6518 86.9094C79.9099 86.6468 80.0389 86.5155 80.0389 86.5155C80.1631 86.4843 80.2654 86.3762 80.346 86.1911C80.5594 86.0056 80.8829 85.9739 81.3164 86.096C81.7809 86.2103 82.061 86.4367 82.1569 86.7754C82.1694 86.9372 82.0995 87.2186 81.9471 87.6196C81.7859 87.9898 81.5894 88.3524 81.3574 88.7074C81.1565 89.0546 80.9673 89.2669 80.7898 89.3444C80.7675 89.383 80.6763 89.4719 80.5162 89.611C80.3474 89.7193 80.2407 89.812 80.1961 89.8892L80.2426 89.8775C80.0679 90.3171 79.8408 90.5719 79.5615 90.642L79.189 90.7355C79.1259 90.9821 78.7921 91.3297 78.1877 91.7782C77.5746 92.1958 76.9422 92.4864 76.2904 92.65ZM75.5093 81.9635C76.068 81.8233 76.5055 81.5486 76.8218 81.1395C77.1605 80.6918 77.4283 80.2288 77.6254 79.7507C78.0109 78.7636 78.1412 77.8734 78.0164 77.0803C77.914 76.2486 77.664 75.7178 77.2664 75.4877C77.0541 75.4421 76.8703 75.4388 76.7151 75.4777C76.5822 75.4781 76.3315 75.5904 75.9628 75.8149C75.7009 75.9465 75.3783 76.2748 74.995 76.7997C74.6117 77.3246 74.2415 77.8957 73.8843 78.5129C73.5582 79.1224 73.319 79.6276 73.1665 80.0286L72.8358 81.1504C73.058 80.9957 73.2777 80.8911 73.495 80.8366C73.7345 80.7435 73.8786 80.7238 73.927 80.7776C74.0055 81.0547 74.1261 81.3048 74.289 81.5277C74.4741 81.7121 74.6617 81.8464 74.8518 81.9306C75.0729 82.0071 75.292 82.018 75.5093 81.9635ZM89.9078 88.6394C89.1493 88.8957 88.3913 89.0364 87.6339 89.0616C86.9075 89.079 86.2437 88.9652 85.6425 88.7204C85.0636 88.4369 84.6026 88.0414 84.2595 87.5339C83.9203 87.1574 83.7288 86.8921 83.6853 86.7382C83.633 86.5535 83.698 86.3722 83.8804 86.1946C84.1287 86.1323 84.3678 86.1547 84.5976 86.2619C84.8497 86.3306 85.1683 86.399 85.5533 86.4673C86.1321 86.7508 86.7518 86.8261 87.4123 86.6933C88.1039 86.5528 88.6941 86.2893 89.1831 85.9028C89.672 85.5162 89.8952 85.1305 89.8527 84.7454C89.8179 84.6222 89.7103 84.4184 89.53 84.1339C89.3498 83.8493 89.1496 83.5533 88.9296 83.2457C87.7604 82.286 86.8128 81.2871 86.0868 80.2491C85.3832 79.1726 84.9268 78.2648 84.7176 77.5258C84.5607 76.9716 84.5658 76.3438 84.733 75.6423C84.8913 74.91 85.2044 74.2544 85.6721 73.6753C86.0652 72.9501 86.5378 72.2709 87.0899 71.6377C87.642 71.0045 88.2115 70.4329 88.7984 69.9229C89.4164 69.405 89.983 68.9991 90.4981 68.7049C90.8395 68.6192 91.3026 68.5525 91.8875 68.5047C92.4723 68.4569 92.8908 68.4673 93.1429 68.5359C93.5192 68.5734 93.9409 68.8303 94.4082 69.3067C94.8667 69.7522 95.1701 70.2367 95.3182 70.7601C95.3793 70.9757 95.3956 71.2684 95.3673 71.6382C95.3391 72.0081 95.2506 72.459 95.102 72.9909C95.0737 73.3607 95.0256 73.7191 94.9575 74.0659C94.8808 74.382 94.8598 74.6016 94.8947 74.7248C94.8354 75.1024 94.6661 75.3263 94.3867 75.3964C94.1297 75.4279 93.8267 75.3555 93.4776 75.1793C93.1509 74.9645 92.8576 74.6918 92.5978 74.3613C92.3429 73.9306 92.1918 73.5728 92.1444 73.2879C92.0883 72.9722 92.1209 72.6177 92.2423 72.2245C92.4878 71.8001 92.5932 71.5264 92.5583 71.4032C92.5235 71.2801 92.3353 71.2613 91.9939 71.347C91.7766 71.4015 91.4124 71.6413 90.9011 72.0664C90.4121 72.4529 89.9028 72.9435 89.373 73.5381C88.8656 74.0941 88.4444 74.6615 88.1096 75.2402C87.6767 75.9424 87.4331 76.4322 87.3787 76.7097C87.3553 76.9794 87.4177 77.3759 87.5658 77.8994C87.6879 78.3304 87.9335 78.8459 88.3027 79.4458C88.703 80.0378 89.0423 80.4144 89.3206 80.5754C89.3206 80.5754 89.4902 80.7637 89.8295 81.1402C90.1601 81.486 90.5459 81.8508 90.987 82.2348C92.4449 83.9795 93.0786 85.3375 92.8881 86.3086C92.6976 87.2798 91.7042 88.0567 89.9078 88.6394ZM104.995 87.7721C103.927 87.8752 103.12 87.6655 102.573 87.1432C102.066 86.6438 101.731 85.755 101.569 84.4767C101.589 83.8449 101.55 83.2942 101.45 82.8246C101.373 82.3164 101.425 81.9734 101.608 81.7957C101.608 81.7957 101.61 81.7457 101.615 81.6455C101.651 81.5375 101.609 81.4491 101.49 81.3801C101.377 80.9798 101.36 80.3905 101.438 79.6122C101.448 79.4119 101.465 79.1769 101.488 78.9072C101.534 78.599 101.557 78.4448 101.557 78.4448C101.332 78.2375 101.275 78.0373 101.387 77.8444C101.498 77.6515 101.614 77.474 101.735 77.3119C101.877 77.1113 101.845 76.938 101.637 76.7922C101.54 76.6846 101.54 76.3881 101.635 75.9025C101.721 75.3861 101.835 74.8465 101.975 74.2838C102.114 73.7211 102.192 73.2895 102.206 72.989C102.189 72.9274 102.206 72.6924 102.256 72.284C102.307 71.8755 102.371 71.3978 102.449 70.8506C102.527 70.3034 102.602 69.8063 102.675 69.3593C102.779 68.9046 102.844 68.6078 102.872 68.4691C103.138 68.2372 102.984 68.1606 102.408 68.2392C101.832 68.3178 101.237 68.4504 100.625 68.637C99.6545 68.8476 98.8655 68.9961 98.2584 69.0825C97.6823 69.1611 97.1775 69.1394 96.744 69.0173C96.2495 68.6797 96.0227 68.4069 96.0635 68.1988C96.1267 67.9521 96.4643 67.7355 97.0763 67.5489C97.4711 67.4169 97.7771 67.3236 97.9944 67.2691C98.2427 67.2068 98.5487 67.1135 98.9124 66.9892C99.2985 66.8264 99.8975 66.5937 100.709 66.291L103.031 65.5105L102.949 64.6903C103.084 64.2277 103.185 63.823 103.253 63.4761C103.344 63.0907 103.403 62.7131 103.431 62.3432C103.46 61.9734 103.453 61.5959 103.41 61.2109C103.41 61.2109 103.48 60.9295 103.62 60.3668C103.751 59.7732 103.769 59.1916 103.674 58.6218C103.873 57.9125 104.042 57.2765 104.181 56.7138C104.313 56.1202 104.392 55.7541 104.419 55.6154C104.682 55.2526 104.876 55.0556 105 55.0245C105.155 54.9855 105.509 55.0616 106.062 55.2527C106.385 55.3365 106.685 55.459 106.963 55.62C107.242 55.781 107.447 55.9769 107.578 56.2076C107.702 56.4076 107.669 56.6465 107.482 56.9243C107.455 57.063 107.427 57.3173 107.399 57.6872C107.362 58.0262 107.343 58.3113 107.342 58.5424C107.217 58.8047 107.084 59.2172 106.944 59.7799C106.827 60.3041 106.791 60.8242 106.837 61.3402C106.737 61.9259 106.639 62.4616 106.544 62.9472C106.44 63.4019 106.326 63.6449 106.202 63.6761C106.351 63.9684 106.581 64.0756 106.891 63.9977C107.193 63.8891 107.697 63.7298 108.402 63.5198C108.974 63.3103 109.36 63.1475 109.56 63.0314C109.782 62.8767 110.07 62.8374 110.424 62.9134C110.64 63.09 110.834 63.3052 111.006 63.559C111.177 63.8127 111.267 64.0705 111.274 64.3324C111.304 64.5557 111.224 64.7408 111.033 64.8877C110.878 64.9267 110.578 65.1008 110.134 65.4102C109.712 65.681 109.148 65.9213 108.443 66.1312L106.041 66.9813L105.694 68.7502C105.59 69.205 105.508 69.6212 105.449 69.9989C105.381 70.3457 105.324 70.5577 105.28 70.6349C105.332 70.8196 105.302 71.124 105.189 71.548C105.108 71.9642 105.019 72.4151 104.924 72.9007C104.886 73.4708 104.804 74.0026 104.677 74.496C104.582 74.9816 104.534 75.2243 104.534 75.2243C104.41 75.2555 104.374 75.3634 104.427 75.5482C104.686 75.8787 104.718 76.1675 104.522 76.4146C104.393 76.5459 104.293 76.7195 104.221 76.9354C104.171 77.1127 104.147 77.2014 104.147 77.2014C104.306 77.2934 104.365 77.4434 104.324 77.6515C104.314 77.8518 104.278 78.0753 104.215 78.322C104.284 78.5684 104.307 78.9419 104.282 79.4427C104.289 79.9357 104.271 80.4018 104.23 80.841C104.417 81.3875 104.549 81.7338 104.623 81.8799C104.698 82.0261 104.793 82.0682 104.908 82.0063C105.072 81.9981 105.212 81.9631 105.327 81.9011C105.443 81.8392 105.563 81.7926 105.687 81.7615C106.069 81.4677 106.141 82.6038 105.904 85.1697C105.625 86.0641 105.44 86.704 105.35 87.0894C105.268 87.5056 105.15 87.7332 104.995 87.7721ZM125.294 82.5795C124.922 82.6729 124.555 82.5507 124.193 82.2127C123.954 82.0747 123.756 81.8441 123.598 81.521C123.48 81.2209 123.427 80.624 123.44 79.7304C123.445 78.8059 123.493 77.3922 123.586 75.4892C123.565 74.2413 123.574 73.3322 123.612 72.7621C123.641 72.1611 123.621 71.7375 123.552 71.4912C123.456 71.1525 123.408 70.8676 123.409 70.6365C123.433 70.3668 123.414 70.1242 123.353 69.9086C123.539 69.8619 123.677 69.6458 123.768 69.2604C123.858 68.875 123.883 68.3742 123.841 67.758C123.817 67.2034 123.808 66.7605 123.814 66.4292C123.842 66.0594 123.839 65.8129 123.804 65.6897C123.89 65.4045 123.936 64.9806 123.943 64.4183C123.981 63.8481 124.082 63.1468 124.245 62.3144C124.232 61.3284 124.241 60.3038 124.272 59.2406C124.295 58.1467 124.34 57.1297 124.406 56.1897C124.495 55.2111 124.578 54.4482 124.656 53.901C124.727 52.8609 124.803 52.1327 124.885 51.7165C124.958 51.2695 124.884 51.0077 124.663 50.9313C124.402 50.8319 124.281 50.5818 124.301 50.1812C124.321 49.7806 124.544 49.2792 124.972 48.6772C125.2 48.1912 125.417 47.8401 125.621 47.6239C125.817 47.3768 126.102 47.2066 126.474 47.1131C126.878 47.0119 127.461 46.8986 128.223 46.7732C128.79 46.6638 129.384 46.5313 130.005 46.3755C130.657 46.2119 131.06 46.1107 131.216 46.0717C131.53 46.1248 131.91 46.1777 132.358 46.2304C132.796 46.2523 133.188 46.2859 133.533 46.3312C133.909 46.3687 134.11 46.4336 134.137 46.526C134.189 46.7107 134.286 46.8183 134.427 46.8487C134.591 46.8406 134.755 46.8324 134.919 46.8243C135.136 46.7698 135.479 46.8651 135.947 47.1104C136.407 47.3248 136.908 47.6277 137.451 48.0191C137.986 48.3797 138.435 48.7945 138.801 49.2634C139.197 49.7245 139.523 50.1704 139.778 50.6011C140.064 51.024 140.251 51.686 140.34 52.5871C140.44 53.0567 140.493 53.5381 140.499 54.0311C140.537 54.5163 140.516 54.8515 140.435 55.0366C140.284 55.2065 140.156 55.4032 140.054 55.6269C139.951 55.8506 139.921 56.0394 139.965 56.1934C139.999 56.3165 139.961 56.5901 139.848 57.0141C139.726 57.4073 139.56 57.8777 139.35 58.4252C139.139 58.9727 138.897 59.5281 138.625 60.0912C138.352 60.6543 138.077 61.1519 137.801 61.584C137.537 62.1779 137.186 62.7605 136.75 63.3318C136.344 63.8952 135.963 64.37 135.607 64.7562C134.905 65.3282 134.109 65.9235 133.22 66.5422C132.363 67.1531 131.519 67.6947 130.688 68.1669C129.889 68.6313 129.19 68.9221 128.592 69.0392C127.727 69.3883 127.172 69.6594 126.927 69.8527C126.705 70.0073 126.593 70.3158 126.591 70.778C126.549 71.2172 126.511 71.6718 126.478 72.1418C126.467 72.5732 126.484 72.8659 126.527 73.0199C126.5 73.1586 126.454 73.5824 126.389 74.2913C126.346 74.9617 126.302 75.7475 126.258 76.649C126.245 77.5426 126.228 78.4209 126.206 79.2837C126.184 80.1466 126.186 80.8553 126.21 81.4099C126.207 81.8721 126.122 82.1574 125.953 82.2657C125.793 82.4048 125.573 82.5094 125.294 82.5795ZM127.014 66.8134C127.173 66.9054 127.659 66.8001 128.471 66.4974C129.283 66.1948 130.117 65.738 130.975 65.127C131.535 64.7557 132.081 64.3383 132.615 63.8746C133.18 63.4031 133.704 62.9087 134.19 62.3912C134.439 62.0978 134.796 61.5961 135.259 60.8861C135.723 60.1761 136.157 59.3584 136.56 58.4328C136.609 58.2555 136.681 57.9241 136.777 57.4385C136.894 56.9143 136.99 56.4288 137.062 55.9818C137.22 55.4806 137.32 54.7793 137.364 53.8779C137.4 52.9456 137.261 52.2219 136.949 51.7066C136.568 50.945 135.955 50.3073 135.111 49.7935C134.259 49.2488 133.348 48.9663 132.378 48.9458C131.661 48.994 131.069 49.0765 130.603 49.1933C130.169 49.3024 129.701 49.4693 129.199 49.6941C128.746 49.9726 128.435 50.2816 128.265 50.621C128.126 50.9527 127.997 51.6117 127.877 52.598C127.782 53.0836 127.659 53.8235 127.508 54.8177C127.349 55.781 127.238 56.6826 127.177 57.5225C127.193 59.6948 127.11 61.5131 126.926 62.9773C126.764 64.4029 126.669 65.3006 126.641 65.6704C126.768 66.0013 126.822 66.2515 126.804 66.4211C126.776 66.5598 126.847 66.6906 127.014 66.8134ZM147.692 74.2879C147.298 74.42 146.963 74.4709 146.688 74.4409C146.405 74.38 146.047 74.2886 145.614 74.1665C144.783 73.8144 144.122 73.4195 143.633 72.9817C143.165 72.5054 142.873 72.0016 142.756 71.4704C142.74 71.1777 142.67 70.9314 142.547 70.7314C142.455 70.5237 142.409 70.4198 142.409 70.4198C142.179 70.3126 142.091 70.2358 142.144 70.1894C142.189 70.1122 142.209 70.0082 142.205 69.8772C142.436 69.7534 142.419 69.5762 142.155 69.3458C141.992 69.1229 141.882 68.557 141.824 67.6481C141.788 66.7007 141.832 65.7992 141.956 64.9438C142.015 64.5662 142.106 64.0652 142.228 63.4409C142.382 62.8088 142.567 62.1689 142.782 61.5212C142.989 60.8427 143.2 60.2952 143.414 59.8786C143.879 58.9375 144.323 58.216 144.746 57.7142C145.192 57.1737 145.721 56.6946 146.334 56.277C146.885 55.8749 147.296 55.6234 147.566 55.5225C147.837 55.4216 148.277 55.509 148.887 55.7847C149.693 55.8133 150.339 55.981 150.825 56.2878C151.333 56.556 151.809 57.0632 152.253 57.8092C152.754 58.6398 153.132 59.6826 153.387 60.9376C153.665 62.154 153.578 63.8413 153.125 65.9995C152.875 67.3483 152.542 68.4046 152.127 69.1684C151.743 69.9244 151.243 70.7423 150.628 71.6222C150.177 72.2628 149.743 72.784 149.325 73.1857C148.907 73.5874 148.363 73.9548 147.692 74.2879ZM149.861 67.8573C150.22 66.7778 150.462 65.8103 150.585 64.9549C150.731 64.0609 150.743 62.9862 150.62 61.7309C150.586 61.3766 150.484 60.9571 150.314 60.4722C150.135 59.9566 149.922 59.4988 149.676 59.0989C149.461 58.6912 149.256 58.4953 149.061 58.5112C148.614 58.4585 148.163 58.5715 147.71 58.85C147.249 59.0978 146.81 59.6036 146.395 60.3674C146.041 61.1156 145.756 61.9291 145.54 62.8079C145.354 63.6789 145.221 64.6191 145.141 65.6284C145.061 66.6378 145.014 67.7049 145 68.8296C145.021 70.0775 145.29 70.9666 145.805 71.4967C146.352 72.019 147.001 72.0211 147.752 71.5029C148.494 70.954 149.197 69.7387 149.861 67.8573ZM161.055 71.4296C160.395 71.3312 159.745 71.1481 159.104 70.8802C158.454 70.5816 158.013 70.3132 157.779 70.075C157.701 69.7979 157.695 69.6014 157.762 69.4857C157.82 69.3392 158.071 69.2268 158.514 69.1486C158.98 69.0317 159.742 68.9064 160.801 68.7725C161.174 68.6791 161.631 68.5315 162.172 68.3297C162.713 68.1279 163.199 67.907 163.63 67.6671C164.091 67.4193 164.327 67.1952 164.337 66.9949C164.492 66.956 164.51 66.902 164.391 66.833C164.263 66.7332 164.119 66.6373 163.96 66.5453C163.836 66.5765 163.684 66.5653 163.502 66.5119C163.312 66.4277 163.155 66.4011 163.031 66.4323C162.987 66.2783 162.784 66.1479 162.422 66.0411C162.081 65.8956 161.738 65.8003 161.393 65.755C160.553 65.3721 159.824 65.0274 159.206 64.721C158.578 64.3838 158.305 64.1226 158.385 63.9375C158.351 63.8143 158.333 63.7527 158.333 63.7527C158.324 63.7219 158.32 63.7066 158.32 63.7066C158.103 63.7611 157.767 63.5155 157.314 62.9698C156.891 62.4163 156.61 61.8932 156.471 61.4006C156.366 61.0311 156.344 60.542 156.404 59.9332C156.456 59.2937 156.581 58.6193 156.779 57.91C156.977 57.2008 157.221 56.5954 157.512 56.0938C157.922 55.4302 158.464 54.7008 159.136 53.9055C159.8 53.0794 160.47 52.3341 161.146 51.6698C161.844 50.9669 162.451 50.4683 162.966 50.1742C163.464 49.8185 163.946 49.5822 164.411 49.4654C164.908 49.3408 165.373 49.3395 165.806 49.4616C166.16 49.5376 166.505 49.6985 166.84 49.9441C167.198 50.1511 167.514 50.3852 167.787 50.6463C168.083 50.8689 168.292 51.0802 168.415 51.2802C168.52 51.6497 168.607 52.0731 168.675 52.5505C168.735 52.9972 168.751 53.4054 168.723 53.7753C168.726 54.1373 168.618 54.3456 168.401 54.4001C168.401 54.4001 168.359 54.4272 168.274 54.4814C168.212 54.4969 168.203 54.5817 168.247 54.7357C168.334 55.0436 168.201 55.4561 167.849 55.9732C167.373 56.5214 166.93 56.8962 166.522 57.0976C166.105 57.2683 165.793 57.1651 165.587 56.7882C165.459 56.6884 165.366 56.5962 165.309 56.5116C165.252 56.4271 165.161 56.4003 165.037 56.4315C165.037 56.4315 164.977 56.397 164.858 56.328C164.739 56.259 164.649 56.1167 164.588 55.9012C164.553 55.778 164.569 55.6586 164.636 55.5428C164.694 55.3963 164.723 55.323 164.723 55.323C164.878 55.2841 165.032 55.0641 165.184 54.6631C165.328 54.2313 165.437 53.792 165.509 53.3449C165.605 52.8594 165.631 52.5396 165.587 52.3856C165.535 52.2009 165.473 52.1009 165.402 52.0857C165.363 52.0627 165.219 52.0824 164.97 52.1447C164.588 52.4384 164.13 52.8172 163.596 53.2808C163.063 53.7445 162.56 54.2004 162.089 54.6485C161.64 55.058 161.326 55.4171 161.147 55.7257C161.084 55.9724 161.046 56.1304 161.032 56.1998C161.01 56.2384 160.936 56.2732 160.812 56.3044C160.777 56.1812 160.686 56.2701 160.539 56.5709C160.413 56.8332 160.252 57.2034 160.055 57.6815C159.889 58.1519 159.723 58.6223 159.557 59.0926C159.413 59.5244 159.306 59.8483 159.234 60.0641C159.189 60.1413 159.164 60.3455 159.158 60.6768C159.174 60.9695 159.217 61.239 159.287 61.4853C159.267 61.8859 159.357 62.1438 159.556 62.2588C159.746 62.343 160.166 62.5344 160.815 62.8331C162.128 63.361 163.169 63.8089 163.938 64.1765C164.707 64.5442 165.295 64.8584 165.701 65.1192C166.107 65.3801 166.381 65.6412 166.521 65.9028C167.341 66.6863 167.712 67.3516 167.635 67.8988C167.557 68.4459 167.151 69.0094 166.418 69.5892C166.151 69.821 165.674 70.0727 164.986 70.3442C164.298 70.6157 163.582 70.8449 162.837 71.0318C162.101 71.2495 161.507 71.3821 161.055 71.4296ZM178.504 66.7542C178.035 66.74 177.639 66.691 177.316 66.6072C176.984 66.4925 176.529 66.2935 175.95 66.01C175.438 65.6109 175.013 65.223 174.673 64.8464C174.365 64.4621 174.101 64.0006 173.882 63.462C173.655 62.8925 173.415 62.1614 173.162 61.2684C173.057 60.899 172.962 60.3292 172.877 59.559C172.823 58.7811 172.776 57.9685 172.736 57.1213C172.718 56.2354 172.695 55.4497 172.667 54.7642C172.67 54.0709 172.661 53.6279 172.64 53.4354C172.62 53.0118 172.399 52.8198 171.978 52.8594C171.557 52.8991 171.103 52.9966 170.615 53.152C170.149 53.2689 169.826 53.3006 169.645 53.2471C169.512 53.2475 169.437 53.2169 169.419 53.1553C169.393 53.0629 169.38 53.0168 169.38 53.0168C169.345 52.8936 169.308 52.8205 169.268 52.7975C169.251 52.7359 169.174 52.6398 169.037 52.5093C168.94 52.4017 168.923 52.2245 168.986 51.9779C169.072 51.6926 169.276 51.4763 169.6 51.3291C169.862 51.1974 170.222 51.0578 170.679 50.9101C171.158 50.724 171.624 50.4916 172.077 50.213C172.521 49.9037 172.846 49.5253 173.052 49.0779C173.14 48.3305 173.252 47.4943 173.389 46.5695C173.526 45.6447 173.674 44.8162 173.832 44.0839C174.013 43.3131 174.144 42.8351 174.224 42.65C174.674 42.2405 175.031 42.0354 175.297 42.0346C175.554 42.0031 175.907 42.1947 176.357 42.6095C176.573 42.7861 176.73 42.9282 176.827 43.0358C176.955 43.1356 177.022 43.3164 177.03 43.5783C177.038 43.8402 176.976 44.2679 176.845 44.8615C176.745 45.4472 176.57 46.2989 176.322 47.4166C176.253 47.7634 176.192 48.0756 176.138 48.3531C176.075 48.5998 176.043 48.7231 176.043 48.7231C176.176 48.7227 176.367 48.6914 176.615 48.6291C176.863 48.5668 177.169 48.4735 177.533 48.3493C177.857 48.202 178.278 48.0468 178.797 47.8836C179.307 47.6896 179.727 47.5845 180.054 47.5682C180.768 47.389 181.335 47.3952 181.755 47.5866C182.166 47.7473 182.474 48.1316 182.68 48.7396C182.838 49.0628 182.817 49.2824 182.617 49.3985C182.448 49.5068 181.945 49.6661 181.107 49.8764C180.827 49.9464 180.397 50.0709 179.816 50.2496C179.235 50.4284 178.623 50.615 177.98 50.8093C177.368 50.9959 176.838 51.1784 176.39 51.3568C175.964 51.4966 175.76 51.5973 175.777 51.6589C175.701 51.7438 175.629 52.0753 175.56 52.6532C175.522 53.2234 175.49 53.8744 175.465 54.6063C175.461 55.2996 175.456 55.9275 175.449 56.4899C175.528 57.5913 175.654 58.681 175.826 59.759C176.029 60.8292 176.271 61.7414 176.551 62.4956C176.831 63.2498 177.154 63.7458 177.521 63.9836C177.878 64.1906 178.439 64.1159 179.202 63.7594C179.957 63.3722 180.526 62.9161 180.909 62.3913C181.337 61.7892 181.722 61.4454 182.063 61.3597C182.436 61.2662 182.685 61.3849 182.812 61.7158C182.962 62.0082 182.917 62.4975 182.679 63.1837C182.464 63.8314 182.138 64.4409 181.701 65.0121C181.256 65.5526 180.749 65.9931 180.18 66.3336C179.634 66.6355 179.075 66.7757 178.504 66.7542ZM190.905 63.0489C189.353 63.4383 188.063 63.1684 187.035 62.2391C186.731 61.9857 186.535 61.705 186.448 61.3971C186.383 61.0507 186.411 60.7964 186.531 60.6343C186.683 60.4644 186.93 60.5176 187.275 60.794C187.779 60.9313 188.434 60.8987 189.241 60.6962C189.645 60.5949 190.055 60.459 190.472 60.2884C190.881 60.087 191.28 59.8548 191.671 59.5918C192.076 59.2595 192.334 58.9968 192.446 58.8039C192.548 58.5803 192.474 58.4341 192.222 58.3654L192.268 58.3538C191.4 58.3407 190.482 58.2084 189.513 57.9569C188.567 57.6667 187.72 57.3185 186.974 56.9123C186.218 56.4752 185.729 56.0375 185.505 55.599C184.986 54.7068 184.774 53.7213 184.867 52.6426C184.952 51.533 185.227 50.5077 185.692 49.5666C185.897 49.3504 186.155 49.0877 186.466 48.7787C186.769 48.439 187.025 48.2264 187.233 48.1411L187.246 48.1873C187.662 47.4235 188.236 46.7517 188.97 46.172C189.734 45.5844 190.554 45.016 191.429 44.4666L192.101 44.199C192.456 44.044 192.758 43.9353 193.006 43.873C192.975 43.8808 193.046 43.896 193.218 43.9186C193.382 43.9105 193.531 43.9062 193.664 43.9059C193.876 43.9515 194.044 43.9587 194.168 43.9276C194.589 43.8879 195.014 43.9792 195.443 44.2014C195.871 44.4237 196.24 44.727 196.548 45.1113C196.878 45.457 197.065 45.8225 197.107 46.2075C197.211 46.8081 197.173 47.3783 196.993 47.918C196.845 48.45 196.577 48.7973 196.191 48.9602C196.245 48.9138 196.185 48.8793 196.012 48.8567C195.862 48.7954 195.696 48.7381 195.515 48.6847L195.401 48.8121C195.401 48.8121 195.377 48.7852 195.329 48.7314C195.303 48.639 195.241 48.5391 195.144 48.4315C194.999 48.2701 194.895 48.0817 194.834 47.8661C194.765 47.6198 194.706 47.3542 194.659 47.0693C194.625 46.715 194.568 46.5149 194.489 46.4689C194.44 46.4151 194.226 46.4195 193.844 46.4822C193.384 46.4989 192.769 46.7355 192.001 47.1921C191.264 47.6409 190.677 48.151 190.24 48.7222C189.679 49.3246 189.223 49.8844 188.87 50.4015C188.509 50.8878 188.242 51.3507 188.067 51.7903C187.883 52.1991 187.748 52.6617 187.662 53.178C187.568 53.4325 187.489 53.6831 187.426 53.9298C187.385 54.1379 187.386 54.3189 187.43 54.4729C187.526 54.8115 187.874 55.1033 188.476 55.3482C189.099 55.5545 189.988 55.7601 191.143 55.9649C192.046 56.1011 192.834 56.2992 193.506 56.5593C194.178 56.8194 194.696 57.1839 195.062 57.6528C195.159 57.7604 195.218 57.9105 195.239 58.103C195.283 58.2569 195.282 58.3725 195.237 58.4497C195.317 58.4957 195.361 58.5341 195.37 58.5648L195.357 58.5187C195.71 58.8258 195.818 59.2107 195.683 59.6733C195.58 60.1281 195.292 60.5795 194.82 61.0276C194.371 61.4371 193.78 61.8162 193.048 62.1649L193.094 62.1532C192.726 62.3776 192.348 62.5712 191.962 62.734C191.599 62.8583 191.246 62.9633 190.905 63.0489Z" fill="black"/>
</svg>
