<svg width="182" height="112" viewBox="0 0 182 112" fill="none" xmlns="http://www.w3.org/2000/svg">
<path d="M110.355 39.7641C115.518 36.4105 122.594 39.532 127.658 41.433C136.149 44.6186 143.972 49.8292 150.42 56.5196C160.776 67.2656 166.94 81.6348 168.842 96.9752C169.537 94.5138 170.232 92.0503 170.927 89.5869C171.544 87.398 174.713 87.9367 174.168 90.2134C172.651 96.5286 171.126 102.844 169.6 109.16C169.225 110.71 167.446 111.119 166.581 109.872C162.059 103.361 157.491 96.8799 153.041 90.3066C151.824 88.5107 154.503 86.5684 155.744 88.3094C159.227 93.1904 162.646 98.1269 166.066 103.059C165.341 88.9282 161.117 75.5336 152.963 64.4945C147.949 57.7055 141.719 52.0942 134.651 47.927C129.032 44.6146 117.44 37.7328 111.019 41.2293C110.23 41.66 109.598 40.2543 110.355 39.7641Z" fill="#040606"/>
<path d="M30.3698 71.7926C29.9974 71.886 29.6303 71.7638 29.2687 71.4258C29.0302 71.2878 28.832 71.0573 28.674 70.7341C28.5558 70.434 28.5032 69.8371 28.5162 68.9435C28.5205 68.0191 28.5691 66.6053 28.662 64.7023C28.6412 63.4544 28.6498 62.5454 28.6879 61.9752C28.7172 61.3742 28.697 60.9506 28.6273 60.7043C28.5314 60.3656 28.484 60.0807 28.4851 59.8496C28.5085 59.5799 28.4897 59.3373 28.4287 59.1218C28.6149 59.075 28.7532 58.859 28.8435 58.4735C28.9339 58.0881 28.9584 57.5873 28.9169 56.9711C28.8929 56.4166 28.8839 55.9736 28.8898 55.6424C28.9181 55.2725 28.9148 55.026 28.88 54.9029C28.9654 54.6176 29.0117 54.1938 29.0187 53.6314C29.0567 53.0612 29.1574 52.3599 29.3207 51.5275C29.3075 50.5415 29.3167 49.5169 29.3482 48.4537C29.3709 47.3598 29.4155 46.3428 29.4818 45.4028C29.5705 44.4242 29.6537 43.6613 29.7316 43.1141C29.8028 42.074 29.8792 41.3458 29.9609 40.9296C30.0338 40.4826 29.9597 40.2209 29.7386 40.1444C29.4778 40.045 29.3571 39.795 29.3767 39.3943C29.3963 38.9937 29.62 38.4923 30.048 37.8903C30.2761 37.4044 30.4925 37.0533 30.6972 36.837C30.8932 36.59 31.1775 36.4197 31.5499 36.3262C31.9534 36.225 32.5363 36.1117 33.2987 35.9864C33.8661 35.877 34.4601 35.7444 35.0809 35.5886C35.7327 35.4251 36.1362 35.3238 36.2914 35.2849C36.6056 35.3379 36.9862 35.3908 37.4333 35.4435C37.8716 35.4654 38.2634 35.499 38.6087 35.5443C38.9849 35.5818 39.1861 35.6467 39.2123 35.7391C39.2646 35.9238 39.3615 36.0314 39.5031 36.0619C39.667 36.0537 39.8309 36.0455 39.9948 36.0374C40.2121 35.9829 40.5549 36.0782 41.0232 36.3235C41.4828 36.5379 41.9841 36.8408 42.527 37.2322C43.0612 37.5928 43.5111 38.0076 43.8765 38.4765C44.273 38.9376 44.5986 39.3836 44.8535 39.8143C45.1394 40.2372 45.3268 40.8992 45.4157 41.8002C45.5154 42.2699 45.5685 42.7512 45.5751 43.2442C45.6127 43.7294 45.5912 44.0646 45.5107 44.2497C45.3593 44.4196 45.2322 44.6164 45.1293 44.84C45.0264 45.0637 44.9967 45.2525 45.0403 45.4065C45.0752 45.5297 45.0363 45.8032 44.9236 46.2272C44.8022 46.6205 44.6361 47.0908 44.4255 47.6383C44.2148 48.1859 43.9731 48.7412 43.7003 49.3043C43.4275 49.8674 43.1529 50.365 42.8763 50.7972C42.6122 51.3911 42.2619 51.9736 41.8252 52.5449C41.4196 53.1083 41.0388 53.5832 40.6827 53.9693C39.9803 54.5413 39.1848 55.1366 38.2961 55.7553C37.4386 56.3663 36.5946 56.9078 35.7642 57.38C34.9649 57.8444 34.266 58.1352 33.6676 58.2524C32.8023 58.6014 32.2475 58.8725 32.003 59.0658C31.7808 59.2205 31.6687 59.5289 31.6666 59.9911C31.6247 60.4303 31.5871 60.8849 31.554 61.3549C31.5431 61.7864 31.5595 62.0791 31.6031 62.233C31.5759 62.3717 31.5296 62.7956 31.4643 63.5045C31.4214 64.1748 31.3779 64.9607 31.3339 65.8621C31.3209 66.7557 31.3036 67.634 31.2819 68.4968C31.2602 69.3597 31.2613 70.0684 31.2853 70.623C31.2832 71.0852 31.1977 71.3705 31.0289 71.4788C30.8689 71.6179 30.6491 71.7225 30.3698 71.7926ZM32.0901 56.0265C32.2491 56.1185 32.7346 56.0132 33.5464 55.7105C34.3583 55.4079 35.193 54.9511 36.0506 54.3402C36.6104 53.9689 37.157 53.5514 37.6906 53.0877C38.2553 52.6163 38.7802 52.1218 39.2653 51.6043C39.5147 51.3109 39.8713 50.8092 40.3352 50.0992C40.799 49.3892 41.2324 48.5715 41.6353 47.646C41.6848 47.4686 41.7572 47.1372 41.8524 46.6516C41.97 46.1275 42.0653 45.6419 42.1382 45.1949C42.2955 44.6937 42.3962 43.9924 42.4402 43.091C42.4755 42.1588 42.3371 41.435 42.025 40.9197C41.6432 40.1581 41.0306 39.5204 40.1871 39.0066C39.3348 38.462 38.4238 38.1794 37.4539 38.159C36.7363 38.2071 36.1446 38.2896 35.6791 38.4065C35.2445 38.5155 34.7765 38.6824 34.275 38.9072C33.822 39.1857 33.5105 39.4947 33.3407 39.8342C33.2019 40.1658 33.0726 40.8248 32.9529 41.8112C32.8577 42.2967 32.7347 43.0366 32.5839 44.0308C32.4245 44.9942 32.314 45.8958 32.2526 46.7356C32.2691 48.908 32.1854 50.7262 32.0015 52.1904C31.8399 53.616 31.745 54.5137 31.7167 54.8835C31.8436 55.2145 31.8978 55.4647 31.8793 55.6342C31.8521 55.7729 31.9224 55.9037 32.0901 56.0265ZM51.1606 63.4592C50.7571 63.5605 50.4094 63.5653 50.1175 63.4736C49.8567 63.3742 49.5163 63.2287 49.0965 63.0373C48.3325 62.5695 47.7479 62.0896 47.3427 61.5977C46.9288 61.075 46.6943 60.5402 46.6393 59.9934C46.6626 59.7237 46.6283 59.485 46.5363 59.2773C46.4665 59.031 46.4317 58.9078 46.4317 58.9078C46.2329 58.7928 46.1602 58.7121 46.2136 58.6657C46.2582 58.5886 46.2941 58.4806 46.3214 58.3419C46.5076 58.2952 46.5217 58.1102 46.3638 57.7871C46.232 57.5564 46.2036 56.9864 46.2787 56.0772C46.3537 55.168 46.5194 54.2854 46.7758 53.4297C46.8749 53.075 47.0409 52.6047 47.274 52.0186C47.4982 51.4017 47.7579 50.7924 48.053 50.1907C48.3704 49.5504 48.6718 49.0296 48.9571 48.6283C49.55 47.787 50.0977 47.1384 50.6003 46.6825C51.1028 46.2266 51.6737 45.836 52.313 45.5107C52.9522 45.1854 53.396 44.9916 53.6443 44.9293C53.9237 44.8592 54.3658 45.0121 54.9709 45.3879C55.7719 45.5167 56.3886 45.7577 56.821 46.1108C57.2844 46.4562 57.6804 47.0329 58.0088 47.8409C58.3634 48.7412 58.5865 49.823 58.6781 51.0861C58.792 52.3106 58.4766 53.9562 57.7319 56.0228C57.2697 57.3259 56.7911 58.3364 56.2962 59.0542C55.7926 59.7412 55.1648 60.4593 54.4129 61.2086C53.8831 61.8032 53.3849 62.2745 52.9183 62.6224C52.4429 62.9396 51.857 63.2185 51.1606 63.4592ZM54.2443 57.442C54.7538 56.4238 55.1213 55.4907 55.3467 54.6427C55.6031 53.7869 55.7718 52.7387 55.8528 51.4982C55.8811 51.1284 55.841 50.6933 55.7326 50.1928C55.6155 49.6616 55.4648 49.1883 55.2808 48.7728C55.119 48.3187 54.9363 48.0842 54.7326 48.0694C54.2992 47.9473 53.8317 47.9987 53.3302 48.2234C52.82 48.4174 52.3286 48.854 51.856 49.5332C51.1204 50.5752 50.5656 51.7862 50.1917 53.1661C49.809 54.5153 49.4898 56.0299 49.234 57.7099C49.0822 58.9352 49.2263 59.8554 49.6664 60.4705C50.1287 61.047 50.7683 61.1338 51.5851 60.731C52.4242 60.2896 53.3105 59.1933 54.2443 57.442ZM66.1305 60.6427C65.471 60.5443 64.8208 60.3612 64.1799 60.0934C63.5302 59.7947 63.0886 59.5263 62.8549 59.2881C62.7765 59.011 62.7708 58.8146 62.8377 58.6988C62.896 58.5523 63.1467 58.4399 63.59 58.3617C64.0555 58.2448 64.8179 58.1195 65.877 57.9857C66.2494 57.8922 66.7063 57.7446 67.2475 57.5428C67.7888 57.341 68.2748 57.1202 68.7055 56.8802C69.1672 56.6324 69.403 56.4084 69.4128 56.208C69.5679 56.1691 69.5859 56.1151 69.4667 56.0461C69.3387 55.9463 69.1952 55.8504 69.0362 55.7584C68.912 55.7896 68.7593 55.7784 68.5779 55.725C68.3879 55.6408 68.2308 55.6142 68.1066 55.6454C68.0631 55.4915 67.8599 55.361 67.4973 55.2542C67.1569 55.1088 66.8141 55.0134 66.4689 54.9681C65.6292 54.5852 64.9 54.2406 64.2814 53.9341C63.654 53.5969 63.3807 53.3357 63.4612 53.1506C63.4264 53.0274 63.4089 52.9659 63.4089 52.9659C63.4002 52.9351 63.3959 52.9197 63.3959 52.9197C63.1786 52.9742 62.8431 52.7286 62.3895 52.1829C61.9669 51.6294 61.6859 51.1063 61.5464 50.6137C61.4418 50.2442 61.4197 49.7551 61.4801 49.1463C61.5318 48.5068 61.6567 47.8324 61.8548 47.1231C62.053 46.4139 62.2971 45.8085 62.5873 45.307C62.9978 44.6433 63.5393 43.9139 64.2117 43.1186C64.8754 42.2925 65.5454 41.5473 66.2217 40.8829C66.9202 40.18 67.5271 39.6815 68.0422 39.3873C68.5398 39.0316 69.0215 38.7953 69.487 38.6785C69.9836 38.5539 70.4487 38.5526 70.8821 38.6747C71.2361 38.7508 71.5808 38.9116 71.9162 39.1572C72.274 39.3642 72.5896 39.5983 72.863 39.8595C73.1587 40.0821 73.3681 40.2933 73.4912 40.4933C73.5958 40.8628 73.6824 41.2862 73.751 41.7637C73.811 42.2103 73.8268 42.6185 73.7985 42.9884C73.8013 43.3504 73.694 43.5587 73.4768 43.6133C73.4768 43.6133 73.4346 43.6403 73.3502 43.6945C73.2881 43.7101 73.2788 43.7948 73.3224 43.9488C73.4096 44.2567 73.277 44.6692 72.9248 45.1863C72.4483 45.7345 72.0059 46.1094 71.5976 46.3108C71.1805 46.4814 70.8687 46.3782 70.6623 46.0013C70.5343 45.9015 70.4417 45.8093 70.3846 45.7248C70.3274 45.6402 70.2367 45.6135 70.1126 45.6446C70.1126 45.6446 70.0529 45.6101 69.9337 45.5411C69.8144 45.4721 69.7243 45.3298 69.6633 45.1143C69.6284 44.9911 69.6444 44.8717 69.7114 44.756C69.7697 44.6094 69.7988 44.5362 69.7988 44.5362C69.954 44.4972 70.1078 44.2773 70.2602 43.8763C70.4039 43.4445 70.5123 43.0051 70.5852 42.5581C70.6804 42.0725 70.7063 41.7527 70.6627 41.5988C70.6104 41.414 70.5488 41.314 70.4781 41.2988C70.4383 41.2758 70.2943 41.2955 70.046 41.3578C69.6637 41.6516 69.2058 42.0303 68.6722 42.494C68.1386 42.9576 67.6361 43.4135 67.1645 43.8616C66.7153 44.2711 66.4014 44.6302 66.2229 44.9388C66.1597 45.1855 66.1214 45.3435 66.1077 45.4129C66.0854 45.4515 66.0122 45.4863 65.888 45.5175C65.8532 45.3943 65.762 45.4832 65.6144 45.784C65.4892 46.0463 65.3281 46.4165 65.131 46.8946C64.965 47.365 64.7989 47.8354 64.6329 48.3057C64.4892 48.7375 64.3814 49.0614 64.3095 49.2773C64.2649 49.3544 64.2396 49.5586 64.2336 49.8899C64.25 50.1826 64.293 50.4521 64.3627 50.6984C64.3432 51.0991 64.4328 51.3569 64.6316 51.4719C64.8216 51.5561 65.2415 51.7475 65.8911 52.0462C67.204 52.5742 68.245 53.022 69.0139 53.3896C69.7828 53.7573 70.3704 54.0716 70.7766 54.3324C71.1829 54.5932 71.4563 54.8543 71.5968 55.1159C72.4169 55.8994 72.7881 56.5647 72.7103 57.1119C72.6325 57.6591 72.2268 58.2225 71.4934 58.8023C71.2266 59.0341 70.7493 59.2858 70.0616 59.5573C69.3739 59.8288 68.6576 60.058 67.9127 60.2449C67.1765 60.4626 66.5824 60.5952 66.1305 60.6427ZM83.58 55.9673C83.1106 55.9532 82.7144 55.9042 82.3915 55.8203C82.0599 55.7057 81.6046 55.5066 81.0258 55.2232C80.5139 54.824 80.0883 54.4361 79.749 54.0596C79.4408 53.6752 79.1772 53.2137 78.9582 52.6751C78.7305 52.1057 78.4903 51.3745 78.2376 50.4816C78.133 50.1121 78.0382 49.5423 77.9532 48.7722C77.8992 47.9942 77.852 47.1817 77.8116 46.3344C77.7936 45.4485 77.7706 44.6628 77.7428 43.9773C77.746 43.284 77.7369 42.841 77.7157 42.6485C77.6955 42.2249 77.4749 42.0329 77.054 42.0726C76.6331 42.1122 76.1787 42.2098 75.6908 42.3652C75.2252 42.482 74.9018 42.5137 74.7204 42.4603C74.5876 42.4606 74.5124 42.43 74.495 42.3684C74.4689 42.2761 74.4558 42.2299 74.4558 42.2299C74.4209 42.1067 74.3836 42.0336 74.3439 42.0106C74.3264 41.949 74.2494 41.853 74.1127 41.7224C74.0157 41.6148 73.9988 41.4377 74.062 41.191C74.1474 40.9057 74.3522 40.6895 74.6762 40.5422C74.9381 40.4105 75.2974 40.2709 75.7543 40.1233C76.2335 39.9371 76.6996 39.7047 77.1526 39.4261C77.5969 39.1168 77.922 38.7384 78.1277 38.291C78.2153 37.5436 78.3277 36.7074 78.4648 35.7826C78.602 34.8578 78.7497 34.0293 78.9081 33.297C79.0888 32.5262 79.2195 32.0482 79.3001 31.8631C79.7493 31.4536 80.1067 31.2485 80.3725 31.2478C80.6295 31.2162 80.9829 31.4079 81.4327 31.8226C81.6489 31.9992 81.8055 32.1413 81.9024 32.2489C82.0304 32.3487 82.0982 32.5295 82.1059 32.7914C82.1135 33.0533 82.0517 33.481 81.9206 34.0746C81.8204 34.6603 81.646 35.512 81.3972 36.6297C81.3292 36.9766 81.268 37.2887 81.2136 37.5662C81.1504 37.8129 81.1188 37.9362 81.1188 37.9362C81.2517 37.9359 81.4423 37.9045 81.6906 37.8422C81.9389 37.7799 82.2449 37.6866 82.6087 37.5624C82.9326 37.4151 83.3541 37.2599 83.873 37.0967C84.3832 36.9027 84.8022 36.7976 85.1301 36.7813C85.8439 36.6022 86.4108 36.6083 86.8306 36.7998C87.2418 36.9604 87.55 37.3447 87.7554 37.9528C87.9133 38.2759 87.8924 38.4955 87.6925 38.6116C87.5237 38.7199 87.0203 38.8792 86.1823 39.0895C85.903 39.1596 85.4728 39.284 84.8918 39.4628C84.3108 39.6415 83.6988 39.8281 83.0557 40.0224C82.4436 40.209 81.9136 40.3915 81.4654 40.5699C81.0396 40.7097 80.8354 40.8104 80.8529 40.872C80.7772 40.9569 80.7048 41.2884 80.6357 41.8663C80.5976 42.4365 80.5658 43.0875 80.5403 43.8194C80.5371 44.5128 80.532 45.1406 80.525 45.703C80.604 46.8044 80.7297 47.8941 80.9018 48.9721C81.105 50.0423 81.3466 50.9545 81.6266 51.7087C81.9066 52.4629 82.2298 52.9589 82.5963 53.1967C82.9541 53.4037 83.5147 53.329 84.2781 52.9726C85.0328 52.5853 85.6017 52.1293 85.9851 51.6044C86.413 51.0023 86.7977 50.6585 87.1391 50.5728C87.5115 50.4793 87.7612 50.5981 87.8881 50.929C88.0374 51.2213 87.993 51.7106 87.7551 52.3968C87.5396 53.0445 87.2134 53.654 86.7768 54.2253C86.3314 54.7657 85.8245 55.2062 85.256 55.5467C84.7099 55.8486 84.1512 55.9888 83.58 55.9673ZM95.9804 52.262C94.4285 52.6515 93.1388 52.3815 92.1111 51.4522C91.8067 51.1988 91.6109 50.9182 91.5238 50.6103C91.459 50.2638 91.4867 50.0095 91.607 49.8474C91.7584 49.6775 92.0062 49.7307 92.3503 50.0071C92.8546 50.1444 93.5102 50.1118 94.3172 49.9093C94.7207 49.8081 95.131 49.6721 95.5481 49.5015C95.9564 49.3001 96.3561 49.0679 96.7471 48.8049C97.1516 48.4726 97.4097 48.2099 97.5213 48.0171C97.6242 47.7934 97.5496 47.6472 97.2975 47.5786L97.344 47.5669C96.476 47.5538 95.5577 47.4215 94.5889 47.17C93.6425 46.8798 92.796 46.5316 92.0494 46.1254C91.2941 45.6883 90.8045 45.2506 90.5806 44.8121C90.0621 43.9199 89.8497 42.9344 89.9432 41.8557C90.0281 40.7461 90.303 39.7208 90.7679 38.7797C90.9726 38.5635 91.2307 38.3008 91.5422 37.9919C91.8449 37.6521 92.1005 37.4395 92.3091 37.3542L92.3222 37.4004C92.7376 36.6366 93.312 35.9648 94.0454 35.3851C94.8099 34.7975 95.6296 34.2291 96.5046 33.6797L97.1768 33.4121C97.5319 33.2571 97.8335 33.1484 98.0818 33.0861C98.0508 33.0939 98.1216 33.1091 98.2942 33.1318C98.4581 33.1236 98.6065 33.1193 98.7394 33.119C98.9517 33.1646 99.12 33.1719 99.2441 33.1407C99.6651 33.101 100.09 33.1923 100.518 33.4146C100.947 33.6368 101.315 33.9401 101.624 34.3244C101.954 34.6702 102.141 35.0356 102.183 35.4206C102.287 36.0212 102.249 36.5914 102.069 37.1311C101.92 37.6631 101.653 38.0105 101.267 38.1733C101.32 38.1269 101.261 38.0924 101.088 38.0698C100.938 38.0086 100.772 37.9512 100.591 37.8978L100.477 38.0252C100.477 38.0252 100.453 37.9983 100.404 37.9445C100.378 37.8522 100.317 37.7522 100.22 37.6446C100.074 37.4832 99.9712 37.2948 99.9102 37.0792C99.8405 36.8329 99.7819 36.5673 99.7345 36.2824C99.7007 35.9281 99.6441 35.728 99.5646 35.682C99.5161 35.6282 99.3013 35.6326 98.9201 35.6953C98.4594 35.712 97.845 35.9486 97.0767 36.4052C96.3394 36.854 95.7525 37.3641 95.3158 37.9353C94.755 38.5377 94.2984 39.0975 93.9462 39.6146C93.5852 40.1009 93.3173 40.5638 93.1426 41.0034C92.9591 41.4122 92.8241 41.8748 92.7376 42.3911C92.6434 42.6456 92.5647 42.8962 92.5016 43.1429C92.4608 43.351 92.4622 43.532 92.5057 43.686C92.6016 44.0247 92.9501 44.3164 93.5513 44.5613C94.1748 44.7676 95.0641 44.9732 96.2191 45.178C97.1219 45.3142 97.9093 45.5124 98.5813 45.7724C99.2533 46.0325 99.772 46.397 100.137 46.8659C100.234 46.9735 100.293 47.1236 100.315 47.3161C100.358 47.4701 100.358 47.5856 100.313 47.6628C100.393 47.7088 100.437 47.7472 100.445 47.778L100.432 47.7318C100.785 48.039 100.894 48.4238 100.759 48.8864C100.655 49.3412 100.368 49.7926 99.896 50.2407C99.4468 50.6502 98.856 51.0293 98.1236 51.378L98.1702 51.3663C97.8016 51.5907 97.4242 51.7843 97.0382 51.9472C96.6744 52.0714 96.3218 52.1764 95.9804 52.262Z" fill="black"/>
</svg>
