<svg width="141" height="149" viewBox="0 0 141 149" fill="none" xmlns="http://www.w3.org/2000/svg">
<path d="M67.8046 85.4208C72.7432 89.2751 70.7528 95.8305 69.7064 100.468C67.9538 108.242 63.7563 115.78 57.5779 122.388C47.6541 133.003 32.6986 140.636 15.7061 144.791C18.652 144.978 21.6002 145.165 24.5484 145.352C27.168 145.517 27.2519 148.312 24.5484 148.222C17.0485 147.969 9.54627 147.71 2.04403 147.449C0.202841 147.384 -0.652479 145.933 0.573424 144.989C6.97096 140.054 13.3242 135.085 19.808 130.202C21.5792 128.867 24.3713 130.833 22.6676 132.18C17.8922 135.958 13.0399 139.692 8.19218 143.425C24.0706 140.475 38.3457 134.658 49.0851 125.876C55.6901 120.475 60.6916 114.231 63.8705 107.509C66.3969 102.165 71.6641 91.1338 66.2874 86.2294C65.6255 85.627 67.0821 84.8555 67.8046 85.4208Z" fill="#040606"/>
<path d="M12.8696 53.4812C12.5076 53.3533 12.2692 53.0486 12.1546 52.5671C12.032 52.3203 11.9942 52.0186 12.0411 51.662C12.1084 51.3466 12.3944 50.82 12.899 50.0824C13.4133 49.3142 14.235 48.1628 15.364 46.628C16.0361 45.5764 16.5456 44.8235 16.8924 44.3693C17.2489 43.8846 17.4662 43.5204 17.5442 43.2765C17.6514 42.9413 17.7693 42.6776 17.8979 42.4856C18.0664 42.2737 18.1848 42.0611 18.253 41.8478C18.4341 41.9117 18.6687 41.808 18.957 41.5367C19.2453 41.2654 19.5424 40.8615 19.8483 40.3251C20.1347 39.8495 20.3719 39.4754 20.5599 39.2026C20.7879 38.9099 20.9213 38.7027 20.9603 38.5807C21.1892 38.3902 21.4619 38.0625 21.7785 37.5977C22.1253 37.1435 22.5967 36.6146 23.1927 36.011C23.7266 35.1819 24.3003 34.333 24.914 33.4643C25.5375 32.565 26.1365 31.742 26.7112 30.9952C27.3259 30.2286 27.8168 29.6387 28.184 29.2257C28.8181 28.3981 29.2841 27.8334 29.5822 27.5316C29.8899 27.1993 29.9728 26.9402 29.8308 26.7544C29.6683 26.5274 29.7059 26.2523 29.9436 25.9292C30.1813 25.6061 30.6448 25.3119 31.3341 25.0465C31.7927 24.7675 32.1671 24.5945 32.4573 24.5274C32.7571 24.4298 33.0881 24.4449 33.4502 24.5728C33.8424 24.7114 34.3909 24.939 35.0955 25.2558C35.6289 25.4781 36.1973 25.6959 36.8007 25.909C37.4344 26.1329 37.8266 26.2714 37.9775 26.3247C38.21 26.5426 38.4981 26.797 38.8416 27.0879C39.1948 27.3484 39.5028 27.5929 39.7655 27.8214C40.0585 28.0606 40.1903 28.2258 40.161 28.3173C40.1025 28.5002 40.1239 28.6434 40.2251 28.747C40.3662 28.8308 40.5073 28.9145 40.6484 28.9983C40.8596 29.0729 41.0927 29.3418 41.3475 29.805C41.6121 30.2377 41.8625 30.7671 42.0988 31.3933C42.3448 31.9891 42.4905 32.5833 42.536 33.1761C42.6117 33.7795 42.6367 34.3311 42.6112 34.8309C42.6158 35.3414 42.4062 35.9967 41.9824 36.7968C41.806 37.2433 41.5843 37.6739 41.3174 38.0884C41.0806 38.5136 40.8775 38.7811 40.7081 38.8909C40.488 38.9488 40.2734 39.0426 40.064 39.1722C39.8546 39.3018 39.7256 39.4427 39.6768 39.5951C39.6378 39.717 39.4542 39.9236 39.1261 40.2147C38.8076 40.4754 38.4093 40.7757 37.9312 41.1156C37.453 41.4555 36.9447 41.7848 36.4063 42.1034C35.8678 42.4221 35.3639 42.6851 34.8946 42.8924C34.3463 43.2415 33.7324 43.5335 33.0528 43.7683C32.4034 44.0139 31.8236 44.1992 31.3135 44.3242C30.412 44.4129 29.42 44.4695 28.3375 44.4942C27.2851 44.5295 26.2825 44.5146 25.3295 44.4493C24.4066 44.3947 23.6634 44.2509 23.0999 44.0179C22.1859 43.8307 21.5736 43.7501 21.2631 43.7761C20.9925 43.7823 20.7285 43.9774 20.4714 44.3615C20.1938 44.7044 19.9113 45.0626 19.624 45.436C19.3765 45.7896 19.2284 46.0426 19.1797 46.1949C19.0804 46.2955 18.8076 46.6232 18.3615 47.178C17.9553 47.713 17.4848 48.344 16.9501 49.071C16.4455 49.8086 15.9457 50.5311 15.4509 51.2382C14.956 51.9454 14.5654 52.5368 14.279 53.0123C14.0218 53.3963 13.7929 53.5869 13.5924 53.5839C13.3821 53.6114 13.1412 53.5771 12.8696 53.4812ZM23.015 41.2911C23.0967 41.4556 23.5595 41.636 24.4034 41.8324C25.2474 42.0287 26.1955 42.1092 27.2478 42.0739C27.9195 42.0737 28.6058 42.0278 29.3068 41.9362C30.0379 41.8553 30.7486 41.7332 31.4389 41.5699C31.8088 41.4632 32.3833 41.2421 33.1622 40.9066C33.9412 40.5712 34.7542 40.129 35.6014 39.5802C35.7407 39.4598 35.9841 39.2236 36.3318 38.8715C36.7194 38.4995 37.0671 38.1475 37.3749 37.8152C37.783 37.4844 38.2544 36.9555 38.7891 36.2285C39.3337 35.471 39.6182 34.7913 39.6429 34.1894C39.7455 33.3437 39.5872 32.4736 39.168 31.5793C38.7586 30.6544 38.1554 29.9155 37.3584 29.3626C36.7336 29.0062 36.1949 28.7481 35.7423 28.5882C35.3199 28.439 34.8376 28.3195 34.2954 28.2297C33.7639 28.2116 33.3336 28.297 33.0045 28.4861C32.7055 28.6858 32.2336 29.1636 31.5888 29.9196C31.2411 30.2717 30.7298 30.8204 30.0549 31.5657C29.3896 32.2806 28.7994 32.971 28.2841 33.6371C27.0976 35.4568 26.0232 36.9261 25.0608 38.0448C24.1384 39.1437 23.5633 39.8395 23.3354 40.1321C23.2583 40.478 23.1652 40.7165 23.0561 40.8476C22.9568 40.9482 22.9431 41.096 23.015 41.2911ZM34.2026 56.7937C33.9993 56.4844 33.8714 56.2018 33.819 55.9458C33.7967 55.7005 33.9283 55.289 34.2138 54.7114C34.5773 53.89 34.9368 53.1859 35.2924 52.5991C35.6578 51.9819 36.0825 51.2839 36.5667 50.5051C36.744 50.1607 37.1098 49.5945 37.6641 48.8065C38.2486 48.0292 38.9177 47.197 39.6716 46.31C40.4255 45.4229 41.1599 44.5968 41.8748 43.8317C42.5994 43.036 43.1857 42.4629 43.6336 42.1123C43.9335 42.0147 44.2445 42.0398 44.5667 42.1875C44.919 42.3459 45.1769 42.5896 45.3403 42.9187C45.5844 43.3103 45.4737 43.8139 45.0081 44.4297C44.5824 45.0256 43.7886 45.9325 42.6267 47.1503C42.0014 47.8453 41.53 48.3742 41.2125 48.737C40.9047 49.0692 40.7513 49.2864 40.7522 49.3885C40.7629 49.4601 40.9133 49.4624 41.2034 49.3953C41.4917 49.1239 41.9454 48.8602 42.5647 48.604C43.1937 48.3174 43.848 48.0566 44.5276 47.8218C45.2072 47.5869 45.842 47.3872 46.432 47.2224C47.022 47.0577 47.4221 46.9616 47.6324 46.9341C47.9225 46.867 48.2331 46.841 48.564 46.8561C48.9349 46.8515 49.1905 46.84 49.3307 46.8216C50.1319 46.7315 50.8799 46.8601 51.5748 47.2073C52.2697 47.5546 52.6346 47.9888 52.6694 48.5099C52.6216 48.7644 52.6536 48.9792 52.7655 49.1544C52.9075 49.3403 52.9785 49.4332 52.9785 49.4332C53.0992 49.4759 53.1449 49.5429 53.1157 49.6343C53.1166 49.7364 53.1171 49.7875 53.1171 49.7875C53.0488 50.0008 52.839 50.0794 52.4876 50.0231C52.1761 49.947 51.7741 49.8389 51.2816 49.6988C50.8796 49.5907 50.5083 49.5444 50.1676 49.5597C49.8268 49.575 49.416 49.5995 48.9351 49.6332C47.5741 49.8987 46.2632 50.1649 45.0024 50.432C43.7718 50.7096 42.5031 51.2113 41.1964 51.937C40.9072 52.1062 40.6033 52.3211 40.2849 52.5818C39.9664 52.8425 39.6232 53.1283 39.255 53.4392C39.0554 53.5383 38.7973 53.8203 38.4807 54.2851C38.1641 54.75 37.8675 55.2049 37.5908 55.65C37.3541 56.0752 37.2211 56.3335 37.1918 56.4249C37.1918 56.4249 37.0978 56.5613 36.9098 56.8341C36.7316 57.0765 36.493 57.2975 36.194 57.4972C35.676 57.8569 35.2962 57.9942 35.0549 57.9089C34.8135 57.8237 34.5294 57.4519 34.2026 56.7937ZM51.2 63.8157C50.8077 63.6772 50.5153 63.489 50.3226 63.2514C50.1602 63.0244 49.9569 62.7151 49.7127 62.3235C49.3344 61.5115 49.1123 60.7885 49.0464 60.1546C48.9902 59.4902 49.0903 58.915 49.3465 58.4288C49.515 58.2169 49.6183 57.999 49.6564 57.775C49.7344 57.5312 49.7734 57.4092 49.7734 57.4092C49.6713 57.2036 49.6553 57.0961 49.7254 57.087C49.8052 57.0473 49.8948 56.9772 49.9941 56.8766C50.1752 56.9406 50.2891 56.7942 50.336 56.4377C50.3537 56.1725 50.645 55.6818 51.2099 54.9654C51.7749 54.2491 52.4006 53.6051 53.0872 53.0335C53.3657 52.7927 53.764 52.4924 54.2821 52.1326C54.8099 51.7424 55.363 51.378 55.9414 51.0396C56.5597 50.6813 57.0986 50.4137 57.5582 50.2369C58.5172 49.8633 59.3322 49.6253 60.0029 49.5231C60.6737 49.4208 61.3654 49.4107 62.0779 49.4928C62.7904 49.5749 63.2674 49.6586 63.5088 49.7438C63.7803 49.8398 64.0644 50.2115 64.361 50.859C64.9575 51.409 65.3384 51.9506 65.5036 52.4839C65.699 53.0278 65.7104 53.7272 65.5377 54.5821C65.3357 55.5285 64.924 56.5533 64.3024 57.6568C63.7207 58.7403 62.5486 59.9376 60.786 61.2486C59.6807 62.0793 58.7235 62.6571 57.9144 62.9819C57.115 63.2762 56.195 63.5279 55.1543 63.7369C54.3841 63.9398 53.7085 64.0573 53.1273 64.0895C52.5559 64.0912 51.9134 63.9999 51.2 63.8157ZM57.0949 60.5044C58.0823 59.9373 58.9042 59.3626 59.5606 58.7803C60.2471 58.2087 60.9669 57.4283 61.7198 56.4392C61.9478 56.1465 62.1548 55.7617 62.341 55.2847C62.5369 54.7772 62.6729 54.2995 62.749 53.8515C62.8651 53.3836 62.8424 53.0872 62.6808 52.9623C62.387 52.6211 61.969 52.4056 61.4268 52.3158C60.8944 52.1956 60.2435 52.2879 59.4744 52.5929C58.2855 53.0549 57.154 53.7577 56.0798 54.7013C55.0154 55.6143 53.9125 56.7003 52.771 57.9593C51.9674 58.8967 51.5791 59.7432 51.606 60.499C51.6728 61.235 52.1579 61.6608 53.0612 61.7764C54.0045 61.8721 55.349 61.4481 57.0949 60.5044ZM53.0375 76.3717C52.4517 75.8933 52.0193 75.1978 51.7403 74.2852C51.4214 73.3923 51.288 72.4971 51.34 71.5995C51.3618 70.6913 51.5812 70.0056 51.998 69.5422C52.1071 69.4111 52.2216 69.3159 52.3413 69.2564C52.4309 69.1863 52.5361 69.1726 52.6568 69.2152C52.7473 69.2472 52.8143 69.4574 52.858 69.846C52.9016 70.2346 52.9301 70.6178 52.9436 70.9957C52.9473 71.4041 52.9345 71.654 52.9053 71.7454C52.8468 71.9283 52.9046 72.2201 53.0786 72.6208C53.2225 73.0108 53.4214 73.3864 53.6753 73.7475C53.9292 74.1086 54.172 74.347 54.4036 74.4627C54.9672 74.6957 55.6038 74.7001 56.3136 74.4759C57.0438 74.2929 57.9251 73.6374 58.9575 72.5095C59.5545 72.008 59.9869 71.601 60.2547 71.2886C60.5226 70.9761 60.7452 70.6477 60.9225 70.3032C61.0998 69.9588 61.3663 69.4932 61.7219 68.9065C62.0784 68.4218 62.4637 67.7946 62.8778 67.025C63.3016 66.2249 63.7206 65.44 64.1347 64.6704C64.5488 63.9007 64.919 63.2683 65.2453 62.7729C65.3526 62.4377 65.5445 62.0475 65.8212 61.6025C66.128 61.1681 66.4358 60.8359 66.7445 60.6057C66.991 60.15 67.3714 59.5381 67.8858 58.7699C68.4001 58.0018 68.9198 57.2695 69.4449 56.5729C69.9796 55.8459 70.3858 55.311 70.6634 54.968C70.8621 54.7668 71.0506 54.5451 71.2288 54.3027C71.4071 54.0604 71.616 53.8798 71.8555 53.7609C72.1749 53.6023 72.5205 53.5717 72.8923 53.6692C73.2641 53.7666 73.6719 53.9615 74.1157 54.254C74.3278 54.4307 74.5413 54.7605 74.7563 55.2435C74.9712 55.7265 75.1107 56.1828 75.1747 56.6125C75.2787 57.0224 75.2255 57.2411 75.0152 57.2686C74.9762 57.3905 74.876 57.389 74.7144 57.2641C74.5831 57.1498 74.442 57.0661 74.2911 57.0128C74.2094 56.8482 74.1233 56.75 74.0328 56.718C73.952 56.6555 73.9116 56.6243 73.9116 56.6243C73.7306 56.5604 73.4214 56.7395 72.9841 57.1617C72.5468 57.5839 72.0706 58.128 71.5553 58.7941C71.0498 59.4297 70.5593 60.0705 70.084 60.7168C69.6485 61.3432 69.3022 61.8484 69.045 62.2325C69.0353 62.263 68.8624 62.5411 68.5263 63.0669C68.1999 63.5622 67.8536 64.0675 67.4874 64.5826C67.1513 65.1084 66.9389 65.4574 66.8502 65.6296C66.5346 66.1966 66.308 66.6424 66.1706 66.967C66.0429 67.2611 65.8257 67.6254 65.5188 68.0597C65.1215 68.4621 64.7849 68.9369 64.5092 69.484C64.2538 70.0723 63.908 70.6285 63.4716 71.1528C63.0566 71.8204 62.5564 72.4918 61.9711 73.167C61.4159 73.8528 60.8052 74.5021 60.1391 75.1149C59.3443 75.9197 58.6227 76.4959 57.9742 76.8435C57.3559 77.2017 56.7513 77.4122 56.1603 77.4748C55.8099 77.5206 55.3027 77.4263 54.6389 77.1918C53.9751 76.9573 53.4413 76.6839 53.0375 76.3717ZM75.8106 48.7975C75.5655 48.3039 75.4509 47.8224 75.4667 47.353C75.5224 46.8639 75.8093 46.4394 76.3273 46.0797C76.6857 45.7992 76.9438 45.5172 77.1016 45.2337C77.2896 44.9609 77.4226 44.7026 77.5006 44.4588C78.3116 44.3382 78.9034 44.3776 79.2762 44.5771C79.6889 44.7568 80.0177 45.0935 80.2628 45.5872C80.6198 46.256 80.6107 46.9143 80.2356 47.562C79.9005 48.1899 79.2538 48.7417 78.2957 49.2174C77.657 49.5345 77.1419 49.6749 76.7506 49.6384C76.369 49.5715 76.0557 49.2912 75.8106 48.7975ZM74.7871 73.0638C73.4595 72.5948 72.5342 71.7082 72.011 70.404C71.4977 69.0693 71.4998 67.6453 72.0174 66.132C72.4287 65.0561 73.0153 63.9572 73.777 62.8355C74.5787 61.6939 75.4816 60.656 76.4857 59.7216C77.4996 58.7568 78.525 57.9656 79.562 57.3482C80.5991 56.7308 81.5834 56.3831 82.5151 56.3051C82.8655 56.2593 83.2214 56.2493 83.5825 56.2751C83.9738 56.3116 84.3505 56.3938 84.7126 56.5217C85.0445 56.6389 85.372 56.8225 85.6951 57.0723C86.0279 57.2916 86.2955 57.5049 86.4979 57.7121C86.9426 58.1066 87.2519 58.5042 87.426 58.905C87.6001 59.3057 87.6904 59.8634 87.6968 60.578C87.6021 61.1891 87.5158 61.6166 87.4378 61.8604C87.3598 62.1042 87.1674 62.4433 86.8605 62.8777C86.1475 63.847 85.3776 64.6267 84.5508 65.2166C83.7241 65.8065 82.7402 66.2053 81.5992 66.4128C81.3091 66.4799 80.9834 66.5006 80.6223 66.4748C80.3011 66.4292 79.9745 66.3477 79.6426 66.2305C79.0391 66.0173 78.4849 65.7028 77.9799 65.2869C77.5147 64.8513 77.1893 64.3462 77.0037 63.7718L76.8038 63.2941L76.5511 63.6119C75.9861 64.3282 75.501 65.0049 75.0958 65.642C74.7207 66.2897 74.4405 66.9031 74.2553 67.4822C74.1383 67.848 74.0564 68.2091 74.0095 68.5657C73.9928 68.933 74.0208 69.2651 74.0937 69.5623C74.1559 69.7878 74.3082 69.9942 74.5505 70.1816C74.8327 70.3491 75.1398 70.4915 75.4717 70.6088C75.6829 70.6834 75.8941 70.758 76.1053 70.8326C76.3564 70.8874 76.6022 70.9064 76.8427 70.8895C77.4141 70.8879 77.8848 70.8336 78.2548 70.7269C78.6549 70.6308 79.0599 70.5194 79.4698 70.3928L79.6801 70.3653L79.6348 70.3493C80.0554 70.2944 80.4307 70.2234 80.7608 70.1365C81.121 70.0602 81.3011 70.022 81.3011 70.022C81.4218 70.0647 81.5668 70.0311 81.7363 69.9214C82.0167 69.8847 82.3038 70.037 82.5976 70.3783C82.9216 70.7302 83.03 71.0738 82.9227 71.409C82.8438 71.5508 82.6301 71.7466 82.2814 71.9966C81.9426 72.2162 81.5784 72.4098 81.1889 72.5775C80.8296 72.7559 80.5546 72.8283 80.3638 72.7949C80.3239 72.8147 80.1988 72.8383 79.9885 72.8658C79.788 72.8628 79.6478 72.8812 79.5679 72.9208L79.6132 72.9368C79.2247 73.2066 78.8946 73.2935 78.623 73.1976L78.261 73.0697C78.072 73.2404 77.6018 73.3457 76.8503 73.3855C76.1085 73.3949 75.4208 73.2876 74.7871 73.0638ZM80.0409 63.7252C80.584 63.9171 81.1005 63.9299 81.5902 63.7637C82.1199 63.5776 82.5989 63.3398 83.0274 63.0501C83.8941 62.4404 84.4945 61.7705 84.8288 61.0405C85.2029 60.2907 85.2879 59.7101 85.0837 59.2987C84.9319 59.1433 84.7805 59.039 84.6297 58.9857C84.5187 58.9126 84.2476 58.8677 83.8164 58.8511C83.5253 58.8161 83.0751 58.9115 82.4656 59.1372C81.8561 59.3628 81.2319 59.6342 80.5932 59.9514C79.9846 60.2792 79.506 60.568 79.1574 60.818L78.2619 61.5703C78.5326 61.5641 78.7735 61.5983 78.9847 61.673C79.2358 61.7277 79.3667 61.7909 79.3774 61.8626C79.2897 62.1369 79.2521 62.4119 79.2646 62.6877C79.317 62.9437 79.3992 63.1593 79.5111 63.3345C79.6531 63.5204 79.8297 63.6506 80.0409 63.7252ZM90.8194 77.2516C90.3686 77.2959 89.8917 77.2122 89.3885 77.0005C88.8853 76.7888 88.2449 76.3761 87.4674 75.7622C87.4071 75.7409 87.2908 75.6319 87.1186 75.4354C86.9765 75.2495 86.8292 75.0279 86.6764 74.7704C86.5636 74.4931 86.4859 74.2112 86.4432 73.9247C86.1847 73.0532 86.32 71.9476 86.8492 70.6081C87.3784 69.2685 88.3273 67.7718 89.6958 66.1181C90.0532 65.7356 90.5553 65.2684 91.2019 64.7166C91.8787 64.1755 92.521 63.6899 93.1286 63.2601C93.7762 62.8104 94.2051 62.5718 94.4154 62.5443C94.4154 62.5443 94.6009 62.542 94.9718 62.5373C95.3426 62.5326 95.8284 62.4837 96.4291 62.3906C96.5995 62.3829 96.7849 62.3806 96.9855 62.3836C97.2162 62.3973 97.442 62.4261 97.663 62.4703C97.8839 62.5144 98.0649 62.5784 98.2061 62.6621C98.7998 62.9058 99.3452 63.3529 99.8423 64.0034C100.379 64.6341 100.771 65.2984 101.018 65.9962C101.275 66.6636 101.265 67.1687 100.987 67.5117C100.967 67.5726 100.838 67.6626 100.598 67.7815C100.399 67.8806 100.164 67.9843 99.8945 68.0925C99.6647 68.181 99.4651 68.2801 99.2956 68.3898C99.0863 68.5194 98.8507 68.521 98.5889 68.3946C98.3573 68.2789 98.17 68.077 98.027 67.789C97.9239 67.4813 97.9158 67.1392 98.0026 66.7628C98.0203 66.4976 97.8671 66.1891 97.5431 65.8372C97.2493 65.4959 97.1024 65.3253 97.1024 65.3253C96.861 65.24 96.4409 65.346 95.8421 65.6433C95.2831 65.9208 94.695 66.2897 94.0776 66.7501C93.359 67.1069 92.6817 67.597 92.0458 68.2204C91.4195 68.8133 90.8785 69.4024 90.4226 69.9877C90.0067 70.5531 89.7096 70.957 89.5314 71.1993C89.3132 71.4615 89.1616 71.8829 89.0766 72.4634C88.9917 73.044 88.99 73.4166 89.0717 73.5812C89.1729 73.6848 89.4698 73.8066 89.9623 73.9466C90.485 74.0974 91.1079 74.2496 91.8312 74.4033C92.5641 74.5265 93.2869 74.6292 93.9994 74.7113C94.712 74.7934 95.3087 74.8176 95.7896 74.7839C96.4799 74.6207 97.046 74.5832 97.4879 74.6715C97.9298 74.7597 98.2466 74.8716 98.4383 75.0072C98.7312 75.2464 98.8737 75.4833 98.8658 75.718C98.858 75.9526 98.7045 76.1698 98.4056 76.3695C98.1164 76.5387 97.6714 76.6699 97.0708 76.763C96.51 76.8363 95.9848 76.9561 95.495 77.1223C95.0452 77.2687 94.7959 77.4181 94.7472 77.5705C94.6265 77.5279 94.4761 77.5256 94.296 77.5638C94.1558 77.5821 94.0453 77.56 93.9646 77.4976C93.9042 77.4762 93.6482 77.4367 93.1965 77.3789C92.7449 77.3211 92.2732 77.2733 91.7817 77.2353C91.3202 77.208 90.9995 77.2134 90.8194 77.2516ZM103.201 82.5922C102.889 82.414 102.595 82.1238 102.321 81.7216C102.087 81.2995 101.892 80.8577 101.738 80.396C101.623 79.9145 101.569 79.5054 101.576 79.1686C101.596 79.1077 101.575 79.0155 101.513 78.8921C101.482 78.7793 101.467 78.723 101.467 78.723C101.375 78.5889 101.427 78.166 101.621 77.4543C101.855 76.7228 102.158 75.9311 102.531 75.0792C102.905 74.2273 103.235 73.5636 103.521 73.0881C103.828 72.6537 104.264 72.0784 104.829 71.362C105.403 70.6152 105.904 69.9439 106.329 69.3479L108.399 67.1279L106.75 65.9855C106.558 65.85 106.416 65.6641 106.324 65.4279C106.262 65.2024 106.25 65.0287 106.289 64.9068C106.367 64.663 106.595 64.4214 106.974 64.182C107.363 63.9122 107.617 63.7986 107.738 63.8413C107.879 63.925 108.146 64.0362 108.538 64.1748C108.96 64.324 109.373 64.4526 109.775 64.5607C110.177 64.6688 110.428 64.7236 110.528 64.7251C110.668 64.7068 110.813 64.6732 110.963 64.6244C111.123 64.5451 111.267 64.4095 111.396 64.2174C111.654 63.9354 111.887 63.6786 112.095 63.4469C112.314 63.1848 112.587 62.9081 112.915 62.617C113.253 62.2954 113.526 62.0187 113.735 61.7871C113.973 61.5661 114.321 61.265 114.779 60.8839C114.998 60.7239 115.247 60.5234 115.525 60.2826C115.804 60.0418 116.113 59.8626 116.453 59.7452C116.802 59.5973 117.108 59.5865 117.37 59.7129C117.672 59.8195 117.985 60.1509 118.311 60.707C118.455 61.097 118.518 61.3736 118.499 61.5366C118.481 61.6997 118.267 61.9466 117.859 62.2774C117.452 62.7103 117 63.1271 116.502 63.528C116.035 63.9396 115.582 64.3565 115.145 64.7787C114.448 65.2787 114.236 65.6277 114.508 65.8257C114.781 66.0237 115.645 66.2612 117.101 66.5382C118.025 66.6949 118.644 66.9644 118.958 67.3468C119.282 67.6987 119.391 68.1444 119.286 68.6839C119.143 69.4473 118.926 69.8626 118.636 69.9298C118.345 69.9969 117.627 69.8279 116.481 69.4229C115.717 69.289 115.075 69.1467 114.552 68.996C114.039 68.8148 113.662 68.6816 113.42 68.5963C113.018 68.4882 112.757 68.4129 112.636 68.3702C112.516 68.3276 112.325 68.2941 112.064 68.2698C111.803 68.2455 111.588 68.2882 111.418 68.398C111.289 68.4879 111.125 68.6335 110.926 68.8347C110.767 68.914 110.483 69.17 110.076 69.6029C109.669 70.0358 109.187 70.4931 108.63 70.9747C107.798 72.1056 107.026 73.2578 106.315 74.4314C105.614 75.5744 104.982 76.7083 104.421 77.833C104.057 78.5524 103.901 79.0911 103.955 79.4491C104.018 79.7767 104.356 80.0829 104.97 80.3677C105.293 80.5154 105.821 80.702 106.555 80.9273C107.328 81.1328 107.946 81.2492 108.407 81.2765C108.788 81.2414 109.184 81.2115 109.595 81.187C110.015 81.1321 110.406 81.0664 110.766 80.9902C111.086 80.9337 111.406 80.8772 111.727 80.8208C112.057 80.7338 112.222 80.6903 112.222 80.6903C112.451 80.4998 112.641 80.4822 112.793 80.6376C112.944 80.793 113.022 81.0749 113.026 81.4833C112.909 81.849 112.712 82.2034 112.434 82.5463C112.156 82.8892 111.447 83.1645 110.306 83.372C108.675 83.7458 107.258 83.8216 106.052 83.5994C104.887 83.3575 103.937 83.0217 103.201 82.5922ZM117.655 87.5964C116.882 87.3909 116.172 87.0894 115.527 86.6919C114.912 86.305 114.421 85.8434 114.056 85.3071C113.73 84.751 113.564 84.1667 113.558 83.5541C113.484 83.0528 113.471 82.7259 113.52 82.5735C113.578 82.3907 113.732 82.2756 113.983 82.2283C114.224 82.3135 114.411 82.4643 114.543 82.6807C114.715 82.8772 114.943 83.1103 115.226 83.3799C115.552 83.936 116.027 84.3412 116.651 84.5955C117.305 84.8605 117.942 84.967 118.563 84.915C119.185 84.8631 119.584 84.6649 119.761 84.3204C119.8 84.1985 119.823 83.9692 119.83 83.6324C119.837 83.2956 119.834 82.9383 119.82 82.5604C119.376 81.1144 119.138 79.7583 119.107 78.492C119.115 77.2059 119.236 76.1971 119.47 75.4656C119.646 74.917 119.997 74.3965 120.524 73.9042C121.06 73.3814 121.684 73.0079 122.393 72.7837C123.122 72.3965 123.891 72.0915 124.701 71.8688C125.511 71.6461 126.302 71.4844 127.073 71.3836C127.874 71.2935 128.57 71.2681 129.162 71.3076C129.494 71.4248 129.917 71.6251 130.431 71.9084C130.945 72.1917 131.288 72.4316 131.46 72.6281C131.753 72.8673 131.962 73.3145 132.089 73.9697C132.225 74.5944 132.21 75.1658 132.044 75.684C131.976 75.8973 131.828 76.1503 131.6 76.4429C131.372 76.7356 131.049 77.0625 130.631 77.4238C130.403 77.7164 130.165 77.9885 129.917 78.24C129.678 78.461 129.539 78.6325 129.5 78.7544C129.242 79.0363 128.977 79.1294 128.706 79.0334C128.474 78.9177 128.262 78.6899 128.068 78.3502C127.914 77.9906 127.821 77.6013 127.787 77.1823C127.812 76.6824 127.884 76.3007 128.002 76.0371C128.13 75.7429 128.353 75.4655 128.671 75.2049C129.11 74.9869 129.349 74.8169 129.388 74.695C129.427 74.5731 129.281 74.4535 128.949 74.3362C128.738 74.2616 128.302 74.2602 127.641 74.332C127.02 74.384 126.324 74.5114 125.554 74.7143C124.824 74.8973 124.159 75.1375 123.56 75.4348C122.812 75.7809 122.338 76.0546 122.139 76.2558C121.971 76.4676 121.804 76.8326 121.638 77.3508C121.501 77.7775 121.421 78.3428 121.398 79.0468C121.404 79.7615 121.479 80.2628 121.622 80.5508C121.622 80.5508 121.659 80.8014 121.734 81.3027C121.818 81.7736 121.938 82.2909 122.094 82.8547C122.345 85.1144 122.123 86.5964 121.427 87.3005C120.732 88.0047 119.475 88.1034 117.655 87.5964Z" fill="black"/>
</svg>
