<svg width="202" height="152" viewBox="0 0 202 152" fill="none" xmlns="http://www.w3.org/2000/svg">
<path d="M143.608 79.0769C139.36 83.5098 141.072 91.0491 141.972 96.3822C143.48 105.324 147.091 113.993 152.405 121.594C160.942 133.801 173.807 142.58 188.425 147.359C185.891 147.574 183.354 147.789 180.818 148.004C178.565 148.194 178.493 151.408 180.818 151.305C187.27 151.014 193.724 150.715 200.177 150.415C201.761 150.341 202.497 148.672 201.442 147.587C195.939 141.911 190.474 136.196 184.896 130.58C183.372 129.044 180.971 131.306 182.436 132.854C186.544 137.2 190.718 141.494 194.888 145.788C181.229 142.394 168.95 135.705 159.711 125.604C154.029 119.393 149.727 112.211 146.992 104.481C144.819 98.3347 140.288 85.6474 144.913 80.0068C145.483 79.314 144.23 78.4267 143.608 79.0769Z" fill="#040606"/>
<path d="M20.9027 94.5318C20.5303 94.6252 20.1633 94.503 19.8016 94.165C19.5631 94.027 19.3649 93.7964 19.2069 93.4733C19.0888 93.1732 19.0362 92.5763 19.0491 91.6827C19.0534 90.7583 19.102 89.3445 19.1949 87.4415C19.1741 86.1936 19.1827 85.2846 19.2208 84.7144C19.2501 84.1134 19.23 83.6898 19.1602 83.4435C19.0644 83.1048 19.017 82.8199 19.018 82.5888C19.0414 82.3191 19.0226 82.0765 18.9616 81.8609C19.1478 81.8142 19.2861 81.5981 19.3765 81.2127C19.4668 80.8273 19.4913 80.3265 19.4498 79.7103C19.4258 79.1557 19.4168 78.7128 19.4228 78.3815C19.451 78.0117 19.4477 77.7652 19.4129 77.642C19.4983 77.3568 19.5446 76.933 19.5516 76.3706C19.5897 75.8004 19.6903 75.0991 19.8536 74.2667C19.8405 73.2807 19.8496 72.2561 19.8811 71.1929C19.9039 70.099 19.9484 69.082 20.0148 68.142C20.1034 67.1634 20.1867 66.4005 20.2645 65.8533C20.3357 64.8132 20.4121 64.085 20.4938 63.6688C20.5667 63.2218 20.4926 62.96 20.2715 62.8836C20.0107 62.7842 19.8901 62.5341 19.9096 62.1335C19.9292 61.7329 20.1529 61.2315 20.5809 60.6295C20.809 60.1435 21.0254 59.7924 21.2301 59.5762C21.4262 59.3291 21.7104 59.1589 22.0828 59.0654C22.4863 58.9642 23.0692 58.8509 23.8316 58.7255C24.399 58.6161 24.9931 58.4836 25.6138 58.3278C26.2656 58.1642 26.6691 58.063 26.8243 58.0241C27.1385 58.0771 27.5191 58.13 27.9662 58.1827C28.4045 58.2046 28.7963 58.2382 29.1416 58.2835C29.5179 58.321 29.7191 58.3859 29.7452 58.4783C29.7975 58.663 29.8944 58.7706 30.036 58.801C30.1999 58.7929 30.3638 58.7847 30.5277 58.7766C30.745 58.7221 31.0878 58.8174 31.5561 59.0627C32.0157 59.2771 32.517 59.58 33.0599 59.9714C33.5942 60.332 34.044 60.7468 34.4094 61.2157C34.8059 61.6768 35.1316 62.1227 35.3864 62.5534C35.6724 62.9764 35.8598 63.6383 35.9486 64.5394C36.0483 65.0091 36.1014 65.4904 36.108 65.9834C36.1456 66.4686 36.1242 66.8038 36.0436 66.9889C35.8922 67.1588 35.7651 67.3555 35.6622 67.5792C35.5593 67.8029 35.5296 67.9917 35.5732 68.1457C35.6081 68.2688 35.5692 68.5424 35.4565 68.9664C35.3351 69.3596 35.1691 69.83 34.9584 70.3775C34.7477 70.9251 34.506 71.4804 34.2332 72.0435C33.9605 72.6066 33.6858 73.1042 33.4092 73.5363C33.1452 74.1302 32.7948 74.7128 32.3582 75.2841C31.9525 75.8475 31.5717 76.3223 31.2156 76.7085C30.5132 77.2805 29.7177 77.8758 28.8291 78.4945C27.9715 79.1054 27.1275 79.647 26.2971 80.1192C25.4978 80.5836 24.7989 80.8744 24.2005 80.9915C23.3353 81.3406 22.7804 81.6117 22.5359 81.805C22.3138 81.9596 22.2016 82.2681 22.1995 82.7303C22.1576 83.1695 22.1201 83.6241 22.0869 84.0941C22.0761 84.5256 22.0924 84.8182 22.136 84.9722C22.1088 85.1109 22.0625 85.5348 21.9973 86.2437C21.9543 86.914 21.9108 87.6999 21.8668 88.6013C21.8538 89.4949 21.8365 90.3732 21.8148 91.236C21.7931 92.0989 21.7942 92.8076 21.8183 93.3622C21.8161 93.8244 21.7307 94.1097 21.5619 94.218C21.4018 94.3571 21.1821 94.4617 20.9027 94.5318ZM22.623 78.7657C22.782 78.8577 23.2675 78.7524 24.0794 78.4497C24.8912 78.1471 25.726 77.6903 26.5835 77.0794C27.1433 76.7081 27.69 76.2906 28.2236 75.8269C28.7882 75.3554 29.3131 74.861 29.7982 74.3435C30.0476 74.0501 30.4042 73.5484 30.8681 72.8384C31.332 72.1284 31.7653 71.3107 32.1682 70.3851C32.2177 70.2078 32.2901 69.8764 32.3854 69.3908C32.5029 68.8666 32.5982 68.3811 32.6711 67.9341C32.8284 67.4329 32.9291 66.7316 32.9731 65.8302C33.0084 64.898 32.87 64.1742 32.558 63.6589C32.1762 62.8973 31.5635 62.2596 30.72 61.7458C29.8677 61.2011 28.9567 60.9186 27.9869 60.8981C27.2692 60.9463 26.6775 61.0288 26.212 61.1456C25.7775 61.2547 25.3094 61.4216 24.8079 61.6464C24.3549 61.9249 24.0435 62.2339 23.8736 62.5733C23.7348 62.905 23.6055 63.564 23.4858 64.5503C23.3906 65.0359 23.2676 65.7758 23.1168 66.77C22.9574 67.7333 22.8469 68.635 22.7855 69.4748C22.802 71.6471 22.7183 73.4654 22.5344 74.9296C22.3729 76.3552 22.2779 77.2529 22.2496 77.6227C22.3765 77.9536 22.4308 78.2039 22.4123 78.3734C22.385 78.5121 22.4553 78.6429 22.623 78.7657ZM49.7781 84.8128C49.3806 84.5828 48.9525 84.245 48.494 83.7994C48.0267 83.3231 47.5998 82.7542 47.2131 82.0928C47.0813 81.862 46.9544 81.5311 46.8323 81.1C46.7414 80.6612 46.6542 80.3533 46.5709 80.1763C46.5388 80.4152 46.449 80.6851 46.3014 80.9859C46.1762 81.2482 46.0423 81.4797 45.8996 81.6804C45.8103 81.8347 45.6007 82.1511 45.2708 82.6296C44.9321 83.0773 44.576 83.4635 44.2025 83.788C43.3613 84.6917 42.608 85.2599 41.9426 85.4928C41.3082 85.718 40.5916 85.5351 39.7927 84.9441C39.1828 84.6684 38.6995 84.3115 38.3428 83.8734C38.0171 83.4275 37.8253 82.7501 37.7675 81.8412C37.5246 80.748 37.3834 79.6622 37.3441 78.5838C37.2961 77.4746 37.416 75.9606 37.7039 74.0416C37.9983 72.6156 38.2335 71.5673 38.4093 70.8966C38.5764 70.1952 38.6891 69.7712 38.7473 69.6246C39.1693 69.3539 39.5617 69.2719 39.9243 69.3788C40.2783 69.4548 40.5473 69.7006 40.7314 70.1161C41.0048 70.3773 41.1219 70.9085 41.0828 71.7098C41.0747 72.5032 40.9438 73.5089 40.6902 74.7268C40.552 75.8827 40.4448 77.0308 40.3687 78.1711C40.3236 79.3036 40.3746 80.2472 40.5217 81.0017C40.6688 81.7563 40.9814 82.156 41.4595 82.2009C41.7824 82.2848 42.2505 82.1179 42.8636 81.7002C43.5077 81.2747 44.1249 80.4603 44.715 79.257C45.3362 78.0458 45.7826 76.3344 46.0541 74.1228C46.1281 73.4447 46.1618 72.8591 46.1552 72.3661C46.1399 71.8423 46.065 71.284 45.9304 70.6912C45.7637 70.3373 45.6877 70.0101 45.7024 69.7096C45.7394 69.3706 45.9136 69.0466 46.2251 68.7376C46.3057 68.5525 46.4371 68.3711 46.6195 68.1934C46.7932 67.9849 46.9329 67.9499 47.0386 68.0882L47.7704 67.8551C47.8858 67.7932 47.9852 67.8507 48.0685 68.0277C48.1742 68.166 48.322 68.2773 48.5121 68.3615C48.9319 68.553 49.195 69.13 49.3013 70.0927C49.4076 71.0553 49.3391 72.4576 49.0959 74.2994C48.8635 75.7097 48.7302 76.7655 48.6959 77.4666C48.6927 78.1599 48.7628 78.8184 48.9061 79.442C49.0629 79.9962 49.3197 80.4924 49.6764 80.9305C50.0332 81.3686 50.5009 81.7294 51.0798 82.0129C51.4822 82.1427 51.7382 82.3423 51.8477 82.6116C51.9882 82.8732 52.0952 83.1926 52.1688 83.5698C52.1851 83.8625 52.0643 84.1402 51.8062 84.4028C51.5704 84.6269 51.2663 84.7856 50.8939 84.8791C50.5214 84.9725 50.1495 84.9504 49.7781 84.8128ZM59.0804 81.7366C58.4422 81.8308 58.0325 81.8511 57.8511 81.7977C57.7008 81.7365 57.4759 81.5291 57.1764 81.1756C56.8496 80.9608 56.6334 80.7842 56.5278 80.6458C56.4532 80.4996 56.414 80.3611 56.4101 80.2301C56.5653 80.1912 56.705 80.1561 56.8291 80.125C56.9446 80.063 57.0047 79.982 57.0096 79.8818C56.9835 79.7895 57.0126 79.7162 57.097 79.662C57.2124 79.6001 57.3366 79.569 57.4695 79.5686C58.0679 79.4514 58.7605 79.0797 59.5473 78.4536C60.3564 77.7889 61.184 76.9547 62.0301 75.9509C62.8986 74.9085 63.7142 73.797 64.477 72.6163C64.9876 71.3669 65.3464 70.403 65.5532 69.7245C65.7514 69.0153 65.8292 68.4681 65.7867 68.083C65.7354 67.6672 65.593 67.3402 65.3594 67.102C65.1655 66.8868 64.6893 66.9074 63.9308 67.1637C63.1636 67.3892 62.386 67.9306 61.5982 68.7878C60.4989 69.954 59.6459 70.9925 59.0394 71.9032C58.4329 72.8138 57.9146 73.8013 57.4845 74.8656C57.3234 75.2358 57.1797 75.6675 57.0534 76.1609C56.9581 76.6465 56.8765 77.0627 56.8085 77.4096C56.7404 77.7564 56.7064 77.9298 56.7064 77.9298C56.7413 78.053 56.5986 78.2537 56.2785 78.5319C55.9893 78.8023 55.7206 78.9686 55.4723 79.0309C55.3307 79.0005 55.1295 78.9356 54.8687 78.8362C54.6302 78.6981 54.4406 78.4984 54.3001 78.2368C54.0393 78.1374 53.8492 78.0532 53.73 77.9842C53.6107 77.9152 53.5181 77.823 53.4522 77.7076C53.3689 77.5307 53.3327 77.2265 53.3435 76.795C53.3544 76.3636 53.3464 75.6896 53.3196 74.7729C53.2793 73.9257 53.2457 73.0437 53.2189 72.127C53.2232 71.2026 53.2468 70.4052 53.2897 69.7349C53.3327 69.0646 53.392 68.687 53.4677 68.602C53.4677 68.602 53.4905 68.4479 53.5363 68.1396C53.582 67.8313 53.5525 67.4925 53.4479 67.123C53.4054 66.7379 53.407 66.3913 53.4527 66.083C53.5295 65.767 53.5504 65.5473 53.5156 65.4242C53.6136 65.3007 53.6952 64.8844 53.7605 64.1755C53.8258 63.4666 53.8965 62.542 53.9726 61.4017C53.9464 61.3093 53.9723 60.9896 54.0501 60.4424C54.1192 59.8644 54.2131 59.1978 54.3317 58.4426C54.4416 57.6565 54.5472 56.8551 54.6484 56.0382C54.7719 55.1828 54.8595 54.4353 54.9112 53.7958C55.1355 53.1789 55.2797 52.6315 55.3439 52.1537C55.4305 51.6374 55.5693 51.3057 55.7604 51.1588C55.9069 51.0891 56.0975 51.0578 56.3322 51.0648C56.5892 51.0333 56.8437 51.0519 57.0959 51.1205C57.379 51.1814 57.6331 51.3155 57.858 51.5229C57.9947 51.6535 58.096 51.7765 58.1619 51.8918C58.2278 52.0072 58.2466 52.2498 58.2183 52.6197C58.1813 52.9587 58.0855 53.5598 57.931 54.4231C57.7987 55.2477 57.5916 56.4539 57.3097 58.0416C56.9636 60.107 56.716 61.9335 56.567 63.5208C56.4179 65.1081 56.314 66.5027 56.2554 67.7046C56.1967 68.9065 56.1254 69.9467 56.0417 70.8251L56.0965 71.8996L56.9466 70.4991C57.3163 70.0436 57.7108 69.4994 58.13 68.8666C58.5493 68.2338 58.9238 67.6781 59.2538 67.1996C59.4498 66.9525 59.7234 66.686 60.0746 66.4C60.4481 66.0754 60.8148 65.7856 61.1747 65.5304C61.5347 65.2752 61.8034 65.1088 61.9809 65.0313C62.0653 64.9771 62.285 64.8725 62.64 64.7175C62.995 64.5625 63.4364 64.4187 63.964 64.2863C64.6468 64.115 65.2336 64.1326 65.7242 64.3393C66.2459 64.5382 66.8044 64.9257 67.3996 65.5018C67.924 66.0627 68.2729 66.7667 68.4461 67.6136C68.6107 68.4297 68.5759 69.2464 68.3418 70.0636C68.2215 70.2257 68.1142 70.434 68.0201 70.6884C67.9172 70.9121 67.8831 71.0855 67.918 71.2087C67.948 71.432 67.795 71.9486 67.4591 72.7584C67.1145 73.5374 66.7612 74.2856 66.3991 75.003C66.006 75.7282 65.4888 76.4845 64.8474 77.272C64.1973 78.0288 63.5341 78.7393 62.8579 79.4036C62.204 80.0294 61.6238 80.5048 61.1174 80.8297C60.8778 80.9228 60.5383 81.0739 60.0989 81.2831C59.6508 81.4615 59.3113 81.6127 59.0804 81.7366ZM73.1783 76.715C72.8157 76.6081 72.5306 76.4818 72.3231 76.336C72.1156 76.1902 71.964 75.948 71.8681 75.6093C71.7374 75.1474 71.6643 74.6546 71.649 74.1308C71.625 73.5762 71.6054 73.037 71.5901 72.5132C71.4953 71.9434 71.416 71.3697 71.3522 70.7921C71.3108 70.176 71.3755 69.5826 71.5464 69.0121C71.5567 67.7564 71.5868 66.5122 71.6367 65.2795C71.678 64.016 71.664 62.7334 71.5947 61.4317C71.6757 60.1912 71.7494 59.101 71.8158 58.161C71.9044 57.1824 72.0053 55.9534 72.1184 54.474C72.1799 53.6342 72.1817 52.7598 72.1239 51.8509C72.0884 50.9035 72.1877 50.0212 72.4218 49.204C72.5296 48.8801 72.6039 48.6142 72.6447 48.4061C72.7078 48.1594 72.7753 47.9281 72.8472 47.7122C72.8434 47.5812 72.9147 47.4809 73.0612 47.4112C73.2387 47.3336 73.4448 47.2984 73.6795 47.3055C73.9142 47.3125 74.1154 47.3775 74.2831 47.5003C74.3675 47.4461 74.5023 47.5112 74.6874 47.6956C74.8949 47.8414 75.0956 48.0219 75.2895 48.2371C75.4833 48.4522 75.5909 48.6561 75.6122 48.8486C75.647 48.9718 75.6639 49.1489 75.6629 49.38C75.6928 49.6033 75.6719 49.8229 75.6 50.0388C75.5107 50.1931 75.4389 50.409 75.3845 50.6865C75.3524 50.9254 75.2843 51.2723 75.1804 51.727C75.1695 52.1585 75.1785 52.6014 75.2074 53.0558C75.2276 53.4795 75.2081 53.8801 75.1487 54.2577C75.1292 54.6584 75.0742 55.0514 74.9839 55.4368C74.9246 55.8145 74.8944 56.1188 74.8933 56.3499C74.8765 57.1126 74.8088 57.8716 74.6901 58.6269C74.6025 59.3744 74.559 60.1602 74.5597 60.9845C74.5516 61.778 74.5522 62.6023 74.5615 63.4573C74.5622 64.2816 74.461 65.0985 74.2579 65.9079C74.1365 66.3011 74.1034 66.7711 74.1584 67.3179C74.2135 67.8647 74.2685 68.4115 74.3236 68.9583C74.2942 69.5592 74.2717 70.1255 74.2559 70.6571C74.2625 71.1501 74.2832 71.4582 74.3181 71.5814C74.3236 72.3055 74.3757 73.0179 74.4743 73.7187C74.5953 74.3808 74.6013 74.9894 74.4925 75.5443C74.5486 75.86 74.5562 76.1219 74.5154 76.33C74.4746 76.5381 74.3499 76.6848 74.1414 76.7702C73.9241 76.8247 73.6031 76.8063 73.1783 76.715ZM81.5169 75.4141C81.0339 75.4693 80.5389 75.2473 80.0319 74.7479C79.5472 74.21 79.2041 73.7025 79.0025 73.2254C78.9639 72.9713 78.8947 72.6095 78.795 72.1398C78.7263 71.6624 78.6533 71.1696 78.5759 70.6613C78.5345 70.0452 78.5047 69.2942 78.4867 68.4083C78.4599 67.4917 78.4331 66.575 78.4064 65.6584C78.4106 64.7339 78.4187 63.9405 78.4306 63.2779C78.4425 62.6154 78.4621 62.2147 78.4893 62.076C78.5748 61.7907 78.8057 61.6669 79.1819 61.7043C79.5582 61.7418 79.8898 61.8565 80.1768 62.0483C80.4328 62.2479 80.6242 62.5131 80.7511 62.844C80.9091 63.1672 81.002 63.6715 81.0298 64.357C81.0887 65.0348 81.1106 66.0516 81.0954 67.4074C81.1026 68.7247 81.1221 69.7916 81.1537 70.6081C81.2077 71.386 81.3679 72.1867 81.6343 73.0103C81.8064 74.0883 81.8963 74.7582 81.904 75.0201C81.9029 75.2512 81.7739 75.3826 81.5169 75.4141ZM81.6546 55.6426C81.5566 55.7662 81.4455 55.8435 81.3214 55.8746C81.2196 55.8672 81.0227 55.8177 80.7308 55.726C80.5048 55.7498 80.1863 55.6813 79.7752 55.5207C79.3863 55.3214 79.0286 55.1144 78.7018 54.8996C78.3974 54.6462 78.2365 54.4887 78.219 54.4272C78.1008 54.127 78.0074 53.7383 77.9388 53.2608C77.8924 52.7448 77.9411 52.2709 78.0848 51.8391C78.2198 51.3766 78.5158 51.0715 78.9726 50.9239C79.0968 50.8927 79.2097 50.8808 79.3116 50.8883C79.4134 50.8957 79.7232 50.9334 80.2411 51.0013C80.6201 51.4008 81.0166 51.862 81.4305 52.3847C81.8357 52.8766 82.1012 53.4035 82.227 53.9656C82.3442 54.4968 82.1534 55.0558 81.6546 55.6426ZM93.3234 72.6988C92.9722 72.9848 92.5284 73.1786 91.992 73.2802C91.4557 73.3818 90.6939 73.3916 89.7066 73.3096C89.6445 73.3251 89.4874 73.2986 89.2353 73.23C89.0142 73.1535 88.7689 73.0502 88.4993 72.92C88.2521 72.7512 88.0315 72.5592 87.8377 72.344C87.1406 71.7605 86.6425 70.7642 86.3435 69.3553C86.0444 67.9464 86.0083 66.1747 86.2351 64.0402C86.3216 63.5238 86.4819 62.857 86.716 62.0398C86.9811 61.2148 87.2481 60.4553 87.5171 59.7612C87.8083 59.0286 88.034 58.5927 88.1941 58.4536C88.1941 58.4536 88.3474 58.3492 88.6539 58.1404C88.9605 57.9315 89.3383 57.6224 89.7875 57.2128C89.9253 57.1123 90.0786 57.0079 90.2474 56.8996C90.4472 56.7835 90.6514 56.6828 90.86 56.5975C91.0685 56.5122 91.2547 56.4655 91.4186 56.4573C92.0481 56.3323 92.7497 56.4036 93.5236 56.6711C94.3197 56.9 95.0135 57.2371 95.6049 57.6823C96.1876 58.0967 96.458 58.5235 96.4161 58.9627C96.4335 59.0243 96.3753 59.1708 96.2413 59.4023C96.1297 59.5952 95.9914 59.8112 95.8264 60.0505C95.6838 60.2512 95.5722 60.4441 95.4916 60.6292C95.3887 60.8529 95.1932 60.9844 94.9052 61.0237C94.6482 61.0552 94.3805 60.9904 94.1023 60.8294C93.8463 60.6298 93.6505 60.3492 93.5149 59.9875C93.3831 59.7567 93.0849 59.5842 92.6204 59.4699C92.187 59.3479 91.9702 59.2868 91.9702 59.2868C91.7219 59.3491 91.4304 59.6696 91.0955 60.2483C90.783 60.7884 90.4967 61.4209 90.2365 62.1457C89.8347 62.8401 89.541 63.6228 89.3553 64.4938C89.161 65.3341 89.0356 66.124 88.979 66.8637C88.9448 67.5648 88.9203 68.0656 88.9057 68.3661C88.8687 68.7051 88.9752 69.1401 89.2252 69.671C89.4752 70.2018 89.6797 70.5133 89.8387 70.6053C89.9803 70.6357 90.295 70.5732 90.7829 70.4178C91.3018 70.2546 91.9051 70.0373 92.5929 69.7658C93.2719 69.4635 93.931 69.1497 94.5702 68.8244C95.2095 68.4991 95.7202 68.1896 96.1025 67.8958C96.5876 67.3783 97.0387 67.0343 97.4558 66.8637C97.8729 66.693 98.1988 66.6113 98.4335 66.6183C98.8098 66.6558 99.0595 66.7745 99.1825 66.9745C99.3056 67.1745 99.2978 67.4402 99.1589 67.7719C99.0114 68.0727 98.713 68.4279 98.2638 68.8374C97.8369 69.2083 97.4653 69.5984 97.149 70.0075C96.855 70.3781 96.7298 70.6404 96.7733 70.7943C96.6492 70.8255 96.5226 70.9067 96.3936 71.038C96.2868 71.1308 96.1826 71.1734 96.0807 71.166C96.0187 71.1816 95.7834 71.29 95.375 71.4915C94.9667 71.6929 94.5471 71.9136 94.1164 72.1535C93.7168 72.3857 93.4524 72.5675 93.3234 72.6988ZM105.463 69.3064C105.108 69.4614 104.687 69.5011 104.2 69.4254C103.713 69.3497 103.251 69.1853 102.814 68.9323C102.408 68.6715 102.106 68.368 101.908 68.0219C101.601 67.4065 101.452 66.5864 101.461 65.5618C101.493 64.4987 101.635 63.3582 101.889 62.1403C102.165 60.8839 102.516 59.6581 102.942 58.4629C103.399 57.2599 103.911 56.1915 104.478 55.2579C105.067 54.2856 105.664 53.5752 106.268 53.1268C106.549 52.8256 106.773 52.6208 106.942 52.5125C107.133 52.3656 107.346 52.2957 107.581 52.3028C107.847 52.3021 108.247 52.3664 108.782 52.4959C109.252 52.5101 109.617 52.5668 109.878 52.6663C110.139 52.7657 110.505 53.0035 110.977 53.3797C111.356 53.7792 111.673 54.1944 111.928 54.6251C112.183 55.0558 112.44 55.552 112.698 56.1136C113.165 56.821 113.402 57.3057 113.409 57.5676C113.408 57.7987 113.363 57.9914 113.274 58.1458C113.113 58.516 113.094 58.6855 113.218 58.6543C113.218 58.6543 113.22 58.7198 113.224 58.8508C113.25 58.9431 113.232 59.1127 113.168 59.3593C113.143 60.0913 113.173 60.8423 113.258 61.6124C113.365 62.3439 113.546 62.925 113.801 63.3557C114.241 63.9708 114.804 64.2582 115.491 64.2178C116.178 64.1774 116.767 63.7328 117.258 62.8841C117.529 62.5521 117.794 62.2548 118.052 61.9922C118.302 61.6987 118.461 61.6752 118.531 61.9215C118.531 61.9215 118.591 61.956 118.71 62.025C118.82 62.0632 118.938 62.0668 119.062 62.0356C119.217 61.9967 119.328 62.0349 119.394 62.1503C119.491 62.2579 119.538 62.4272 119.537 62.6583C119.559 62.8508 119.527 63.0897 119.441 63.375C119.106 63.9537 118.961 64.32 119.004 64.4739C119.004 64.4739 118.96 64.5511 118.87 64.7054C118.803 64.8212 118.676 65.0179 118.489 65.2958C118.026 65.7747 117.36 66.1231 116.491 66.3412C115.653 66.5515 114.953 66.5457 114.392 66.3238C113.83 66.102 113.265 65.7491 112.696 65.2654C112.158 64.7738 111.766 64.3281 111.52 63.9282L111.156 63.5247L110.055 64.7411C109.809 65.1654 109.528 65.5822 109.212 65.9913C108.926 66.3927 108.739 66.6705 108.65 66.8248C108.592 66.9714 108.513 67.1064 108.415 67.2299C108.348 67.3456 108.253 67.4191 108.129 67.4502C108.005 67.4814 107.896 67.5087 107.803 67.532C107.71 67.5554 107.663 67.5671 107.663 67.5671C107.698 67.6902 107.586 67.8831 107.328 68.1458C107.101 68.4006 106.803 68.6402 106.435 68.8646C106.097 69.0812 105.773 69.2285 105.463 69.3064ZM104.291 66.9292C104.478 66.8825 104.764 66.6621 105.151 66.2682C105.561 65.8357 106.004 65.3453 106.48 64.797C106.988 64.241 107.418 63.7044 107.77 63.1873C108.153 62.6624 108.407 62.2689 108.533 62.0066C108.622 61.8523 108.767 61.6015 108.968 61.2543C109.16 60.8763 109.334 60.5523 109.49 60.2823C109.978 59.3026 110.226 58.3004 110.235 57.2759C110.236 56.2205 109.987 55.4585 109.488 54.99C109.268 54.6824 109.061 54.5366 108.866 54.5526C108.671 54.5685 108.313 54.7736 107.794 55.1679C107.482 55.4769 107.134 56.0094 106.75 56.7654C106.388 57.4828 106.01 58.3197 105.615 59.276C105.244 60.1937 104.912 61.1345 104.619 62.0982C104.327 63.0619 104.11 63.9407 103.969 64.7346C103.828 65.5284 103.815 66.1255 103.928 66.5257C103.963 66.6489 104.024 66.7489 104.112 66.8257C104.232 66.8947 104.291 66.9292 104.291 66.9292ZM124.371 65.848C124.012 65.8721 123.607 65.7923 123.156 65.6086C122.727 65.3864 122.321 65.1256 121.937 64.8262C121.576 64.4882 121.305 64.177 121.125 63.8924C121.107 63.8309 121.039 63.7656 120.919 63.6966C120.831 63.6198 120.787 63.5814 120.787 63.5814C120.637 63.5201 120.446 63.1393 120.214 62.439C120.005 61.7 119.821 60.8724 119.661 59.9561C119.502 59.0398 119.41 58.3044 119.386 57.7498C119.401 57.2182 119.447 56.4978 119.522 55.5886C119.588 54.6486 119.634 53.8126 119.66 53.0807L120.159 50.0865L118.152 50.0458C117.918 50.0387 117.697 49.9623 117.489 49.8165C117.313 49.6629 117.207 49.5245 117.172 49.4014C117.102 49.155 117.159 48.8275 117.343 48.4187C117.518 47.9791 117.667 47.7438 117.791 47.7126C117.955 47.7045 118.239 47.6498 118.642 47.5485C119.077 47.4395 119.491 47.3189 119.886 47.1869C120.281 47.0549 120.521 46.9618 120.605 46.9076C120.712 46.8149 120.814 46.7067 120.912 46.5832C121.001 46.4289 121.047 46.2362 121.048 46.0051C121.107 45.6275 121.159 45.2845 121.205 44.9762C121.242 44.6372 121.317 44.2557 121.43 43.8317C121.534 43.3769 121.608 42.9953 121.654 42.6871C121.731 42.371 121.855 41.9277 122.026 41.3572C122.12 41.1027 122.217 40.7982 122.316 40.4435C122.415 40.0889 122.573 39.7688 122.792 39.4831C123.001 39.1667 123.25 38.9889 123.538 38.9496C123.849 38.8717 124.293 38.9745 124.872 39.2579C125.208 39.5035 125.413 39.6994 125.487 39.8456C125.562 39.9917 125.52 40.3154 125.363 40.8165C125.263 41.4023 125.116 41.9997 124.923 42.6088C124.761 43.2101 124.614 43.8075 124.483 44.4011C124.178 45.2031 124.194 45.6113 124.53 45.6258C124.867 45.6403 125.719 45.3606 127.085 44.7868C127.942 44.407 128.607 44.2897 129.08 44.4347C129.544 44.549 129.882 44.8601 130.092 45.368C130.394 46.0836 130.443 46.5495 130.238 46.7657C130.034 46.982 129.342 47.2381 128.162 47.5341C127.452 47.8441 126.838 48.0808 126.319 48.244C125.791 48.3764 125.403 48.4737 125.155 48.536C124.76 48.6681 124.501 48.7497 124.376 48.7808C124.252 48.812 124.075 48.8895 123.844 49.0134C123.613 49.1373 123.457 49.2918 123.377 49.4769C123.318 49.6234 123.262 49.8354 123.208 50.1129C123.118 50.2672 123.024 50.6372 122.924 51.2229C122.823 51.8087 122.674 52.4562 122.476 53.1655C122.408 54.5677 122.401 55.9543 122.457 57.3254C122.504 58.6657 122.604 59.9596 122.758 61.2072C122.852 62.0081 123.02 62.543 123.262 62.812C123.496 63.0501 123.947 63.1182 124.616 63.0163C124.966 62.9614 125.51 62.8251 126.246 62.6074C127.004 62.3511 127.583 62.1068 127.983 61.8746C128.281 61.635 128.594 61.3915 128.923 61.1441C129.243 60.8659 129.532 60.5955 129.79 60.3328C130.026 60.1088 130.262 59.8848 130.498 59.6607C130.725 59.4059 130.838 59.2785 130.838 59.2785C130.924 58.9932 131.073 58.8734 131.285 58.919C131.497 58.9647 131.718 59.1567 131.947 59.495C132.051 59.8645 132.083 60.2688 132.041 60.708C131.999 61.1472 131.56 61.7686 130.723 62.572C129.571 63.7846 128.431 64.6313 127.304 65.112C126.199 65.5541 125.221 65.7994 124.371 65.848ZM135.199 61.8942C134.881 61.7102 134.608 61.449 134.379 61.1106C134.181 60.7645 134.046 60.4028 133.972 60.0256C133.898 59.6483 133.889 59.3209 133.943 59.0434C133.874 58.7971 133.852 58.6046 133.88 58.4659C133.929 58.2885 133.921 58.1422 133.855 58.0268C133.789 57.9114 133.759 57.6881 133.765 57.3569C133.771 57.0256 133.781 56.7097 133.796 56.4092C133.874 55.8621 133.941 55.2187 133.998 54.479C134.045 53.7085 134.082 52.9573 134.108 52.2254C134.133 51.4935 134.154 50.8617 134.17 50.3302C134.185 49.7986 134.191 49.4673 134.187 49.3364C134.083 48.9669 134.274 48.7044 134.762 48.549C135.1 48.3324 135.379 48.2623 135.6 48.3387C135.813 48.3844 136.144 48.6146 136.594 49.0293C136.912 49.2134 137.109 49.5595 137.187 50.0677C137.264 50.5759 137.237 51.2423 137.104 52.067C137.05 52.3445 136.995 52.7375 136.94 53.2461C136.915 53.7469 136.924 54.1898 136.967 54.5749C136.912 54.8523 136.857 55.2454 136.802 55.7539C136.769 56.2239 136.747 56.6747 136.736 57.1061C136.717 57.2756 136.721 57.5221 136.746 57.8456C136.762 58.1383 136.772 58.4657 136.774 58.8277C136.768 59.159 136.723 59.4672 136.637 59.7525C136.715 61.085 136.661 61.8902 136.473 62.168C136.317 62.4381 135.892 62.3468 135.199 61.8942ZM134.407 42.0097C134.208 41.8947 134.008 41.7142 133.805 41.4683C133.594 41.1915 133.438 40.9339 133.337 40.6953C133.228 40.426 133.219 40.2797 133.313 40.2563C133.552 40.1632 133.773 39.8275 133.975 39.2492C134.177 38.6709 134.194 38.2048 134.028 37.8508C133.993 37.7277 134.009 37.6082 134.076 37.4925C134.134 37.346 134.221 37.2417 134.337 37.1798C134.639 36.84 134.987 36.7197 135.381 36.8187C135.797 36.8792 136.23 37.1168 136.68 37.5316C137.125 38.0465 137.342 38.5197 137.331 38.9511C137.312 39.3518 137.118 39.9609 136.751 40.7784C136.46 41.5111 136.121 41.9588 135.735 42.1216C135.38 42.2767 134.938 42.2394 134.407 42.0097ZM146.862 58.6709C146.245 58.9576 145.839 59.1089 145.644 59.1248C145.471 59.1022 145.171 58.9798 144.742 58.7575C144.176 58.6358 143.67 58.4331 143.224 58.1493C142.809 57.8577 142.467 57.5312 142.198 57.1699C141.952 56.7699 141.805 56.4275 141.758 56.1426C141.546 55.0416 141.483 53.8208 141.569 52.4801C141.655 51.1395 141.847 49.8217 142.145 48.5267C142.444 47.2317 142.836 46.0943 143.324 45.1146C143.833 44.0964 144.395 43.3784 145.008 42.9608C145.559 42.5587 146.122 42.3183 146.698 42.2397C147.274 42.1611 147.761 42.3524 148.157 42.8135C148.876 43.5896 148.928 44.1865 148.315 44.6041C148.222 44.6275 148.126 44.7009 148.028 44.8245C147.922 44.9172 147.886 45.0251 147.921 45.1483C148.062 45.1787 148.408 45.1084 148.958 44.9375C149.499 44.7357 150.032 44.5031 150.555 44.2398C151.102 43.9379 151.446 43.6866 151.589 43.4859C151.749 43.3468 151.875 43.2655 151.968 43.2422C152.062 43.2188 152.303 43.1912 152.693 43.1593C153.264 43.1809 153.58 43.2994 153.641 43.5149C153.676 43.6381 153.758 43.7496 153.886 43.8494C154.005 43.9184 154.127 43.9373 154.251 43.9061C154.477 43.8824 154.485 44.0288 154.275 44.3452C154.097 44.6538 153.758 45.1015 153.259 45.6884C152.774 46.2058 152.471 46.5456 152.351 46.7077C152.253 46.8312 152.299 47.0507 152.488 47.366C152.901 47.8887 153.109 48.5622 153.109 49.3865C153.11 50.2107 152.944 51.0932 152.612 52.034C152.28 52.9747 151.811 53.9004 151.204 54.8111C150.62 55.6832 149.948 56.4785 149.187 57.197C148.449 57.8769 147.674 58.3682 146.862 58.6709ZM145.495 56.8373C145.619 56.8061 145.819 56.6901 146.094 56.489C146.361 56.2572 146.575 56.0717 146.735 55.9326C146.824 55.7783 146.94 55.6008 147.083 55.4001C147.248 55.1609 147.388 55.0103 147.503 54.9483C147.627 54.9172 147.77 54.832 147.93 54.6929C148.081 54.523 148.279 54.2259 148.525 53.8015C148.762 53.3464 149.059 52.6946 149.418 51.8463C149.847 51.0131 150.153 50.2766 150.338 49.6367C150.514 48.966 150.454 48.4038 150.16 47.9501C150.094 47.8347 149.979 47.7811 149.815 47.7893C149.682 47.7896 149.49 47.7555 149.238 47.6869C148.927 47.7647 148.61 47.7618 148.288 47.6779C147.987 47.5555 147.627 47.3985 147.207 47.2071L146.201 46.4703L145.631 47.454C145.274 48.0713 144.956 48.9427 144.676 50.0682C144.418 51.155 144.247 52.2533 144.162 53.3628C144.069 54.4416 144.074 55.2812 144.177 55.8818C144.277 56.3515 144.442 56.6399 144.672 56.7471C144.901 56.8543 145.176 56.8844 145.495 56.8373ZM171.84 53.6893C171.529 53.7671 171.155 53.6796 170.718 53.4266C170.312 53.1657 169.915 52.8202 169.527 52.3898C169.162 51.9209 168.914 51.4555 168.783 50.9937C168.652 50.5318 168.517 49.6424 168.377 48.3255C168.268 47.0008 168.201 45.649 168.176 44.2702C168.198 43.4073 168.145 42.926 168.017 42.8262C167.889 42.7264 167.518 43.0009 166.904 43.6497C166.53 43.9742 166.207 44.3025 165.936 44.6345C165.655 44.9357 165.43 45.256 165.26 45.5954C165.14 45.7575 164.964 46.0161 164.732 46.3711C164.5 46.7261 164.248 47.0696 163.976 47.4016C163.66 47.8107 163.27 48.3703 162.806 49.0803C162.342 49.7903 161.878 50.5003 161.415 51.2102C160.982 51.9124 160.654 52.4564 160.43 52.8422C160.403 52.981 160.341 53.1121 160.243 53.2356C160.145 53.3591 160.022 53.4558 159.876 53.5255C159.721 53.5644 159.541 53.5765 159.338 53.5616C158.97 53.5549 158.588 53.4366 158.19 53.2066C157.823 52.9688 157.584 52.6497 157.47 52.2494C157.383 51.9415 157.359 51.3869 157.398 50.5857C157.429 49.7536 157.493 48.7481 157.592 47.5692C157.721 46.3825 157.895 45.1187 158.114 43.7777C158.163 43.6004 158.189 43.3961 158.19 43.165C158.182 42.9031 158.155 42.6297 158.107 42.3448C158.091 42.0521 158.048 41.7826 157.978 41.5363C157.935 41.3824 157.906 41.2245 157.894 41.0628C157.904 40.8625 157.918 40.6775 157.936 40.508C157.977 40.2999 158.02 40.1573 158.065 40.0801C158.119 39.8026 158.319 39.6865 158.664 39.7318C159.001 39.7463 159.325 39.8956 159.639 40.1798C160.226 40.4941 160.611 40.9745 160.794 41.6211C161.009 42.2599 161.08 43.0994 161.009 44.1395C160.946 44.3862 160.898 44.629 160.866 44.8679C160.856 45.0682 160.842 45.2531 160.823 45.4227C160.796 45.5614 160.78 45.6809 160.775 45.781C160.762 45.8504 160.755 45.8851 160.755 45.8851C160.879 45.8539 161.119 45.6453 161.475 45.2591C161.831 44.873 162.256 44.4366 162.75 43.9499C163.12 43.4944 163.436 43.0852 163.699 42.7224C163.984 42.3211 164.229 42.0123 164.434 41.796C164.63 41.549 164.759 41.4176 164.821 41.4021C164.945 41.3709 165.088 41.2858 165.248 41.1467C165.408 41.0076 165.532 40.8609 165.622 40.7066C165.711 40.5523 165.787 40.4673 165.849 40.4517C165.933 40.3976 165.975 40.3705 165.975 40.3705C165.975 40.3705 166.037 40.3549 166.162 40.3238C166.277 40.2618 166.379 40.1537 166.469 39.9994C166.665 39.7523 166.977 39.6244 167.407 39.6155C167.828 39.5758 168.244 39.6363 168.655 39.797C169.066 39.9576 169.315 40.1919 169.403 40.4998C169.437 40.623 169.499 40.7229 169.587 40.7997C169.698 40.8379 169.753 40.8571 169.753 40.8571C170.001 40.7947 170.266 41.1407 170.545 41.8949C170.856 42.6413 170.988 43.3997 170.94 44.1702C171.071 44.632 171.135 45.2096 171.132 45.9029C171.159 46.5885 171.194 47.2393 171.235 47.8555C171.205 48.6876 171.226 49.4078 171.299 50.0162C171.371 50.6245 171.495 51.1211 171.67 51.5058C171.846 51.8905 172.046 52.1865 172.271 52.3939C172.456 52.5783 172.526 52.8246 172.48 53.1329C172.426 53.4103 172.212 53.5958 171.84 53.6893ZM181.305 51.2153C179.753 51.6047 178.463 51.3347 177.435 50.4054C177.131 50.152 176.935 49.8714 176.848 49.5635C176.783 49.217 176.811 48.9627 176.931 48.8006C177.083 48.6307 177.33 48.684 177.675 48.9604C178.179 49.0977 178.834 49.065 179.641 48.8626C180.045 48.7613 180.455 48.6254 180.872 48.4548C181.281 48.2533 181.68 48.0212 182.071 47.7582C182.476 47.4258 182.734 47.1632 182.845 46.9703C182.948 46.7466 182.874 46.6004 182.622 46.5318L182.668 46.5201C181.8 46.5071 180.882 46.3748 179.913 46.1232C178.967 45.8331 178.12 45.4849 177.374 45.0786C176.618 44.6416 176.129 44.2038 175.905 43.7653C175.386 42.8731 175.174 41.8877 175.267 40.8089C175.352 39.6994 175.627 38.6741 176.092 37.733C176.297 37.5167 176.555 37.2541 176.866 36.9451C177.169 36.6053 177.425 36.3928 177.633 36.3075L177.646 36.3536C178.062 35.5899 178.636 34.9181 179.37 34.3383C180.134 33.7508 180.954 33.1823 181.829 32.633L182.501 32.3654C182.856 32.2103 183.158 32.1017 183.406 32.0393C183.375 32.0471 183.446 32.0624 183.618 32.085C183.782 32.0768 183.931 32.0726 184.064 32.0722C184.276 32.1179 184.444 32.1251 184.568 32.094C184.989 32.0543 185.414 32.1456 185.843 32.3678C186.271 32.59 186.64 32.8933 186.948 33.2776C187.278 33.6234 187.465 33.9888 187.507 34.3739C187.611 34.9745 187.573 35.5446 187.393 36.0844C187.245 36.6163 186.977 36.9637 186.591 37.1265C186.645 37.0802 186.585 37.0457 186.412 37.023C186.262 36.9618 186.096 36.9045 185.915 36.851L185.801 36.9785C185.801 36.9785 185.777 36.9516 185.729 36.8978C185.703 36.8054 185.641 36.7054 185.544 36.5978C185.399 36.4365 185.295 36.248 185.234 36.0325C185.165 35.7862 185.106 35.5205 185.059 35.2356C185.025 34.8814 184.968 34.6812 184.889 34.6352C184.84 34.5814 184.625 34.5859 184.244 34.6485C183.784 34.6652 183.169 34.9019 182.401 35.3585C181.664 35.8073 181.077 36.3173 180.64 36.8886C180.079 37.491 179.623 38.0507 179.27 38.5678C178.909 39.0541 178.642 39.5171 178.467 39.9566C178.283 40.3654 178.148 40.828 178.062 41.3444C177.968 41.5989 177.889 41.8494 177.826 42.0961C177.785 42.3042 177.786 42.4853 177.83 42.6392C177.926 42.9779 178.274 43.2697 178.875 43.5146C179.499 43.7208 180.388 43.9264 181.543 44.1313C182.446 44.2674 183.234 44.4656 183.905 44.7257C184.577 44.9858 185.096 45.3503 185.462 45.8192C185.559 45.9268 185.618 46.0768 185.639 46.2693C185.682 46.4233 185.682 46.5388 185.637 46.616C185.717 46.662 185.761 46.7004 185.77 46.7312L185.757 46.685C186.109 46.9922 186.218 47.3771 186.083 47.8396C185.979 48.2944 185.692 48.7459 185.22 49.194C184.771 49.6035 184.18 49.9826 183.448 50.3312L183.494 50.3195C183.126 50.544 182.748 50.7376 182.362 50.9004C181.999 51.0247 181.646 51.1296 181.305 51.2153Z" fill="black"/>
</svg>
