<svg width="152" height="154" viewBox="0 0 152 154" fill="none" xmlns="http://www.w3.org/2000/svg">
<path d="M77.224 82.8012C74.1469 88.1144 77.5965 95.0334 79.7346 100.001C83.3179 108.331 88.8798 115.898 95.8441 122.023C107.03 131.86 121.609 137.341 136.942 138.521C134.531 139.33 132.118 140.14 129.705 140.949C127.561 141.669 128.252 144.808 130.487 144.156C136.686 142.345 142.886 140.526 149.084 138.706C150.606 138.259 150.925 136.463 149.643 135.658C142.952 131.448 136.288 127.19 129.539 123.055C127.695 121.924 125.897 124.691 127.688 125.848C132.708 129.097 137.781 132.28 142.85 135.463C128.776 135.402 115.261 131.813 103.892 124.188C96.9004 119.5 91.0189 113.542 86.5307 106.68C82.9631 101.224 75.5552 89.9713 78.7123 83.3954C79.1013 82.5874 77.6737 82.0223 77.224 82.8012Z" fill="#040606"/>
<path d="M26.6418 80.5293C26.0396 80.5155 25.5503 80.4899 25.174 80.4524C24.8065 80.4457 24.6227 80.4423 24.6227 80.4423C24.6412 80.2728 24.5709 80.1421 24.4119 80.05C24.2839 79.9502 24.0449 79.9278 23.6947 79.9827C23.1507 79.8224 22.616 79.5773 22.0905 79.2475C21.6047 78.9407 21.181 78.6183 20.8194 78.2803C20.4578 77.9424 20.1757 77.6504 19.9731 77.4045C19.6251 76.9971 19.4381 76.7473 19.4119 76.6549C19.4081 76.5239 19.5551 76.3387 19.8529 76.099C20.1246 75.767 20.3512 75.6278 20.5325 75.6812C20.7449 75.7268 21.0493 75.9802 21.4457 76.4413C22.0497 77.0483 22.885 77.4158 23.9518 77.5438C25.0496 77.6641 26.1994 77.5569 27.4011 77.2224C28.6252 76.8493 29.7262 76.2762 30.7041 75.5032C31.7218 74.7532 32.3006 74.0968 32.4404 73.534C32.6027 72.9327 32.3066 72.298 31.5524 71.6299C31.3896 71.4069 31.2243 71.234 31.0566 71.1112C30.8888 70.9884 30.6304 70.8389 30.2814 70.6627C29.9633 70.4787 29.431 70.1835 28.6844 69.7773C28.1578 69.6786 27.6667 69.5875 27.2109 69.504C26.7861 69.4127 26.326 69.3138 25.8305 69.2073C25.2641 69.0856 24.5587 68.8834 23.7141 68.6007C22.8918 68.2794 22.0875 67.9041 21.3011 67.4749C20.5148 67.0456 19.9122 66.6197 19.4934 66.1972C18.8661 65.8599 18.315 65.3222 17.84 64.5839C17.3564 63.8149 17.0149 62.9607 16.8155 62.0215C16.6161 61.0822 16.6136 60.1924 16.8079 59.3522C16.8721 58.8744 17.0343 58.2731 17.2946 57.5483C17.5771 56.7848 17.9062 56.0097 18.2818 55.223C18.6575 54.4362 19.0351 53.7149 19.4145 53.059C19.794 52.4032 20.124 51.9247 20.4044 51.6235C20.5829 51.3148 20.777 51.0023 20.9867 50.6859C21.1876 50.3387 21.288 50.1651 21.288 50.1651C21.2755 50.0034 21.3002 49.9147 21.3623 49.8991C21.4554 49.8758 21.502 49.8641 21.502 49.8641C21.631 49.7328 21.9289 49.4931 22.3955 49.1452C22.8621 48.7973 23.323 48.2529 23.7782 47.5121C25.5788 46.005 27.0656 44.857 28.2384 44.068C29.4113 43.2791 30.4167 42.7794 31.2547 42.5692C32.0394 42.4052 32.79 42.4148 33.5066 42.5977C34.2456 42.742 34.8909 43.0253 35.4425 43.4475C36.0252 43.8619 36.4677 44.4269 36.77 45.1425C37.1965 45.8269 37.3784 46.7046 37.3159 47.7756C37.2447 48.8158 36.9896 49.8526 36.5509 50.886C36.1344 51.8809 35.5992 52.6913 34.9453 53.317C34.1808 53.9046 33.639 54.2219 33.3199 54.269C33.0231 54.2775 32.8075 53.9854 32.6729 53.3926C32.6032 53.1463 32.598 52.8343 32.6573 52.4566C32.7477 52.0712 33.0588 51.3501 33.5907 50.2933C34.1743 48.5969 34.4527 47.2904 34.4259 46.3737C34.3991 45.4571 34.0623 45.0305 33.4154 45.0939C33.2117 45.079 32.8703 45.1647 32.3912 45.3509C31.943 45.5293 31.4415 45.7541 30.8867 46.0252C30.3541 46.2578 29.9036 46.4862 29.5349 46.7106C29.1576 46.9043 28.9776 47.0319 28.9951 47.0934C28.9951 47.0934 29.0081 47.1396 29.0343 47.232C29.0604 47.3244 29.0071 47.3707 28.8742 47.3711C28.8121 47.3867 28.5832 47.576 28.1873 47.9392C27.7915 48.3023 27.3243 48.7658 26.7858 49.3296C26.2473 49.8935 25.7088 50.4573 25.1704 51.0211C24.6319 51.585 24.1734 52.0792 23.795 52.504C23.4389 52.8901 23.2541 53.1179 23.2405 53.1872C23.2743 53.5415 23.0045 53.939 22.4311 54.3796C21.915 54.9049 21.4933 55.5878 21.1661 56.4284C20.8699 57.2612 20.5597 58.2789 20.2352 59.4815C19.908 60.3221 19.7535 61.1853 19.7715 62.0712C19.7809 62.9262 19.9639 63.5728 20.3206 64.0109C20.6153 64.4647 21.275 64.9751 22.2999 65.5424C23.3248 66.1097 24.5427 66.5955 25.9536 66.9999C27.1745 67.3201 28.2867 67.6676 29.2903 68.0423C30.2852 68.3863 31.1206 68.7538 31.7964 69.1448C32.5032 69.5281 33.0064 69.8964 33.3059 70.25C33.8266 70.68 34.2429 71.1526 34.555 71.6679C34.8894 72.1446 35.1263 72.6293 35.2657 73.1219C35.4362 73.6068 35.516 74.0649 35.5052 74.4963C35.4274 75.0435 35.1832 75.6489 34.7727 76.3125C34.3932 76.9683 34.0129 77.3276 33.6317 77.3903C33.3165 77.5683 33.0831 77.7423 32.9318 77.9122C32.8114 78.0743 32.6557 78.2288 32.4646 78.3756C32.2822 78.5533 31.8515 78.7933 31.1725 79.0956C30.5245 79.3901 29.7859 79.6579 28.9566 79.899C28.136 80.1708 27.3644 80.3809 26.6418 80.5293ZM55.1115 68.6367C54.4907 68.7924 53.9438 68.7978 53.4705 68.6527C52.9886 68.4768 52.5208 68.116 52.0672 67.5703C51.821 67.1704 51.5773 66.7204 51.336 66.2204C51.117 65.6817 50.9422 65.1815 50.8115 64.7196C50.672 64.227 50.6271 63.892 50.6766 63.7147C50.7659 63.5604 50.7514 63.3331 50.6332 63.033C50.5374 62.6943 50.4371 62.3403 50.3326 61.9708C50.1272 61.3628 49.8761 61.063 49.5794 61.0715C49.3049 61.0415 48.9586 61.2273 48.5405 61.629C48.0776 62.1079 47.479 62.7528 46.7445 63.5636C46.0013 64.3437 45.2289 65.1971 44.4275 66.1237C43.657 67.0425 42.9419 67.9804 42.282 68.9375C41.8083 69.8478 41.5506 70.5225 41.5087 70.9618C41.4891 71.3624 41.3552 71.5939 41.1069 71.6562C40.8935 71.8416 40.6805 71.9116 40.4682 71.8659C40.2781 71.7817 39.993 71.6554 39.6129 71.4869C39.326 71.2951 39.0433 71.1187 38.765 70.9577C38.4781 70.7659 38.2861 70.6162 38.1892 70.5086C38.1456 70.3547 38.1006 70.0197 38.0543 69.5037C38.008 68.9877 37.9771 68.4678 37.9618 67.944C37.9776 67.4124 37.9947 67.0618 38.0132 66.8923C38.1684 66.8534 38.249 66.6683 38.2549 66.337C38.2919 65.9979 38.3823 65.6125 38.526 65.1807C38.4835 64.7957 38.4992 64.2641 38.5732 63.586C38.6695 62.8693 38.7566 62.2373 38.8344 61.6902C39.0597 60.8422 39.1803 60.1524 39.196 59.6208C39.2428 59.0814 39.1927 58.4345 39.0456 57.6799C38.9797 57.5646 38.9802 57.449 39.0472 57.3333C39.1054 57.1867 39.1966 57.0979 39.3208 57.0667C39.4993 56.7581 39.7768 56.6226 40.153 56.66C40.5206 56.6667 40.8963 56.8198 41.2803 57.1192C42.0481 57.7179 42.4833 58.4332 42.5857 59.2649C42.7105 60.058 42.5277 61.2911 42.0372 62.9641C41.9594 63.5112 41.8976 63.9389 41.8519 64.2472C41.8285 64.5169 41.8386 64.7287 41.8822 64.8827C41.8822 64.8827 42.0069 64.736 42.2562 64.4425C42.5367 64.1413 42.8394 63.8016 43.1644 63.4232C43.5118 63.0063 43.7879 62.6897 43.9926 62.4734C44.1042 62.2805 44.3827 61.9138 44.8281 61.3734C45.2734 60.8329 45.7542 60.3001 46.2704 59.7748C46.8089 59.211 47.2246 58.8593 47.5175 58.7199C47.731 58.5344 47.9643 58.3604 48.2175 58.198C48.462 58.0047 48.6463 57.8925 48.7704 57.8614C49.0187 57.7991 49.3683 57.8597 49.8192 58.0434C50.2924 58.1885 50.752 58.4029 51.198 58.6867C51.6353 58.9397 51.9199 59.1816 52.0517 59.4124C52.0865 59.5355 52.1214 59.6587 52.1563 59.7818C52.2222 59.8972 52.2881 60.0126 52.354 60.128C52.5914 60.4971 52.806 61.0203 52.9978 61.6977C53.2205 62.3673 53.3793 62.987 53.4741 63.5568C53.5689 64.1266 53.5518 64.4772 53.4228 64.6085C53.4228 64.6085 53.4359 64.6547 53.462 64.747C53.5105 64.8008 53.5968 64.8122 53.7209 64.781C53.7558 64.9042 53.7776 64.9811 53.7863 65.0119C53.6311 65.0509 53.6083 65.205 53.7177 65.4743C53.8185 65.7129 53.99 65.9666 54.2324 66.2356C54.5058 66.4967 54.7617 66.6963 55.0002 66.8343C55.4773 67.1104 55.7327 67.4255 55.7665 67.7798C55.7916 68.1033 55.5732 68.3889 55.1115 68.6367ZM58.9661 68.362C58.648 68.1779 58.3747 67.9168 58.1459 67.5784C57.9482 67.2323 57.8126 66.8706 57.7391 66.4934C57.6655 66.1161 57.6559 65.7887 57.7104 65.5112C57.6406 65.2649 57.6194 65.0724 57.6466 64.9336C57.6961 64.7563 57.688 64.61 57.6221 64.4946C57.5562 64.3792 57.5262 64.1559 57.5321 63.8247C57.5381 63.4934 57.5484 63.1775 57.5631 62.877C57.6409 62.3299 57.7081 61.6864 57.7647 60.9468C57.8125 60.1763 57.8492 59.4251 57.8747 58.6932C57.9002 57.9613 57.9209 57.3295 57.9366 56.7979C57.9523 56.2664 57.9583 55.9351 57.9545 55.8041C57.8499 55.4347 58.0415 55.1722 58.5294 55.0168C58.867 54.8002 59.1464 54.7301 59.3674 54.8065C59.5798 54.8522 59.9109 55.0824 60.3607 55.4971C60.6788 55.6811 60.8765 56.0273 60.9538 56.5355C61.0312 57.0437 61.0038 57.7101 60.8715 58.5348C60.8171 58.8122 60.7622 59.2053 60.7067 59.7139C60.6822 60.2147 60.6912 60.6576 60.7337 61.0426C60.6793 61.3201 60.6244 61.7131 60.5689 62.2217C60.5357 62.6917 60.5137 63.1424 60.5028 63.5739C60.4843 63.7434 60.4876 63.9899 60.5127 64.3134C60.5291 64.6061 60.5386 64.9334 60.5414 65.2955C60.5354 65.6268 60.4897 65.935 60.4043 66.2203C60.4823 67.5528 60.4276 68.358 60.2403 68.6358C60.0841 68.9059 59.6593 68.8146 58.9661 68.362ZM58.1743 48.4775C57.9755 48.3625 57.7749 48.182 57.5723 47.936C57.361 47.6593 57.2049 47.4017 57.1042 47.1631C56.9947 46.8938 56.9865 46.7475 57.0796 46.7241C57.3192 46.631 57.54 46.2953 57.7419 45.717C57.9439 45.1387 57.9616 44.6725 57.7949 44.3186C57.76 44.1955 57.7761 44.076 57.8431 43.9603C57.9013 43.8138 57.9881 43.7095 58.1036 43.6476C58.4063 43.3078 58.7545 43.1875 59.1482 43.2865C59.5643 43.347 59.9972 43.5846 60.447 43.9994C60.892 44.5143 61.109 44.9875 61.0982 45.4189C61.0786 45.8196 60.8853 46.4287 60.5184 47.2462C60.2271 47.9789 59.8885 48.4266 59.5024 48.5894C59.1474 48.7445 58.7047 48.7072 58.1743 48.4775ZM68.7112 76.1561C68.4084 76.4958 68.0161 76.5778 67.5342 76.4019C67.0833 76.2183 66.6863 75.8727 66.3432 75.3652C66.0001 74.8577 65.85 74.2688 65.8929 73.5985C65.9027 73.3982 65.9087 73.0669 65.9108 72.6047C65.9217 72.1733 65.899 71.7997 65.8429 71.484C65.8129 71.2607 65.8015 70.8678 65.8085 70.3055C65.8242 69.7739 65.8555 69.2384 65.9023 68.699C65.9801 68.1519 66.0506 67.7549 66.1137 67.5083C66.2128 67.1536 66.2367 66.7684 66.1855 66.3525C66.1653 65.9289 66.1247 65.6093 66.0637 65.3938C66.0647 65.1627 66.0726 64.8969 66.0873 64.5964C66.133 64.2881 66.1961 64.0414 66.2767 63.8563C66.2691 63.5944 66.2881 63.3094 66.3338 63.0011C66.3708 62.662 66.4364 62.3653 66.5306 62.1108C66.5316 61.8797 66.5041 61.6063 66.448 61.2906C66.4229 60.9671 66.4681 60.7744 66.5835 60.7125C66.5797 60.5815 66.5604 60.4545 66.5255 60.3313C66.5217 60.2004 66.5358 60.0154 66.5679 59.7765C66.5341 59.4223 66.5343 58.8946 66.5686 58.1935C66.6028 57.4924 66.6662 56.718 66.7587 55.8703C66.8473 54.8917 66.7628 54.0061 66.5052 53.2133C66.2699 52.382 65.8933 51.9324 65.3754 51.8644C65.0923 51.8036 64.8891 51.6732 64.7661 51.4732C64.6343 51.2425 64.5956 50.9884 64.65 50.7109C64.7044 50.4334 64.8427 50.2173 65.0649 50.0627C65.3093 49.8694 65.5911 49.7492 65.9102 49.7021C66.2604 49.6473 66.5726 49.6348 66.8471 49.6649C67.1128 49.6642 67.2389 49.6985 67.2253 49.7679C67.2689 49.9218 67.3726 49.9947 67.5365 49.9866C67.5724 49.8786 67.7271 49.9552 68.0005 50.2164C68.2962 50.439 68.5894 50.7117 68.8802 51.0344C69.1711 51.3572 69.3383 51.5955 69.3818 51.7495C69.3546 51.8882 69.3454 51.973 69.3541 52.0038C69.3541 52.0038 69.4162 51.9882 69.5403 51.9571C69.5403 51.9571 69.6892 51.8372 69.9871 51.5976C70.2762 51.3272 70.5765 51.0375 70.8879 50.7285C71.2217 50.3809 71.4332 50.13 71.5225 49.9757C71.5225 49.9757 71.5914 49.9254 71.7291 49.8249C71.8892 49.6858 72.0139 49.5391 72.1032 49.3848C72.6542 48.9827 73.3085 48.7691 74.0659 48.7439C74.8544 48.7109 75.5226 48.8401 76.0704 49.1313C76.909 49.7453 77.4286 50.4064 77.629 51.1145C77.8605 51.8149 77.9115 52.7585 77.7821 53.9452C77.7636 54.1147 77.698 54.4115 77.5853 54.8355C77.4949 55.2209 77.4002 55.5909 77.3011 55.9455C77.1934 56.2694 77.1395 56.4313 77.1395 56.4313C76.7394 57.7189 76.1628 58.8529 75.4098 59.8333C74.6568 60.8137 73.8621 61.7056 73.0258 62.5091C72.7765 62.8025 72.4985 63.0536 72.1919 63.2624C71.9077 63.4327 71.6458 63.5644 71.4062 63.6574C71.1579 63.7198 70.9785 63.7318 70.8679 63.6936C70.4568 63.5329 69.9983 63.0874 69.4923 62.3569C69.4504 62.7961 69.4085 63.2354 69.3667 63.6746C69.3471 64.0752 69.3392 64.341 69.343 64.472C69.373 64.6953 69.3943 64.8878 69.4068 65.0495C69.4106 65.1805 69.3635 65.3077 69.2655 65.4313C69.2655 65.4313 69.2675 65.4967 69.2713 65.6277C69.2751 65.7586 69.2188 65.9706 69.1023 66.2637C69.0446 67.2345 68.9832 68.0743 68.9179 68.7832C68.8614 69.5229 68.8208 70.1432 68.7964 70.644C68.7806 71.1755 68.7785 71.6378 68.79 72.0306C68.9632 72.8775 69.0235 73.7363 68.9708 74.6069C68.9267 75.5084 68.8402 76.0247 68.7112 76.1561ZM70.5255 61.603C70.6322 61.5103 70.8481 61.2747 71.1732 60.8964C71.5205 60.4794 71.9014 60.0046 72.3157 59.472C72.7213 58.9085 73.0891 58.3875 73.4191 57.909C73.7801 57.4227 74.012 57.0677 74.1149 56.844C74.2847 56.5046 74.4347 56.1537 74.5648 55.7912C74.6862 55.398 74.7524 54.9857 74.7632 54.5543C74.7866 54.2846 74.8168 53.9802 74.8538 53.6412C74.8908 53.3021 74.9166 52.9823 74.9313 52.6819C74.9857 52.4044 74.9625 52.1464 74.8618 51.9079C74.7833 51.6307 74.6249 51.4232 74.3863 51.2852C74.2535 51.2855 73.9072 51.4714 73.3474 51.8427C72.779 52.1832 72.1876 52.6778 71.5735 53.3266C70.9506 53.9446 70.46 54.6777 70.1018 55.5261C69.6853 56.521 69.4483 57.5038 69.3907 58.4746C69.3641 59.4376 69.4534 60.2232 69.6588 60.8312C69.8952 61.4314 70.1841 61.6887 70.5255 61.603ZM83.38 74.8496C83.1366 74.8117 82.8602 74.7162 82.5509 74.563C82.2416 74.4097 81.9701 74.214 81.7365 73.9759C81.5116 73.7685 81.373 73.5724 81.3207 73.3877C81.2684 73.2029 81.2065 72.6908 81.1351 71.8513C81.0724 71.0426 81.004 70.0375 80.9298 68.836C80.8954 67.6574 80.8678 66.4442 80.847 65.1963C80.8659 63.9714 80.9197 62.8696 81.0084 61.891C81.0269 61.7215 81.0848 61.1628 81.1822 60.215C81.3019 59.2287 81.3538 58.0614 81.3379 56.7134C81.3596 55.8505 81.4283 54.8604 81.5442 53.7431C81.6601 52.6258 81.7915 51.5046 81.9384 50.3794C82.0766 49.2235 82.1721 48.2103 82.2248 47.3396C82.2775 46.469 82.3273 45.764 82.3741 45.2246C82.4432 44.6467 82.4758 44.2922 82.472 44.1613C82.4818 43.9609 82.5313 43.7836 82.6206 43.6293C82.7322 43.4364 82.8525 43.2743 82.9816 43.143C83.1019 42.9809 83.2043 42.8728 83.2887 42.8186C83.8038 42.5245 84.3502 42.6347 84.928 43.1492C85.1617 43.3874 85.2842 43.7029 85.2957 44.0958C85.3071 44.4886 85.2672 44.9933 85.1758 45.6098L85.1113 46.6153L86.6828 45.8253C86.9621 45.7552 87.3079 45.6849 87.7201 45.6144C88.1546 45.5054 88.5736 45.4003 88.9771 45.299C89.3806 45.1978 89.6842 45.1546 89.8878 45.1694C90.6415 45.0133 91.1928 45.0233 91.5419 45.1996C91.922 45.368 92.2773 45.6251 92.6079 45.9709C92.8066 46.0859 93.0539 46.2547 93.3496 46.4773C93.6366 46.6691 93.8304 46.8842 93.9312 47.1228C94.2035 47.615 94.3648 48.1847 94.4149 48.8316C94.4874 49.44 94.4668 50.0717 94.353 50.7269C94.2703 51.3742 94.0814 51.9987 93.7864 52.6004C93.5136 53.1635 93.188 53.6574 92.8096 54.0821C92.5341 54.2831 92.294 54.4918 92.0892 54.7081C91.8758 54.8935 91.7691 54.9863 91.7691 54.9863C91.7816 55.148 91.5099 55.48 90.954 55.9822C90.3894 56.4537 89.7273 56.9331 88.9677 57.4205C88.2081 57.9079 87.531 58.2757 86.9364 58.5238C86.7278 58.6091 86.4262 58.7178 86.0314 58.8498C85.6366 58.9819 85.3132 59.0136 85.0611 58.9449C84.7022 58.969 84.4607 58.9966 84.3366 59.0278C84.2124 59.0589 84.1678 59.1361 84.2026 59.2593C84.189 59.3286 84.1548 60.0297 84.0999 61.3626C84.045 62.6955 84.0313 64.2324 84.0587 65.9733C83.9745 67.9071 83.8943 69.4442 83.8182 70.5845C83.7508 71.7556 83.6825 72.6301 83.6134 73.2081C83.5754 73.7782 83.5359 74.1674 83.4951 74.3755C83.463 74.6144 83.4246 74.7724 83.38 74.8496ZM84.3755 56.3469C84.5209 56.5082 84.8332 56.4958 85.3124 56.3096C85.8139 56.0849 86.3823 55.7444 87.0178 55.2881C87.6755 54.7933 88.309 54.2716 88.9183 53.723C89.5189 53.1436 89.9953 52.5953 90.3476 52.0782C90.8125 51.1371 91.1707 50.2887 91.4222 49.5331C91.665 48.7467 91.6007 48.2847 91.2293 48.147C90.7485 47.74 90.0468 47.6688 89.1244 47.9332C88.202 48.1976 87.1625 48.8707 86.006 49.9523C85.5307 50.2695 85.1969 50.6171 85.0047 50.9951C84.8349 51.3345 84.7178 51.7431 84.6536 52.2209C84.5894 52.6987 84.5048 53.2805 84.3998 53.9664C84.3122 54.7139 84.2698 55.2687 84.2725 55.6307C84.2753 55.9928 84.3096 56.2315 84.3755 56.3469ZM103.298 58.9691C101.932 59.3118 100.671 59.0841 99.5143 58.2861C98.3489 57.4573 97.5639 56.2693 97.1591 54.722C96.9074 53.598 96.7892 52.358 96.8043 51.0022C96.8417 49.6077 97.0207 48.2437 97.3413 46.9101C97.6532 45.5457 98.0708 44.3197 98.594 43.2321C99.1171 42.1445 99.7455 41.3108 100.479 40.731C100.746 40.4992 101.037 40.2943 101.352 40.1162C101.698 39.9304 102.058 39.7907 102.43 39.6973C102.772 39.6116 103.146 39.5836 103.553 39.6133C103.952 39.6122 104.293 39.6421 104.576 39.703C105.165 39.7861 105.642 39.9466 106.009 40.1844C106.375 40.4222 106.758 40.8371 107.159 41.4292C107.417 41.9909 107.582 42.3949 107.651 42.6412C107.721 42.8875 107.748 43.2764 107.732 43.808C107.674 45.0099 107.463 46.0852 107.1 47.0337C106.737 47.9822 106.137 48.8582 105.301 49.6616C105.096 49.8779 104.836 50.0751 104.521 50.2531C104.228 50.3926 103.91 50.5051 103.569 50.5908C102.948 50.7466 102.313 50.7907 101.662 50.7231C101.033 50.617 100.483 50.3758 100.011 49.9996L99.5805 49.7119L99.5454 50.1165C99.4703 51.0257 99.4399 51.8577 99.4541 52.6127C99.4994 53.3598 99.6048 54.0258 99.7704 54.6108C99.875 54.9803 100.006 55.3266 100.164 55.6497C100.353 55.9651 100.56 56.2264 100.785 56.4338C100.962 56.5874 101.202 56.6753 101.508 56.6976C101.836 56.6813 102.17 56.6303 102.512 56.5446C102.729 56.4901 102.946 56.4356 103.164 56.3811C103.403 56.288 103.619 56.168 103.81 56.0211C104.285 55.704 104.647 55.3987 104.897 55.1053C105.177 54.8041 105.453 54.4875 105.725 54.1555L105.885 54.0164L105.838 54.0281C106.159 53.7499 106.432 53.4833 106.659 53.2285C106.917 52.9659 107.046 52.8346 107.046 52.8346C107.17 52.8034 107.273 52.6953 107.353 52.5102C107.567 52.3247 107.89 52.293 108.324 52.4151C108.788 52.5294 109.068 52.7559 109.164 53.0946C109.177 53.2563 109.107 53.5377 108.955 53.9387C108.793 54.3089 108.597 54.6715 108.365 55.0265C108.164 55.3737 107.975 55.586 107.797 55.6636C107.775 55.7021 107.684 55.791 107.524 55.9301C107.355 56.0384 107.248 56.1311 107.203 56.2083L107.25 56.1966C107.075 56.6362 106.848 56.891 106.569 56.9611L106.196 57.0546C106.133 57.3013 105.8 57.6488 105.195 58.0973C104.582 58.5149 103.95 58.8056 103.298 58.9691ZM102.517 48.2826C103.075 48.1424 103.513 47.8678 103.829 47.4586C104.168 47.0109 104.436 46.5479 104.633 46.0698C105.018 45.0827 105.149 44.1926 105.024 43.3994C104.921 42.5677 104.671 42.0369 104.274 41.8069C104.061 41.7612 103.878 41.7579 103.723 41.7968C103.59 41.7972 103.339 41.9096 102.97 42.134C102.708 42.2656 102.386 42.5939 102.002 43.1188C101.619 43.6437 101.249 44.2148 100.892 44.832C100.566 45.4415 100.326 45.9467 100.174 46.3477L99.8433 47.4695C100.065 47.3148 100.285 47.2102 100.502 47.1557C100.742 47.0626 100.886 47.043 100.934 47.0967C101.013 47.3739 101.134 47.6239 101.296 47.8468C101.482 48.0312 101.669 48.1655 101.859 48.2497C102.08 48.3262 102.299 48.3371 102.517 48.2826ZM116.197 55.2378C115.838 55.2619 115.433 55.1821 114.982 54.9984C114.553 54.7762 114.147 54.5154 113.763 54.216C113.402 53.878 113.131 53.5668 112.95 53.2823C112.933 53.2207 112.865 53.1554 112.745 53.0864C112.657 53.0096 112.613 52.9712 112.613 52.9712C112.463 52.91 112.272 52.5292 112.04 51.8288C111.831 51.0898 111.647 50.2622 111.487 49.3459C111.327 48.4296 111.236 47.6942 111.212 47.1396C111.227 46.608 111.273 45.8876 111.348 44.9784C111.414 44.0384 111.46 43.2024 111.486 42.4705L111.984 39.4763L109.978 39.4356C109.744 39.4285 109.523 39.3521 109.315 39.2063C109.139 39.0527 109.033 38.9143 108.998 38.7912C108.928 38.5449 108.985 38.2173 109.169 37.8085C109.343 37.3689 109.493 37.1336 109.617 37.1024C109.781 37.0943 110.065 37.0396 110.468 36.9383C110.903 36.8293 111.317 36.7088 111.712 36.5767C112.107 36.4447 112.346 36.3516 112.431 36.2974C112.538 36.2047 112.64 36.0966 112.738 35.973C112.827 35.8187 112.872 35.626 112.873 35.3949C112.933 35.0173 112.985 34.6743 113.031 34.3661C113.068 34.027 113.143 33.6455 113.256 33.2215C113.359 32.7667 113.434 32.3851 113.48 32.0769C113.557 31.7608 113.681 31.3175 113.852 30.747C113.946 30.4925 114.042 30.188 114.141 29.8334C114.24 29.4787 114.399 29.1586 114.618 28.873C114.827 28.5565 115.076 28.3787 115.364 28.3394C115.674 28.2615 116.119 28.3643 116.698 28.6477C117.033 28.8933 117.238 29.0892 117.313 29.2354C117.388 29.3815 117.346 29.7052 117.189 30.2064C117.089 30.7921 116.942 31.3895 116.749 31.9986C116.587 32.5999 116.44 33.1974 116.309 33.7909C116.004 34.5929 116.02 35.0011 116.356 35.0156C116.693 35.0301 117.544 34.7505 118.911 34.1767C119.768 33.7968 120.433 33.6795 120.906 33.8246C121.37 33.9388 121.708 34.2499 121.918 34.7578C122.22 35.4734 122.269 35.9393 122.064 36.1556C121.859 36.3718 121.167 36.6279 119.988 36.9239C119.278 37.234 118.663 37.4706 118.145 37.6338C117.617 37.7662 117.229 37.8635 116.981 37.9258C116.586 38.0579 116.326 38.1395 116.202 38.1706C116.078 38.2018 115.901 38.2793 115.67 38.4032C115.439 38.5271 115.283 38.6816 115.203 38.8667C115.144 39.0132 115.088 39.2252 115.033 39.5027C114.944 39.657 114.849 40.027 114.749 40.6128C114.649 41.1985 114.5 41.846 114.302 42.5553C114.233 43.9575 114.227 45.3441 114.283 46.7152C114.33 48.0555 114.43 49.3494 114.584 50.597C114.677 51.3979 114.845 51.9328 115.088 52.2018C115.321 52.4399 115.773 52.508 116.442 52.4061C116.792 52.3512 117.335 52.2149 118.072 51.9972C118.83 51.7409 119.409 51.4967 119.809 51.2645C120.107 51.0248 120.42 50.7813 120.749 50.5339C121.069 50.2557 121.358 49.9853 121.616 49.7227C121.852 49.4986 122.088 49.2746 122.324 49.0505C122.551 48.7957 122.664 48.6683 122.664 48.6683C122.75 48.383 122.899 48.2632 123.111 48.3088C123.323 48.3545 123.544 48.5465 123.773 48.8848C123.877 49.2543 123.908 49.6586 123.867 50.0978C123.825 50.5371 123.386 51.1584 122.549 51.9618C121.397 53.1744 120.257 54.0211 119.13 54.5018C118.025 54.9439 117.047 55.1892 116.197 55.2378ZM131.009 51.422C130.25 51.6783 129.492 51.819 128.735 51.8442C128.009 51.8616 127.345 51.7478 126.744 51.5029C126.165 51.2195 125.704 50.824 125.361 50.3165C125.021 49.94 124.83 49.6747 124.786 49.5208C124.734 49.336 124.799 49.1548 124.982 48.9772C125.23 48.9148 125.469 48.9373 125.699 49.0445C125.951 49.1132 126.269 49.1816 126.654 49.2499C127.233 49.5334 127.853 49.6087 128.513 49.4759C129.205 49.3354 129.795 49.0719 130.284 48.6853C130.773 48.2988 130.996 47.913 130.954 47.528C130.919 47.4048 130.811 47.201 130.631 46.9164C130.451 46.6319 130.251 46.3359 130.031 46.0283C128.862 45.0686 127.914 44.0697 127.188 43.0317C126.484 41.9551 126.028 41.0474 125.819 40.3084C125.662 39.7542 125.667 39.1263 125.834 38.4249C125.992 37.6926 126.306 37.0369 126.773 36.4579C127.166 35.7327 127.639 35.0535 128.191 34.4203C128.743 33.7871 129.313 33.2155 129.9 32.7055C130.518 32.1876 131.084 31.7816 131.599 31.4875C131.941 31.4018 132.404 31.3351 132.989 31.2873C133.573 31.2395 133.992 31.2499 134.244 31.3185C134.62 31.356 135.042 31.6129 135.509 32.0893C135.968 32.5348 136.271 33.0193 136.419 33.5427C136.48 33.7583 136.497 34.051 136.468 34.4208C136.44 34.7906 136.352 35.2415 136.203 35.7735C136.175 36.1433 136.127 36.5017 136.059 36.8485C135.982 37.1646 135.961 37.3842 135.996 37.5073C135.937 37.885 135.767 38.1088 135.488 38.1789C135.231 38.2105 134.928 38.1381 134.579 37.9619C134.252 37.7471 133.959 37.4744 133.699 37.1439C133.444 36.7132 133.293 36.3554 133.246 36.0705C133.189 35.7548 133.222 35.4003 133.343 35.0071C133.589 34.5827 133.694 34.309 133.659 34.1858C133.625 34.0627 133.436 34.0439 133.095 34.1296C132.878 34.1841 132.514 34.4239 132.002 34.849C131.513 35.2355 131.004 35.7261 130.474 36.3207C129.967 36.8767 129.546 37.4441 129.211 38.0228C128.778 38.725 128.534 39.2148 128.48 39.4923C128.456 39.762 128.519 40.1585 128.667 40.682C128.789 41.113 129.035 41.6285 129.404 42.2284C129.804 42.8204 130.143 43.197 130.422 43.358C130.422 43.358 130.591 43.5463 130.931 43.9228C131.261 44.2686 131.647 44.6334 132.088 45.0174C133.546 46.7621 134.18 48.12 133.989 49.0912C133.799 50.0624 132.805 50.8393 131.009 51.422Z" fill="black"/>
</svg>
