<svg width="173" height="140" viewBox="0 0 173 140" fill="none" xmlns="http://www.w3.org/2000/svg">
<path d="M103.611 60.5438C109.203 57.9698 115.755 62.0789 120.492 64.6902C128.436 69.067 135.425 75.351 140.841 82.9013C149.539 95.0282 153.567 110.136 153.237 125.59C154.28 123.255 155.323 120.917 156.366 118.58C157.292 116.503 160.351 117.493 159.482 119.667C157.071 125.698 154.651 131.728 152.23 137.757C151.636 139.236 149.816 139.385 149.14 138.026C145.604 130.931 142.019 123.859 138.563 116.713C137.618 114.761 140.549 113.225 141.526 115.127C144.268 120.459 146.94 125.837 149.613 131.211C150.933 117.123 148.685 103.259 142.208 91.1595C138.225 83.7185 132.869 77.2675 126.476 72.1247C121.393 68.0366 110.914 59.5554 104.056 62.0895C103.214 62.4019 102.791 60.9198 103.611 60.5438Z" fill="#040606"/>
<path d="M23.6155 74.2414C23.3672 74.3037 23.0312 74.1736 22.6075 73.8512C22.1838 73.5289 21.9352 73.179 21.8616 72.8018C21.7532 72.3013 21.6925 71.5581 21.6793 70.5721C21.6661 69.5861 21.6796 68.5769 21.7198 67.5445C21.76 66.5121 21.8258 65.6877 21.9173 65.0711C21.902 64.5473 21.8886 64.089 21.8771 63.6962C21.888 63.2647 21.8915 62.9835 21.8876 62.8526C21.9459 62.7061 21.994 62.3477 22.0321 61.7776C22.1012 61.1996 22.1281 60.6487 22.1128 60.1249C22.1052 59.863 22.0986 59.37 22.0931 58.6459C22.1099 57.8832 22.1272 57.005 22.1451 56.0112C22.194 55.0096 22.2317 54.0273 22.2583 53.0643C22.316 52.0935 22.3575 51.2421 22.3831 50.5102C22.4086 49.7783 22.4219 49.2968 22.4229 49.0657C22.5667 48.6339 22.6527 48.2331 22.6809 47.8632C22.7092 47.4934 22.7214 47.243 22.7176 47.112C22.869 46.9422 22.934 46.7609 22.9128 46.5684C22.8828 46.3451 22.8504 46.1719 22.8155 46.0487C22.772 45.8947 22.7836 45.7599 22.8506 45.6442C22.9486 45.5206 22.9802 45.3973 22.9453 45.2741C23.0433 45.1506 23.0817 44.9926 23.0604 44.8001C23.0305 44.5767 23.0713 44.3686 23.1829 44.1757L23.1934 43.3322L25.9272 42.5967C25.9697 42.9818 26.0073 43.467 26.0401 44.0524C26.0641 44.607 25.9697 45.3891 25.7569 46.3989C25.776 47.0536 25.7466 47.6546 25.6688 48.2017C25.6221 48.7411 25.636 49.0839 25.7106 49.23C25.6659 49.3072 25.6134 49.6501 25.553 50.2589C25.5237 50.8598 25.4827 51.5956 25.4299 52.4663C25.4082 53.3291 25.371 54.1959 25.3183 55.0665C25.2966 55.9294 25.2642 56.696 25.2213 57.3663C25.2007 57.998 25.1811 58.3987 25.1626 58.5682C25.0537 59.1231 24.9792 59.9168 24.939 60.9492C24.8988 61.9816 24.7993 63.3916 24.6405 65.1792C24.5316 65.7342 24.4304 66.551 24.3369 67.6298C24.2744 68.7007 24.2478 69.6638 24.2571 70.5188C24.2556 71.8053 24.2426 72.699 24.2182 73.1997C24.2335 73.7235 24.1989 74.0125 24.1145 74.0667C24.0388 74.1516 23.8725 74.2099 23.6155 74.2414ZM16.1962 46.6214C15.3359 46.8703 14.671 46.9877 14.2016 46.9735C13.7633 46.9516 13.5364 46.6788 13.5211 46.155C13.5097 45.7621 13.633 45.4344 13.8911 45.1718C14.1491 44.9091 14.56 44.6576 15.1235 44.4173C15.4475 44.27 15.8603 44.084 16.3618 43.8593C16.8943 43.6267 17.3958 43.4019 17.8662 43.185C18.8556 42.8048 19.6631 42.4867 20.2888 42.2308C20.9455 41.9671 21.622 41.7149 22.3185 41.4742C23.0149 41.2335 23.8976 40.946 24.9665 40.6118C25.8491 40.3244 26.5965 40.0874 27.2085 39.9008C27.8429 39.6757 28.1601 39.5631 28.1601 39.5631C28.2532 39.5398 28.5878 39.4888 29.1639 39.4102C29.74 39.3316 30.367 39.2567 31.045 39.1855C31.7229 39.1143 32.2345 39.1014 32.5797 39.1466C33.3372 39.1215 33.9103 39.2085 34.2991 39.4077C34.719 39.5992 35.0651 39.941 35.3374 40.4333C35.5351 40.7794 35.6005 41.0103 35.5335 41.1261C35.4578 41.211 35.3132 41.3462 35.0998 41.5317C34.4469 41.9264 33.9498 42.1665 33.6084 42.2522C33.267 42.3379 32.8572 42.3582 32.3791 42.3133C32.1803 42.1983 31.9549 42.1065 31.7028 42.0378C31.4817 41.9614 31.1141 41.9547 30.6001 42.0177C30.1084 42.0422 29.3417 42.1521 28.3 42.3476C27.4571 42.658 26.7097 42.895 26.0579 43.0586C25.4062 43.2221 25.102 43.3809 25.1456 43.5348L22.438 44.3627L20.2221 45.166C19.9204 45.2747 19.499 45.4299 18.9577 45.6317C18.4078 45.8027 17.8777 45.9851 17.3675 46.1791C16.8485 46.3423 16.4581 46.4898 16.1962 46.6214ZM39.5698 65.3903C39.3613 65.4756 39.1285 65.534 38.8715 65.5655C38.6368 65.5585 38.389 65.5052 38.1282 65.4058C37.8101 65.2218 37.5871 65.0799 37.4592 64.9801C37.3225 64.8495 37.2261 64.6263 37.1699 64.3107C37.1449 63.9872 37.1184 63.4827 37.0906 62.7971C37.1063 62.2655 37.1008 61.5414 37.074 60.6248C37.0385 59.6773 37.0229 58.7414 37.0272 57.817C36.9808 57.301 36.9612 56.7618 36.9682 56.1994C37.0063 55.6292 37.0574 55.1053 37.1216 54.6275C37.1771 54.1189 37.2166 53.7297 37.2399 53.4601C37.2442 52.5356 37.2635 51.7229 37.2977 51.0217C37.363 50.3128 37.4487 49.4999 37.5548 48.5829C37.6521 47.6351 37.7487 46.3907 37.8444 44.8497C38.0043 42.831 38.1198 41.3015 38.1911 40.2613C38.2846 39.1826 38.348 38.4082 38.3811 37.9382C38.4366 37.4296 38.4606 37.0444 38.4529 36.7825C38.3832 36.5362 38.393 36.3359 38.4823 36.1815C38.6026 36.0194 38.7714 35.9111 38.9886 35.8566C39.4232 35.7476 39.8256 35.8774 40.1959 36.2462C40.5886 36.5764 40.8987 37.0262 41.1264 37.5956C41.3453 38.1343 41.4004 38.6811 41.2915 39.236C41.1087 40.4691 40.9558 41.9255 40.8329 43.6052C40.7013 45.2541 40.5809 46.8837 40.4716 48.494C40.3535 50.0736 40.2056 51.4298 40.0276 52.5627C40.0625 52.6859 40.0769 52.9131 40.071 53.2443C40.065 53.5756 40.0348 53.88 39.9804 54.1574C39.926 54.4349 39.8672 54.697 39.804 54.9437C39.7719 55.1826 39.7559 55.302 39.7559 55.302C39.7907 55.4252 39.8096 55.6678 39.8123 56.0299C39.8151 56.3919 39.8086 56.8387 39.7928 57.3703C39.7733 57.771 39.7532 58.2872 39.7325 58.9189C39.743 59.5429 39.7738 60.0628 39.825 60.4786C39.9017 60.1626 40.11 59.6651 40.4497 58.9863C40.7894 58.3074 41.1199 57.7134 41.4411 57.2041C41.8157 56.6484 42.2393 56.0309 42.7119 55.3517C43.1845 54.6725 43.5721 54.163 43.8749 53.8233C44.1776 53.4835 44.4425 53.1862 44.6695 52.9313C44.9189 52.6379 45.0436 52.4912 45.0436 52.4912C45.0087 52.3681 45.0379 52.2948 45.131 52.2714C45.2464 52.2095 45.3662 52.1629 45.4903 52.1318C45.6145 52.1006 45.6722 52.0697 45.6635 52.0389C45.6858 52.0003 45.6796 51.9194 45.6447 51.7963C45.6011 51.6423 45.7326 51.4609 46.0392 51.2521C46.3767 51.0355 46.7696 50.8379 47.2177 50.6595C47.6882 50.4426 48.0786 50.2951 48.389 50.2172C48.7614 50.1238 49.0781 50.1268 49.3389 50.2262C49.5998 50.3256 49.975 50.5942 50.4646 51.032C50.9765 51.4312 51.3792 51.9732 51.6728 52.658C51.9887 53.3042 52.1271 54.028 52.0879 54.8292C52.1577 55.0756 52.2113 55.4413 52.2489 55.9266C52.3089 56.3732 52.4086 56.8428 52.548 57.3355L52.687 58.8835L53.4319 58.6966C53.6802 58.6343 53.9261 58.6221 54.1695 58.6599C54.4042 58.667 54.5216 58.6705 54.5216 58.6705C54.6806 58.7625 54.8396 58.8545 54.9986 58.9465C55.1489 59.0077 55.2861 59.0228 55.4103 58.9916C55.7827 58.8982 55.966 59.0171 55.96 59.3483C55.9453 59.6488 55.7866 59.9689 55.4839 60.3087C54.8785 60.9883 54.2653 61.406 53.6446 61.5617C53.0549 61.7097 52.442 61.5997 51.8059 61.2316C51.1612 60.8328 50.6852 60.3257 50.378 59.7102C50.0708 59.0948 49.902 58.2633 49.8714 57.2157C49.612 55.8298 49.3952 54.8289 49.2209 54.2131C49.0689 53.5587 48.8222 53.2744 48.4808 53.36C48.1704 53.4379 47.6883 53.7897 47.0343 54.4155C46.3717 55.0105 45.6595 55.7828 44.8978 56.7324C44.1361 57.682 43.4117 58.7047 42.7246 59.8005C42.0375 60.8963 41.5143 61.9839 41.155 63.0634C40.9133 63.6187 40.674 64.1239 40.4372 64.5791C40.1916 65.0034 39.9025 65.2738 39.5698 65.3903ZM61.3114 61.0724C61.227 61.1265 61.0675 61.1501 60.8328 61.143C60.5981 61.136 60.359 61.1135 60.1156 61.0757C59.8722 61.0378 59.7107 60.9959 59.6312 60.9499C59.4722 60.8579 59.2958 60.7043 59.1019 60.4891C58.9391 60.2662 58.8388 59.9121 58.8012 59.4268C58.7549 58.9108 58.8866 58.2018 59.1963 57.2996C59.2644 56.9528 59.3199 56.4442 59.3628 55.7738C59.4058 55.1035 59.44 54.4024 59.4655 53.6705C59.5134 52.9 59.552 52.2143 59.5813 51.6134C59.6417 51.0046 59.6879 50.5808 59.72 50.3419C59.634 49.8029 59.4983 49.4412 59.3132 49.2568C59.1503 49.0339 58.8473 48.9615 58.4041 49.0397C58.0937 49.1176 57.8367 49.1491 57.633 49.1343C57.4604 49.1117 57.2956 48.8232 57.1387 48.269C57.0788 47.8224 57.1046 47.5026 57.2163 47.3097C57.3502 47.0782 57.5418 46.8158 57.7912 46.5224C58.058 46.2905 58.3379 46.1049 58.6308 45.9654C58.9548 45.8182 59.2763 45.721 59.5954 45.6739C59.9145 45.6268 60.1933 45.6723 60.4319 45.8103C60.684 45.8789 60.9021 46.121 61.0862 46.5365C61.2616 46.9212 61.4103 47.3291 61.5323 47.7601C61.6853 48.1834 61.8079 48.4989 61.8999 48.7066C62.1406 48.3824 62.4637 47.9386 62.8694 47.3751C63.2973 46.7731 63.6564 46.2213 63.9466 45.7198C64.3473 45.2565 64.8411 44.7698 65.4281 44.2598C66.0063 43.719 66.4506 43.4096 66.761 43.3317C67.1024 43.2461 67.47 43.2528 67.8637 43.3518C68.2487 43.4201 68.5381 43.5618 68.732 43.777C69.1906 44.2225 69.461 44.6494 69.5432 45.0574C69.6565 45.4577 69.6035 45.9162 69.3841 46.4329C69.187 46.9111 68.8775 47.2855 68.4555 47.5563C68.0645 47.8193 67.807 47.9664 67.6828 47.9975C67.4966 48.0443 67.2246 47.9641 66.8668 47.7571C66.509 47.5501 66.2885 47.3581 66.2052 47.1811C66.179 47.0888 66.0034 47.2318 65.6784 47.6101C65.3756 47.9499 65.0481 48.3784 64.6959 48.8954C64.3349 49.3818 64.0428 49.8178 63.8196 50.2036C63.475 50.9826 63.1647 52.0003 62.8887 53.2567C62.6128 54.5131 62.2935 56.0278 61.931 57.8006C61.7765 58.6638 61.7 59.392 61.7017 59.9851C61.6947 60.5475 61.5646 60.9099 61.3114 61.0724ZM82.0708 55.6654C81.5759 56.3832 80.907 56.8973 80.064 57.2077C79.2522 57.5104 78.3948 57.5936 77.492 57.4574C76.5804 57.2904 75.7562 56.9036 75.0194 56.2971C74.3 55.7521 73.7407 55.068 73.3415 54.2448C72.9335 53.3908 72.5912 52.2401 72.3144 50.7926C72.0676 49.5684 72.1157 48.2702 72.4586 46.8981C72.7928 45.4951 73.3059 44.1957 73.9979 42.9998C74.7209 41.796 75.5112 40.8887 76.3688 40.2778C76.7472 39.8531 77.096 39.6172 77.4151 39.5701C77.7565 39.4844 78.2773 39.3867 78.9776 39.2769C79.7176 39.1901 80.2845 39.1963 80.6782 39.2954C81.1029 39.3867 81.4675 39.559 81.7719 39.8124C82.3682 40.1574 82.8093 40.5414 83.0953 40.9643C83.3725 41.3564 83.5721 41.768 83.6941 42.1991C83.7617 42.9076 83.5314 43.8558 83.0034 45.0435C82.4976 46.1928 81.6956 47.2349 80.5974 48.17C79.9755 48.5569 79.2568 48.8362 78.4411 49.0079C77.6254 49.1796 76.9014 49.1469 76.2692 48.9098C75.6097 48.8115 75.2348 48.955 75.1445 49.3405C75.0454 49.6951 75.0926 50.5077 75.286 51.7782C75.4931 52.9794 75.8302 53.8182 76.2975 54.2945C76.756 54.7401 77.2622 54.9428 77.816 54.9028C78.4716 54.8702 78.9788 54.8419 79.3377 54.8178C79.7188 54.7551 80.1297 54.5036 80.5702 54.0633C80.9796 53.6308 81.242 53.3836 81.3575 53.3216C81.4642 53.2289 81.5399 53.1439 81.5845 53.0668C81.6515 52.951 81.7966 52.7003 82.0198 52.3145C82.1761 52.0444 82.3032 51.8477 82.4012 51.7241C82.4905 51.5698 82.6127 51.4732 82.7679 51.4343C82.9231 51.3953 83.0846 51.4372 83.2523 51.56C83.4113 51.652 83.5616 51.7133 83.7032 51.7437C84.0136 51.6658 84.1279 51.835 84.0463 52.2512C83.9957 52.6596 83.7962 53.1878 83.4477 53.8359C83.0906 54.4531 82.6316 55.063 82.0708 55.6654ZM79.2527 45.8858C79.5505 45.6461 79.8464 45.3411 80.1404 44.9705C80.4257 44.5691 80.6446 44.1679 80.797 43.7669C80.9718 43.3274 81.0243 42.9844 80.9546 42.7381C80.8326 42.307 80.5306 42.0036 80.0487 41.8277C79.558 41.621 78.9397 41.7267 78.1937 42.1448C77.8785 42.3228 77.5559 42.6511 77.2259 43.1296C76.8873 43.5773 76.5772 44.0673 76.2957 44.5997C76.0453 45.1242 75.8439 45.5869 75.6914 45.9879C75.57 46.3812 75.5491 46.6008 75.6286 46.6468C75.7653 46.7773 76.064 46.8343 76.5246 46.8176C76.9766 46.7702 77.462 46.6649 77.981 46.5017C78.5309 46.3307 78.9548 46.1254 79.2527 45.8858ZM91.7335 53.5375C91.5026 53.6614 91.1854 53.774 90.7819 53.8752C90.3697 53.9457 89.9997 53.9891 89.6719 54.0054C89.3664 53.9831 89.2006 53.9258 89.1744 53.8334C89.1309 53.6794 89.0315 53.6219 88.8763 53.6609C88.8763 53.6609 88.7813 53.6188 88.5912 53.5346C88.4322 53.4425 88.1956 53.37 87.8814 53.3169C87.48 52.956 87.2096 52.5292 87.0702 52.0365C86.922 51.5131 86.8307 50.6621 86.7963 49.4836C86.6715 48.6904 86.7136 47.7235 86.9226 46.5828C87.1539 45.4036 87.4895 44.1816 87.9294 42.9171C88.3693 41.6525 88.8707 40.4879 89.4336 39.4233C90.0276 38.3509 90.6093 37.5288 91.1789 36.9572C91.4914 36.4171 91.9537 36.0538 92.5657 35.8672C93.1777 35.6807 93.8067 35.6713 94.4525 35.839C94.8065 35.915 95.1866 36.0835 95.5928 36.3443C95.9991 36.6051 96.3985 36.9006 96.7912 37.2308C97.1838 37.561 97.5299 37.9028 97.8294 38.2564C98.0184 38.5717 98.1521 38.8679 98.2305 39.145C98.3313 39.3836 98.4185 39.6915 98.492 40.0687C98.5966 40.4382 98.7069 41.0041 98.823 41.7665C98.8247 42.3596 98.8767 43.072 98.9792 43.9037C99.1127 44.7277 99.2622 45.4321 99.4278 46.0171C99.5313 46.6177 99.7111 47.0178 99.967 47.2174C100.254 47.4092 100.569 47.3467 100.911 47.0299C101.231 46.7517 101.567 46.5852 101.917 46.5303C102.258 46.4447 102.548 46.4708 102.787 46.6088C103.056 46.7391 103.243 46.9889 103.348 47.3584C103.452 47.7279 103.375 48.1595 103.116 48.6532C102.879 49.1084 102.536 49.5407 102.087 49.9502C101.66 50.3212 101.214 50.565 100.748 50.6819C100.407 50.7675 100.024 50.6492 99.6006 50.3268C99.1682 49.9736 98.7451 49.5357 98.3312 49.0129C97.9396 48.4517 97.5722 47.9173 97.2291 47.4098L96.6491 46.4176L95.1832 48.8136C94.9017 49.3459 94.6115 49.8474 94.3126 50.3181C94.036 50.7503 93.873 51.055 93.8234 51.2323C93.7467 51.5484 93.5303 51.8995 93.1742 52.2856C92.8491 52.664 92.3689 53.0813 91.7335 53.5375ZM91.1018 50.7775C91.5423 50.3372 92.0211 49.7389 92.5384 48.9826C93.0469 48.1954 93.5268 47.366 93.9782 46.4942C94.4208 45.5917 94.7722 44.778 95.0324 44.0532C95.3596 43.2126 95.5757 42.4494 95.6807 41.7635C95.7858 41.0776 95.8219 40.4419 95.7892 39.8566C95.5692 39.549 95.2672 39.2456 94.8833 38.9462C94.4906 38.616 94.1813 38.4628 93.9553 38.4865C93.2725 38.6578 92.6651 39.2719 92.1332 40.3288C91.6236 41.347 91.1514 42.4384 90.7164 43.6028C90.6358 43.7879 90.5348 44.077 90.4134 44.4702C90.292 44.8635 90.1663 45.2413 90.0362 45.6037C89.9284 45.9275 89.8565 46.1434 89.8206 46.2514C89.7624 46.3979 89.6764 46.7987 89.5626 47.4538C89.4712 48.0704 89.3841 48.7023 89.3014 49.3496C89.21 49.9661 89.1904 50.3668 89.2427 50.5515C89.295 50.7363 89.3672 50.9325 89.4592 51.1402C89.5823 51.3402 89.7767 51.4398 90.0425 51.4391C90.3082 51.4384 90.6613 51.2178 91.1018 50.7775ZM115.865 48.7682C115.559 48.9771 115.324 49.0855 115.16 49.0937C115.018 49.0633 114.627 48.9141 113.986 48.6462C113.664 48.3313 113.433 48.043 113.292 47.7815C113.174 47.4814 113.006 46.9464 112.788 46.1767C112.72 45.6993 112.656 45.0061 112.599 44.0973C112.572 43.1806 112.563 42.21 112.572 41.1854C112.581 40.1608 112.586 39.2364 112.585 38.4121C112.615 37.58 112.653 37.0099 112.699 36.7016C112.707 35.9081 112.627 35.45 112.46 35.3272C112.283 35.1736 111.876 35.1439 111.238 35.2381C109.953 35.3957 108.949 36.0763 108.226 37.28C107.502 38.4838 106.862 39.98 106.305 41.7687C105.882 43.0949 105.711 44.1931 105.791 45.0634C105.894 45.8951 106.035 46.4532 106.215 46.7377C106.378 46.9607 106.635 47.0447 106.985 46.9899C107.326 46.9042 107.677 46.7338 108.037 46.4786C108.428 46.2156 108.757 45.9682 109.024 45.7363C109.206 45.5586 109.435 45.3693 109.71 45.1682C110.008 44.9286 110.295 44.7083 110.57 44.5072C110.757 44.4605 110.898 44.4909 110.995 44.5985C111.114 44.6675 111.218 44.856 111.305 45.1639C111.34 45.287 111.417 45.3831 111.536 45.4521C111.655 45.5211 111.786 45.5709 111.927 45.6013C112.086 45.6933 111.978 46.0171 111.604 46.5728C111.26 47.1207 110.67 47.7964 109.834 48.5998C108.964 49.049 108.234 49.3476 107.644 49.4955C107.086 49.6357 106.486 49.5719 105.845 49.304C104.828 48.9987 104.091 48.2765 103.636 47.1377C103.203 45.9602 103.037 44.4354 103.139 42.5631C103.337 41.0296 103.67 39.7422 104.14 38.7009C104.601 37.6289 105.118 36.576 105.689 35.5421C105.778 35.3878 106.006 35.133 106.37 34.7776C106.757 34.3837 107.262 33.9933 107.884 33.6064C108.59 33.1654 109.276 32.8284 109.941 32.5955C110.607 32.3625 111.236 32.3531 111.828 32.5672C112.422 32.5502 112.774 32.4452 112.886 32.2523C112.989 32.0286 113.096 31.4082 113.207 30.391C113.392 28.6958 113.557 26.989 113.702 25.2707C113.838 23.5216 114.017 21.7455 114.238 19.9423C114.383 19.2794 114.443 18.7862 114.418 18.4627C114.415 18.1006 114.458 17.8425 114.547 17.6881L115.432 17.4662C115.556 17.435 115.804 17.4883 116.175 17.6259C116.547 17.7636 116.847 18.0016 117.075 18.3399C117.154 18.617 117.204 19.264 117.226 20.2808C117.239 21.2668 117.149 22.4765 116.957 23.9099C116.783 25.1737 116.613 26.453 116.447 27.7476C116.304 29.0037 116.198 30.3328 116.13 31.735C116.059 32.7752 115.966 33.6228 115.853 34.2779C115.739 34.9331 115.696 35.4878 115.725 35.9423C115.766 36.7895 115.738 37.5715 115.641 38.2882C115.567 38.9663 115.519 39.4402 115.495 39.7099C115.423 40.9812 115.367 42.0175 115.328 42.8187C115.28 43.5892 115.264 44.2363 115.279 44.7601C115.286 45.2531 115.343 45.7499 115.452 46.2503C115.583 46.7122 115.786 47.2547 116.062 47.8779C116.097 48.0011 116.116 48.1281 116.12 48.2591C116.124 48.39 116.039 48.5598 115.865 48.7682ZM125.373 46.7288C124.713 46.6305 124.063 46.4474 123.422 46.1795C122.772 45.8808 122.331 45.6124 122.097 45.3742C122.019 45.0971 122.013 44.9007 122.08 44.785C122.138 44.6384 122.389 44.526 122.832 44.4478C123.298 44.331 124.06 44.2056 125.119 44.0718C125.492 43.9783 125.949 43.8307 126.49 43.6289C127.031 43.4272 127.517 43.2063 127.948 42.9663C128.409 42.7185 128.645 42.4945 128.655 42.2942C128.81 42.2552 128.828 42.2013 128.709 42.1322C128.581 42.0325 128.437 41.9366 128.278 41.8445C128.154 41.8757 128.002 41.8646 127.82 41.8111C127.63 41.7269 127.473 41.7004 127.349 41.7315C127.305 41.5776 127.102 41.4472 126.74 41.3403C126.399 41.1949 126.056 41.0995 125.711 41.0542C124.871 40.6714 124.142 40.3267 123.524 40.0202C122.896 39.683 122.623 39.4218 122.704 39.2367C122.669 39.1136 122.651 39.052 122.651 39.052C122.642 39.0212 122.638 39.0058 122.638 39.0058C122.421 39.0603 122.085 38.8147 121.632 38.269C121.209 37.7155 120.928 37.1924 120.789 36.6998C120.684 36.3303 120.662 35.8412 120.722 35.2325C120.774 34.5929 120.899 33.9185 121.097 33.2093C121.295 32.5 121.539 31.8946 121.83 31.3931C122.24 30.7295 122.782 30 123.454 29.2047C124.118 28.3786 124.788 27.6334 125.464 26.969C126.162 26.2661 126.769 25.7676 127.284 25.4734C127.782 25.1177 128.264 24.8814 128.729 24.7646C129.226 24.64 129.691 24.6387 130.124 24.7608C130.478 24.8369 130.823 24.9977 131.159 25.2433C131.516 25.4503 131.832 25.6844 132.105 25.9456C132.401 26.1682 132.61 26.3795 132.733 26.5794C132.838 26.9489 132.925 27.3724 132.993 27.8498C133.053 28.2964 133.069 28.7047 133.041 29.0745C133.044 29.4366 132.936 29.6449 132.719 29.6994C132.719 29.6994 132.677 29.7265 132.592 29.7806C132.53 29.7962 132.521 29.881 132.565 30.0349C132.652 30.3428 132.519 30.7553 132.167 31.2724C131.691 31.8207 131.248 32.1955 130.84 32.3969C130.423 32.5675 130.111 32.4644 129.905 32.0875C129.777 31.9877 129.684 31.8955 129.627 31.8109C129.57 31.7263 129.479 31.6996 129.355 31.7307C129.355 31.7307 129.295 31.6962 129.176 31.6272C129.057 31.5582 128.967 31.416 128.906 31.2004C128.871 31.0773 128.887 30.9578 128.954 30.8421C129.012 30.6956 129.041 30.6223 129.041 30.6223C129.196 30.5834 129.35 30.3634 129.502 29.9624C129.646 29.5306 129.755 29.0912 129.827 28.6442C129.923 28.1586 129.949 27.8388 129.905 27.6849C129.853 27.5002 129.791 27.4002 129.72 27.385C129.681 27.362 129.537 27.3816 129.288 27.4439C128.906 27.7377 128.448 28.1164 127.914 28.5801C127.381 29.0438 126.878 29.4996 126.407 29.9477C125.958 30.3572 125.644 30.7163 125.465 31.0249C125.402 31.2716 125.364 31.4297 125.35 31.499C125.328 31.5376 125.254 31.5725 125.13 31.6036C125.095 31.4805 125.004 31.5693 124.857 31.8701C124.731 32.1324 124.57 32.5026 124.373 32.9808C124.207 33.4511 124.041 33.9215 123.875 34.3919C123.731 34.8237 123.624 35.1475 123.552 35.3634C123.507 35.4405 123.482 35.6448 123.476 35.976C123.492 36.2687 123.535 36.5382 123.605 36.7845C123.585 37.1852 123.675 37.443 123.874 37.558C124.064 37.6422 124.484 37.8337 125.133 38.1323C126.446 38.6603 127.487 39.1081 128.256 39.4758C129.025 39.8434 129.613 40.1577 130.019 40.4185C130.425 40.6793 130.699 40.9405 130.839 41.202C131.659 41.9855 132.03 42.6509 131.953 43.198C131.875 43.7452 131.469 44.3087 130.736 44.8884C130.469 45.1203 129.992 45.3719 129.304 45.6434C128.616 45.9149 127.9 46.1441 127.155 46.3311C126.419 46.5488 125.825 46.6813 125.373 46.7288Z" fill="black"/>
</svg>
