<svg width="142" height="159" viewBox="0 0 142 159" fill="none" xmlns="http://www.w3.org/2000/svg">
<path d="M70.9783 87.38C74.264 92.5425 71.1433 99.6131 69.2388 104.674C66.0472 113.16 60.8587 120.976 54.2157 127.417C43.5457 137.763 29.3185 143.916 14.1543 145.81C16.5822 146.506 19.0121 147.202 21.442 147.898C23.6011 148.516 23.0523 151.683 20.8061 151.137C14.5755 149.617 8.34438 148.09 2.11363 146.561C0.584574 146.185 0.189144 144.407 1.42584 143.543C7.88179 139.027 14.3081 134.464 20.8249 130.02C22.6055 128.805 24.5102 131.483 22.7838 132.723C17.9437 136.201 13.0492 139.616 8.15857 143.032C22.122 142.315 35.3763 138.1 46.3243 129.955C53.0572 124.947 58.6331 118.723 62.7869 111.661C66.0886 106.045 72.9477 94.4626 69.5274 88.0428C69.106 87.2541 70.498 86.6231 70.9783 87.38Z" fill="#040606"/>
<path d="M16.1845 54.2922C15.9504 54.1885 15.7655 53.8793 15.6298 53.3645C15.4941 52.8497 15.5133 52.4209 15.6875 52.0782C15.9099 51.617 16.3192 50.9937 16.9154 50.2083C17.5116 49.4228 18.1431 48.6355 18.8099 47.8463C19.4767 47.0572 20.0358 46.4477 20.4872 46.0179C20.7974 45.5955 21.0688 45.2259 21.3014 44.9092C21.5754 44.5757 21.7511 44.3562 21.8287 44.2506C21.9647 44.1709 22.2232 43.9181 22.6039 43.492C23.014 43.0788 23.3741 42.6611 23.6843 42.2387C23.8393 42.0276 24.1375 41.6348 24.5786 41.0606C25.061 40.4696 25.615 39.7879 26.2405 39.0154C26.8952 38.2559 27.5293 37.5047 28.1427 36.7618C28.7854 36.0319 29.3419 35.3863 29.8123 34.825C30.2827 34.2637 30.5894 33.8923 30.7324 33.7108C31.1113 33.4588 31.4257 33.1957 31.6756 32.9215C31.9254 32.6473 32.0891 32.4574 32.1666 32.3518C32.3905 32.311 32.5532 32.2082 32.6549 32.0433C32.7687 31.8488 32.8497 31.6923 32.898 31.5738C32.9583 31.4256 33.0505 31.3265 33.1745 31.2764C33.3278 31.2393 33.4285 31.1615 33.4768 31.043C33.6301 31.0059 33.7575 30.9049 33.8592 30.7401C33.973 30.5456 34.1332 30.4066 34.3399 30.3232L34.8671 29.6646L37.4748 30.7666C37.2714 31.0964 37.0026 31.502 36.6682 31.9837C36.346 32.4357 35.7904 32.9942 35.0014 33.6594C34.6137 34.1873 34.2208 34.643 33.8229 35.0265C33.4542 35.423 33.2543 35.7018 33.2232 35.8629C33.1405 35.8962 32.8881 36.1343 32.466 36.5771C32.0732 37.0328 31.5882 37.5876 31.011 38.2416C30.463 38.9085 29.9005 39.5689 29.3233 40.2228C28.7754 40.8897 28.2783 41.4742 27.832 41.9762C27.4271 42.4616 27.1652 42.7654 27.0463 42.8877C26.6191 43.2582 26.0721 43.8381 25.4053 44.6273C24.7385 45.4164 23.7926 46.4668 22.5676 47.7784C22.1404 48.149 21.5581 48.7307 20.8207 49.5236C20.1125 50.3294 19.4991 51.0723 18.9804 51.7521C18.1878 52.7654 17.6278 53.462 17.3004 53.8417C16.9902 54.2641 16.7852 54.4707 16.6854 54.4614C16.5734 54.4819 16.4065 54.4254 16.1845 54.2922ZM27.3272 27.9531C26.4958 27.62 25.8994 27.3035 25.5381 27.0036C25.206 26.7166 25.195 26.362 25.5052 25.9396C25.7378 25.6229 26.0366 25.4403 26.4017 25.3921C26.7667 25.3438 27.2453 25.3983 27.8375 25.5555C28.1835 25.6387 28.6233 25.746 29.157 25.8773C29.7199 26.0216 30.2535 26.1529 30.7579 26.2713C31.7718 26.5802 32.6041 26.8263 33.2547 27.0094C33.9347 27.2055 34.6232 27.4229 35.3204 27.6616C36.0175 27.9002 36.8902 28.2166 37.9385 28.6108C38.8112 28.9272 39.5462 29.2001 40.1434 29.4296C40.7821 29.6423 41.1014 29.7487 41.1014 29.7487C41.1891 29.7876 41.4843 29.9532 41.9869 30.2457C42.4894 30.5381 43.0298 30.8648 43.6081 31.2258C44.1863 31.5867 44.5976 31.8913 44.8419 32.1393C45.4546 32.5855 45.8529 33.0067 46.0368 33.4029C46.2501 33.8122 46.3126 34.2946 46.2244 34.8502C46.1674 35.2447 46.0768 35.467 45.9528 35.517C45.8409 35.5374 45.6438 35.5551 45.3614 35.57C44.6039 35.4795 44.0642 35.363 43.7424 35.2205C43.4205 35.078 43.0849 34.842 42.7356 34.5124C42.6497 34.2995 42.5284 34.0884 42.3719 33.8792C42.2446 33.6829 41.959 33.4515 41.5149 33.185C41.1122 32.9017 40.4402 32.5167 39.4987 32.03C38.6432 31.7562 37.9082 31.4832 37.2937 31.2112C36.6793 30.9391 36.3418 30.8772 36.2815 31.0254L33.6376 30.0123L31.3964 29.2824C31.0917 29.1825 30.664 29.0456 30.1131 28.8717C29.5744 28.6681 29.0442 28.4859 28.5226 28.3249C28.0131 28.1344 27.6146 28.0104 27.3272 27.9531ZM34.2076 57.1294C33.9907 57.0683 33.7712 56.9712 33.5492 56.8379C33.3685 56.6879 33.206 56.4935 33.0615 56.2547C32.924 55.9139 32.8355 55.6649 32.796 55.5075C32.7685 55.3204 32.8298 55.0852 32.9798 54.8018C33.159 54.5313 33.4485 54.1173 33.8483 53.5597C34.1878 53.1503 34.6289 52.5761 35.1717 51.837C35.7266 51.0682 36.2901 50.3207 36.8622 49.5946C37.1431 49.1592 37.4593 48.7221 37.8108 48.283C38.1916 47.8569 38.5542 47.4753 38.8988 47.1381C39.2554 46.7713 39.5259 46.4888 39.7103 46.2906C40.2824 45.5644 40.7975 44.9355 41.2559 44.4038C41.7434 43.8851 42.3111 43.2969 42.9589 42.6392C43.6188 41.9519 44.4604 41.0303 45.4839 39.8743C46.8519 38.3811 47.8839 37.2465 48.58 36.4702C49.3174 35.6773 49.8437 35.1058 50.159 34.7557C50.5157 34.3889 50.7715 34.0999 50.9266 33.8887C51.0232 33.6516 51.1541 33.4997 51.3194 33.433C51.514 33.3792 51.7137 33.3977 51.9186 33.4884C52.3282 33.6697 52.5656 34.0197 52.6307 34.5382C52.7371 35.0401 52.7049 35.5855 52.5341 36.1745C52.3753 36.7338 52.0823 37.1988 51.6551 37.5693C50.7524 38.4289 49.7359 39.4831 48.6056 40.7317C47.4874 41.9507 46.3899 43.1613 45.3131 44.3636C44.2483 45.5363 43.2973 46.5144 42.46 47.2981C42.4118 47.4166 42.2834 47.6047 42.0749 47.8622C41.8664 48.1197 41.6553 48.341 41.4417 48.5263C41.2281 48.7116 41.0205 48.882 40.819 49.0377C40.6467 49.2063 40.5606 49.2905 40.5606 49.2905C40.5123 49.4091 40.3779 49.6119 40.1573 49.8991C39.9367 50.1862 39.6567 50.5345 39.3173 50.9439C39.0554 51.2477 38.722 51.6423 38.3171 52.1276C37.9414 52.6259 37.6459 53.0548 37.4304 53.4141C37.6854 53.2122 38.1556 52.9481 38.841 52.6219C39.5265 52.2958 40.1525 52.0307 40.7191 51.8268C41.3562 51.6192 42.07 51.393 42.8604 51.1483C43.6509 50.9035 44.2699 50.7404 44.7176 50.6587C45.1653 50.5771 45.557 50.5057 45.8928 50.4444C46.2699 50.3665 46.4585 50.3276 46.4585 50.3276C46.5068 50.209 46.5748 50.1692 46.6626 50.2081C46.7917 50.2302 46.9148 50.2672 47.0318 50.3191C47.1488 50.3709 47.2134 50.382 47.2255 50.3523C47.2668 50.3357 47.3116 50.268 47.3599 50.1495C47.4203 50.0013 47.6355 49.9392 48.0057 49.9632C48.4051 50.0001 48.8363 50.086 49.2994 50.2211C49.8037 50.3395 50.2022 50.4634 50.4948 50.5929C50.846 50.7484 51.0938 50.9456 51.2382 51.1844C51.3827 51.4233 51.5133 51.8659 51.6299 52.5122C51.7879 53.1418 51.772 53.8169 51.5821 54.5374C51.4336 55.2412 51.0974 55.8969 50.5737 56.5045C50.4771 56.7416 50.2944 57.063 50.0255 57.4686C49.798 57.8576 49.5877 58.2892 49.3945 58.7634L48.5518 60.0693L49.254 60.3802C49.4881 60.4839 49.6895 60.6255 49.8581 60.8051C50.0388 60.955 50.1291 61.03 50.1291 61.03C50.1979 61.2004 50.2666 61.3707 50.3354 61.5411C50.4162 61.6818 50.5151 61.7781 50.6322 61.8299C50.9833 61.9854 51.0546 62.1918 50.8461 62.4493C50.6497 62.6772 50.3277 62.8319 49.88 62.9136C48.9846 63.0768 48.2443 63.0289 47.6591 62.7698C47.1031 62.5237 46.6876 62.0599 46.4126 61.3785C46.1496 60.6674 46.0864 59.9748 46.2228 59.3006C46.3593 58.6264 46.7377 57.867 47.358 57.0223C48.0062 55.7701 48.451 54.8477 48.6924 54.2549C48.9752 53.6455 48.9556 53.2696 48.6338 53.1271C48.3411 52.9975 47.7446 52.9783 46.8441 53.0693C45.9556 53.1307 44.9191 53.3015 43.7343 53.5815C42.5496 53.8616 41.3494 54.2222 40.1336 54.6633C38.9178 55.1045 37.8362 55.6401 36.8888 56.2701C36.3566 56.5592 35.8572 56.8103 35.3905 57.0234C34.9358 57.2069 34.5415 57.2422 34.2076 57.1294ZM54.0044 67.1007C53.9045 67.0915 53.7643 67.0119 53.5836 66.8619C53.4029 66.712 53.2282 66.5472 53.0596 66.3676C52.891 66.188 52.7895 66.0557 52.7552 65.9705C52.6864 65.8001 52.6418 65.5705 52.6213 65.2816C52.6301 65.0056 52.7689 64.6648 53.0378 64.2591C53.3187 63.8238 53.8587 63.3458 54.6579 62.8252C54.925 62.5936 55.2816 62.2268 55.7278 61.7247C56.1741 61.2227 56.6324 60.691 57.1028 60.1297C57.6145 59.5517 58.0668 59.0349 58.4596 58.5791C58.8817 58.1364 59.1789 57.8307 59.3512 57.6621C59.6149 57.1842 59.7305 56.8156 59.698 56.5563C59.7068 56.2804 59.5124 56.0369 59.1148 55.8259C58.8222 55.6964 58.6002 55.5631 58.4488 55.4261C58.3266 55.3021 58.3742 54.9733 58.5914 54.4399C58.819 54.0509 59.036 53.8147 59.2427 53.7313C59.4907 53.6312 59.8032 53.5422 60.1803 53.4643C60.5333 53.4456 60.8682 53.4715 61.1849 53.5417C61.5309 53.625 61.8442 53.7462 62.1247 53.9053C62.4053 54.0645 62.5971 54.2719 62.7002 54.5274C62.8568 54.7366 62.8798 55.0617 62.7693 55.5025C62.6709 55.9137 62.5372 56.3267 62.3682 56.7416C62.2285 57.1694 62.131 57.4936 62.0758 57.714C62.465 57.6064 62.9928 57.4553 63.6592 57.2607C64.3669 57.0493 64.9895 56.8352 65.5268 56.6183C66.1277 56.4996 66.8165 56.4197 67.593 56.3787C68.3816 56.3081 68.9222 56.3376 69.2148 56.4671C69.5366 56.6096 69.8223 56.841 70.0717 57.1613C70.3332 57.452 70.4742 57.7418 70.4947 58.0307C70.5821 58.6641 70.5327 59.1669 70.3465 59.5392C70.1896 59.9245 69.8657 60.2533 69.3749 60.5257C68.9253 60.7814 68.4509 60.8862 67.9517 60.8401C67.4817 60.8069 67.1881 60.7644 67.0711 60.7126C66.8955 60.6349 66.7304 60.4043 66.5757 60.021C66.421 59.6377 66.3652 59.3507 66.4084 59.1599C66.4446 59.071 66.2182 59.0757 65.7292 59.174C65.2815 59.2557 64.7597 59.3919 64.1639 59.5829C63.5801 59.7442 63.0816 59.9083 62.6682 60.0751C61.9173 60.4772 61.0466 61.0887 60.0561 61.9094C59.0656 62.7302 57.8821 63.7279 56.5057 64.9025C55.8528 65.4879 55.3446 66.015 54.981 66.4837C54.6295 66.9227 54.3039 67.1284 54.0044 67.1007ZM73.6968 75.6092C72.8651 75.8706 72.0215 75.8644 71.166 75.5906C70.3397 75.3297 69.6126 74.8679 68.9846 74.2051C68.3687 73.5126 67.9568 72.7006 67.7491 71.7692C67.5172 70.8969 67.4972 70.0135 67.6888 69.119C67.8926 68.1947 68.3306 67.0769 69.003 65.7655C69.5615 64.6485 70.398 63.6547 71.5126 62.7839C72.6391 61.8834 73.8431 61.1746 75.1243 60.6575C76.4349 60.1533 77.6161 59.9242 78.6681 59.9702C79.2277 59.8682 79.6478 59.8967 79.9283 60.0559C80.2502 60.1984 80.7209 60.4418 81.3405 60.7861C81.9773 61.1729 82.4204 61.5265 82.6698 61.8468C82.9485 62.1801 83.1299 62.5402 83.214 62.9273C83.4719 63.5661 83.5834 64.1402 83.5486 64.6495C83.526 65.1292 83.4301 65.5765 83.2611 65.9914C82.8785 66.5916 82.1137 67.1974 80.9666 67.809C79.8609 68.4038 78.5875 68.732 77.1464 68.7936C76.4182 68.7161 75.6797 68.4941 74.931 68.1276C74.1823 67.7612 73.6316 67.29 73.2791 66.7142C72.8197 66.2309 72.4358 66.1135 72.1275 66.3617C71.8312 66.5804 71.3685 67.25 70.7393 68.3707C70.1636 69.445 69.9134 70.3137 69.9887 70.9767C70.0761 71.61 70.3504 72.0813 70.8116 72.3904C71.3486 72.7681 71.7659 73.0578 72.0636 73.2595C72.4027 73.4446 72.8813 73.4991 73.4994 73.423C74.0883 73.3339 74.4473 73.3004 74.5764 73.3226C74.7176 73.3151 74.8295 73.2947 74.9122 73.2614C75.0362 73.2113 75.3048 73.1029 75.7181 72.9361C76.0075 72.8193 76.2287 72.7424 76.382 72.7053C76.5473 72.6386 76.7031 72.6376 76.8494 72.7024C76.9957 72.7671 77.0972 72.8995 77.1539 73.0995C77.2227 73.2699 77.3035 73.4106 77.3964 73.5217C77.689 73.6512 77.6751 73.855 77.3547 74.1329C77.0635 74.4237 76.5813 74.7174 75.9079 75.014C75.2466 75.2809 74.5096 75.4793 73.6968 75.6092ZM77.4916 66.1655C77.8738 66.1598 78.2948 66.1014 78.7546 65.9901C79.2264 65.8492 79.6457 65.6675 80.0126 65.4452C80.4208 65.2061 80.6732 64.9681 80.7698 64.731C80.9388 64.3161 80.8874 63.8911 80.6156 63.4559C80.356 62.9912 79.8035 62.6941 78.9582 62.5648C78.6001 62.5112 78.1438 62.5715 77.5893 62.7458C77.0469 62.8904 76.501 63.086 75.9516 63.3325C75.4315 63.5919 74.988 63.8328 74.6211 64.0552C74.2835 64.2905 74.1319 64.4507 74.1663 64.5359C74.1937 64.723 74.3941 64.9516 74.7676 65.2219C75.1531 65.4625 75.6006 65.6781 76.1101 65.8687C76.6489 66.0723 77.1093 66.1712 77.4916 66.1655ZM82.6237 79.8761C82.3654 79.8318 82.0461 79.7254 81.6658 79.557C81.2974 79.3589 80.979 79.1655 80.7106 78.9767C80.4834 78.7712 80.388 78.624 80.4242 78.5351C80.4846 78.3869 80.4416 78.2804 80.2953 78.2156C80.2953 78.2156 80.2463 78.124 80.1483 77.9407C80.0795 77.7703 79.9376 77.5676 79.7225 77.3324C79.6282 76.8009 79.6776 76.2981 79.8707 75.8239C80.0759 75.3201 80.5275 74.5931 81.2254 73.6428C81.6149 72.9407 82.243 72.2043 83.1095 71.4336C84.0173 70.6462 85.0336 69.8894 86.1584 69.163C87.2831 68.4367 88.3949 67.827 89.4936 67.334C90.6217 66.854 91.586 66.5638 92.3867 66.4635C92.9653 66.23 93.5533 66.2279 94.1506 66.4574C94.7479 66.6868 95.2495 67.0663 95.6555 67.5959C95.8877 67.8736 96.0838 68.2402 96.2436 68.6958C96.4034 69.1513 96.5365 69.63 96.6429 70.1319C96.7494 70.6337 96.8119 71.1162 96.8305 71.5791C96.7855 71.944 96.7087 72.2598 96.6001 72.5265C96.5328 72.7766 96.4121 73.0729 96.2379 73.4156C96.0931 73.7712 95.8319 74.2852 95.4544 74.9576C95.0908 75.4263 94.6936 76.02 94.2627 76.7387C93.8611 77.4704 93.5456 78.1178 93.3162 78.6809C93.0284 79.218 92.9239 79.644 93.0029 79.9588C93.1112 80.2866 93.3978 80.431 93.8626 80.3919C94.2862 80.3696 94.6529 80.4444 94.9627 80.6166C95.2845 80.7591 95.497 80.9581 95.6002 81.2136C95.7326 81.4821 95.7263 81.7942 95.5815 82.1498C95.4366 82.5055 95.1102 82.7982 94.6021 83.028C94.1354 83.2411 93.599 83.371 92.9929 83.4175C92.4282 83.4473 91.9264 83.365 91.4875 83.1707C91.1656 83.0282 90.9368 82.6995 90.8011 82.1847C90.6775 81.6403 90.6134 81.0347 90.6086 80.368C90.6452 79.6846 90.6844 79.0373 90.7261 78.4261L90.8792 77.2871L88.2495 78.2742C87.7001 78.5206 87.1628 78.7375 86.6376 78.9247C86.1537 79.0953 85.8377 79.2352 85.6895 79.3445C85.4346 79.5465 85.048 79.6901 84.5297 79.7755C84.0406 79.8738 83.4053 79.9074 82.6237 79.8761ZM83.8236 77.3116C84.4418 77.2355 85.1874 77.0584 86.0605 76.7803C86.9456 76.4726 87.8343 76.1139 88.7264 75.7043C89.6306 75.2651 90.4082 74.8398 91.0593 74.4285C91.8343 73.9671 92.4742 73.4983 92.979 73.0222C93.4838 72.5461 93.9033 72.0672 94.2376 71.5856C94.2534 71.2077 94.202 70.7827 94.0835 70.3105C93.9771 69.8086 93.8275 69.4976 93.6347 69.3772C92.991 69.0922 92.1344 69.2027 91.0649 69.7087C90.0367 70.1979 88.993 70.7678 87.9337 71.4182C87.7563 71.5145 87.4988 71.6804 87.1612 71.9157C86.8236 72.151 86.492 72.3715 86.1665 72.5772C85.8823 72.7662 85.6928 72.8922 85.5981 72.9552C85.462 73.0348 85.1476 73.2979 84.655 73.7444C84.2036 74.1742 83.7462 74.6189 83.2827 75.0783C82.8314 75.5081 82.5695 75.8119 82.4971 75.9897C82.4246 76.1676 82.3608 76.3667 82.3056 76.5871C82.2796 76.8204 82.3716 77.0186 82.5815 77.1815C82.7915 77.3444 83.2055 77.3878 83.8236 77.3116ZM104.583 90.9621C104.212 90.9382 103.96 90.879 103.826 90.7846C103.733 90.6735 103.516 90.3152 103.176 89.7097C103.116 89.2634 103.111 88.8939 103.161 88.6013C103.253 88.292 103.449 87.7669 103.751 87.026C103.991 86.6074 104.367 86.022 104.881 85.2699C105.424 84.5308 106.014 83.7602 106.651 82.958C107.289 82.1559 107.861 81.4297 108.368 80.7795C108.903 80.1423 109.284 79.7162 109.51 79.5013C110.004 78.8807 110.223 78.4704 110.167 78.2704C110.122 78.0408 109.819 77.7668 109.258 77.4484C108.148 76.7821 106.938 76.701 105.627 77.2051C104.317 77.7093 102.891 78.495 101.351 79.5623C100.203 80.3479 99.3921 81.1084 98.9198 81.8438C98.4889 82.5625 98.257 83.0895 98.2241 83.4247C98.2153 83.7007 98.3658 83.9247 98.6756 84.0969C98.9975 84.2394 99.3788 84.3207 99.8195 84.3409C100.29 84.3741 100.701 84.3814 101.054 84.3628C101.307 84.3349 101.604 84.3265 101.945 84.3375C102.327 84.3318 102.689 84.3344 103.03 84.3454C103.205 84.4232 103.298 84.5343 103.308 84.6787C103.36 84.8065 103.325 85.0186 103.205 85.3149C103.156 85.4335 103.158 85.5566 103.21 85.6844C103.261 85.8122 103.333 85.9316 103.426 86.0427C103.495 86.213 103.211 86.402 102.574 86.6097C101.966 86.8303 101.085 87 99.9314 87.1189C98.969 86.9377 98.2099 86.7241 97.654 86.4779C97.1273 86.2448 96.6937 85.8254 96.3532 85.2199C95.7391 84.3534 95.6029 83.3311 95.9445 82.1532C96.3275 80.9585 97.135 79.6544 98.3669 78.2409C99.4661 77.1535 100.521 76.3438 101.532 75.8119C102.555 75.2504 103.61 74.738 104.697 74.2747C104.862 74.2079 105.198 74.1467 105.704 74.091C106.252 74.0186 106.89 74.0211 107.618 74.0987C108.446 74.1855 109.194 74.3417 109.862 74.5674C110.53 74.7932 111.031 75.1727 111.367 75.7059C111.845 76.0576 112.188 76.1918 112.394 76.1084C112.613 75.9954 113.079 75.572 113.792 74.8384C114.981 73.6157 116.161 72.3717 117.333 71.1064C118.516 69.8114 119.75 68.5211 121.033 67.2354C121.555 66.8019 121.906 66.4499 122.085 66.1794C122.306 65.8923 122.499 65.7154 122.664 65.6486L123.498 66.0178C123.615 66.0697 123.778 66.2641 123.986 66.6011C124.194 66.9381 124.284 67.3103 124.256 67.7177C124.147 67.9845 123.789 68.5254 123.181 69.3404C122.585 70.1259 121.77 71.0244 120.736 72.0359C119.821 72.9252 118.9 73.8292 117.973 74.7481C117.088 75.6503 116.187 76.6331 115.27 77.6965C114.574 78.4727 113.98 79.084 113.487 79.5305C112.994 79.977 112.62 80.3883 112.363 80.7643C111.873 81.4571 111.37 82.0564 110.853 82.5622C110.378 83.0513 110.048 83.3949 109.864 83.5932C109.024 84.5509 108.343 85.3336 107.819 85.9412C107.308 86.5192 106.897 87.0194 106.586 87.4418C106.288 87.8345 106.028 88.2614 105.806 88.7227C105.625 89.1672 105.451 89.7201 105.285 90.3813C105.237 90.4998 105.174 90.6119 105.097 90.7175C105.019 90.8231 104.848 90.9046 104.583 90.9621ZM113.333 95.2032C112.873 94.72 112.473 94.1757 112.133 93.5702C111.804 92.9351 111.621 92.4517 111.584 92.1202C111.692 91.8535 111.809 91.6951 111.933 91.6451C112.069 91.5654 112.335 91.6311 112.733 91.8421C113.172 92.0364 113.85 92.4066 114.767 92.9526C115.119 93.1081 115.569 93.2727 116.12 93.4466C116.671 93.6205 117.19 93.7454 117.677 93.8212C118.194 93.9099 118.518 93.8783 118.648 93.7264C118.795 93.7912 118.842 93.7597 118.791 93.6319C118.751 93.4745 118.697 93.3106 118.628 93.1402C118.511 93.0884 118.398 92.9857 118.287 92.832C118.189 92.6487 118.082 92.5311 117.965 92.4793C118.025 92.3311 117.945 92.1033 117.725 91.796C117.546 91.4719 117.335 91.1859 117.09 90.9378C116.664 90.1193 116.301 89.399 116.002 88.7769C115.715 88.1251 115.66 87.751 115.837 87.6546C115.886 87.5361 115.91 87.4768 115.91 87.4768C115.922 87.4472 115.928 87.4323 115.928 87.4323C115.723 87.3417 115.61 86.9417 115.588 86.2324C115.595 85.536 115.695 84.9507 115.889 84.4766C116.033 84.1209 116.317 83.7217 116.739 83.279C117.173 82.8066 117.687 82.3517 118.279 81.9145C118.872 81.4772 119.437 81.1501 119.974 80.9333C120.706 80.6626 121.581 80.4207 122.601 80.2074C123.632 79.9644 124.619 79.7891 125.561 79.6813C126.544 79.5569 127.329 79.5372 127.916 79.6222C128.527 79.648 129.052 79.758 129.491 79.9523C129.959 80.1596 130.327 80.4447 130.593 80.8076C130.826 81.0853 130.998 81.4241 131.112 81.8241C131.267 82.2075 131.371 82.5862 131.426 82.9602C131.522 83.3176 131.557 83.613 131.531 83.8464C131.387 84.202 131.194 84.5891 130.955 85.0078C130.727 85.3968 130.489 85.7284 130.239 86.0025C130.018 86.2897 129.806 86.3879 129.601 86.2972C129.601 86.2972 129.551 86.2926 129.451 86.2834C129.392 86.2575 129.333 86.3186 129.273 86.4668C129.152 86.7631 128.794 87.0068 128.198 87.1977C127.485 87.3369 126.906 87.3602 126.46 87.2678C126.026 87.1457 125.844 86.8726 125.913 86.4484C125.873 86.291 125.857 86.1614 125.864 86.0595C125.871 85.9577 125.816 85.8808 125.699 85.829C125.699 85.829 125.673 85.7651 125.621 85.6374C125.57 85.5096 125.586 85.342 125.671 85.1345C125.719 85.016 125.805 84.9317 125.929 84.8816C126.065 84.802 126.133 84.7621 126.133 84.7621C126.28 84.8269 126.536 84.7481 126.903 84.5257C127.282 84.2737 127.638 83.994 127.97 83.6864C128.344 83.3622 128.561 83.126 128.622 82.9778C128.694 82.8 128.707 82.6833 128.66 82.6278C128.643 82.5852 128.518 82.5121 128.284 82.4084C127.801 82.4049 127.207 82.4218 126.502 82.459C125.796 82.4963 125.119 82.5465 124.472 82.6097C123.866 82.6562 123.397 82.7462 123.066 82.8796C122.865 83.0353 122.737 83.1362 122.684 83.1826C122.643 83.1992 122.564 83.1817 122.447 83.1299C122.495 83.0113 122.368 83.0252 122.067 83.1717C121.807 83.3014 121.452 83.4941 121.002 83.7498C120.582 84.0185 120.162 84.2872 119.742 84.5559C119.363 84.8079 119.079 84.9969 118.889 85.1229C118.806 85.1562 118.661 85.3016 118.452 85.5591C118.285 85.8 118.153 86.0389 118.057 86.276C117.795 86.5798 117.707 86.8382 117.793 87.0511C117.891 87.2345 118.104 87.6437 118.432 88.2788C119.143 89.5027 119.688 90.4962 120.068 91.2591C120.448 92.022 120.718 92.6312 120.878 93.0867C121.037 93.5423 121.092 93.9163 121.042 94.209C121.207 95.3312 121.09 96.0841 120.692 96.4676C120.294 96.8511 119.628 97.0458 118.693 97.0516C118.34 97.0703 117.809 96.9751 117.1 96.766C116.39 96.557 115.685 96.297 114.982 95.9861C114.268 95.7048 113.718 95.4439 113.333 95.2032Z" fill="black"/>
</svg>
